<svg viewBox="0 0 297 75" fill="none" xmlns="http://www.w3.org/2000/svg"><path d="M1.023 17.44a.75.75 0 1 1-.54-1.4l.54 1.4ZM51.12 1.496l-.08.746.08-.746Zm83.229 50.482.352.663-.352-.663Zm17.1-14.105.658.36-.658-.36Zm3.27-15.222-.095.744.095-.744Zm-3.363 1.102.689.296-.689-.296Zm4.728 15.582-.654.369-.013-.024-.012-.025.679-.32Zm21.534 20.497-.375.65.375-.65ZM295.631 55.2a.75.75 0 0 1 .432.97l-2.418 6.301a.75.75 0 0 1-1.401-.537l2.15-5.602-5.602-2.15a.75.75 0 1 1 .538-1.4l6.301 2.418ZM.483 16.04c3.986-1.536 7.834-3.389 11.707-5.282 3.864-1.89 7.757-3.822 11.792-5.49C32.067 1.925 40.77-.378 51.202.75l-.161 1.492C40.943 1.149 32.502 3.368 24.555 6.654c-3.982 1.646-7.827 3.554-11.706 5.451-3.871 1.893-7.773 3.773-11.826 5.335l-.54-1.4ZM51.203.75c9.462 1.025 17.36 5.888 24.37 12.236 7 6.337 13.191 14.228 19.19 21.356 6.033 7.168 11.855 13.545 18.183 17.066 3.149 1.751 6.403 2.783 9.858 2.858 3.453.075 7.153-.805 11.195-2.95l.703 1.325c-4.233 2.246-8.184 3.206-11.931 3.125-3.745-.081-7.237-1.202-10.554-3.047-6.603-3.673-12.587-10.264-18.602-17.412-6.049-7.188-12.147-14.96-19.048-21.209-6.89-6.237-14.501-10.88-23.526-11.856L51.202.75Zm82.796 50.566c7.645-4.057 13.268-7.336 16.792-13.802l1.317.718c-3.766 6.909-9.788 10.366-17.406 14.409l-.703-1.325Zm16.792-13.802c.331-.607 2.595-4.12 4.073-7.653.742-1.773 1.23-3.431 1.212-4.647-.009-.598-.139-1.01-.344-1.279-.19-.25-.512-.464-1.107-.54l.189-1.488c.908.115 1.63.487 2.111 1.12.468.614.639 1.382.651 2.165.023 1.544-.574 3.445-1.328 5.248-1.516 3.623-3.893 7.338-4.14 7.792l-1.317-.718Zm3.834-14.12c-.495-.062-1.112-.078-1.636.038-.529.118-.821.333-.943.617l-1.378-.592c.394-.918 1.244-1.322 1.996-1.49.758-.168 1.565-.134 2.15-.06l-.189 1.488Zm-2.579.655c-.303.706-.332 1.746-.095 3.068.234 1.3.706 2.767 1.287 4.256 1.167 2.989 2.711 5.915 3.525 7.643l-1.357.639c-.772-1.64-2.374-4.686-3.565-7.736-.598-1.531-1.108-3.1-1.366-4.537-.254-1.415-.285-2.811.193-3.925l1.378.592Zm4.692 14.918c5.342 9.47 13.707 15.848 21.257 20.216l-.751 1.298c-7.664-4.434-16.285-10.978-21.813-20.777l1.307-.737Zm21.257 20.216c35.493 20.534 70.861 16.608 117.063-3.968l.61 1.37c-46.405 20.667-82.333 24.776-118.424 3.896l.751-1.298Z" fill="url(#a)"/><defs><linearGradient id="a" x1="74" y1="-28.5" x2="7.5" y2="18" gradientUnits="userSpaceOnUse"><stop stop-color="#FC5B31"/><stop offset="1" stop-color="#FC5B31" stop-opacity="0"/></linearGradient></defs></svg>