<svg width="24" height="25" fill="none" xmlns="http://www.w3.org/2000/svg"><path d="M14.241 12.506c3.726 0 6.746-1.342 6.746-2.998 0-1.656-3.02-2.998-6.746-2.998-3.725 0-6.745 1.342-6.745 2.998 0 1.656 3.02 2.998 6.745 2.998Z" stroke="#FC5B31" stroke-width="2" stroke-linecap="round" stroke-linejoin="round"/><path d="M7.496 9.508v8.994c0 1.65 2.998 2.998 6.745 2.998 3.748 0 6.746-1.349 6.746-2.998V9.508" stroke="#FC5B31" stroke-width="2" stroke-linecap="round" stroke-linejoin="round"/><path d="M20.987 14.005c0 1.65-2.998 2.998-6.746 2.998-3.747 0-6.745-1.349-6.745-2.998m6.595-10.493a10.148 10.148 0 0 0-5.846-1.499c-3.732 0-6.745 1.35-6.745 2.998 0 .885.87 1.679 2.249 2.249" stroke="#FC5B31" stroke-width="2" stroke-linecap="round" stroke-linejoin="round"/><path d="M3.749 16.254c-1.38-.57-2.249-1.364-2.249-2.249V5.011" stroke="#FC5B31" stroke-width="2" stroke-linecap="round" stroke-linejoin="round"/><path d="M3.749 11.757c-1.38-.57-2.249-1.364-2.249-2.249" stroke="#FC5B31" stroke-width="2" stroke-linecap="round" stroke-linejoin="round"/></svg>