<svg width="44" height="44" fill="none" xmlns="http://www.w3.org/2000/svg"><path d="M34.778 13.99a.941.941 0 0 0-.42-.324l-12-4.59a.89.89 0 0 0-.72 0L9.64 13.747a.938.938 0 0 0-.42.243.977.977 0 0 0-.22.607v14.802a1.007 1.007 0 0 0 .639.93l12 4.671h.72l11.999-4.671a1.018 1.018 0 0 0 .64-.93V14.677a.977.977 0 0 0-.22-.687v0ZM22 34.888v-15.92m0 0v15.92" stroke="#0E1C15" stroke-width="2" stroke-linecap="round" stroke-linejoin="round"/><path d="m9.219 14.048 12.78 4.92 12.78-4.92" stroke="#0E1C15" stroke-width="2" stroke-linecap="round" stroke-linejoin="round"/></svg>