<svg width="44" height="44" fill="none" xmlns="http://www.w3.org/2000/svg"><path d="M14.291 5.5h2.3l1.081.203.812.338.743.541.474.473.473.744.338.812.136.608 2.57.068.743.27.609.474.54.744.271.743v.609l-.203.609-.54.608-.677.406-1.15.338-.473.068h-1.15v1.352l-.27 1.623-.406 1.217-.473.88-.406.473.135.27 1.218 1.218 1.15.27.134.068v-3.922l.203-.203H38.23l.27.27v15.012l-.203.339-.067.067h-4.058l-.067.676-.339.677-.473.405-.811.339-.339.067-5.41.068-1.42.203h-.338v2.57l-.203.337-.067.068h-.609l-.27-.27v-2.367l-3.855 1.352-2.096.676-1.893.474-1.015.135h-.608l-.812-.135-.811-.338-.677-.406-.879-.744-.203-.27-.067 1.42-.203.338-.27.135-.474-.068-.203-.27v-3.314h-.54l-.812-.203-.27-.338L5.5 29.033v-.88l.338-.946.609-1.082.744-.947.743-.811 2.097-2.097-.203-.473.067-.473 2.03-2.029-.339-.609-.54-1.081-.136-.203-.676-.27-.677-.61-.27-.676v-1.284l.27-.677.068-.27-.27-.406-.068-.203V9.084l.203-.744.405-.811.542-.609.676-.473.811-.406 1.082-.338 1.285-.203Zm2.029 1.15-.812.202-.54.271-.61.54-.405.677-.27.88-.136.878-.203.203h-.608l-.136-.135v-1.15l.338-1.15.541-.878.068-.136-.54.068-.948.338-.743.474-.541.608-.27.609-.136.879v2.705l.135.338.135.135.27.068h1.083l.811-.406.676-.676.677-.947.811-.811.88-.541.676-.27.27-.068 2.637-.068-.067-.473-.406-.812-.406-.473-.811-.541-.88-.27-.54-.068Zm1.082 3.719-.812.203-.676.405-.676.61-.609.675-.54.744v.068h2.772l.811-.406.676-.676.609-.812.744-.743v-.068h-2.3Zm4.666.068-.744.27-.541.338.27 1.42.136.609 1.081-.068 1.082-.27.677-.406.203-.338-.068-.474-.473-.676-.677-.405h-.946Zm-2.3 1.487-.608.812-.609.676-.608.406-.609.27-6.424.068-.27.135-.204.406v.946l.271.406.338.203.812.203.202.473.474 1.082.608.812.609.54.744.406.811.27h1.353l1.082-.337.744-.474.54-.608.474-.812.338-1.014.203-1.014.068-.88-.068-1.825-.203-1.15h-.068Zm8.994 6.56v2.84l.406-.136.947-.473h.54l1.218.609h.135v-2.84h-3.246Zm-5.41 0v12.375l.744-.136 1.15-.27h4.869l.54.27.406.474.203.811h6.154V18.484H33.09l-.068 4.057-.135.203h-.54l-1.759-.88-.406.068-1.758.88h-.406l-.27-.271-.068-4.057h-4.328Zm-10.82 1.893-1.284 1.285.135.27.947.744.947.812.27.135.744-.947.609-.811-.338-.27-1.826-1.218h-.203Zm6.29.473-.203.541v.339l.744.946.135.068.406-.744-.068-.27-.879-.88h-.135Zm-1.42.136-.677.135-.676.068.27.473.474 1.15.203-.203.54-1.488v-.135h-.134Zm3.448 1.42-.676 1.285-.27.54-.136.136h-.608l-.609-.744-.473-.676h-.135l-.677 1.758-.338.203-.54-.068-.136-.406-.676-1.555-.338.338-.88 1.082-.405.541-.135.068h-.541l-.744-.609-.947-.811-.54-.406-.271.135-2.705 2.705-.88 1.217-.473 1.015-.067.608.743 1.488.744 1.555.744 1.488.203.406.135.067h1.285l.88-.27.743-.541.473-.609.338-.743-.54-.947-1.015-1.69.068-.542.203-.135h.54l.271.338 1.014 1.758 1.083 1.826.405.473.609.339.27.067h.947l3.178-1.082 2.097-.676.067-.068v-8.52l-1.217-.338h-.068Zm5.005 9.061-1.082.203-2.03.609-2.434.811-2.772.947-.541.135h-1.15l-.879-.27-.608-.406-.609-.609-.27.27-.474.542-.54.473-.812.406-.541.203.135.338.609.744.676.676.811.54.744.271.609.068 1.082-.135 1.623-.406 3.313-1.082 3.314-1.15 1.555-.338 1.217-.135h4.666l.812-.135.405-.203.27-.27.069-.406-4.126-.068-.473-.068-.135-.135v-.676l.135-.135 1.69-.068-.067-.27-.203-.203-.203-.068h-3.786Z" fill="#0E1C15" stroke="#0E1C15" stroke-width=".6"/></svg>