<svg width="44" height="44" fill="none" xmlns="http://www.w3.org/2000/svg"><mask id="a" maskUnits="userSpaceOnUse" x="5" y="12" width="31" height="21" fill="#000"><path fill="#fff" d="M5 12h31v21H5z"/><path d="M7.303 13h21.07l.453.113.453.284.453.51.623.792.737.906.623.793.736.907.623.793.736.906.624.793.453.623.113.283v7.76l-.227.453-.51.453-.282.113H31.6l-.113.567-.396.736-.567.567-.566.34-.51.17-.283.056h-.906l-.793-.227-.623-.396-.453-.453-.397-.68-.17-.68h-11.61l-.17.68-.396.68-.454.453-.623.396-.793.227h-.906l-.623-.17-.566-.283-.567-.51-.34-.453-.283-.623-.056-.397H7.02l-.454-.226-.396-.397-.17-.396V14.076l.227-.453.283-.283.34-.227.453-.113Zm.113 1.02-.283.17-.113.113v13.933l.226.227h1.19l.283-.793.396-.567.453-.453.793-.396.454-.113h1.019l.736.226.623.397.397.396.396.68.17.566.057.057h11.611l.17-.453.283-.623.057-11.725.227-.396.34-.227 2.265-.057-.113-.226-.51-.623-.283-.113H7.416Zm19.88 1.982v4.248h6.118l-.34-.453-.623-.793-.736-.906-.623-.793-.736-.907-.284-.396h-2.775Zm0 5.268v5.154l.907-.283h1.02l.736.226.566.34.51.51.453.906.114.34h2.152l.227-.227v-1.642l-1.247-.057-.34-.226-.17-.17-.113-.34v-1.303l.17-.453.284-.227.283-.113 1.133-.057V21.27h-6.684Zm5.778 3.398v.906h.907v-.906h-.907Zm-22.146 2.436-.68.283-.51.51-.226.453-.114.396v.453l.227.736.51.567.453.283.396.113h.68l.51-.17.453-.34.34-.396.226-.566v-.85l-.226-.566-.51-.567-.566-.283-.227-.056h-.736Zm17.445 0-.623.226-.566.51-.34.68-.057.566.113.566.34.567.51.453.623.226h.68l.623-.226.566-.51.34-.68.057-.283v-.396l-.17-.623-.34-.453-.453-.397-.623-.226h-.68Z"/></mask><path d="M7.303 13h21.07l.453.113.453.284.453.51.623.792.737.906.623.793.736.907.623.793.736.906.624.793.453.623.113.283v7.76l-.227.453-.51.453-.282.113H31.6l-.113.567-.396.736-.567.567-.566.34-.51.17-.283.056h-.906l-.793-.227-.623-.396-.453-.453-.397-.68-.17-.68h-11.61l-.17.68-.396.68-.454.453-.623.396-.793.227h-.906l-.623-.17-.566-.283-.567-.51-.34-.453-.283-.623-.056-.397H7.02l-.454-.226-.396-.397-.17-.396V14.076l.227-.453.283-.283.34-.227.453-.113Zm.113 1.02-.283.17-.113.113v13.933l.226.227h1.19l.283-.793.396-.567.453-.453.793-.396.454-.113h1.019l.736.226.623.397.397.396.396.68.17.566.057.057h11.611l.17-.453.283-.623.057-11.725.227-.396.34-.227 2.265-.057-.113-.226-.51-.623-.283-.113H7.416Zm19.88 1.982v4.248h6.118l-.34-.453-.623-.793-.736-.906-.623-.793-.736-.907-.284-.396h-2.775Zm0 5.268v5.154l.907-.283h1.02l.736.226.566.34.51.51.453.906.114.34h2.152l.227-.227v-1.642l-1.247-.057-.34-.226-.17-.17-.113-.34v-1.303l.17-.453.284-.227.283-.113 1.133-.057V21.27h-6.684Zm5.778 3.398v.906h.907v-.906h-.907Zm-22.146 2.436-.68.283-.51.51-.226.453-.114.396v.453l.227.736.51.567.453.283.396.113h.68l.51-.17.453-.34.34-.396.226-.566v-.85l-.226-.566-.51-.567-.566-.283-.227-.056h-.736Zm17.445 0-.623.226-.566.51-.34.68-.057.566.113.566.34.567.51.453.623.226h.68l.623-.226.566-.51.34-.68.057-.283v-.396l-.17-.623-.34-.453-.453-.397-.623-.226h-.68Z" fill="#0E1C15"/><path d="M7.303 13h21.07l.453.113.453.284.453.51.623.792.737.906.623.793.736.907.623.793.736.906.624.793.453.623.113.283v7.76l-.227.453-.51.453-.282.113H31.6l-.113.567-.396.736-.567.567-.566.34-.51.17-.283.056h-.906l-.793-.227-.623-.396-.453-.453-.397-.68-.17-.68h-11.61l-.17.68-.396.68-.454.453-.623.396-.793.227h-.906l-.623-.17-.566-.283-.567-.51-.34-.453-.283-.623-.056-.397H7.02l-.454-.226-.396-.397-.17-.396V14.076l.227-.453.283-.283.34-.227.453-.113Zm.113 1.02-.283.17-.113.113v13.933l.226.227h1.19l.283-.793.396-.567.453-.453.793-.396.454-.113h1.019l.736.226.623.397.397.396.396.68.17.566.057.057h11.611l.17-.453.283-.623.057-11.725.227-.396.34-.227 2.265-.057-.113-.226-.51-.623-.283-.113H7.416Zm19.88 1.982v4.248h6.118l-.34-.453-.623-.793-.736-.906-.623-.793-.736-.907-.284-.396h-2.775Zm0 5.268v5.154l.907-.283h1.02l.736.226.566.34.51.51.453.906.114.34h2.152l.227-.227v-1.642l-1.247-.057-.34-.226-.17-.17-.113-.34v-1.303l.17-.453.284-.227.283-.113 1.133-.057V21.27h-6.684Zm5.778 3.398v.906h.907v-.906h-.907Zm-22.146 2.436-.68.283-.51.51-.226.453-.114.396v.453l.227.736.51.567.453.283.396.113h.68l.51-.17.453-.34.34-.396.226-.566v-.85l-.226-.566-.51-.567-.566-.283-.227-.056h-.736Zm17.445 0-.623.226-.566.51-.34.68-.057.566.113.566.34.567.51.453.623.226h.68l.623-.226.566-.51.34-.68.057-.283v-.396l-.17-.623-.34-.453-.453-.397-.623-.226h-.68Z" stroke="#0E1C15" stroke-width=".4" mask="url(#a)"/><path d="M12.342 15.845h-.016l-.016.005-.17.057-.013.004-.01.008-.34.226-.011.008-.01.01-.396.453-.014.016-.006.02-.17.567-.004.014v6.147l.004.014.17.566.006.021.014.016.397.454.013.014.017.01.567.282.02.011h9.443l.015-.005.17-.057.007-.002.006-.003.453-.227.02-.01.013-.015.283-.34.009-.01.005-.014.227-.51.009-.019V17.06l-.007-.017-.17-.453-.006-.017-.011-.013-.34-.397-.013-.015-.018-.009-.567-.283-.021-.01h-9.539Zm1.063 1.22h7.418l-.054.054-.564.508h-.001l-.736.68-.566.51H18.9l-.735.679-.453.396-.004.004-.373.373-.322.046-.473-.368-.563-.507-.68-.623-.567-.51-.735-.68-.002-.001-.448-.391-.141-.17Zm-.563 5.319-.005.004-.384.385-.068.034v-5.045l.456.41.68.622v.001l.566.51.949.892.071.143-.51.459-.566.51h-.001l-.736.68-.452.395Zm8.972-4.566v4.98l-.343-.3-.679-.623-.566-.509-.736-.68-.002-.002-.42-.366v-.021l.305-.253.003-.003.68-.623.566-.51.736-.68.456-.41Zm-.991 5.73h-7.44l.498-.448h.001l.679-.623.566-.51.002-.002.902-.848.159.12.01.007.013.005.566.227.018.007h.6l.013-.004.397-.113.015-.005.013-.008.296-.198.217.087.666.61v.001l.736.68.003.001.45.395.508.507.112.112Zm7.663-1.416h-.041l-.03.03-.283.283-.029.03v.466l.017.026.113.17.015.022.024.012.34.17.02.01h1.113l.012-.003.226-.057.033-.008.021-.026.227-.283.021-.028v-.472l-.029-.03-.283-.282-.03-.03h-1.457Zm.198 6.235-.03-.009-.03.01-.17.057-.022.007-.016.017-.284.283-.029.03v.479l.03.029.283.283.029.03h.536l.03-.03.282-.283.03-.03v-.471l-.02-.026-.17-.227-.02-.027-.033-.009-.396-.113Zm-17.391 0-.026-.008-.026.007-.226.056-.033.009-.021.026-.227.283-.021.028v.472l.029.029.283.283.03.03h.527l.027-.02.226-.17.034-.026.006-.042.056-.453.005-.035-.018-.03-.17-.282-.02-.034-.038-.011-.397-.113Z" fill="#0E1C15" stroke="#0E1C15" stroke-width=".2"/></svg>