<svg width="24" height="24" fill="none" xmlns="http://www.w3.org/2000/svg"><path d="M11.451 1h.83l.489.19.39.285.489.618.635.855.635.855.683.903.44.57.635.523.683.523.538.427.097.238v.38l-.537 1.283.293.095.293.333.147.427.635 3.422.341.807.928 2.043.928 2.044.83 1.853.147.618v.522l-.146.618-.245.475-.39.475-.489.333-.586.238-.195.047H18.63l-2.637-.142-1.27-.143-1.172-.238-1.611-.522-.928-.428-.196.047-.732.333-.586.143-.44.047-.488.285-.537.19-.342.048H4.907l-.488-.19-.293-.333-.098-.38-.488-.142-.88-.38-.78-.476-.49-.427-.243-.428-.098-.285-.049-.38.098-.618.293-.523.293-.332.488-.285.293-.095 3.712-.048-.489-.855-.488-1.14-.293-.998-.195-.998-.44-.57-.244-.523-.147-.713v-.428l.098-.57.244-.57.342-.523.39-.38.636-.475.879-.665.879-.665.049-.048V5.8l-.44-.475-.146-.333v-.475l.244-.427.293-.38v-.476l.146-.332.245-.19 1.465-.523 1.074-.38h.098l.097-.19.196-.238.488-.285.293-.095Zm.147.808-.342.19-.244.285-.88 1.806-.634 1.33-.684 1.425-.342.523-.537.475-.782.57-.048.048v1.71l.195.523.342.333.39.19.342.048h.928l.245-.856.341-1.283.342-.57.244-.713.098-.475.049-1.14.293-.523.928-1.52.146-.095h.391l2.149 2.09.684.903.39.475.88.665.195.095.244-.522.195-.475-.049-.19-.781-.618-.684-.523-.244-.19-.488-.665-.635-.855-.684-.903-.635-.855-.342-.428-.293-.238-.146-.047h-.537ZM9.644 2.9l-1.367.475-.05.047v.428l-.439.665-.146.19.049.19.44.475.097.143.049.523.146-.19.684-1.426.684-1.425V2.9h-.147Zm2.589 2.185-.83 1.33-.05.999-.146.76-.293.76-.342.618-.293 1.14v.19h.684l.586-.095.44-.19.488-.332.342-.476.195-.427.049-.19v-.808l-.098-.333v-.855l.244-.57.245-.285-.098-.19-1.075-1.046h-.048ZM13.99 6.94l-.245.38v.57l.098.332v1.046l-.146.522-.342.666-.489.522-.537.333-.44.19-.39.095-1.465.048-.44 1.758v.332l.147.428.684.903.976.237.782.333.586.428.293.237.488.618.489.855.488.19 2.93.95.147-.047-.293-.665-.293-.855-.245-1.093-.146-1.14-.147-1.331-.683-.475-.293-.333-.147-.332-.049-.238v-.38l.147-.475.39-.76.196-.713.049-.666.146-.38-.879-.665-.39-.285-.684-.903-.196-.237h-.097ZM6.226 9.125l-.684.523-.244.19-.342.475-.196.523-.048.57.097.475.342.665.342.428.098.475 1.123-.19 2.198-.428.195-.807-1.172-.048-.537-.19-.44-.285-.342-.428-.244-.57-.049-.285-.049-1.093h-.048Zm10.744.285-.098.143-.098.855-.244.808-.44.903.05.38.195.237.586.38 1.026-.237-.098-.665L17.36 9.6l-.146-.19h-.244Zm-8.4 4.277-2.735.523-.049.142.293.903.39.855.391.713.196.285.195-.047.88-.618.927-.666.537-.38-.097-.237-.391-.523-.195-.38-.147-.57H8.57Zm9.523-.048-.781.19.048.76.196 1.569.244 1.045.342.95.586 1.188.049.095v.38l-.147.143h-.44l-4.688-1.52-.244-.38-.44-.809-.537-.57-.537-.38-.635-.285-.635-.142-.244.047-.928.665-.879.618-.781.57.098.238.78.808.538.475.83.617.733.476 1.074.57 1.221.475 1.172.333 1.026.19.928.095 2.588.142h1.172l.44-.142.39-.285.294-.333.195-.428.049-.237v-.428l-.147-.475-.781-1.71-.88-1.949-.927-2.043-.244-.523h-.098ZM2.905 18.106l-.44.095-.39.332-.196.38v.57l.293.428.733.476.928.427.44.143.292-.428.39-.285.538-.19 1.612-.047.879-.096h.537l-.244-.237-.977-.95-.44-.523-.097-.095H2.905Zm6.495 2.47.098.618.39-.095.147-.047-.049-.143-.537-.332H9.4Zm-1.367.096-.83.095-1.563.047-.342.143-.245.237-.195.333.049.19.098.095h2.637l.44-.095.439-.285.146-.19-.048-.333-.196-.19-.097-.047h-.293Z" fill="#0E1C15" stroke="#0E1C15" stroke-width=".4"/></svg>