<svg width="16" height="20" fill="none" xmlns="http://www.w3.org/2000/svg"><path d="M13.741 7.773c2.545 3.9.598 8.366-.344 10.109a1.902 1.902 0 0 1-.543.609c-.22.158-.469.261-.73.303-1.845.346-6.44.733-8.908-3.167C.785 11.95.886 5.477 1.103 2.393a1.55 1.55 0 0 1 .171-.654c.104-.2.25-.37.427-.498a1.238 1.238 0 0 1 1.21-.148c2.736.858 8.437 3.001 10.83 6.68Z" stroke="#0E1C15" stroke-width="1.6" stroke-linecap="round" stroke-linejoin="round"/><path d="M5 6a72.804 72.804 0 0 1 7.636 12.072Z" fill="#FDFDFD"/><path d="M5 6a72.804 72.804 0 0 1 7.636 12.072" stroke="#0E1C15" stroke-width="1.6" stroke-linecap="round" stroke-linejoin="round"/></svg>