<svg width="32" height="32" fill="none" xmlns="http://www.w3.org/2000/svg"><path d="M18.988 16.006c4.968 0 8.994-1.79 8.994-3.997 0-2.208-4.026-3.997-8.994-3.997-4.967 0-8.993 1.79-8.993 3.997 0 2.208 4.026 3.997 8.993 3.997Z" stroke="#0E1C15" stroke-width="2" stroke-linecap="round" stroke-linejoin="round"/><path d="M9.994 12.008V24c0 2.198 3.998 3.997 8.994 3.997 4.997 0 8.994-1.799 8.994-3.997V12.008" stroke="#0E1C15" stroke-width="2" stroke-linecap="round" stroke-linejoin="round"/><path d="M27.982 18.004c0 2.198-3.997 3.997-8.994 3.997-4.996 0-8.994-1.799-8.994-3.997m8.795-13.988a13.53 13.53 0 0 0-7.795-1.998C6.017 2.018 2 3.816 2 6.015c0 1.18 1.16 2.238 2.998 2.998" stroke="#0E1C15" stroke-width="2" stroke-linecap="round" stroke-linejoin="round"/><path d="M4.998 21.006C3.159 20.245 2 19.186 2 18.008V6.015" stroke="#0E1C15" stroke-width="2" stroke-linecap="round" stroke-linejoin="round"/><path d="M4.998 15.01C3.159 14.25 2 13.19 2 12.012" stroke="#0E1C15" stroke-width="2" stroke-linecap="round" stroke-linejoin="round"/></svg>