<svg width="216" height="216" fill="none" xmlns="http://www.w3.org/2000/svg"><path fill-rule="evenodd" clip-rule="evenodd" d="M166.9 198.54C149.96 209.583 129.73 216 108 216 48.353 216 0 167.647 0 108S48.353 0 108 0s108 48.353 108 108c0 23.49-7.499 45.229-20.235 62.953-3.668-4.33-9.146-7.078-15.265-7.078-11.046 0-20 8.954-20 20a19.95 19.95 0 0 0 6.4 14.665Z" fill="#FDFDFD"/><path d="m162.597 161.386-32.264-18.797V127.06a51.303 51.303 0 0 0 9.917-19.578c1.11.399 2.279.604 3.458.607 4 0 6.544-12.55 6.973-21.515 4.658-9.977-1.687-15.819-1.687-15.819s2.63-2.66 4.373-13.331c1.743-10.671-6.144-6.218-12.289-15.992-6.144-9.775-10.545-20.417-30.72-20.417a27.473 27.473 0 0 0-15.745 4.339 27.963 27.963 0 0 0-10.604 12.55 66.005 66.005 0 0 0-14.917 1.764c-6.173 1.764-7.916 22.21-2.658 30.22a30.736 30.736 0 0 1 3.658 14.256c-1.4-1.735-2.858-2.197-3.658 1.736-1.743 8.878 5.287 21.313 5.287 21.313l3.63-1.041a52.298 52.298 0 0 0 10.316 20.908v15.529l-32.264 18.797a24.96 24.96 0 0 0-9.075 9.179A25.332 25.332 0 0 0 41 183.104v9.6c19.189 15 42.752 23.296 67 23.296 24.248 0 47-9.5 58.5-17.5-1.502-.622-6.5-6-6-16s8-14.5 8.5-15-2.631-3.917-6.403-6.114Z" fill="#12231A" fill-opacity=".3"/></svg>