<svg width="32" height="32" fill="none" xmlns="http://www.w3.org/2000/svg"><g clip-path="url(#a)" stroke="#0E1C15" stroke-width="2" stroke-linecap="round" stroke-linejoin="round"><path d="M26.795 8.606a.87.87 0 0 0-.388-.299L15.331 4.07a.823.823 0 0 0-.664 0L3.59 8.382a.865.865 0 0 0-.388.224.902.902 0 0 0-.203.56v13.663a.94.94 0 0 0 .165.521.93.93 0 0 0 .426.338L14.667 28h.664l11.076-4.312a.925.925 0 0 0 .426-.338.94.94 0 0 0 .165-.52V9.24a.903.903 0 0 0-.203-.634v0ZM15 27.898V13.203m0 0v14.695"/><path d="m3.202 8.66 11.797 4.542L26.796 8.66"/></g><defs><clipPath id="a"><path fill="#fff" d="M0 0h32v32H0z"/></clipPath></defs></svg>