<svg width="32" height="32" fill="none" xmlns="http://www.w3.org/2000/svg"><path d="M5 10.078h21m-18.374 0h15.75v15.23c0 .45-.184.88-.512 1.198a1.78 1.78 0 0 1-1.238.495H9.376a1.78 1.78 0 0 1-1.237-.495 1.664 1.664 0 0 1-.513-1.197v-15.23Zm3.498-.001V9.23c0-1.122.461-2.198 1.282-2.992A4.452 4.452 0 0 1 15.499 5c1.16 0 2.273.446 3.094 1.24a4.161 4.161 0 0 1 1.281 2.99v.847m-6.999 3.383v9.309m5.249-9.309v9.309" stroke="#848C88" stroke-width="2" stroke-linecap="round" stroke-linejoin="round"/></svg>