<svg width="18" height="17" fill="none" xmlns="http://www.w3.org/2000/svg"><path d="M5.574 8.552C6.29 9.94 7.488 11.06 8.97 11.729a.737.737 0 0 0 .688-.05l2.178-1.363a.718.718 0 0 1 .662-.058l4.077 1.642c.14.054.256.15.331.273a.612.612 0 0 1 .087.405 3.852 3.852 0 0 1-1.384 2.444 4.346 4.346 0 0 1-2.762.978c-3.143 0-6.156-1.17-8.378-3.253C2.248 10.664 1 7.839 1 4.893c0-.953.37-1.874 1.043-2.59A4.273 4.273 0 0 1 4.65 1.005c.15-.018.302.01.432.082.131.07.233.18.291.31l1.751 3.83a.617.617 0 0 1-.052.613L5.617 7.915a.626.626 0 0 0-.043.637v0Z" stroke="#0E1C15" stroke-width="1.5" stroke-linecap="round" stroke-linejoin="round"/></svg>