<svg width="26" height="36" viewBox="0 0 26 36" fill="none" xmlns="http://www.w3.org/2000/svg">
<path fill-rule="evenodd" clip-rule="evenodd" d="M13 35.875C13 35.875 25.375 19.3475 25.375 12.5C25.375 9.21795 24.0712 6.07032 21.7504 3.74955C19.4297 1.42879 16.2821 0.125 13 0.125C9.71795 0.125 6.57032 1.42879 4.24955 3.74955C1.92879 6.07032 0.625 9.21795 0.625 12.5C0.625 19.3475 13 35.875 13 35.875ZM17.125 12.5C17.125 14.7782 15.2782 16.625 13 16.625C10.7219 16.625 8.87504 14.7782 8.87504 12.5C8.87504 10.2218 10.7219 8.375 13 8.375C15.2782 8.375 17.125 10.2218 17.125 12.5Z" fill="#FC5B31"/>
</svg>
