<svg width="30" height="38" fill="none" xmlns="http://www.w3.org/2000/svg"><g clip-path="url(#a)"><path fill-rule="evenodd" clip-rule="evenodd" d="M-38.334 3c.135 0 .416.159.612.367s.685.6 1.076.856c.38.27.734.477.783.477.061 0 .539.282 1.077.637.538.342 1.223.856 1.529 1.137.306.282.636.685.734.906.171.379.208.391.918.391.489 0 .954.086 1.407.27.367.158 1.333.684 2.14 1.161.808.49 1.517.881 1.59.881.074 0 .417.123.771.27.38.17.649.354.637.464 0 .098-.086.673-.184 1.285-.098.6-.147 1.37-.11 1.713.037.33.012 1.162-.061 1.835-.061.673-.208 1.419-.318 1.651a4.16 4.16 0 0 1-.367.673c-.16.22-.135.294.196.795.195.306.415.808.477 1.126.073.33.122 1.394.11 2.385 0 1.003.06 2.202.134 2.667.074.465.123.905.086.979-.025.073-.453.269-.954.465-.502.183-1.236.526-1.64.77-.403.245-1.015.6-1.345.784a9.871 9.871 0 0 1-1.468.599c-.477.147-1.065.257-1.322.257-.318 0-.477.061-.538.208a5.41 5.41 0 0 1-.355.648c-.159.233-.55.624-.868.869-.318.244-1.138.746-1.81 1.1-.674.368-1.53.906-1.897 1.212-.367.306-.77.624-.893.71-.171.122-.318.048-.979-.514-.416-.367-1.223-.918-1.798-1.236a19.612 19.612 0 0 1-1.713-1.076c-.367-.282-.807-.673-.979-.87a6.623 6.623 0 0 1-.526-.709c-.159-.269-.269-.33-.513-.281-.172.037-.6 0-.955-.061-.342-.074-1.027-.33-1.492-.575a14.503 14.503 0 0 1-1.346-.77c-.269-.184-.77-.478-1.1-.637a11.766 11.766 0 0 0-1.285-.526c-.367-.122-.71-.245-.759-.294-.049-.036 0-.403.086-.807.098-.404.183-1.334.183-2.08s.061-1.847.135-2.447c.085-.831.208-1.26.844-2.385l-.294-.343c-.159-.183-.379-.636-.489-1.003-.16-.514-.196-1.138-.184-2.691.013-1.138-.036-2.264-.11-2.57-.085-.305-.147-.672-.147-.831 0-.171.098-.306.27-.38.159-.06.611-.244 1.015-.39.404-.16 1.089-.503 1.53-.772.44-.257 1.21-.673 1.712-.905.66-.306 1.15-.44 1.774-.49.795-.06.869-.097 1.04-.427a4.07 4.07 0 0 1 .55-.796c.208-.244.869-.758 1.468-1.15.6-.391 1.138-.71 1.187-.71.061 0 .465-.244.917-.537.465-.294 1.004-.698 1.2-.906.195-.208.477-.379.611-.379Zm50.366 1.456c.086.012.33.244.538.526.196.281.588.624.857.746.257.135.685.38.942.55.403.27.501.294.673.16.122-.086.55-.318.978-.514a3.824 3.824 0 0 0 1.224-.918c.244-.306.526-.562.611-.55.074 0 .208.293.294.636.098.453.33.869.734 1.382.318.404.636.808.71.881.06.086.22.135.342.098.11-.024.587-.086 1.064-.122.6-.037 1.053-.16 1.493-.404.355-.183.685-.281.734-.232.061.06.085.477.061.917-.037.612.024 1.04.245 1.676.159.465.342.893.403.942.062.049.233.098.367.098.135 0 .49.11.796.257.428.208.721.244 1.37.22.44-.024.856-.012.917.037.05.049-.049.342-.232.648-.257.416-.38.82-.477 1.676-.135 1.126-.135 1.138.147 1.346.159.11.538.428.844.71.306.28.721.55.917.611.196.05.514.135.71.171.183.037.33.147.33.22-.012.086-.269.368-.587.612-.392.318-.722.747-1.064 1.383-.416.783-.465.966-.33 1.137.085.11.317.55.513.967.257.55.526.88.918 1.162.293.22.538.477.55.55 0 .086-.208.209-.452.282-.257.061-.527.122-.588.122-.06.012-.55.318-1.994 1.407l.061 1.04c.05.832.135 1.187.416 1.737.196.392.355.759.355.832 0 .074-.294.098-.758.049-.612-.061-.991-.012-1.811.232-1.003.294-1.04.319-1.113.71-.037.232-.16.6-.27.807-.146.282-.207.71-.207 2.484l-.698-.355c-.477-.245-1.04-.404-2.728-.624l-.514.575a7.77 7.77 0 0 0-.795.979 2.91 2.91 0 0 0-.403.954c-.098.428-.172.55-.368.55-.134 0-.244-.048-.244-.122 0-.073-.245-.367-.55-.673-.307-.305-.674-.587-.82-.623-.16-.05-.478-.209-1.138-.661l-.979.514c-.538.281-1.076.624-1.211.758-.122.147-.33.38-.453.526-.122.16-.305.257-.379.245-.085-.025-.22-.294-.306-.587a3.019 3.019 0 0 0-.428-.918c-.159-.22-.477-.648-.71-.966-.33-.44-.489-.55-.672-.49-.135.037-.624.098-1.101.135-.624.049-1.028.159-1.493.428-.367.196-.673.306-.71.233-.036-.074-.024-.416.013-.771.061-.502 0-.857-.281-1.713-.319-.979-.368-1.076-.71-1.15-.196-.037-.612-.183-.918-.318-.452-.196-.697-.232-1.43-.159-.49.037-.894.037-.894-.024 0-.05.16-.392.367-.759.232-.428.367-.856.367-1.162 0-.27.061-.697.122-.954.123-.453.123-.453-.636-1.187-.611-.575-.942-.783-1.602-1.003-.453-.16-.82-.355-.82-.44 0-.074.061-.147.122-.147s.355-.208.649-.477c.281-.257.587-.649.685-.881a4.9 4.9 0 0 1 .477-.844c.245-.343.281-.465.171-.612-.085-.098-.33-.538-.55-.967a4.174 4.174 0 0 0-.967-1.284c-.452-.404-.55-.538-.428-.66.086-.086.232-.16.33-.148.098 0 .355-.06.575-.146.208-.086.747-.44 1.97-1.383l-.061-1.1c-.05-.894-.135-1.236-.416-1.811-.196-.38-.318-.722-.257-.747.049-.036.416-.024.82.013.575.06.893.024 1.468-.184.403-.134.831-.269.954-.293.159-.025.33-.355.587-1.077.306-.869.355-1.162.294-1.81-.05-.563-.025-.76.098-.76.073 0 .391.135.697.294.367.196.905.343 1.59.429.575.073 1.077.085 1.114.036.048-.049.39-.44.77-.88s.722-.967.77-1.163c.038-.195.111-.489.172-.648.061-.147.171-.27.257-.27Zm48.421 4.698c.832.024 1.358.122 1.835.305.367.16 1.077.514 1.566.82.477.294.88.612.88.685 0 .098-.28.184-.758.245-.428.049-1.21.232-1.75.404-.537.183-1.37.587-1.834.88-.465.306-1.187.893-1.59 1.31-.404.403-1.2 1.406-1.774 2.201-.575.796-1.273 1.652-1.542 1.897-.281.244-.844.648-2.006 1.358l1.003.66c.563.355 1.236.918 1.517 1.248.281.33.795 1.015 1.15 1.517.355.502.917 1.223 1.26 1.59.33.367.88.906 1.236 1.2.342.28.978.709 1.419.929.44.233 1.125.514 1.529.624.404.11 1.027.245 1.395.281.367.05.685.135.709.208.025.074-.294.355-.722.636a10.37 10.37 0 0 1-1.566.857c-.611.257-1.052.342-1.957.379-.991.049-1.285.012-2.019-.245-.465-.159-1.186-.501-1.59-.77-.404-.257-1.15-.893-1.651-1.395-.514-.514-1.787-2.006-2.826-3.315-1.053-1.31-2.24-2.692-2.63-3.071-.404-.367-.906-.783-1.126-.918-.208-.122-.416-.305-.453-.379-.037-.085.098-.244.306-.342.196-.098.783-.587 1.297-1.065.514-.489 1.492-1.602 2.165-2.483a81.631 81.631 0 0 1 2.288-2.802c.575-.672 1.456-1.541 1.957-1.945.502-.403 1.126-.832 1.383-.954.244-.135.746-.318 1.1-.416.429-.122 1.016-.171 1.799-.134Zm9.359 0c1.076.036 1.32.085 2.08.428.464.22 1.137.6 1.468.856.342.257.905.77 1.272 1.126.367.367 1.1 1.21 1.651 1.884a94.03 94.03 0 0 1 1.7 2.14c.38.502 1.15 1.383 1.713 1.946.551.562 1.212 1.15 1.469 1.309.244.159.452.342.452.416 0 .073-.232.28-.526.477-.281.195-.917.746-1.394 1.223-.49.477-1.31 1.431-1.823 2.129a57.648 57.648 0 0 1-1.823 2.287 32.707 32.707 0 0 1-1.725 1.848c-.465.44-1.089.966-1.395 1.174-.305.208-.954.514-1.431.697-.697.245-1.126.319-1.896.319-.673 0-1.236-.074-1.689-.22-.367-.135-.942-.38-1.284-.551-.33-.171-.844-.477-1.126-.685-.293-.208-.501-.428-.464-.502.036-.073.293-.122.587-.122.281 0 .868-.098 1.309-.233a14.2 14.2 0 0 0 1.284-.428c.27-.122.844-.453 1.285-.746a11.07 11.07 0 0 0 1.505-1.248c.391-.391 1.15-1.309 1.663-2.055.526-.746 1.248-1.615 1.615-1.945.367-.33.954-.759 1.31-.942.342-.196.623-.416.61-.49-.023-.06-.342-.293-.709-.489a7.687 7.687 0 0 1-1.26-.942c-.33-.318-.99-1.126-1.468-1.798-.477-.673-1.223-1.603-1.663-2.056a12.501 12.501 0 0 0-1.664-1.419c-.465-.318-1.297-.722-1.835-.905a11.299 11.299 0 0 0-1.81-.428c-.454-.05-.82-.135-.82-.208 0-.061.317-.33.709-.575a13.33 13.33 0 0 1 1.493-.808c.44-.208.93-.391 1.1-.428.172-.036.857-.049 1.53-.036Zm-5.016 3.021c.538 0 1.309.074 1.713.16.403.097.99.293 1.32.427.319.147.551.319.515.38-.037.073-1.322.122-3.487.122s-3.45-.049-3.486-.122c-.037-.061.122-.196.342-.294.208-.086.673-.257 1.003-.355.343-.11.722-.22.856-.244.135-.037.686-.062 1.224-.074Zm.795 2.043c2.19.012 4.05.025 4.135.025.073 0 .306.171.514.367.208.208.367.452.367.55 0 .16-.722.184-5.75.184-4.526 0-5.75-.037-5.75-.147 0-.086.147-.318.33-.526.294-.33.404-.367 1.248-.428.514-.037 2.716-.05 4.906-.025ZM58.618 16.2c.061 0 .281.294.465.649.183.342.758 1.357 1.272 2.226.502.88 1.566 2.716 2.361 4.098.783 1.383 1.48 2.557 1.542 2.63.06.074.11.196.11.282 0 .073-.123.147-.27.147-.158 0-.464-.061-.684-.147a1.449 1.449 0 0 1-.661-.587c-.147-.233-.343-.588-.465-.796-.11-.195-.526-.917-.917-1.59-.392-.673-.808-1.382-.918-1.59-.122-.196-.685-1.211-1.272-2.227-.575-1.027-1.04-1.957-1.028-2.055.012-.11.086-.38.171-.612.086-.232.22-.428.294-.428Zm6.3 0c3.658 0 4.722.037 4.76.16.024.073-.05.28-.172.452-.11.171-.587.99-1.04 1.835a93.152 93.152 0 0 1-1.346 2.385c-.281.477-.77 1.358-1.1 1.958-.331.6-.698 1.248-.82 1.443-.184.282-.257.306-.416.184-.11-.086-.257-.294-.343-.465-.085-.171-.905-1.627-1.81-3.242-.906-1.615-1.823-3.23-2.044-3.572-.207-.355-.379-.759-.379-.893 0-.245.086-.245 4.71-.245Zm6.35.098c.073.061.207.33.293.587.147.477.147.477-.905 2.312-.575 1.016-1.31 2.3-1.64 2.875a59.51 59.51 0 0 1-1.064 1.835c-.269.44-.648 1.09-.844 1.444-.245.453-.465.673-.722.758-.208.074-.49.123-.636.123-.183 0-.281-.074-.281-.208 0-.123.049-.27.11-.343.061-.073.636-1.027 1.272-2.14a495.08 495.08 0 0 1 2.227-3.842c.587-1.003 1.064-1.847 1.052-1.872 0-.012.122-.245.269-.49.159-.256.391-.623.514-.807.147-.232.257-.305.355-.232ZM58.091 19.32c.098.134.88 1.492 1.75 3.034.88 1.529 1.565 2.826 1.529 2.899-.037.073-.404-.159-.82-.514a10.862 10.862 0 0 1-1.187-1.125 7.37 7.37 0 0 1-1.199-2.337 19.912 19.912 0 0 1-.293-1.162c-.086-.367-.098-.759-.05-.856.086-.16.123-.147.27.06Zm13.763-.061c.049 0 .098.207.098.464 0 .245-.086.783-.196 1.187a10.31 10.31 0 0 1-.563 1.468c-.208.404-.575.979-.82 1.272-.244.294-.77.808-1.174 1.138-.404.33-.783.55-.832.502-.061-.05.135-.49.416-.954.281-.465.991-1.701 1.578-2.74.587-1.029 1.065-1.922 1.052-1.958 0-.05.074-.147.172-.233.097-.085.22-.146.269-.146Z" fill="#FC5B31"/><path d="M-40.537 5.985c.611-.318 1.346-.77 1.64-.991.28-.232.586-.38.672-.33.073.036.33.22.563.403.232.184.807.539 1.284.796s1.077.624 1.346.807c.27.184.697.55.954.832.294.318.44.6.416.783-.012.147-.086.257-.147.245a36.736 36.736 0 0 1-1.125-.404c-.563-.196-1.248-.38-1.53-.392-.501-.036-.525-.024-.648.416-.081.31-.081.506 0 .588.074.06.502.22.979.342.477.135 1.162.367 1.53.538.366.16 1.002.514 1.406.771.404.257 1.064.77 1.468 1.15.404.38.832.77.954.869.196.17.257.146.587-.184.196-.196.355-.416.367-.49 0-.06-.318-.427-.71-.794-.39-.38-.929-.857-1.198-1.077-.404-.33-.465-.428-.355-.612.074-.11.318-.22.55-.244.258-.013.686.098 1.09.281.367.184 1.113.6 1.651.942.538.355 1.272.758 2.263 1.199l-.06 2.239c-.025 1.223-.11 2.446-.184 2.716a3.046 3.046 0 0 1-.306.77c-.098.147-.27.27-.367.27-.098 0-.208-.123-.233-.27-.024-.159-.134-.721-.232-1.26-.11-.538-.245-1.125-.318-1.309-.098-.257-.22-.342-.465-.342-.196 0-.453.06-.575.146-.22.147-.22.196-.037.955.11.44.257 1.296.343 1.896.11.856.11 1.346-.012 2.202a16.68 16.68 0 0 1-.319 1.651c-.097.306-.17.661-.17.796 0 .171.134.293.452.403.391.147.49.147.612 0 .085-.085.269-.623.403-1.199.123-.575.27-1.247.306-1.492.037-.257.135-.465.22-.465.074 0 .27.123.416.27.147.158.33.55.392.892.061.343.11 1.566.073 4.857l-1.1.6c-.6.33-1.542.82-2.08 1.1-.539.27-1.224.539-1.53.563-.306.037-.66.013-.795-.049-.245-.122-.232-.134.061-.354a43.1 43.1 0 0 0 1.248-1.15c.526-.502.954-.955.954-1.003 0-.062-.122-.233-.269-.404-.159-.16-.367-.294-.465-.306-.098 0-.538.33-.978.734-.44.404-1.102.942-1.468 1.187-.367.244-1.053.623-1.53.844-.477.22-1.26.514-1.737.648-.807.233-.893.294-.893.563 0 .171.061.416.122.55.098.208.208.233.649.184.281-.037 1.015-.245 1.615-.44.611-.209 1.15-.33 1.198-.27.05.05.025.294-.073.526-.11.294-.416.612-.954.991-.428.318-1.138.747-1.578.967-.44.22-1.04.575-1.346.795-.306.208-.6.428-.673.465-.061.049-.355-.086-.636-.282a19.886 19.886 0 0 0-1.223-.758 16.055 16.055 0 0 1-1.383-.844 8.705 8.705 0 0 1-1.076-.857c-.233-.232-.44-.55-.477-.721-.025-.172-.025-.33.012-.367.037-.037.55.122 1.15.33.587.22 1.297.428 1.59.465.465.049.526.037.636-.245.074-.171.123-.416.123-.55 0-.196-.172-.294-.881-.502-.49-.134-1.334-.465-1.872-.71-.538-.244-1.284-.672-1.651-.954a14.53 14.53 0 0 1-1.37-1.186c-.392-.38-.784-.66-.857-.624-.086.024-.294.232-.746.856l.966.918a51.938 51.938 0 0 0 1.273 1.15c.305.232.305.232.06.403-.134.086-.44.16-.672.16-.245 0-.808-.196-1.285-.441-.465-.245-.942-.514-1.04-.612-.097-.085-.71-.428-2.508-1.358l-.036-1.7c-.012-.942.024-2.092.098-2.557.073-.465.22-1.04.318-1.248.098-.232.257-.403.391-.403.16 0 .245.17.38.758.085.428.244 1.052.33 1.382.085.343.232.71.318.82.134.196.22.196.624.061.44-.134.465-.171.416-.514a19.81 19.81 0 0 0-.282-1.223c-.122-.538-.208-1.346-.208-2.202 0-.869.074-1.676.22-2.263.11-.502.245-1.077.27-1.285.049-.306.012-.38-.22-.452a2.284 2.284 0 0 0-.539-.098c-.159-.013-.293.11-.391.33-.086.184-.196.563-.27.832-.06.269-.195.832-.28 1.26-.135.648-.197.758-.392.734-.135-.024-.355-.257-.49-.526-.232-.44-.257-.722-.318-5.444l.771-.367a27.86 27.86 0 0 0 1.92-1.04c.637-.367 1.444-.734 1.775-.807.342-.074.734-.098.893-.062.146.037.269.16.269.257 0 .098-.037.184-.086.184-.06 0-.587.465-1.199 1.027-1.088 1.016-1.1 1.028-.905 1.322.11.146.318.354.465.44.232.135.33.074 1.064-.611.44-.429 1.065-.955 1.383-1.175.305-.232.868-.563 1.235-.758a11.706 11.706 0 0 1 1.59-.612c.502-.147 1.04-.318 1.2-.38.146-.06.269-.22.269-.354 0-.135-.05-.38-.123-.55-.11-.27-.17-.294-.575-.245-.257.036-.978.244-1.602.465-.881.305-1.163.354-1.285.244-.11-.122-.11-.232.037-.538.098-.208.465-.587.795-.844.343-.245 1.113-.71 1.713-1.04Zm51.614 1.896c.073-.171.391-.6.685-.942.306-.355.575-.648.611-.648.037.012.367.171.734.367.368.196.796.477.942.611.16.135.282.33.282.429 0 .098-.11.244-.245.305-.183.086-.232.22-.183.918h1.957l.037-.367a.742.742 0 0 0-.208-.612c-.171-.183-.208-.306-.123-.513.074-.184.416-.429.93-.673.465-.22.857-.416.893-.44.037-.013.343.317.698.733.416.502.636.881.648 1.114 0 .269-.049.33-.306.33-.232 0-.33.085-.391.342-.05.184-.086.38-.086.429-.012.06.367.256 1.7.82l.208-.27c.123-.159.22-.33.22-.404 0-.06-.085-.22-.183-.33-.159-.196-.159-.245.061-.465.184-.183.44-.257.979-.269.404-.024.856-.037.99-.037.221 0 .307.147.564.979.22.746.257 1.04.159 1.26-.098.208-.196.257-.453.196-.245-.05-.404 0-.563.159-.122.122-.22.257-.208.318 0 .049.294.355.637.697.354.33.709.612.77.612.061 0 .22-.086.343-.208.147-.147.196-.33.147-.55-.05-.294-.013-.355.269-.417.208-.048.624 0 1.015.135.367.11.795.257.942.318.208.086.27.184.22.392-.036.146-.06.526-.06.856 0 .416-.074.66-.282.893-.245.294-.294.306-.538.16-.233-.148-.319-.148-.588.011-.171.098-.306.245-.306.306 0 .074.147.465.33.893.197.416.417.759.49.759.086 0 .27-.05.404-.123s.244-.195.244-.269c-.012-.085.074-.232.184-.306.11-.098.294-.122.465-.06.159.048.6.378 1.676 1.37l-.22.342c-.135.183-.38.563-.55.856-.184.282-.417.55-.515.612-.11.049-.269 0-.403-.122-.11-.123-.392-.22-1.004-.22v1.957h.429c.269 0 .452-.061.489-.184.037-.098.184-.183.33-.183a.607.607 0 0 1 .428.147c.074.085.319.526.955 1.81l-.673.563c-.367.318-.808.612-.979.685-.171.061-.38.073-.453.037-.085-.037-.159-.171-.159-.306 0-.135-.11-.294-.244-.367a1.054 1.054 0 0 0-.404-.122c-.073 0-.294.342-.49.758-.183.428-.33.844-.33.93 0 .073.147.208.33.281.258.086.417.086.637-.037.257-.146.306-.122.514.147.171.208.257.526.269 1.016.012.379.024.783.024.905 0 .134-.257.281-.856.49-.477.158-.966.28-1.101.293a.66.66 0 0 1-.404-.16.38.38 0 0 1-.061-.378c.065-.139.016-.29-.147-.453-.134-.147-.306-.257-.367-.257s-.416.294-.758.648c-.587.588-.636.673-.477.893.098.16.318.257.611.282.367.024.453.073.514.367.037.183.049.416.012.514-.049.098-.17.465-.293.807-.123.355-.245.673-.282.71-.036.049-.477.036-.978-.012-.685-.062-.991-.16-1.224-.355-.293-.245-.293-.27-.098-.465.184-.16.196-.245.086-.465-.086-.16-.208-.318-.281-.355-.074-.049-.416.05-.747.208-.342.16-.685.294-.77.294-.074 0-.172.036-.208.098-.025.049.012.269.098.489.11.281.22.391.416.391.232 0 .28.062.28.404-.011.306-.158.55-1.345 1.799l-.82-.453c-.44-.257-.88-.587-.978-.734-.086-.16-.135-.33-.098-.404.037-.073.147-.122.245-.122.134 0 .171-.123.122-.918l-.856-.037c-.563-.012-.918.025-1.016.123a.638.638 0 0 0-.146.44c0 .147.11.318.244.392.135.073.245.22.245.342.012.11-.086.294-.208.404-.122.11-.575.38-1.81.991l-.282-.355a9.544 9.544 0 0 1-.649-.893c-.195-.306-.354-.648-.354-.758 0-.135.098-.22.244-.22.135 0 .33-.123.429-.27.097-.159.183-.355.183-.428 0-.085-.122-.208-.281-.269-.147-.061-.49-.208-.759-.33a17.467 17.467 0 0 0-.587-.257c-.049-.025-.171.049-.27.147-.097.097-.183.318-.183.489 0 .171.062.306.123.306.06 0 .122.073.122.159.012.073-.086.244-.208.355-.147.146-.526.232-2.178.367l-.28-.845c-.16-.452-.27-.99-.246-1.198.025-.306.086-.367.355-.367.184 0 .44-.11.587-.245.147-.135.27-.281.257-.33 0-.062-.269-.367-.611-.71-.33-.33-.685-.612-.759-.612-.085-.012-.257.086-.367.208-.122.123-.196.38-.183.588.024.354.012.366-.526.354-.306 0-.845-.11-1.86-.477l.086-.917c.049-.502.147-1.04.232-1.2.074-.146.233-.268.343-.268.122 0 .232.06.244.146.025.086.16.11.367.062.196-.05.38-.184.416-.294.037-.122-.049-.526-.195-.893-.16-.367-.318-.722-.355-.77-.037-.062-.22-.074-.416-.037-.233.048-.367.183-.453.44-.085.257-.208.367-.404.367-.159 0-.574-.257-1.003-.624-.403-.355-.746-.673-.77-.71-.025-.036.134-.403.354-.807.208-.404.478-.832.588-.954.11-.122.281-.22.379-.208.098 0 .281.11.391.244.16.172.306.22.49.172.159-.05.318-.147.367-.22.049-.074.073-.208.036-.282-.036-.085-.06-.465-.06-1.505h-.429c-.27 0-.453.062-.49.184-.036.11-.183.171-.403.159-.27-.037-.404-.183-.783-.893-.257-.465-.465-.905-.465-.979 0-.073.294-.342.636-.624.355-.269.771-.562.918-.636.159-.085.367-.122.465-.085.098.036.183.17.183.305 0 .135.11.294.245.367.134.074.33.123.428.123.098 0 .245-.147.318-.33.074-.196.208-.502.306-.71.11-.196.171-.477.147-.6-.025-.134-.196-.281-.404-.354-.294-.086-.38-.074-.465.085-.049.123-.159.16-.281.11a1.087 1.087 0 0 1-.367-.428c-.098-.196-.171-.722-.171-2.055l.513-.135c.294-.06.734-.17.979-.244.306-.074.55-.062.71.012.146.073.22.208.195.342-.024.11.025.33.123.49.098.147.257.269.354.269.098 0 .453-.257.796-.575.33-.33.611-.636.611-.71 0-.06-.11-.232-.244-.367-.16-.146-.33-.22-.465-.17-.11.048-.27.048-.343 0-.085-.038-.159-.209-.183-.38-.025-.171.06-.636.183-1.04s.245-.807.27-.88c.036-.123.269-.135.868-.086.465.049 1.015.159 1.223.244.22.098.404.245.404.33a.465.465 0 0 1-.208.27c-.171.11-.171.159.037.526.122.22.269.391.318.391.061 0 .196-.061.306-.122.122-.074.477-.233.795-.367.33-.135.587-.318.587-.392 0-.085-.086-.281-.183-.428-.098-.159-.294-.281-.429-.281-.134 0-.269-.074-.293-.147-.037-.086.012-.294.098-.465Zm46.659 2.899c.318-.183.82-.415 1.125-.501a4.945 4.945 0 0 1 1.248-.184c.392-.012.954.062 1.26.147.306.074.55.22.55.306 0 .073-.073.147-.158.147-.074 0-.539.196-1.003.44a14.81 14.81 0 0 0-1.407.844c-.306.22-.967.832-1.468 1.37-.502.539-1.224 1.432-1.603 2.007-.38.563-1.015 1.321-1.407 1.688-.44.392-1.272.942-2.092 1.37-.758.404-1.382.771-1.382.845 0 .073.293.269.636.44.355.183 1.04.55 1.505.82.465.28 1.1.721 1.394.99.294.282.759.832 1.028 1.236.281.404.71 1.015.979 1.346.257.342.807.954 1.223 1.382.416.428 1.15 1.028 1.615 1.346.465.318 1.162.697 1.53.844.366.147.66.318.648.367-.013.049-.233.171-.49.245-.257.085-.832.159-1.297.159-.6 0-1.04-.086-1.639-.33a6.883 6.883 0 0 1-1.505-.832c-.367-.282-1.064-.93-1.529-1.42a36.246 36.246 0 0 1-1.59-1.835c-.404-.513-1.09-1.382-1.53-1.945-.44-.563-1.174-1.431-2.507-2.838l.856-.88c.477-.478 1.48-1.665 2.239-2.643a76.414 76.414 0 0 1 2.14-2.643 19.026 19.026 0 0 1 1.408-1.407c.354-.293.905-.685 1.223-.88Zm10.154-.293c-.012-.073.183-.184.453-.257a7.717 7.717 0 0 1 1.162-.135c.367 0 .942.062 1.284.147.33.086.942.355 1.346.6.404.244.979.66 1.284.93.306.256.991.99 1.542 1.627a84.3 84.3 0 0 1 1.957 2.422c.526.71 1.42 1.75 1.97 2.324.55.575 1.003 1.077 1.015 1.114 0 .036-.452.526-1.015 1.1a35.042 35.042 0 0 0-2.117 2.508 60.77 60.77 0 0 1-2.214 2.692c-.673.77-1.431 1.456-1.994 1.847-.502.343-1.236.71-1.627.82-.38.11-1.003.208-1.37.208a5.48 5.48 0 0 1-1.224-.16c-.305-.073-.55-.183-.55-.244 0-.049.147-.147.33-.208.196-.073.612-.27.954-.453.33-.17.967-.575 1.395-.88.44-.306 1.089-.893 1.456-1.297.367-.404 1.028-1.26 1.492-1.896.453-.637 1.09-1.432 1.42-1.762.33-.33.99-.807 1.455-1.064.465-.27 1.125-.6 1.444-.759.38-.171.575-.33.55-.452-.024-.098-.575-.465-1.223-.796a17.767 17.767 0 0 1-1.762-1.04c-.379-.269-1.1-1.113-1.994-2.324-.99-1.309-1.7-2.129-2.336-2.667a10.985 10.985 0 0 0-1.982-1.284c-.587-.282-1.089-.575-1.101-.661Zm-5.726 7.083v.008c.016-.119.663-.155 2.753-.155 1.75 0 2.753.05 2.753.123s-.098.306-.233.514c-.122.22-.648 1.15-1.162 2.055-.514.905-.942 1.676-.942 1.713.012.036-.086.183-.416.623l-.404-.611c-.208-.343-.391-.649-.391-.685 0-.037-.098-.208-.22-.392-.135-.196-.453-.758-.722-1.26a30.613 30.613 0 0 0-.759-1.346c-.13-.225-.25-.486-.256-.579v.005-.013Z" fill="#FDFDFD"/><path d="M-40.94 10.316c.085 0 .49-.086.893-.171.465-.11 1.186-.16 1.957-.135.673.024 1.48.11 1.799.184.428.097.587.195.587.342.012.147-.27.367-.82.649-.746.391-.905.428-1.872.428-.93 0-1.137-.05-1.871-.392-.612-.306-.82-.465-.82-.648 0-.135.073-.245.147-.257Zm53.498.196c.134-.05.55-.135.917-.196.367-.049 1.2-.074 1.835-.049.636.037 1.432.135 1.774.232.33.086.942.294 1.334.453.403.16.746.367.77.44.025.123-.88.172-4.22.184-2.337.024-4.319.024-4.404 0-.074-.012-.147-.061-.147-.122 0-.05.428-.257.942-.478a77.314 77.314 0 0 1 1.199-.464Z" fill="#FC5B31"/><path d="M-35.888 12.09c.343-.208.771-.55.967-.77.196-.209.379-.38.404-.38.024 0 .208.085.403.183.196.098.367.245.367.306s-.134.33-.293.587c-.16.245-.539.685-.857.98-.306.28-.77.623-1.015.745a8.58 8.58 0 0 1-1.2.44c-.513.16-.978.197-1.59.16-.464-.037-1.186-.196-1.59-.355a6.01 6.01 0 0 1-1.309-.746c-.33-.257-.758-.697-.954-.979-.208-.293-.367-.624-.367-.734 0-.122.147-.294.318-.367.208-.11.367-.122.465-.037.086.062.49.38.88.698.417.342 1.004.672 1.395.795.367.122 1.028.22 1.468.22.44 0 1.04-.073 1.346-.171a5.68 5.68 0 0 0 1.162-.575Z" fill="#FC5B31"/><path d="M-44.292 12.69c-.012-.11.085-.307.208-.429.122-.122.269-.22.318-.22.061 0 .367.391.697.88.318.478.795 1.053 1.065 1.273.269.22.88.575 1.345.807.71.33 1.028.404 1.896.44.575.037 1.346-.011 1.713-.097.367-.073 1.028-.355 1.468-.612.44-.257 1.028-.71 1.321-1.027.282-.306.624-.783.759-1.052.134-.27.33-.527.428-.575.11-.062.281-.013.428.146.147.135.257.319.245.392 0 .085-.171.501-.38.917-.244.49-.709 1.09-1.26 1.628-.501.501-1.15 1.003-1.54 1.186a6.546 6.546 0 0 1-1.285.465c-.33.086-1.077.147-1.652.147-.746 0-1.26-.074-1.835-.27a6.73 6.73 0 0 1-1.456-.721 7.712 7.712 0 0 1-1.223-1.065c-.306-.354-.71-.941-.893-1.32-.196-.38-.355-.784-.367-.894Zm52.752.207 2.177-.037c1.187-.024 4.061-.036 10.607 0l.464.539c.245.293.453.575.453.624 0 .06-.073.122-.147.134-.085.025-3.327.037-7.193.012-3.866-.012-7.071-.024-7.12-.036-.061-.012-.098-.05-.098-.098 0-.061.184-.33.856-1.138Z" fill="#FC5B31"/><path d="M-33.11 15.589c.293-.367.684-1.053.88-1.505.184-.453.392-.82.453-.82s.196.135.293.306c.098.171.16.49.135.71-.024.208-.208.746-.416 1.186a8.98 8.98 0 0 1-.917 1.468 8.402 8.402 0 0 1-1.383 1.31c-.465.354-1.211.782-1.676.954a8.965 8.965 0 0 1-1.835.428c-.783.098-1.223.085-2.043-.061-.575-.098-1.395-.355-1.835-.563a8.167 8.167 0 0 1-1.346-.82 10.51 10.51 0 0 1-.893-.807 9.165 9.165 0 0 1-.734-.93 8.12 8.12 0 0 1-.66-1.26c-.16-.38-.282-.832-.282-1.003 0-.171.05-.416.123-.55.073-.135.208-.245.305-.245.11 0 .245.207.343.513.086.294.367.832.6 1.2a8.28 8.28 0 0 0 1.04 1.235 8.8 8.8 0 0 0 1.137.905c.306.196.954.477 1.431.636.649.208 1.187.282 1.958.282.6 0 1.394-.086 1.774-.184a6.67 6.67 0 0 0 1.284-.49c.33-.158.844-.5 1.162-.758.318-.256.808-.77 1.101-1.137Z" fill="#FC5B31"/><path d="M-31.08 15.393c-.012-.135.025-.294.086-.33.06-.05.134-.086.171-.086.037-.012.135.061.208.147.073.085.232.514.367.954.171.587.233 1.174.233 2.263 0 1.211-.05 1.615-.294 2.325a11.514 11.514 0 0 1-.526 1.345c-.147.27-.453.796-.71 1.163-.244.367-.783.978-1.186 1.345-.416.367-1.175.905-1.7 1.175-.54.281-1.347.611-1.824.721-.538.135-1.333.208-2.14.208-.771 0-1.579-.085-2.02-.195-.403-.11-1.15-.404-1.65-.649-.502-.257-1.273-.758-1.701-1.137-.428-.367-1.016-1.004-1.297-1.407a12.684 12.684 0 0 1-.832-1.346 12.494 12.494 0 0 1-.526-1.346c-.159-.526-.22-1.137-.232-2.14 0-.771.073-1.713.146-2.08a3.31 3.31 0 0 1 .624-1.285l.147.367c.074.208.343.783.587 1.285.319.648.722 1.186 1.37 1.847.539.538 1.248 1.113 1.713 1.37a8.82 8.82 0 0 0 1.75.685 7.93 7.93 0 0 0 1.945.257c.648 0 1.346-.085 1.933-.257a10.344 10.344 0 0 0 1.761-.697c.563-.294 1.175-.77 1.762-1.37.673-.685 1.028-1.162 1.383-1.896.256-.539.464-1.09.452-1.236Zm43.895.355c.33-.22.844-.453 1.15-.514.305-.061.721-.11.917-.123.196-.012.648.062.991.135.342.086.905.355 1.248.587.355.233.795.649.99.918.197.269.453.734.563 1.04.123.33.209.905.209 1.407 0 .611-.074 1.027-.27 1.468a5.74 5.74 0 0 1-.6 1.027c-.17.22-.586.587-.929.795-.33.22-.88.477-1.223.563a4.457 4.457 0 0 1-1.285.098 5.017 5.017 0 0 1-1.346-.367 5.147 5.147 0 0 1-1.15-.783 5.147 5.147 0 0 1-.782-1.15 3.874 3.874 0 0 1-.367-1.468c-.037-.563.012-.99.17-1.468a4.74 4.74 0 0 1 .661-1.223c.245-.306.71-.734 1.053-.942Zm-4.38.049c-.122-.184-.196-.38-.171-.44.024-.05.721-.11 1.529-.123.88 0 1.505.037 1.541.11.037.073 0 .147-.06.184-.062.036-.331.379-.6.758-.257.391-.526.917-.612 1.162-.073.257-.196.49-.257.526-.061.037-.355-.367-.636-.893a35.749 35.749 0 0 0-.734-1.284Zm10.521.281c-.257-.343-.465-.66-.465-.734 0-.073.575-.122 1.468-.122.856 0 1.492.049 1.53.122.036.073-.258.685-.637 1.358-.391.685-.77 1.248-.832 1.235-.061 0-.232-.28-.367-.623-.134-.355-.452-.906-.697-1.236Zm-12.723.672.269-.709c.147-.379.306-.697.343-.697.048-.012.489.697.99 1.554.502.856 1.554 2.667 2.337 4.012.783 1.346 1.75 3.022 2.141 3.72.404.709.869 1.504 1.028 1.773.159.282.391.685.513.893.135.22.233.49.233.588 0 .146-.11.17-.514.11a9.227 9.227 0 0 1-.71-.11c-.097-.025-.428-.453-.721-.942-.294-.49-.722-1.187-.942-1.542-.233-.342-.416-.66-.416-.697 0-.037-.171-.355-.38-.71-.22-.342-.917-1.541-1.553-2.654a411.18 411.18 0 0 1-2.618-4.588Zm16.162-.63.01-.018c.209-.342.429-.636.502-.636.061 0 .22.245.355.55.135.307.245.637.245.735 0 .098-.416.868-.918 1.712-.501.845-.917 1.542-.917 1.554 0 .025-.355.66-.796 1.407-.44.759-.795 1.407-.795 1.444 0 .036-.183.354-.403.697-.233.355-.588.954-.783 1.321-.208.367-.649 1.138-.967 1.7-.33.564-.71 1.102-.844 1.187-.134.098-.502.208-.832.257-.526.086-.575.074-.587-.146 0-.135.086-.33.196-.429.11-.098.183-.22.183-.269-.012-.037 1.089-1.994 2.447-4.343l.003-.006a893.67 893.67 0 0 0 2.994-5.169l.907-1.547ZM5.951 20.03c-.036-.355-.036-.673.013-.71.06-.037.159 0 .244.085.074.086.82 1.346 1.64 2.79a366.04 366.04 0 0 1 1.81 3.18c.172.306.404.698.526.881.135.196.233.392.233.465a.123.123 0 0 1-.123.123c-.06 0-.489-.294-.942-.661-.464-.355-1.15-1.052-1.529-1.554-.379-.501-.832-1.21-.99-1.578a13.008 13.008 0 0 1-.551-1.529 14.219 14.219 0 0 1-.33-1.492Zm16.859.66c.39-.648.697-1.236.697-1.309 0-.073.085-.122.183-.122.147 0 .16.146.11.82a10.82 10.82 0 0 1-.428 1.896c-.208.648-.624 1.48-1.003 2.08-.367.562-.93 1.26-1.272 1.565-.33.306-.832.71-1.114.918-.28.208-.538.33-.575.269-.036-.049.453-.979 1.09-2.08a960.866 960.866 0 0 1 1.382-2.41c.134-.232.55-.966.93-1.627Zm-8.748 4.857c-.391-.673-.697-1.285-.697-1.37 0-.11.086-.123.33-.061.184.06.71.097 1.187.097.477 0 1.04-.036 1.26-.098.245-.048.392-.036.392.037 0 .074-.343.685-.759 1.37-.428.686-.832 1.236-.893 1.236-.061 0-.44-.55-.82-1.211Z" fill="#FC5B31"/><path d="M13.243 17.154c.233-.183.55-.379.722-.452.171-.062.6-.123.942-.123.404-.012.82.074 1.101.22.257.123.648.429.856.673.22.245.453.649.526.906.061.244.123.611.123.82a3.272 3.272 0 0 1-.16.794c-.085.233-.28.6-.452.82-.171.22-.526.502-.795.636-.318.172-.734.257-1.2.257-.44 0-.868-.085-1.149-.232a3.002 3.002 0 0 1-.832-.649c-.196-.244-.44-.648-.514-.905-.085-.27-.159-.636-.159-.844 0-.208.135-.636.282-.979.159-.33.477-.758.71-.942Zm-58.085 3.426c-.16-.465-.282-.906-.282-.979-.012-.11.062-.098.208.037.123.098.49.416.832.697.33.27 1.052.722 1.59.99.539.27 1.334.588 1.774.71.575.16 1.224.209 2.386.209.869 0 1.835-.074 2.14-.16.307-.085.906-.293 1.347-.477a9.184 9.184 0 0 0 1.468-.746c.367-.232.905-.648 1.198-.918.282-.28.563-.464.612-.403.05.049-.049.49-.22.979a9.315 9.315 0 0 1-.795 1.602c-.27.404-.77.979-1.101 1.285a8.879 8.879 0 0 1-1.468 1.015 7.7 7.7 0 0 1-1.897.648c-.709.147-1.272.184-1.773.135a13.885 13.885 0 0 1-1.285-.22c-.306-.074-.93-.33-1.407-.575a8.835 8.835 0 0 1-1.468-1.003c-.33-.306-.832-.881-1.089-1.285a7.89 7.89 0 0 1-.77-1.541Z" fill="#FDFDFD"/></g><defs><clipPath id="a"><path fill="#fff" d="M0 0h30v38H0z"/></clipPath></defs></svg>