<svg width="26" height="38" fill="none" xmlns="http://www.w3.org/2000/svg"><g clip-path="url(#a)"><path fill-rule="evenodd" clip-rule="evenodd" d="M13.076 4.073c.13 0 .402.153.591.355.19.2.662.579 1.04.827.367.26.71.462.758.462.059 0 .52.272 1.04.615.52.33 1.183.827 1.479 1.1.295.271.614.662.71.874.165.367.2.379.886.379.473 0 .923.083 1.36.26.355.154 1.29.662 2.07 1.123.78.474 1.466.852 1.537.852.071 0 .402.118.745.26.367.166.627.343.615.45 0 .094-.083.65-.177 1.241-.095.58-.142 1.325-.107 1.656.036.32.012 1.123-.059 1.774-.06.65-.201 1.372-.307 1.596a4.02 4.02 0 0 1-.355.65c-.154.214-.13.285.189.77.19.295.402.78.461 1.087.071.32.119 1.349.107 2.306 0 .97.059 2.13.13 2.579.07.449.118.875.082.946-.023.07-.437.26-.922.45-.485.177-1.194.508-1.585.744-.39.237-.981.58-1.3.757a9.537 9.537 0 0 1-1.42.58c-.46.141-1.028.248-1.277.248-.307 0-.461.059-.52.2a5.212 5.212 0 0 1-.343.628c-.154.224-.532.603-.84.84-.307.236-1.1.72-1.75 1.064-.65.354-1.478.875-1.833 1.17-.355.296-.745.604-.863.686-.166.119-.308.048-.946-.496-.402-.355-1.183-.887-1.739-1.195-.556-.307-1.3-.78-1.655-1.04-.355-.272-.78-.651-.947-.84a6.398 6.398 0 0 1-.508-.686c-.154-.26-.26-.32-.497-.272-.165.035-.58 0-.922-.06-.331-.07-.994-.319-1.443-.555a14.02 14.02 0 0 1-1.3-.745 10.13 10.13 0 0 0-1.065-.615 11.37 11.37 0 0 0-1.242-.508c-.355-.119-.686-.237-.733-.284-.047-.036 0-.39.083-.78.094-.391.177-1.29.177-2.011 0-.722.06-1.786.13-2.366.083-.804.201-1.218.816-2.306l-.284-.33c-.153-.178-.366-.616-.473-.97-.153-.497-.189-1.1-.177-2.602.012-1.1-.036-2.188-.106-2.484-.083-.295-.142-.65-.142-.804 0-.165.094-.295.26-.366.154-.06.591-.237.981-.379.39-.154 1.053-.485 1.479-.745a24.15 24.15 0 0 1 1.655-.875c.639-.296 1.112-.426 1.715-.473.769-.06.84-.095 1.005-.414.095-.201.331-.544.532-.769.201-.236.84-.733 1.42-1.111.579-.379 1.1-.686 1.147-.686.059 0 .449-.237.887-.52.449-.284.97-.675 1.159-.876.189-.2.46-.366.59-.366ZM61.764 5.48c.082.012.319.237.52.509.189.272.567.603.828.721.248.13.662.367.91.532.39.26.485.284.65.154a8.41 8.41 0 0 1 .947-.497 3.696 3.696 0 0 0 1.182-.887c.237-.295.509-.544.592-.532.07 0 .2.284.284.615.094.438.319.84.709 1.336.308.39.615.78.686.852.06.083.213.13.331.094.106-.023.568-.082 1.029-.118.58-.035 1.017-.154 1.443-.39.343-.177.662-.272.71-.225.058.06.082.461.058.887-.035.591.024 1.005.237 1.62.154.45.331.864.39.91.06.048.225.095.355.095.13 0 .473.107.769.249.413.2.697.236 1.324.213.426-.024.828-.012.887.035.047.047-.047.331-.225.627-.248.402-.366.792-.46 1.62-.13 1.088-.13 1.1.141 1.301.154.106.52.414.816.686.296.272.698.532.887.591.19.047.497.13.686.166.177.035.32.142.32.213-.013.082-.26.354-.568.591-.379.307-.698.721-1.03 1.336-.401.757-.449.935-.319 1.1.083.107.308.532.497.934.249.532.509.852.887 1.124.284.213.52.461.532.532 0 .083-.2.201-.437.272a5.22 5.22 0 0 1-.568.118c-.06.012-.532.308-1.928 1.36l.06 1.006c.047.804.13 1.147.402 1.679.189.378.343.733.343.804 0 .07-.284.095-.734.047-.591-.059-.958-.012-1.75.225-.97.284-1.005.307-1.076.686a3.03 3.03 0 0 1-.26.78c-.142.272-.201.686-.201 2.401l-.674-.343c-.462-.236-1.006-.39-2.638-.603l-.496.556a7.522 7.522 0 0 0-.769.946 2.818 2.818 0 0 0-.39.922c-.095.414-.166.532-.355.532-.13 0-.237-.047-.237-.118 0-.07-.236-.355-.532-.65-.295-.296-.65-.568-.792-.603-.154-.048-.461-.201-1.1-.639l-.946.497c-.52.272-1.04.603-1.17.733-.119.142-.32.367-.438.508-.118.154-.296.249-.367.237-.083-.024-.213-.284-.296-.568a2.922 2.922 0 0 0-.413-.887c-.154-.212-.462-.626-.686-.934-.32-.426-.473-.532-.65-.473-.13.036-.604.095-1.065.13-.603.047-.994.154-1.443.414-.355.19-.65.296-.686.225-.035-.071-.023-.402.012-.745.06-.485 0-.828-.272-1.656-.307-.946-.355-1.04-.686-1.112-.19-.035-.591-.177-.887-.307-.437-.19-.674-.225-1.383-.154-.474.036-.864.036-.864-.023 0-.048.154-.379.355-.734.225-.413.355-.828.355-1.123 0-.26.059-.674.118-.922.118-.438.118-.438-.615-1.148-.591-.555-.91-.756-1.55-.97-.437-.153-.791-.342-.791-.425 0-.071.059-.142.118-.142s.343-.201.627-.461c.272-.249.567-.627.662-.852.094-.224.295-.591.461-.816.237-.33.272-.45.166-.591-.083-.095-.32-.52-.532-.934a4.035 4.035 0 0 0-.935-1.242c-.437-.39-.532-.52-.414-.639.083-.082.225-.153.32-.142.094 0 .343-.059.555-.141.202-.083.722-.426 1.904-1.337l-.059-1.064c-.047-.863-.13-1.194-.402-1.75-.189-.367-.307-.698-.248-.722.047-.035.402-.023.792.012.556.06.864.024 1.42-.177.39-.13.803-.26.922-.284.154-.024.32-.343.567-1.04.296-.84.343-1.124.284-1.751-.047-.544-.023-.733.095-.733.07 0 .378.13.674.284.355.189.875.33 1.537.413.556.071 1.041.083 1.076.036.048-.047.379-.426.745-.852.367-.425.698-.934.745-1.123a4.46 4.46 0 0 1 .166-.627c.06-.142.166-.26.248-.26Zm46.807 4.541c.804.024 1.312.118 1.774.296.354.154 1.04.497 1.513.792.462.284.852.591.852.662 0 .095-.272.178-.733.237-.414.047-1.171.225-1.691.39a10.21 10.21 0 0 0-1.774.852c-.45.295-1.147.863-1.538 1.265-.39.39-1.159 1.36-1.715 2.129-.555.769-1.229 1.596-1.49 1.833-.272.236-.816.627-1.939 1.313l.97.638c.544.343 1.194.887 1.466 1.206.272.32.769.982 1.112 1.467.343.485.887 1.182 1.218 1.537.319.355.851.875 1.194 1.16a8.85 8.85 0 0 0 1.372.898 8.86 8.86 0 0 0 1.478.603c.391.107.994.236 1.348.272.355.047.663.13.686.201.024.071-.283.343-.697.615a10.03 10.03 0 0 1-1.514.828c-.591.248-1.017.331-1.892.366-.958.048-1.242.012-1.952-.236-.449-.154-1.147-.485-1.537-.745-.39-.248-1.112-.863-1.596-1.348-.497-.497-1.727-1.94-2.732-3.205-1.017-1.265-2.164-2.602-2.543-2.969-.39-.354-.875-.756-1.088-.886-.2-.119-.402-.296-.437-.367-.036-.083.094-.236.295-.331.19-.095.757-.568 1.254-1.029.496-.473 1.443-1.55 2.093-2.4a78.525 78.525 0 0 1 2.211-2.709c.556-.65 1.408-1.49 1.893-1.88.485-.39 1.088-.804 1.336-.923.237-.13.721-.307 1.064-.402.414-.118.982-.165 1.739-.13Zm9.047 0c1.04.036 1.277.083 2.01.414.449.213 1.1.58 1.419.828.331.248.875.745 1.23 1.088.355.355 1.064 1.17 1.597 1.821.532.65 1.265 1.573 1.643 2.07a22.282 22.282 0 0 0 1.656 1.88c.532.544 1.171 1.112 1.419 1.265.237.154.438.332.438.402 0 .071-.225.272-.509.462-.272.189-.887.721-1.348 1.182-.473.462-1.265 1.384-1.762 2.058a55.968 55.968 0 0 1-1.762 2.212c-.473.555-1.23 1.36-1.668 1.785-.449.426-1.052.934-1.348 1.136-.295.2-.922.496-1.383.674-.674.236-1.088.307-1.833.307-.651 0-1.195-.07-1.632-.213a14.5 14.5 0 0 1-1.242-.532 9.9 9.9 0 0 1-1.088-.662c-.284-.201-.485-.414-.449-.485.035-.071.283-.118.567-.118.272 0 .84-.095 1.266-.225.425-.118.981-.308 1.241-.414.26-.118.816-.438 1.242-.721a10.652 10.652 0 0 0 1.455-1.207c.378-.378 1.111-1.265 1.608-1.986.508-.722 1.206-1.561 1.561-1.88.355-.32.922-.734 1.265-.911.331-.19.603-.402.592-.473-.024-.06-.331-.284-.686-.473a7.39 7.39 0 0 1-1.218-.911c-.32-.307-.958-1.088-1.419-1.738-.462-.65-1.183-1.55-1.609-1.987a12.134 12.134 0 0 0-1.608-1.372c-.45-.307-1.254-.698-1.774-.875a10.913 10.913 0 0 0-1.75-.414c-.438-.047-.793-.13-.793-.201 0-.06.308-.32.686-.556a12.887 12.887 0 0 1 1.443-.78c.426-.201.899-.379 1.064-.414.166-.036.828-.048 1.479-.036Zm-4.849 2.921c.52 0 1.265.071 1.656.154.39.095.958.284 1.277.414.307.142.532.307.497.367-.036.07-1.278.118-3.371.118s-3.335-.047-3.37-.118c-.036-.06.118-.19.331-.284.201-.083.65-.249.97-.343a9.75 9.75 0 0 1 .827-.237c.13-.035.663-.059 1.183-.07Zm.769 1.975 3.997.024c.071 0 .296.165.497.355.201.2.354.437.354.532 0 .154-.697.177-5.558.177-4.376 0-5.558-.035-5.558-.142 0-.082.142-.307.319-.508.284-.32.39-.355 1.206-.414.497-.036 2.626-.048 4.743-.024Zm-6.741 1.916c.059 0 .272.284.449.627a80.34 80.34 0 0 0 1.23 2.152c.485.852 1.514 2.626 2.283 3.962.756 1.336 1.431 2.471 1.49 2.542a.49.49 0 0 1 .106.272c0 .071-.118.142-.26.142a2.22 2.22 0 0 1-.662-.142 1.4 1.4 0 0 1-.639-.567c-.142-.225-.331-.568-.449-.769-.107-.19-.509-.887-.887-1.537-.379-.65-.781-1.337-.887-1.538-.119-.189-.662-1.17-1.23-2.152-.556-.993-1.005-1.892-.994-1.987.012-.106.083-.366.166-.591.083-.225.213-.414.284-.414Zm6.09 0c3.536 0 4.565.036 4.601.154.023.07-.048.272-.166.437-.106.166-.568.958-1.005 1.774a91.87 91.87 0 0 1-1.301 2.306 92.39 92.39 0 0 0-1.064 1.892c-.32.58-.674 1.207-.793 1.396-.177.272-.248.296-.402.177-.106-.082-.248-.284-.331-.45-.083-.165-.875-1.572-1.75-3.133s-1.762-3.122-1.975-3.453c-.201-.343-.367-.733-.367-.863 0-.237.083-.237 4.553-.237Zm6.138.095c.071.059.201.319.284.567.142.461.142.461-.875 2.235-.556.982-1.266 2.224-1.585 2.78a58.858 58.858 0 0 1-1.029 1.773 44.46 44.46 0 0 0-.816 1.396c-.236.437-.449.65-.698.733a2.23 2.23 0 0 1-.615.118c-.177 0-.272-.07-.272-.2 0-.119.048-.26.107-.332.059-.07.615-.993 1.23-2.07a483.851 483.851 0 0 1 2.152-3.713c.568-.97 1.029-1.785 1.017-1.81 0-.011.118-.236.26-.472.154-.248.379-.603.497-.78.142-.225.248-.296.343-.225Zm-12.737 2.92c.095.13.852 1.443 1.691 2.934.852 1.478 1.514 2.731 1.479 2.802-.036.071-.391-.154-.793-.496A10.547 10.547 0 0 1 107.518 24a7.077 7.077 0 0 1-.709-1.136 7.575 7.575 0 0 1-.45-1.123c-.082-.26-.201-.769-.284-1.124-.082-.355-.094-.733-.047-.828.083-.153.118-.141.26.06Zm13.305-.058c.047 0 .094.2.094.449 0 .236-.083.757-.189 1.147a9.942 9.942 0 0 1-.544 1.42c-.201.39-.556.945-.792 1.229-.237.284-.745.78-1.136 1.1-.39.32-.757.532-.804.485-.059-.048.13-.473.402-.923.272-.45.958-1.643 1.526-2.649.567-.993 1.029-1.856 1.017-1.892 0-.047.071-.142.165-.225.095-.082.213-.142.261-.142Z" fill="#FC5B31"/><path d="M10.947 6.958c.592-.307 1.301-.745 1.585-.958.272-.224.568-.366.65-.319.072.035.32.213.545.39.224.178.78.52 1.241.769.462.248 1.041.603 1.301.78.26.178.674.533.923.805.283.307.425.58.402.756-.012.142-.083.249-.142.237-.071-.024-.556-.19-1.088-.39-.544-.19-1.207-.367-1.479-.379-.484-.035-.508-.023-.626.402-.08.3-.08.49 0 .568.07.06.485.213.946.331.461.13 1.123.355 1.478.52.355.154.97.497 1.36.745.39.249 1.029.746 1.42 1.112.39.367.803.745.922.84.189.165.248.142.567-.178.19-.189.343-.402.355-.473 0-.059-.307-.414-.686-.768a22.67 22.67 0 0 0-1.159-1.041c-.39-.32-.45-.414-.343-.591.071-.107.308-.213.532-.237.249-.012.663.095 1.053.272.355.178 1.076.58 1.596.91.52.344 1.23.734 2.188 1.16l-.059 2.164c-.023 1.183-.106 2.365-.177 2.625-.06.26-.201.592-.296.745-.095.142-.26.26-.355.26-.094 0-.2-.118-.224-.26-.024-.153-.13-.697-.225-1.218-.107-.52-.237-1.088-.308-1.265-.094-.248-.212-.331-.449-.331-.19 0-.438.059-.556.142-.213.142-.213.189-.035.922.106.426.248 1.254.33 1.833.107.828.107 1.301-.011 2.129-.083.58-.225 1.3-.307 1.596-.095.296-.166.639-.166.769 0 .165.13.284.438.39.378.142.473.142.59 0 .084-.082.261-.603.391-1.159.118-.555.26-1.206.296-1.442.035-.249.13-.45.213-.45.07 0 .26.118.402.26.142.154.319.532.378.864.06.33.107 1.513.071 4.694l-1.064.58c-.58.32-1.49.792-2.01 1.064-.521.26-1.183.52-1.479.544-.296.036-.639.012-.769-.047-.236-.118-.224-.13.06-.343.153-.13.697-.627 1.206-1.112.508-.484.922-.922.922-.97 0-.058-.118-.224-.26-.39-.154-.153-.355-.283-.45-.295-.094 0-.52.32-.945.71-.426.39-1.065.91-1.42 1.146-.354.237-1.017.604-1.478.816-.461.213-1.218.497-1.68.627-.78.225-.862.284-.862.544 0 .166.059.402.118.532.095.201.2.225.627.178.272-.036.981-.237 1.56-.426.592-.201 1.112-.32 1.16-.26.047.047.023.284-.071.508-.107.284-.402.592-.923.958-.414.308-1.1.722-1.525.935a11.47 11.47 0 0 0-1.301.768c-.296.201-.58.414-.65.45-.06.047-.344-.083-.616-.272A19.26 19.26 0 0 0 11.397 31a15.487 15.487 0 0 1-1.337-.816 8.407 8.407 0 0 1-1.04-.827c-.225-.225-.426-.533-.461-.698-.024-.166-.024-.32.011-.355.036-.035.533.118 1.112.32.568.212 1.254.413 1.537.449.45.047.509.035.615-.237.071-.165.119-.402.119-.532 0-.19-.166-.284-.852-.485-.473-.13-1.289-.45-1.81-.686-.52-.236-1.24-.65-1.596-.922-.354-.26-.958-.78-1.324-1.147-.379-.367-.757-.639-.828-.603-.083.023-.284.224-.721.828l.934.886c.52.485 1.076.982 1.23 1.112.295.225.295.225.059.39-.13.083-.426.154-.65.154-.237 0-.781-.19-1.242-.426-.45-.236-.91-.496-1.005-.591-.095-.083-.686-.414-2.425-1.313l-.035-1.643c-.012-.911.023-2.023.094-2.472.071-.45.213-1.005.308-1.206.094-.225.248-.39.378-.39.154 0 .237.165.367.733.083.413.236 1.017.32 1.336.082.331.224.686.307.792.13.19.212.19.603.06.425-.13.45-.166.402-.497a19.124 19.124 0 0 0-.272-1.183c-.118-.52-.201-1.3-.201-2.129 0-.84.07-1.62.213-2.187.106-.485.236-1.041.26-1.242.047-.296.012-.367-.213-.438a2.207 2.207 0 0 0-.52-.094c-.154-.012-.284.106-.379.319-.083.177-.189.544-.26.804-.06.26-.19.804-.272 1.218-.13.627-.19.733-.378.71-.13-.024-.343-.248-.473-.509-.225-.425-.249-.697-.308-5.262l.745-.355a27.58 27.58 0 0 0 1.857-1.005c.615-.355 1.395-.71 1.715-.78.33-.072.71-.095.863-.06.142.036.26.154.26.248 0 .095-.035.178-.083.178-.059 0-.567.45-1.159.993-1.052.982-1.064.994-.875 1.277.107.142.308.343.45.426.224.13.319.071 1.028-.591.426-.414 1.03-.923 1.337-1.135.295-.225.84-.544 1.194-.734a11.27 11.27 0 0 1 1.538-.59 22.518 22.518 0 0 0 1.159-.368c.141-.059.26-.212.26-.342 0-.13-.048-.367-.119-.533-.106-.26-.165-.283-.555-.236-.249.035-.947.236-1.55.45-.851.295-1.123.342-1.241.236-.107-.119-.107-.225.035-.52.095-.202.45-.568.769-.817.331-.236 1.076-.686 1.655-1.005Zm49.894 1.833c.071-.165.379-.58.663-.91.295-.343.556-.627.59-.627.036.012.356.165.71.355.355.189.77.46.911.59.154.131.272.32.272.415 0 .094-.106.236-.236.295-.178.083-.225.213-.178.887h1.892l.036-.354a.717.717 0 0 0-.201-.592c-.166-.177-.201-.295-.118-.496.07-.178.402-.414.898-.65.45-.214.828-.403.864-.427.035-.011.33.308.674.71.402.485.615.852.626 1.076 0 .26-.047.32-.295.32-.225 0-.32.082-.379.33a2.683 2.683 0 0 0-.082.415c-.012.059.354.248 1.643.792l.201-.26c.119-.154.213-.32.213-.39 0-.06-.082-.213-.177-.32-.154-.19-.154-.236.059-.45.177-.177.426-.248.946-.26.39-.023.828-.035.958-.035.213 0 .296.142.544.946.213.722.248 1.005.154 1.218-.095.201-.19.249-.438.19-.236-.048-.39 0-.544.153-.118.119-.213.249-.2.308 0 .047.283.343.614.674.343.32.686.591.745.591.06 0 .213-.083.331-.201a.54.54 0 0 0 .142-.532c-.047-.284-.012-.343.26-.402.201-.048.604 0 .982.13.355.106.769.248.91.307.202.083.26.178.213.379-.035.142-.059.508-.059.828 0 .402-.07.638-.272.863-.236.284-.284.296-.52.154-.225-.142-.308-.142-.568.011-.165.095-.295.237-.295.296 0 .071.142.45.319.863.19.403.402.734.473.734.083 0 .26-.048.39-.119.13-.07.237-.189.237-.26-.012-.083.07-.224.177-.295.107-.095.284-.119.45-.06.153.048.579.367 1.62 1.325l-.213.331c-.13.177-.367.544-.532.828-.178.272-.402.532-.497.591-.107.047-.26 0-.39-.118-.107-.118-.379-.213-.97-.213v1.892h.414c.26 0 .437-.059.473-.177.035-.095.177-.178.32-.178a.587.587 0 0 1 .413.142c.071.083.308.509.923 1.75l-.65.545c-.356.307-.781.59-.947.662-.166.059-.367.07-.438.035-.082-.035-.153-.165-.153-.295 0-.13-.107-.284-.237-.355a1.017 1.017 0 0 0-.39-.118c-.071 0-.284.33-.473.733-.177.414-.32.816-.32.899 0 .07.143.2.32.272.248.082.402.082.615-.036.248-.142.296-.118.497.142.165.201.248.509.26.982.012.366.023.756.023.875 0 .13-.248.272-.827.473-.462.154-.935.272-1.065.284a.64.64 0 0 1-.39-.154.368.368 0 0 1-.06-.367c.064-.134.017-.28-.141-.437-.13-.142-.296-.249-.355-.249s-.402.284-.733.627c-.568.568-.615.65-.461.863.094.154.307.249.591.272.355.024.438.071.497.355.035.178.047.402.012.497-.048.095-.166.45-.284.78-.118.343-.237.65-.272.686-.036.048-.462.036-.946-.012-.663-.059-.958-.153-1.183-.343-.284-.236-.284-.26-.095-.449.178-.154.19-.236.083-.45-.083-.153-.2-.307-.272-.342-.07-.047-.402.047-.721.2-.331.155-.662.285-.745.285-.071 0-.166.035-.201.094-.024.048.012.26.094.473.107.272.213.379.403.379.224 0 .271.059.271.39-.011.296-.153.532-1.3 1.738l-.793-.437c-.425-.248-.851-.568-.946-.71-.083-.153-.13-.319-.094-.39.035-.07.141-.118.236-.118.13 0 .166-.119.118-.887l-.828-.036c-.543-.012-.886.024-.981.119a.617.617 0 0 0-.142.425c0 .142.106.308.237.379.13.07.236.213.236.33.012.107-.083.285-.201.391-.118.107-.556.367-1.75.958l-.272-.343a9.25 9.25 0 0 1-.627-.863c-.19-.296-.343-.627-.343-.733 0-.13.095-.213.237-.213.13 0 .319-.119.413-.26.095-.154.178-.343.178-.414 0-.083-.118-.201-.272-.26-.142-.06-.473-.202-.733-.32s-.509-.224-.568-.248c-.047-.024-.166.047-.26.142a.768.768 0 0 0-.178.473c0 .165.06.295.119.295s.118.071.118.154c.012.071-.083.237-.201.343-.142.142-.509.225-2.105.355l-.272-.816c-.154-.438-.26-.958-.237-1.159.024-.296.083-.355.343-.355a.967.967 0 0 0 .568-.236c.142-.13.26-.272.248-.32 0-.059-.26-.354-.591-.686-.32-.319-.662-.59-.733-.59-.083-.013-.248.082-.355.2-.118.119-.19.367-.177.568.023.343.011.355-.509.343-.295 0-.816-.107-1.797-.461l.082-.887c.048-.485.142-1.006.225-1.16.071-.141.225-.26.331-.26.118 0 .225.06.237.142.023.083.154.107.355.06.189-.048.366-.178.402-.284.035-.118-.048-.509-.19-.864-.153-.354-.307-.697-.343-.745-.035-.059-.212-.07-.402-.035-.224.047-.354.177-.437.426-.083.248-.201.354-.39.354-.154 0-.556-.248-.97-.603-.39-.343-.722-.65-.745-.686-.024-.035.13-.39.343-.78.2-.39.46-.804.567-.922.107-.119.272-.213.367-.202.095 0 .272.107.378.237.154.166.296.213.473.166.154-.048.308-.142.355-.213.047-.071.071-.201.036-.272-.036-.083-.06-.45-.06-1.455h-.413c-.26 0-.438.06-.473.177-.036.107-.178.166-.39.154-.26-.035-.39-.177-.758-.863-.248-.45-.449-.875-.449-.946 0-.071.284-.331.615-.603.343-.26.745-.544.887-.615.154-.083.355-.118.45-.083.094.035.177.165.177.296 0 .13.106.283.236.354.13.071.32.119.414.119.095 0 .237-.142.308-.32.07-.189.2-.484.295-.686.107-.189.166-.46.142-.58-.023-.13-.189-.271-.39-.342-.284-.083-.367-.071-.45.083-.047.118-.153.154-.271.106a1.051 1.051 0 0 1-.355-.414c-.095-.189-.166-.697-.166-1.986l.497-.13c.284-.06.71-.166.946-.237.296-.071.532-.06.686.012.142.07.213.2.19.33-.025.107.023.32.117.474.095.142.249.26.343.26.095 0 .438-.248.769-.556.32-.319.591-.615.591-.686 0-.059-.106-.224-.236-.354-.154-.142-.32-.213-.45-.166-.106.047-.26.047-.33 0-.084-.035-.154-.201-.178-.367-.024-.165.06-.615.177-1.005.119-.39.237-.78.26-.851.036-.119.26-.13.84-.083.45.047.982.154 1.183.236.213.095.39.237.39.32a.449.449 0 0 1-.201.26c-.166.106-.166.154.035.508.119.213.26.379.308.379.059 0 .19-.06.296-.118.118-.071.46-.225.768-.355.32-.13.568-.308.568-.379 0-.082-.083-.272-.178-.413-.094-.154-.283-.272-.413-.272s-.26-.071-.284-.142c-.036-.083.012-.284.094-.45Zm45.105 2.803c.307-.177.792-.402 1.088-.485a4.773 4.773 0 0 1 1.206-.177c.378-.012.922.059 1.218.142.296.07.532.213.532.295 0 .071-.071.142-.154.142-.07 0-.52.19-.969.426-.45.236-1.065.603-1.36.816-.296.213-.934.804-1.419 1.324s-1.183 1.384-1.55 1.94c-.366.544-.981 1.277-1.36 1.632-.425.378-1.229.91-2.022 1.324-.733.39-1.336.745-1.336.816 0 .071.284.26.615.426.343.177 1.005.532 1.454.793.45.271 1.065.697 1.349.957.283.272.733.805.993 1.195.272.39.686.981.946 1.3.248.332.781.923 1.183 1.337a12.2 12.2 0 0 0 1.561 1.3c.449.308 1.123.675 1.478.817.355.142.639.307.627.355-.012.047-.225.165-.473.236-.249.083-.804.154-1.254.154-.579 0-1.005-.083-1.585-.32a6.664 6.664 0 0 1-1.454-.804c-.355-.272-1.029-.898-1.478-1.371a34.633 34.633 0 0 1-1.538-1.774l-1.478-1.88c-.426-.545-1.135-1.384-2.424-2.744l.827-.852c.462-.461 1.431-1.608 2.165-2.554a73.825 73.825 0 0 1 2.069-2.555 18.363 18.363 0 0 1 1.36-1.36c.343-.283.875-.662 1.183-.851Zm9.815-.284c-.012-.07.178-.177.438-.248a7.27 7.27 0 0 1 1.123-.13c.355 0 .911.059 1.242.142.319.082.911.343 1.301.58.39.236.946.638 1.242.898.295.248.958.958 1.49 1.573.52.615 1.372 1.667 1.892 2.341a28.236 28.236 0 0 0 1.904 2.247c.532.556.97 1.04.981 1.076 0 .036-.437.509-.981 1.065a33.518 33.518 0 0 0-2.046 2.424 58.331 58.331 0 0 1-2.141 2.602c-.65.745-1.383 1.407-1.927 1.786-.485.33-1.195.685-1.573.792-.367.106-.97.2-1.325.2-.354 0-.886-.07-1.182-.153-.296-.07-.532-.177-.532-.236 0-.048.142-.142.319-.201a9.7 9.7 0 0 0 .922-.438c.32-.165.935-.556 1.349-.851.425-.296 1.052-.864 1.407-1.254s.993-1.218 1.443-1.833c.437-.615 1.052-1.384 1.371-1.703.32-.32.958-.78 1.408-1.029.449-.26 1.088-.58 1.395-.733.367-.166.556-.32.532-.438-.023-.094-.555-.449-1.182-.768-.627-.32-1.384-.78-1.703-1.006-.367-.26-1.064-1.076-1.928-2.247-.958-1.265-1.644-2.057-2.259-2.578a10.605 10.605 0 0 0-1.915-1.241c-.568-.272-1.053-.556-1.065-.639Zm-5.534 6.847v.008c.015-.115.64-.15 2.661-.15 1.691 0 2.66.048 2.66.119 0 .07-.094.295-.224.496-.119.213-.627 1.112-1.124 1.987-.496.875-.91 1.62-.91 1.656.012.035-.083.177-.402.603l-.391-.591c-.201-.332-.378-.627-.378-.663 0-.035-.095-.2-.213-.378-.13-.19-.438-.733-.698-1.218a29.211 29.211 0 0 0-.733-1.301c-.126-.218-.242-.47-.248-.56v.004-.012Z" fill="#FDFDFD"/><path d="M11.42 10.98c.45-.107 1.147-.154 1.892-.13.65.023 1.431.106 1.739.177.414.094.567.189.567.33.012.143-.26.356-.792.628-.721.378-.875.413-1.81.413-.898 0-1.1-.047-1.809-.378-.59-.296-.792-.45-.792-.627 0-.13.071-.236.142-.248.083 0 .473-.083.863-.166Zm50.852.354c.13-.047.532-.13.887-.19.355-.046 1.159-.07 1.774-.046.615.035 1.383.13 1.715.224.319.083.91.284 1.289.438.39.154.721.355.745.426.023.118-.852.165-4.08.177-2.259.024-4.175.024-4.258 0-.07-.012-.142-.06-.142-.118 0-.048.414-.249.911-.461a73.453 73.453 0 0 1 1.159-.45Z" fill="#FC5B31"/><path d="M15.441 12.86c.331-.201.745-.532.934-.745.19-.201.367-.367.39-.367.024 0 .202.083.39.177.19.095.356.237.356.296 0 .06-.13.32-.284.568-.154.236-.52.662-.828.946-.296.272-.745.603-.982.721-.248.118-.768.32-1.159.426-.496.154-.946.19-1.537.154a6.467 6.467 0 0 1-1.537-.343 5.766 5.766 0 0 1-1.266-.722c-.319-.248-.733-.674-.922-.946-.201-.284-.355-.603-.355-.71 0-.118.142-.283.308-.354.2-.107.354-.118.449-.036.083.06.473.367.851.675.402.33.97.65 1.349.768.354.118.993.213 1.419.213.426 0 1.005-.07 1.3-.165a5.495 5.495 0 0 0 1.124-.556Z" fill="#FC5B31"/><path d="M7.317 13.44c-.012-.107.082-.296.2-.415.119-.118.26-.213.308-.213.06 0 .355.379.674.852.308.461.769 1.017 1.03 1.23.26.213.85.556 1.3.78.686.32.993.39 1.833.426.556.035 1.3-.012 1.656-.095.354-.07.993-.343 1.419-.59.425-.25.993-.687 1.277-.994.272-.296.603-.757.733-1.017.13-.26.32-.509.414-.556.106-.06.272-.012.414.142.142.13.248.307.236.378 0 .083-.165.485-.366.887-.237.473-.686 1.053-1.218 1.573-.485.485-1.112.97-1.49 1.147a6.33 6.33 0 0 1-1.242.45c-.32.082-1.04.141-1.596.141-.722 0-1.219-.07-1.774-.26a6.507 6.507 0 0 1-1.408-.698 7.449 7.449 0 0 1-1.182-1.028c-.296-.343-.686-.911-.864-1.278-.189-.366-.343-.756-.354-.863Zm50.993.2 2.105-.035c1.148-.024 3.927-.036 10.253 0l.45.52c.236.284.437.556.437.603 0 .06-.07.118-.142.13-.082.024-3.216.036-6.953.012-3.737-.012-6.836-.024-6.883-.035-.059-.012-.094-.048-.094-.095 0-.06.177-.32.827-1.1Z" fill="#FC5B31"/><path d="M18.126 16.242c.283-.355.662-1.017.851-1.455.177-.437.378-.792.438-.792.059 0 .189.13.283.296.095.165.154.473.13.685-.023.201-.2.722-.402 1.148a8.671 8.671 0 0 1-.886 1.419 8.125 8.125 0 0 1-1.337 1.265c-.45.343-1.17.757-1.62.923a8.676 8.676 0 0 1-1.774.413c-.757.095-1.182.083-1.975-.059a8.189 8.189 0 0 1-1.774-.544 7.895 7.895 0 0 1-1.3-.792 10.157 10.157 0 0 1-.864-.78 8.844 8.844 0 0 1-.71-.9 7.853 7.853 0 0 1-.638-1.217c-.154-.367-.272-.805-.272-.97a1.3 1.3 0 0 1 .118-.532c.071-.13.201-.237.296-.237.106 0 .236.201.33.497.084.284.356.804.58 1.159.237.355.686.899 1.006 1.194.307.296.804.686 1.1.875.295.19.922.462 1.383.615.627.201 1.147.272 1.892.272.58 0 1.348-.082 1.715-.177a6.445 6.445 0 0 0 1.242-.473c.32-.154.816-.485 1.123-.733.308-.249.78-.745 1.065-1.1Z" fill="#FC5B31"/><path d="M20.089 16.053c-.012-.13.023-.284.083-.32.059-.047.13-.082.165-.082.035-.012.13.059.201.142.071.082.225.496.355.922.165.568.224 1.135.224 2.188 0 1.17-.047 1.56-.283 2.247a11.13 11.13 0 0 1-.509 1.3c-.142.26-.437.77-.686 1.124-.236.355-.757.946-1.147 1.3-.402.356-1.135.876-1.644 1.136-.52.272-1.3.591-1.762.698-.52.13-1.289.2-2.07.2-.744 0-1.525-.082-1.95-.188-.39-.107-1.112-.39-1.597-.627-.485-.248-1.23-.733-1.644-1.1-.414-.355-.981-.97-1.253-1.36-.284-.39-.639-.981-.805-1.3a12.05 12.05 0 0 1-.508-1.302c-.154-.508-.213-1.1-.225-2.07 0-.744.071-1.655.142-2.01a3.2 3.2 0 0 1 .603-1.241l.142.354c.071.201.331.757.568 1.242.307.627.698 1.147 1.324 1.786.52.52 1.207 1.076 1.656 1.325a8.528 8.528 0 0 0 1.691.662 7.662 7.662 0 0 0 1.88.248c.627 0 1.301-.083 1.869-.248a9.996 9.996 0 0 0 1.703-.674c.544-.284 1.135-.745 1.703-1.325.65-.662.993-1.123 1.336-1.833.248-.52.45-1.052.438-1.194Zm42.431.343c.32-.213.816-.438 1.112-.497a7.91 7.91 0 0 1 .887-.118c.19-.012.627.059.958.13.331.082.875.343 1.206.567.343.225.769.627.958.887.19.26.438.71.544 1.006.118.319.201.875.201 1.36 0 .59-.07.993-.26 1.419a5.621 5.621 0 0 1-.58.993c-.165.213-.567.568-.898.769-.32.213-.852.461-1.183.544a4.31 4.31 0 0 1-1.242.094 4.853 4.853 0 0 1-1.3-.354 4.976 4.976 0 0 1-1.112-.757 4.981 4.981 0 0 1-.757-1.112 3.746 3.746 0 0 1-.355-1.42c-.035-.543.012-.957.166-1.418.118-.355.402-.887.638-1.183.237-.295.686-.71 1.017-.91Zm-4.233.047c-.119-.178-.19-.367-.166-.426.024-.047.698-.106 1.478-.118.852 0 1.455.035 1.49.106.036.071 0 .142-.059.178-.059.035-.319.366-.58.733-.248.378-.508.887-.59 1.123-.071.249-.19.473-.249.509-.059.035-.343-.355-.615-.863a34.715 34.715 0 0 0-.71-1.242Zm10.17.272c-.248-.331-.45-.639-.45-.71 0-.07.556-.118 1.42-.118.828 0 1.442.047 1.478.118.035.071-.248.663-.615 1.313-.378.662-.745 1.206-.804 1.194-.06 0-.225-.271-.355-.603-.13-.343-.438-.875-.674-1.194Zm-12.299.65.26-.686c.142-.366.296-.674.331-.674.048-.011.473.674.958 1.502s1.502 2.578 2.259 3.88c.757 1.3 1.691 2.92 2.07 3.594.39.686.84 1.455.993 1.715.154.272.378.662.497.863.13.213.224.473.224.568 0 .142-.106.166-.496.107a8.865 8.865 0 0 1-.686-.107c-.095-.024-.414-.438-.698-.91-.284-.474-.698-1.148-.91-1.49-.225-.332-.403-.64-.403-.675 0-.035-.165-.343-.366-.686-.213-.33-.887-1.49-1.502-2.566a399.187 399.187 0 0 1-2.531-4.435Zm14.747.887.887-1.513c.201-.332.414-.615.485-.615.059 0 .213.236.343.532.13.295.236.615.236.71 0 .094-.402.839-.887 1.655-.484.816-.887 1.49-.887 1.502 0 .024-.343.639-.768 1.36-.426.733-.769 1.36-.769 1.395 0 .036-.177.343-.39.674-.225.343-.568.923-.757 1.278-.201.354-.627 1.1-.934 1.643-.32.544-.686 1.065-.816 1.148-.13.094-.485.2-.804.248-.509.083-.556.07-.568-.142 0-.13.083-.32.189-.414.106-.095.177-.213.177-.26-.011-.035 1.053-1.928 2.366-4.198l.003-.006c1.311-2.257 2.622-4.512 2.894-4.997Zm-15.019 2.283c-.036-.343-.036-.65.012-.686.059-.036.153 0 .236.083.071.082.793 1.3 1.585 2.696a328.53 328.53 0 0 1 1.75 3.075c.166.295.39.674.509.851.13.19.224.379.224.45 0 .07-.059.118-.118.118s-.473-.284-.91-.639c-.45-.343-1.112-1.017-1.479-1.502-.366-.485-.804-1.17-.958-1.525a12.56 12.56 0 0 1-.532-1.479 13.733 13.733 0 0 1-.319-1.442Zm16.296.638c.379-.626.674-1.194.674-1.265 0-.071.083-.118.178-.118.142 0 .153.142.106.792-.047.45-.225 1.265-.414 1.833-.2.627-.603 1.431-.97 2.01-.354.544-.898 1.219-1.23 1.514a14.9 14.9 0 0 1-1.076.887c-.272.201-.52.32-.555.26-.036-.047.437-.946 1.052-2.01l.01-.017c.6-1.047 1.197-2.09 1.326-2.313.13-.224.533-.934.9-1.573Zm-8.455 4.695c-.379-.65-.674-1.241-.674-1.324 0-.107.082-.119.319-.06.177.06.686.095 1.147.095.461 0 1.005-.035 1.218-.094.237-.048.379-.036.379.035 0 .071-.332.662-.734 1.325-.414.662-.804 1.194-.863 1.194-.06 0-.426-.532-.792-1.17Z" fill="#FC5B31"/><path d="M62.934 17.755c.225-.177.532-.366.698-.437.165-.06.58-.118.91-.118.39-.012.793.07 1.064.213.249.118.627.413.828.65.213.236.438.627.509.875.059.236.118.591.118.792a3.16 3.16 0 0 1-.154.77 3.504 3.504 0 0 1-.437.791 2.632 2.632 0 0 1-.769.615c-.307.166-.71.249-1.159.249-.425 0-.84-.083-1.111-.225a2.902 2.902 0 0 1-.805-.627c-.189-.236-.425-.627-.496-.875-.083-.26-.154-.615-.154-.816 0-.2.13-.615.272-.946.154-.32.461-.733.686-.91Zm-56.15 3.312c-.154-.45-.272-.875-.272-.946-.012-.107.06-.095.201.035.118.095.473.402.804.674.32.26 1.017.698 1.538.958.52.26 1.289.568 1.714.686.556.154 1.183.201 2.306.201.84 0 1.774-.07 2.07-.154a13.82 13.82 0 0 0 1.3-.46 8.877 8.877 0 0 0 1.42-.722 9.972 9.972 0 0 0 1.159-.887c.272-.272.544-.45.591-.39.048.047-.047.473-.213.946a9.013 9.013 0 0 1-.768 1.549c-.26.39-.745.946-1.065 1.242-.33.295-.97.745-1.419.981a7.444 7.444 0 0 1-1.833.627c-.686.142-1.23.177-1.715.13-.39-.047-.946-.142-1.241-.213-.296-.07-.9-.32-1.36-.556a8.533 8.533 0 0 1-1.42-.97c-.319-.295-.804-.851-1.052-1.241a7.63 7.63 0 0 1-.745-1.49Z" fill="#FDFDFD"/></g><defs><clipPath id="a"><path fill="#fff" d="M0 0h26v38H0z"/></clipPath></defs></svg>