<svg width="32" height="38" fill="none" xmlns="http://www.w3.org/2000/svg"><g clip-path="url(#a)"><mask id="b" maskUnits="userSpaceOnUse" x="-88.517" y="3.804" width="120" height="29" fill="#000"><path fill="#fff" d="M-88.517 3.804h120v29h-120z"/><path fill-rule="evenodd" clip-rule="evenodd" d="M-75.684 4.804c.12 0 .37.142.543.327.174.184.609.532.957.76.337.24.652.424.695.424.055 0 .479.25.957.565.478.305 1.087.761 1.359 1.011.271.25.565.609.652.805.152.337.184.348.815.348.435 0 .848.076 1.25.239.326.141 1.185.608 1.902 1.032.717.435 1.348.783 1.413.783.065 0 .37.108.685.239.337.152.576.315.565.413 0 .087-.076.598-.163 1.141-.087.533-.13 1.218-.098 1.522.033.293.011 1.033-.054 1.63-.054.598-.185 1.261-.283 1.468a3.7 3.7 0 0 1-.326.598c-.141.195-.12.26.174.706.174.272.37.717.424 1 .065.294.109 1.24.098 2.12 0 .891.054 1.956.12 2.37.065.412.108.803.076.869-.022.065-.403.239-.848.413a9.965 9.965 0 0 0-1.457.685c-.359.217-.902.532-1.196.695-.304.163-.88.402-1.304.533-.424.13-.946.228-1.174.228-.282 0-.424.054-.478.185-.044.108-.185.37-.315.576-.142.206-.49.554-.772.772-.282.217-1.01.663-1.609.978-.597.326-1.358.804-1.684 1.076a18.17 18.17 0 0 1-.794.63c-.152.11-.282.044-.87-.456-.369-.326-1.086-.815-1.597-1.098a17.418 17.418 0 0 1-1.522-.956c-.326-.25-.717-.598-.87-.772a5.877 5.877 0 0 1-.467-.63c-.141-.24-.239-.294-.456-.25-.153.032-.533 0-.848-.055-.305-.065-.913-.293-1.326-.51a12.86 12.86 0 0 1-1.196-.686 9.261 9.261 0 0 0-.978-.565 10.487 10.487 0 0 0-1.141-.467c-.326-.109-.63-.218-.674-.261-.044-.033 0-.359.076-.717.087-.36.163-1.185.163-1.848s.054-1.642.12-2.174c.075-.74.184-1.12.75-2.12l-.261-.304c-.142-.163-.338-.565-.435-.891-.142-.457-.174-1.011-.163-2.392.01-1.01-.033-2.01-.098-2.282a3.537 3.537 0 0 1-.13-.74c0-.151.086-.271.239-.336.14-.055.543-.218.902-.348a10.62 10.62 0 0 0 1.358-.685 22.129 22.129 0 0 1 1.522-.804c.587-.272 1.022-.391 1.576-.435.707-.054.772-.087.924-.38.087-.185.304-.5.49-.707.184-.217.77-.674 1.303-1.022.533-.347 1.011-.63 1.055-.63.054 0 .413-.217.815-.478.413-.261.891-.62 1.065-.805.174-.184.424-.337.544-.337Zm44.75 1.294c.075.01.293.217.477.467.174.25.522.555.761.663.229.12.609.337.837.49.359.239.446.26.598.14.109-.075.49-.282.87-.456.445-.217.815-.5 1.087-.815.217-.272.467-.5.543-.49.065 0 .185.262.26.566.088.402.294.772.653 1.228.283.359.565.718.63.783.055.076.196.12.305.087.098-.022.522-.076.945-.109.533-.032.935-.141 1.326-.358.316-.164.61-.25.653-.207.054.054.076.424.054.815-.033.544.022.924.217 1.49.142.412.305.793.36.836a.648.648 0 0 0 .325.087c.12 0 .435.098.707.229.38.184.641.217 1.217.195.391-.022.761-.01.815.033.044.043-.043.304-.206.576-.229.37-.337.728-.424 1.489-.12 1-.12 1.01.13 1.196.142.097.479.38.75.63.272.25.642.49.816.543.173.044.456.12.63.153.163.032.293.13.293.195-.01.076-.239.326-.521.544-.348.282-.642.663-.946 1.228-.37.696-.413.859-.293 1.01.076.099.282.49.456.86.228.489.468.782.815 1.032.261.196.479.424.49.49 0 .075-.185.184-.403.25a5.007 5.007 0 0 1-.521.108c-.055.01-.49.283-1.772 1.25l.054.924c.044.739.12 1.054.37 1.543.174.348.315.674.315.74 0 .065-.26.086-.674.043-.544-.054-.88-.011-1.609.206-.891.261-.924.283-.989.63a2.785 2.785 0 0 1-.239.718c-.13.25-.185.63-.185 2.207l-.62-.316c-.423-.217-.923-.358-2.423-.554l-.457.511c-.26.272-.576.663-.706.87a2.591 2.591 0 0 0-.359.847c-.087.38-.152.49-.326.49-.12 0-.217-.044-.217-.11 0-.064-.218-.325-.49-.597-.271-.272-.597-.522-.728-.554-.141-.044-.424-.185-1.01-.587l-.87.456c-.478.25-.957.555-1.076.674-.109.13-.294.337-.402.468-.109.14-.272.228-.337.217-.076-.022-.196-.26-.272-.522a2.72 2.72 0 0 0-.38-.815c-.142-.196-.424-.576-.63-.859-.294-.391-.436-.489-.599-.434-.12.032-.554.087-.978.12-.554.043-.913.14-1.326.38-.326.173-.598.271-.63.206-.033-.065-.022-.37.01-.685.055-.445 0-.76-.25-1.521-.282-.87-.326-.957-.63-1.022a4.882 4.882 0 0 1-.815-.283c-.402-.174-.62-.206-1.272-.141-.435.032-.793.032-.793-.022 0-.043.14-.348.326-.674.206-.38.326-.76.326-1.032 0-.24.054-.62.108-.848.11-.402.11-.402-.565-1.055-.543-.51-.837-.695-1.424-.89-.402-.142-.728-.316-.728-.392 0-.065.054-.13.109-.13.054 0 .315-.185.576-.424.25-.229.522-.577.609-.783a4.36 4.36 0 0 1 .424-.75c.217-.304.25-.413.152-.544-.076-.086-.294-.478-.49-.858a3.708 3.708 0 0 0-.858-1.141c-.402-.36-.49-.479-.38-.587.075-.077.206-.142.293-.13.087 0 .315-.055.51-.131.185-.076.664-.392 1.75-1.228l-.054-.979c-.043-.793-.12-1.098-.37-1.608-.173-.337-.282-.642-.227-.663.043-.033.37-.022.728.01.51.055.793.022 1.304-.163.359-.12.74-.239.848-.26.141-.022.293-.316.522-.957.271-.772.315-1.033.26-1.609-.043-.5-.021-.674.087-.674.066 0 .348.12.62.261.326.174.804.305 1.413.38.51.066.957.077.99.033.043-.043.347-.391.684-.782.337-.392.641-.859.685-1.033.032-.174.098-.435.152-.576.054-.13.152-.24.228-.24Zm43.02 4.174c.74.021 1.207.108 1.63.271.327.142.957.457 1.392.729.424.26.783.543.783.608 0 .087-.25.163-.674.218-.38.043-1.076.206-1.555.358a9.4 9.4 0 0 0-1.63.783c-.413.272-1.054.794-1.413 1.163-.359.359-1.065 1.25-1.576 1.957-.51.706-1.13 1.467-1.37 1.684-.25.218-.75.576-1.782 1.207l.891.587c.5.315 1.098.815 1.348 1.108.25.294.706.903 1.022 1.348.315.446.815 1.087 1.12 1.413.293.326.782.805 1.097 1.066.304.25.87.63 1.26.826.392.206 1 .456 1.36.554.358.098.913.217 1.239.25.326.043.608.12.63.185.022.065-.26.315-.641.565-.38.26-1 .598-1.392.76-.543.23-.934.305-1.739.338-.88.043-1.14.01-1.793-.218a7.372 7.372 0 0 1-1.413-.684c-.359-.229-1.022-.794-1.467-1.24-.457-.456-1.587-1.782-2.511-2.945-.935-1.163-1.99-2.391-2.337-2.728-.359-.326-.805-.696-1-.816-.185-.108-.37-.271-.402-.337-.033-.076.087-.217.271-.304.174-.087.696-.522 1.153-.946.456-.434 1.326-1.423 1.923-2.206a71.621 71.621 0 0 1 2.033-2.49c.51-.597 1.293-1.369 1.74-1.727.445-.359 1-.74 1.227-.848.218-.12.663-.283.979-.37.38-.108.902-.152 1.597-.12Zm8.315 0c.957.032 1.174.076 1.848.38.413.196 1.011.533 1.305.761.304.228.804.685 1.13 1 .326.326.978 1.076 1.467 1.674a86.34 86.34 0 0 1 1.511 1.902 20.41 20.41 0 0 0 1.522 1.728c.49.5 1.076 1.022 1.304 1.163.218.142.402.305.402.37s-.206.25-.467.424c-.25.174-.815.663-1.239 1.087-.435.424-1.163 1.271-1.62 1.891a51.192 51.192 0 0 1-1.62 2.033c-.434.51-1.13 1.25-1.532 1.64-.413.392-.967.86-1.239 1.044-.271.185-.848.457-1.271.62-.62.217-1 .282-1.685.282-.598 0-1.098-.065-1.5-.195a13.34 13.34 0 0 1-1.142-.49 9.06 9.06 0 0 1-1-.608c-.26-.185-.445-.38-.413-.446.033-.065.261-.108.522-.108.25 0 .772-.087 1.163-.207a12.41 12.41 0 0 0 1.141-.38c.24-.109.75-.402 1.142-.663.391-.261.989-.75 1.337-1.109.348-.348 1.021-1.163 1.478-1.826.467-.663 1.109-1.435 1.435-1.728.326-.294.848-.674 1.163-.837.304-.174.554-.37.543-.435-.021-.054-.304-.26-.63-.435a6.822 6.822 0 0 1-1.12-.837c-.293-.282-.88-1-1.304-1.598-.424-.597-1.087-1.423-1.478-1.825a11.114 11.114 0 0 0-1.479-1.261c-.413-.283-1.152-.642-1.63-.805a10.036 10.036 0 0 0-1.609-.38c-.402-.044-.728-.12-.728-.185 0-.054.283-.293.63-.51.337-.218.935-.544 1.327-.718.39-.185.826-.348.978-.38.152-.033.76-.044 1.358-.033Zm-4.456 2.684a8.97 8.97 0 0 1 1.522.142c.358.087.88.26 1.174.38.282.13.489.283.456.337-.032.065-1.174.109-3.098.109s-3.065-.044-3.097-.109c-.033-.054.108-.174.304-.26.185-.077.598-.229.891-.316a9.03 9.03 0 0 1 .761-.217c.12-.033.609-.055 1.087-.066Zm.706 1.816c1.946.01 3.598.021 3.674.021.066 0 .272.153.457.327.185.184.326.402.326.489 0 .141-.641.163-5.109.163-4.021 0-5.108-.033-5.108-.13 0-.077.13-.283.293-.468.261-.294.359-.326 1.109-.38.456-.033 2.413-.044 4.358-.022Zm-6.195 1.76c.054 0 .25.261.413.577.163.304.674 1.206 1.13 1.978.446.782 1.392 2.413 2.098 3.641.696 1.228 1.315 2.272 1.37 2.337a.45.45 0 0 1 .098.25c0 .065-.11.13-.24.13a2.05 2.05 0 0 1-.608-.13 1.289 1.289 0 0 1-.587-.522c-.13-.206-.305-.521-.413-.706-.098-.174-.468-.815-.815-1.413-.348-.598-.718-1.229-.816-1.413-.108-.174-.608-1.076-1.13-1.979-.51-.913-.924-1.739-.913-1.826.01-.097.076-.337.152-.543.076-.207.196-.38.261-.38Zm5.598 0c3.25 0 4.195.033 4.228.142.022.065-.044.25-.152.402-.098.152-.522.88-.924 1.63-.413.75-.946 1.707-1.196 2.12-.25.424-.685 1.206-.978 1.74-.294.532-.62 1.108-.728 1.282-.163.25-.228.271-.37.163-.098-.076-.228-.261-.304-.413-.076-.152-.805-1.446-1.609-2.88-.804-1.436-1.62-2.87-1.815-3.175-.185-.315-.337-.674-.337-.793 0-.217.076-.217 4.185-.217Zm5.641.087c.065.055.185.294.26.522.131.424.131.424-.803 2.055-.511.902-1.164 2.043-1.457 2.554-.283.51-.707 1.239-.946 1.63-.239.392-.576.968-.75 1.283-.217.402-.413.598-.64.674a2.05 2.05 0 0 1-.566.108c-.163 0-.25-.065-.25-.184a.53.53 0 0 1 .098-.305c.054-.065.565-.913 1.13-1.902.565-.989 1.457-2.521 1.978-3.413.522-.891.946-1.641.935-1.663 0-.01.109-.217.24-.435.14-.228.347-.554.456-.717.13-.207.228-.272.315-.207ZM9.989 19.304c.086.12.782 1.326 1.554 2.696.783 1.359 1.391 2.51 1.359 2.576-.033.065-.36-.141-.729-.457a9.654 9.654 0 0 1-1.054-1 6.553 6.553 0 0 1-1.065-2.076 17.649 17.649 0 0 1-.261-1.032c-.076-.326-.087-.674-.044-.761.077-.141.11-.13.24.054Zm12.228-.054c.043 0 .087.185.087.413 0 .217-.076.696-.174 1.054a9.164 9.164 0 0 1-.5 1.305 7.46 7.46 0 0 1-.729 1.13 9.37 9.37 0 0 1-1.043 1.01c-.359.294-.696.49-.74.447-.053-.044.12-.435.37-.848s.88-1.511 1.403-2.435c.521-.913.945-1.707.934-1.74 0-.043.066-.13.153-.206.086-.076.195-.13.239-.13Z"/></mask><path fill-rule="evenodd" clip-rule="evenodd" d="M-75.684 4.804c.12 0 .37.142.543.327.174.184.609.532.957.76.337.24.652.424.695.424.055 0 .479.25.957.565.478.305 1.087.761 1.359 1.011.271.25.565.609.652.805.152.337.184.348.815.348.435 0 .848.076 1.25.239.326.141 1.185.608 1.902 1.032.717.435 1.348.783 1.413.783.065 0 .37.108.685.239.337.152.576.315.565.413 0 .087-.076.598-.163 1.141-.087.533-.13 1.218-.098 1.522.033.293.011 1.033-.054 1.63-.054.598-.185 1.261-.283 1.468a3.7 3.7 0 0 1-.326.598c-.141.195-.12.26.174.706.174.272.37.717.424 1 .065.294.109 1.24.098 2.12 0 .891.054 1.956.12 2.37.065.412.108.803.076.869-.022.065-.403.239-.848.413a9.965 9.965 0 0 0-1.457.685c-.359.217-.902.532-1.196.695-.304.163-.88.402-1.304.533-.424.13-.946.228-1.174.228-.282 0-.424.054-.478.185-.044.108-.185.37-.315.576-.142.206-.49.554-.772.772-.282.217-1.01.663-1.609.978-.597.326-1.358.804-1.684 1.076a18.17 18.17 0 0 1-.794.63c-.152.11-.282.044-.87-.456-.369-.326-1.086-.815-1.597-1.098a17.418 17.418 0 0 1-1.522-.956c-.326-.25-.717-.598-.87-.772a5.877 5.877 0 0 1-.467-.63c-.141-.24-.239-.294-.456-.25-.153.032-.533 0-.848-.055-.305-.065-.913-.293-1.326-.51a12.86 12.86 0 0 1-1.196-.686 9.261 9.261 0 0 0-.978-.565 10.487 10.487 0 0 0-1.141-.467c-.326-.109-.63-.218-.674-.261-.044-.033 0-.359.076-.717.087-.36.163-1.185.163-1.848s.054-1.642.12-2.174c.075-.74.184-1.12.75-2.12l-.261-.304c-.142-.163-.338-.565-.435-.891-.142-.457-.174-1.011-.163-2.392.01-1.01-.033-2.01-.098-2.282a3.537 3.537 0 0 1-.13-.74c0-.151.086-.271.239-.336.14-.055.543-.218.902-.348a10.62 10.62 0 0 0 1.358-.685 22.129 22.129 0 0 1 1.522-.804c.587-.272 1.022-.391 1.576-.435.707-.054.772-.087.924-.38.087-.185.304-.5.49-.707.184-.217.77-.674 1.303-1.022.533-.347 1.011-.63 1.055-.63.054 0 .413-.217.815-.478.413-.261.891-.62 1.065-.805.174-.184.424-.337.544-.337Zm44.75 1.294c.075.01.293.217.477.467.174.25.522.555.761.663.229.12.609.337.837.49.359.239.446.26.598.14.109-.075.49-.282.87-.456.445-.217.815-.5 1.087-.815.217-.272.467-.5.543-.49.065 0 .185.262.26.566.088.402.294.772.653 1.228.283.359.565.718.63.783.055.076.196.12.305.087.098-.022.522-.076.945-.109.533-.032.935-.141 1.326-.358.316-.164.61-.25.653-.207.054.054.076.424.054.815-.033.544.022.924.217 1.49.142.412.305.793.36.836a.648.648 0 0 0 .325.087c.12 0 .435.098.707.229.38.184.641.217 1.217.195.391-.022.761-.01.815.033.044.043-.043.304-.206.576-.229.37-.337.728-.424 1.489-.12 1-.12 1.01.13 1.196.142.097.479.38.75.63.272.25.642.49.816.543.173.044.456.12.63.153.163.032.293.13.293.195-.01.076-.239.326-.521.544-.348.282-.642.663-.946 1.228-.37.696-.413.859-.293 1.01.076.099.282.49.456.86.228.489.468.782.815 1.032.261.196.479.424.49.49 0 .075-.185.184-.403.25a5.007 5.007 0 0 1-.521.108c-.055.01-.49.283-1.772 1.25l.054.924c.044.739.12 1.054.37 1.543.174.348.315.674.315.74 0 .065-.26.086-.674.043-.544-.054-.88-.011-1.609.206-.891.261-.924.283-.989.63a2.785 2.785 0 0 1-.239.718c-.13.25-.185.63-.185 2.207l-.62-.316c-.423-.217-.923-.358-2.423-.554l-.457.511c-.26.272-.576.663-.706.87a2.591 2.591 0 0 0-.359.847c-.087.38-.152.49-.326.49-.12 0-.217-.044-.217-.11 0-.064-.218-.325-.49-.597-.271-.272-.597-.522-.728-.554-.141-.044-.424-.185-1.01-.587l-.87.456c-.478.25-.957.555-1.076.674-.109.13-.294.337-.402.468-.109.14-.272.228-.337.217-.076-.022-.196-.26-.272-.522a2.72 2.72 0 0 0-.38-.815c-.142-.196-.424-.576-.63-.859-.294-.391-.436-.489-.599-.434-.12.032-.554.087-.978.12-.554.043-.913.14-1.326.38-.326.173-.598.271-.63.206-.033-.065-.022-.37.01-.685.055-.445 0-.76-.25-1.521-.282-.87-.326-.957-.63-1.022a4.882 4.882 0 0 1-.815-.283c-.402-.174-.62-.206-1.272-.141-.435.032-.793.032-.793-.022 0-.043.14-.348.326-.674.206-.38.326-.76.326-1.032 0-.24.054-.62.108-.848.11-.402.11-.402-.565-1.055-.543-.51-.837-.695-1.424-.89-.402-.142-.728-.316-.728-.392 0-.065.054-.13.109-.13.054 0 .315-.185.576-.424.25-.229.522-.577.609-.783a4.36 4.36 0 0 1 .424-.75c.217-.304.25-.413.152-.544-.076-.086-.294-.478-.49-.858a3.708 3.708 0 0 0-.858-1.141c-.402-.36-.49-.479-.38-.587.075-.077.206-.142.293-.13.087 0 .315-.055.51-.131.185-.076.664-.392 1.75-1.228l-.054-.979c-.043-.793-.12-1.098-.37-1.608-.173-.337-.282-.642-.227-.663.043-.033.37-.022.728.01.51.055.793.022 1.304-.163.359-.12.74-.239.848-.26.141-.022.293-.316.522-.957.271-.772.315-1.033.26-1.609-.043-.5-.021-.674.087-.674.066 0 .348.12.62.261.326.174.804.305 1.413.38.51.066.957.077.99.033.043-.043.347-.391.684-.782.337-.392.641-.859.685-1.033.032-.174.098-.435.152-.576.054-.13.152-.24.228-.24Zm43.02 4.174c.74.021 1.207.108 1.63.271.327.142.957.457 1.392.729.424.26.783.543.783.608 0 .087-.25.163-.674.218-.38.043-1.076.206-1.555.358a9.4 9.4 0 0 0-1.63.783c-.413.272-1.054.794-1.413 1.163-.359.359-1.065 1.25-1.576 1.957-.51.706-1.13 1.467-1.37 1.684-.25.218-.75.576-1.782 1.207l.891.587c.5.315 1.098.815 1.348 1.108.25.294.706.903 1.022 1.348.315.446.815 1.087 1.12 1.413.293.326.782.805 1.097 1.066.304.25.87.63 1.26.826.392.206 1 .456 1.36.554.358.098.913.217 1.239.25.326.043.608.12.63.185.022.065-.26.315-.641.565-.38.26-1 .598-1.392.76-.543.23-.934.305-1.739.338-.88.043-1.14.01-1.793-.218a7.372 7.372 0 0 1-1.413-.684c-.359-.229-1.022-.794-1.467-1.24-.457-.456-1.587-1.782-2.511-2.945-.935-1.163-1.99-2.391-2.337-2.728-.359-.326-.805-.696-1-.816-.185-.108-.37-.271-.402-.337-.033-.076.087-.217.271-.304.174-.087.696-.522 1.153-.946.456-.434 1.326-1.423 1.923-2.206a71.621 71.621 0 0 1 2.033-2.49c.51-.597 1.293-1.369 1.74-1.727.445-.359 1-.74 1.227-.848.218-.12.663-.283.979-.37.38-.108.902-.152 1.597-.12Zm8.315 0c.957.032 1.174.076 1.848.38.413.196 1.011.533 1.305.761.304.228.804.685 1.13 1 .326.326.978 1.076 1.467 1.674a86.34 86.34 0 0 1 1.511 1.902 20.41 20.41 0 0 0 1.522 1.728c.49.5 1.076 1.022 1.304 1.163.218.142.402.305.402.37s-.206.25-.467.424c-.25.174-.815.663-1.239 1.087-.435.424-1.163 1.271-1.62 1.891a51.192 51.192 0 0 1-1.62 2.033c-.434.51-1.13 1.25-1.532 1.64-.413.392-.967.86-1.239 1.044-.271.185-.848.457-1.271.62-.62.217-1 .282-1.685.282-.598 0-1.098-.065-1.5-.195a13.34 13.34 0 0 1-1.142-.49 9.06 9.06 0 0 1-1-.608c-.26-.185-.445-.38-.413-.446.033-.065.261-.108.522-.108.25 0 .772-.087 1.163-.207a12.41 12.41 0 0 0 1.141-.38c.24-.109.75-.402 1.142-.663.391-.261.989-.75 1.337-1.109.348-.348 1.021-1.163 1.478-1.826.467-.663 1.109-1.435 1.435-1.728.326-.294.848-.674 1.163-.837.304-.174.554-.37.543-.435-.021-.054-.304-.26-.63-.435a6.822 6.822 0 0 1-1.12-.837c-.293-.282-.88-1-1.304-1.598-.424-.597-1.087-1.423-1.478-1.825a11.114 11.114 0 0 0-1.479-1.261c-.413-.283-1.152-.642-1.63-.805a10.036 10.036 0 0 0-1.609-.38c-.402-.044-.728-.12-.728-.185 0-.054.283-.293.63-.51.337-.218.935-.544 1.327-.718.39-.185.826-.348.978-.38.152-.033.76-.044 1.358-.033Zm-4.456 2.684a8.97 8.97 0 0 1 1.522.142c.358.087.88.26 1.174.38.282.13.489.283.456.337-.032.065-1.174.109-3.098.109s-3.065-.044-3.097-.109c-.033-.054.108-.174.304-.26.185-.077.598-.229.891-.316a9.03 9.03 0 0 1 .761-.217c.12-.033.609-.055 1.087-.066Zm.706 1.816c1.946.01 3.598.021 3.674.021.066 0 .272.153.457.327.185.184.326.402.326.489 0 .141-.641.163-5.109.163-4.021 0-5.108-.033-5.108-.13 0-.077.13-.283.293-.468.261-.294.359-.326 1.109-.38.456-.033 2.413-.044 4.358-.022Zm-6.195 1.76c.054 0 .25.261.413.577.163.304.674 1.206 1.13 1.978.446.782 1.392 2.413 2.098 3.641.696 1.228 1.315 2.272 1.37 2.337a.45.45 0 0 1 .098.25c0 .065-.11.13-.24.13a2.05 2.05 0 0 1-.608-.13 1.289 1.289 0 0 1-.587-.522c-.13-.206-.305-.521-.413-.706-.098-.174-.468-.815-.815-1.413-.348-.598-.718-1.229-.816-1.413-.108-.174-.608-1.076-1.13-1.979-.51-.913-.924-1.739-.913-1.826.01-.097.076-.337.152-.543.076-.207.196-.38.261-.38Zm5.598 0c3.25 0 4.195.033 4.228.142.022.065-.044.25-.152.402-.098.152-.522.88-.924 1.63-.413.75-.946 1.707-1.196 2.12-.25.424-.685 1.206-.978 1.74-.294.532-.62 1.108-.728 1.282-.163.25-.228.271-.37.163-.098-.076-.228-.261-.304-.413-.076-.152-.805-1.446-1.609-2.88-.804-1.436-1.62-2.87-1.815-3.175-.185-.315-.337-.674-.337-.793 0-.217.076-.217 4.185-.217Zm5.641.087c.065.055.185.294.26.522.131.424.131.424-.803 2.055-.511.902-1.164 2.043-1.457 2.554-.283.51-.707 1.239-.946 1.63-.239.392-.576.968-.75 1.283-.217.402-.413.598-.64.674a2.05 2.05 0 0 1-.566.108c-.163 0-.25-.065-.25-.184a.53.53 0 0 1 .098-.305c.054-.065.565-.913 1.13-1.902.565-.989 1.457-2.521 1.978-3.413.522-.891.946-1.641.935-1.663 0-.01.109-.217.24-.435.14-.228.347-.554.456-.717.13-.207.228-.272.315-.207ZM9.989 19.304c.086.12.782 1.326 1.554 2.696.783 1.359 1.391 2.51 1.359 2.576-.033.065-.36-.141-.729-.457a9.654 9.654 0 0 1-1.054-1 6.553 6.553 0 0 1-1.065-2.076 17.649 17.649 0 0 1-.261-1.032c-.076-.326-.087-.674-.044-.761.077-.141.11-.13.24.054Zm12.228-.054c.043 0 .087.185.087.413 0 .217-.076.696-.174 1.054a9.164 9.164 0 0 1-.5 1.305 7.46 7.46 0 0 1-.729 1.13 9.37 9.37 0 0 1-1.043 1.01c-.359.294-.696.49-.74.447-.053-.044.12-.435.37-.848s.88-1.511 1.403-2.435c.521-.913.945-1.707.934-1.74 0-.043.066-.13.153-.206.086-.076.195-.13.239-.13Z" fill="#FC5B31"/><path clip-rule="evenodd" d="M-75.684 4.804c.12 0 .37.142.543.327.174.184.609.532.957.76.337.24.652.424.695.424.055 0 .479.25.957.565.478.305 1.087.761 1.359 1.011.271.25.565.609.652.805.152.337.184.348.815.348.435 0 .848.076 1.25.239.326.141 1.185.608 1.902 1.032.717.435 1.348.783 1.413.783.065 0 .37.108.685.239.337.152.576.315.565.413 0 .087-.076.598-.163 1.141-.087.533-.13 1.218-.098 1.522.033.293.011 1.033-.054 1.63-.054.598-.185 1.261-.283 1.468a3.7 3.7 0 0 1-.326.598c-.141.195-.12.26.174.706.174.272.37.717.424 1 .065.294.109 1.24.098 2.12 0 .891.054 1.956.12 2.37.065.412.108.803.076.869-.022.065-.403.239-.848.413a9.965 9.965 0 0 0-1.457.685c-.359.217-.902.532-1.196.695-.304.163-.88.402-1.304.533-.424.13-.946.228-1.174.228-.282 0-.424.054-.478.185-.044.108-.185.37-.315.576-.142.206-.49.554-.772.772-.282.217-1.01.663-1.609.978-.597.326-1.358.804-1.684 1.076a18.17 18.17 0 0 1-.794.63c-.152.11-.282.044-.87-.456-.369-.326-1.086-.815-1.597-1.098a17.418 17.418 0 0 1-1.522-.956c-.326-.25-.717-.598-.87-.772a5.877 5.877 0 0 1-.467-.63c-.141-.24-.239-.294-.456-.25-.153.032-.533 0-.848-.055-.305-.065-.913-.293-1.326-.51a12.86 12.86 0 0 1-1.196-.686 9.261 9.261 0 0 0-.978-.565 10.487 10.487 0 0 0-1.141-.467c-.326-.109-.63-.218-.674-.261-.044-.033 0-.359.076-.717.087-.36.163-1.185.163-1.848s.054-1.642.12-2.174c.075-.74.184-1.12.75-2.12l-.261-.304c-.142-.163-.338-.565-.435-.891-.142-.457-.174-1.011-.163-2.392.01-1.01-.033-2.01-.098-2.282a3.537 3.537 0 0 1-.13-.74c0-.151.086-.271.239-.336.14-.055.543-.218.902-.348a10.62 10.62 0 0 0 1.358-.685 22.129 22.129 0 0 1 1.522-.804c.587-.272 1.022-.391 1.576-.435.707-.054.772-.087.924-.38.087-.185.304-.5.49-.707.184-.217.77-.674 1.303-1.022.533-.347 1.011-.63 1.055-.63.054 0 .413-.217.815-.478.413-.261.891-.62 1.065-.805.174-.184.424-.337.544-.337Zm44.75 1.294c.075.01.293.217.477.467.174.25.522.555.761.663.229.12.609.337.837.49.359.239.446.26.598.14.109-.075.49-.282.87-.456.445-.217.815-.5 1.087-.815.217-.272.467-.5.543-.49.065 0 .185.262.26.566.088.402.294.772.653 1.228.283.359.565.718.63.783.055.076.196.12.305.087.098-.022.522-.076.945-.109.533-.032.935-.141 1.326-.358.316-.164.61-.25.653-.207.054.054.076.424.054.815-.033.544.022.924.217 1.49.142.412.305.793.36.836a.648.648 0 0 0 .325.087c.12 0 .435.098.707.229.38.184.641.217 1.217.195.391-.022.761-.01.815.033.044.043-.043.304-.206.576-.229.37-.337.728-.424 1.489-.12 1-.12 1.01.13 1.196.142.097.479.38.75.63.272.25.642.49.816.543.173.044.456.12.63.153.163.032.293.13.293.195-.01.076-.239.326-.521.544-.348.282-.642.663-.946 1.228-.37.696-.413.859-.293 1.01.076.099.282.49.456.86.228.489.468.782.815 1.032.261.196.479.424.49.49 0 .075-.185.184-.403.25a5.007 5.007 0 0 1-.521.108c-.055.01-.49.283-1.772 1.25l.054.924c.044.739.12 1.054.37 1.543.174.348.315.674.315.74 0 .065-.26.086-.674.043-.544-.054-.88-.011-1.609.206-.891.261-.924.283-.989.63a2.785 2.785 0 0 1-.239.718c-.13.25-.185.63-.185 2.207l-.62-.316c-.423-.217-.923-.358-2.423-.554l-.457.511c-.26.272-.576.663-.706.87a2.591 2.591 0 0 0-.359.847c-.087.38-.152.49-.326.49-.12 0-.217-.044-.217-.11 0-.064-.218-.325-.49-.597-.271-.272-.597-.522-.728-.554-.141-.044-.424-.185-1.01-.587l-.87.456c-.478.25-.957.555-1.076.674-.109.13-.294.337-.402.468-.109.14-.272.228-.337.217-.076-.022-.196-.26-.272-.522a2.72 2.72 0 0 0-.38-.815c-.142-.196-.424-.576-.63-.859-.294-.391-.436-.489-.599-.434-.12.032-.554.087-.978.12-.554.043-.913.14-1.326.38-.326.173-.598.271-.63.206-.033-.065-.022-.37.01-.685.055-.445 0-.76-.25-1.521-.282-.87-.326-.957-.63-1.022a4.882 4.882 0 0 1-.815-.283c-.402-.174-.62-.206-1.272-.141-.435.032-.793.032-.793-.022 0-.043.14-.348.326-.674.206-.38.326-.76.326-1.032 0-.24.054-.62.108-.848.11-.402.11-.402-.565-1.055-.543-.51-.837-.695-1.424-.89-.402-.142-.728-.316-.728-.392 0-.065.054-.13.109-.13.054 0 .315-.185.576-.424.25-.229.522-.577.609-.783a4.36 4.36 0 0 1 .424-.75c.217-.304.25-.413.152-.544-.076-.086-.294-.478-.49-.858a3.708 3.708 0 0 0-.858-1.141c-.402-.36-.49-.479-.38-.587.075-.077.206-.142.293-.13.087 0 .315-.055.51-.131.185-.076.664-.392 1.75-1.228l-.054-.979c-.043-.793-.12-1.098-.37-1.608-.173-.337-.282-.642-.227-.663.043-.033.37-.022.728.01.51.055.793.022 1.304-.163.359-.12.74-.239.848-.26.141-.022.293-.316.522-.957.271-.772.315-1.033.26-1.609-.043-.5-.021-.674.087-.674.066 0 .348.12.62.261.326.174.804.305 1.413.38.51.066.957.077.99.033.043-.043.347-.391.684-.782.337-.392.641-.859.685-1.033.032-.174.098-.435.152-.576.054-.13.152-.24.228-.24Zm43.02 4.174c.74.021 1.207.108 1.63.271.327.142.957.457 1.392.729.424.26.783.543.783.608 0 .087-.25.163-.674.218-.38.043-1.076.206-1.555.358a9.4 9.4 0 0 0-1.63.783c-.413.272-1.054.794-1.413 1.163-.359.359-1.065 1.25-1.576 1.957-.51.706-1.13 1.467-1.37 1.684-.25.218-.75.576-1.782 1.207l.891.587c.5.315 1.098.815 1.348 1.108.25.294.706.903 1.022 1.348.315.446.815 1.087 1.12 1.413.293.326.782.805 1.097 1.066.304.25.87.63 1.26.826.392.206 1 .456 1.36.554.358.098.913.217 1.239.25.326.043.608.12.63.185.022.065-.26.315-.641.565-.38.26-1 .598-1.392.76-.543.23-.934.305-1.739.338-.88.043-1.14.01-1.793-.218a7.372 7.372 0 0 1-1.413-.684c-.359-.229-1.022-.794-1.467-1.24-.457-.456-1.587-1.782-2.511-2.945-.935-1.163-1.99-2.391-2.337-2.728-.359-.326-.805-.696-1-.816-.185-.108-.37-.271-.402-.337-.033-.076.087-.217.271-.304.174-.087.696-.522 1.153-.946.456-.434 1.326-1.423 1.923-2.206a71.621 71.621 0 0 1 2.033-2.49c.51-.597 1.293-1.369 1.74-1.727.445-.359 1-.74 1.227-.848.218-.12.663-.283.979-.37.38-.108.902-.152 1.597-.12Zm8.315 0c.957.032 1.174.076 1.848.38.413.196 1.011.533 1.305.761.304.228.804.685 1.13 1 .326.326.978 1.076 1.467 1.674a86.34 86.34 0 0 1 1.511 1.902 20.41 20.41 0 0 0 1.522 1.728c.49.5 1.076 1.022 1.304 1.163.218.142.402.305.402.37s-.206.25-.467.424c-.25.174-.815.663-1.239 1.087-.435.424-1.163 1.271-1.62 1.891a51.192 51.192 0 0 1-1.62 2.033c-.434.51-1.13 1.25-1.532 1.64-.413.392-.967.86-1.239 1.044-.271.185-.848.457-1.271.62-.62.217-1 .282-1.685.282-.598 0-1.098-.065-1.5-.195a13.34 13.34 0 0 1-1.142-.49 9.06 9.06 0 0 1-1-.608c-.26-.185-.445-.38-.413-.446.033-.065.261-.108.522-.108.25 0 .772-.087 1.163-.207a12.41 12.41 0 0 0 1.141-.38c.24-.109.75-.402 1.142-.663.391-.261.989-.75 1.337-1.109.348-.348 1.021-1.163 1.478-1.826.467-.663 1.109-1.435 1.435-1.728.326-.294.848-.674 1.163-.837.304-.174.554-.37.543-.435-.021-.054-.304-.26-.63-.435a6.822 6.822 0 0 1-1.12-.837c-.293-.282-.88-1-1.304-1.598-.424-.597-1.087-1.423-1.478-1.825a11.114 11.114 0 0 0-1.479-1.261c-.413-.283-1.152-.642-1.63-.805a10.036 10.036 0 0 0-1.609-.38c-.402-.044-.728-.12-.728-.185 0-.054.283-.293.63-.51.337-.218.935-.544 1.327-.718.39-.185.826-.348.978-.38.152-.033.76-.044 1.358-.033Zm-4.456 2.684a8.97 8.97 0 0 1 1.522.142c.358.087.88.26 1.174.38.282.13.489.283.456.337-.032.065-1.174.109-3.098.109s-3.065-.044-3.097-.109c-.033-.054.108-.174.304-.26.185-.077.598-.229.891-.316a9.03 9.03 0 0 1 .761-.217c.12-.033.609-.055 1.087-.066Zm.706 1.816c1.946.01 3.598.021 3.674.021.066 0 .272.153.457.327.185.184.326.402.326.489 0 .141-.641.163-5.109.163-4.021 0-5.108-.033-5.108-.13 0-.077.13-.283.293-.468.261-.294.359-.326 1.109-.38.456-.033 2.413-.044 4.358-.022Zm-6.195 1.76c.054 0 .25.261.413.577.163.304.674 1.206 1.13 1.978.446.782 1.392 2.413 2.098 3.641.696 1.228 1.315 2.272 1.37 2.337a.45.45 0 0 1 .098.25c0 .065-.11.13-.24.13a2.05 2.05 0 0 1-.608-.13 1.289 1.289 0 0 1-.587-.522c-.13-.206-.305-.521-.413-.706-.098-.174-.468-.815-.815-1.413-.348-.598-.718-1.229-.816-1.413-.108-.174-.608-1.076-1.13-1.979-.51-.913-.924-1.739-.913-1.826.01-.097.076-.337.152-.543.076-.207.196-.38.261-.38Zm5.598 0c3.25 0 4.195.033 4.228.142.022.065-.044.25-.152.402-.098.152-.522.88-.924 1.63-.413.75-.946 1.707-1.196 2.12-.25.424-.685 1.206-.978 1.74-.294.532-.62 1.108-.728 1.282-.163.25-.228.271-.37.163-.098-.076-.228-.261-.304-.413-.076-.152-.805-1.446-1.609-2.88-.804-1.436-1.62-2.87-1.815-3.175-.185-.315-.337-.674-.337-.793 0-.217.076-.217 4.185-.217Zm5.641.087c.065.055.185.294.26.522.131.424.131.424-.803 2.055-.511.902-1.164 2.043-1.457 2.554-.283.51-.707 1.239-.946 1.63-.239.392-.576.968-.75 1.283-.217.402-.413.598-.64.674a2.05 2.05 0 0 1-.566.108c-.163 0-.25-.065-.25-.184a.53.53 0 0 1 .098-.305c.054-.065.565-.913 1.13-1.902.565-.989 1.457-2.521 1.978-3.413.522-.891.946-1.641.935-1.663 0-.01.109-.217.24-.435.14-.228.347-.554.456-.717.13-.207.228-.272.315-.207ZM9.989 19.304c.086.12.782 1.326 1.554 2.696.783 1.359 1.391 2.51 1.359 2.576-.033.065-.36-.141-.729-.457a9.654 9.654 0 0 1-1.054-1 6.553 6.553 0 0 1-1.065-2.076 17.649 17.649 0 0 1-.261-1.032c-.076-.326-.087-.674-.044-.761.077-.141.11-.13.24.054Zm12.228-.054c.043 0 .087.185.087.413 0 .217-.076.696-.174 1.054a9.164 9.164 0 0 1-.5 1.305 7.46 7.46 0 0 1-.729 1.13 9.37 9.37 0 0 1-1.043 1.01c-.359.294-.696.49-.74.447-.053-.044.12-.435.37-.848s.88-1.511 1.403-2.435c.521-.913.945-1.707.934-1.74 0-.043.066-.13.153-.206.086-.076.195-.13.239-.13Z" stroke="#FC5B31" stroke-width=".2" mask="url(#b)"/><path d="M-77.64 7.456c.543-.282 1.195-.684 1.456-.88.25-.207.522-.337.598-.293.065.032.293.195.5.358.207.163.717.478 1.141.707.424.228.957.554 1.196.717.239.163.62.49.848.74.26.282.391.532.37.695-.012.13-.077.228-.131.217a32.67 32.67 0 0 1-1-.358c-.5-.174-1.109-.337-1.359-.348-.445-.033-.467-.022-.576.37-.072.275-.072.449 0 .521.065.054.446.196.87.304.424.12 1.032.327 1.358.479.326.14.892.456 1.25.684.359.229.946.685 1.305 1.022.358.337.739.685.847.772.174.152.229.13.522-.163.174-.174.315-.37.326-.435 0-.054-.282-.38-.63-.707-.348-.336-.826-.76-1.065-.956-.359-.293-.413-.38-.316-.543.066-.098.283-.196.49-.218.228-.01.608.087.967.25.326.163.989.533 1.467.837.479.315 1.13.674 2.011 1.065l-.054 1.99c-.022 1.086-.098 2.173-.163 2.412a2.72 2.72 0 0 1-.272.685c-.087.13-.24.24-.326.24-.087 0-.185-.11-.207-.24-.021-.141-.12-.641-.206-1.12-.098-.478-.218-1-.283-1.162-.087-.229-.195-.305-.413-.305-.174 0-.402.055-.51.13-.196.131-.196.175-.033.848.098.392.228 1.153.304 1.685.098.761.098 1.196-.01 1.957a14.883 14.883 0 0 1-.283 1.467c-.087.272-.153.587-.153.707 0 .152.12.26.403.358.347.13.434.13.543 0 .076-.076.24-.554.359-1.065.108-.51.239-1.108.272-1.326.032-.228.12-.413.195-.413.065 0 .24.109.37.24.13.14.293.488.348.793.054.304.097 1.39.065 4.315l-.978.532c-.533.294-1.37.729-1.848.979-.478.239-1.087.478-1.359.5-.272.032-.587.01-.706-.044-.218-.108-.207-.12.054-.315.141-.12.641-.576 1.109-1.022.467-.445.847-.848.847-.891 0-.054-.108-.207-.239-.359-.141-.141-.326-.26-.413-.271-.087 0-.478.293-.87.652-.39.358-.978.837-1.304 1.054-.326.217-.934.554-1.358.75a12.56 12.56 0 0 1-1.544.576c-.717.207-.793.261-.793.5 0 .152.054.37.108.49.087.184.185.206.577.162.25-.032.902-.217 1.434-.391.544-.185 1.022-.293 1.066-.24.043.044.021.262-.066.468-.098.261-.37.544-.847.88a11.3 11.3 0 0 1-1.403.86c-.391.195-.924.51-1.195.706-.272.185-.533.38-.598.413-.054.043-.315-.076-.565-.25-.261-.185-.75-.478-1.087-.674a14.289 14.289 0 0 1-1.229-.75 7.737 7.737 0 0 1-.956-.76c-.207-.207-.391-.49-.424-.642-.022-.152-.022-.294.01-.326.033-.033.49.108 1.023.293.521.196 1.152.38 1.413.413.413.044.467.033.565-.217a1.49 1.49 0 0 0 .109-.49c0-.173-.153-.26-.783-.445-.435-.12-1.185-.413-1.663-.63-.478-.218-1.141-.598-1.467-.848a12.93 12.93 0 0 1-1.218-1.055c-.348-.336-.696-.586-.76-.554-.077.022-.261.207-.664.761l.859.815c.478.446.99.902 1.13 1.022.272.207.272.207.055.359-.12.076-.392.141-.598.141-.218 0-.718-.174-1.141-.391-.413-.218-.837-.457-.924-.544-.087-.076-.63-.38-2.228-1.206l-.033-1.511c-.011-.837.022-1.859.087-2.272.065-.413.195-.924.282-1.109.087-.206.229-.358.348-.358.142 0 .218.152.337.674.076.38.218.934.294 1.228.076.304.206.63.282.728.12.174.196.174.555.055.39-.12.413-.153.37-.457a17.572 17.572 0 0 0-.25-1.087c-.11-.478-.186-1.196-.186-1.956 0-.772.066-1.49.196-2.011.098-.446.218-.957.24-1.142.043-.271.01-.337-.196-.402a2.032 2.032 0 0 0-.479-.087c-.141-.01-.26.098-.347.294-.077.163-.174.5-.24.739-.054.239-.174.739-.25 1.12-.12.575-.174.673-.347.652-.12-.022-.316-.229-.435-.468-.207-.391-.228-.641-.283-4.837l.685-.326c.37-.174 1.141-.587 1.706-.924.566-.326 1.283-.652 1.576-.717.305-.065.653-.087.794-.054.13.032.24.14.24.228 0 .087-.034.163-.077.163-.054 0-.522.413-1.065.913-.968.902-.979.913-.805 1.174.098.13.283.315.413.391.207.12.294.065.946-.543.391-.38.946-.848 1.228-1.044.272-.206.772-.5 1.098-.674a10.42 10.42 0 0 1 1.413-.543c.446-.13.924-.283 1.065-.337.13-.054.24-.196.24-.315 0-.12-.044-.337-.11-.49-.097-.239-.151-.26-.51-.217-.228.033-.87.218-1.424.413-.782.272-1.032.315-1.141.218-.098-.11-.098-.207.032-.479.087-.184.413-.521.707-.75.304-.217.989-.63 1.522-.924Zm45.858 1.685c.065-.152.348-.532.608-.837.272-.315.511-.576.544-.576.032.011.326.152.652.326.326.174.707.424.837.544.141.12.25.293.25.38 0 .087-.098.218-.217.272-.163.076-.207.196-.163.815h1.739l.032-.326a.659.659 0 0 0-.184-.543c-.153-.164-.185-.272-.11-.457.066-.163.37-.38.827-.598.413-.195.76-.37.793-.391.033-.011.305.283.62.652.37.446.565.783.576.99 0 .238-.043.293-.272.293-.206 0-.293.076-.348.304a2.463 2.463 0 0 0-.076.38c-.01.055.326.229 1.511.729l.185-.24c.109-.14.196-.293.196-.358 0-.055-.076-.196-.163-.294-.142-.173-.142-.217.054-.413.163-.163.391-.228.87-.239.358-.022.76-.032.88-.032.196 0 .272.13.5.87.196.662.228.923.141 1.119-.087.184-.174.228-.402.174-.217-.044-.359 0-.5.14-.109.11-.195.23-.185.284 0 .043.261.315.566.62.315.293.63.543.684.543.055 0 .196-.077.305-.185a.496.496 0 0 0 .13-.49c-.043-.26-.01-.315.24-.369.184-.043.553 0 .901.12.326.097.707.228.837.282.185.076.24.163.196.348-.033.13-.054.467-.054.761 0 .37-.066.587-.25.793-.218.261-.261.272-.479.142-.206-.13-.282-.13-.521.01-.152.088-.272.218-.272.272 0 .066.13.413.293.794.174.37.37.674.435.674a.94.94 0 0 0 .359-.109c.12-.065.217-.174.217-.24-.01-.075.065-.206.163-.27.098-.088.261-.11.413-.055.142.043.533.337 1.49 1.217l-.196.305c-.12.163-.337.5-.49.76-.162.25-.369.49-.456.544-.098.043-.239 0-.359-.109-.097-.108-.347-.195-.89-.195v1.739h.38c.239 0 .402-.055.434-.163.033-.087.163-.163.294-.163a.54.54 0 0 1 .38.13c.066.076.283.467.848 1.609l-.598.5c-.326.282-.717.543-.87.608-.151.055-.336.066-.401.033-.077-.033-.142-.152-.142-.272 0-.12-.098-.26-.217-.326a.936.936 0 0 0-.359-.109c-.065 0-.26.305-.435.674-.163.38-.293.75-.293.826 0 .066.13.185.293.25.229.076.37.076.566-.032.228-.13.271-.109.456.13.152.185.228.468.24.902.01.337.021.696.021.805 0 .12-.228.25-.76.434-.425.142-.86.25-.98.261a.588.588 0 0 1-.358-.14.338.338 0 0 1-.054-.338c.058-.123.014-.257-.13-.402-.12-.13-.272-.228-.327-.228-.054 0-.37.26-.674.576-.521.521-.565.598-.424.793.087.142.283.229.544.25.326.022.402.065.456.326.033.163.044.37.011.457-.043.087-.152.413-.26.717-.11.315-.218.598-.25.63-.033.044-.424.033-.87-.01-.609-.055-.88-.142-1.087-.316-.26-.217-.26-.239-.087-.412.163-.142.174-.218.076-.413-.076-.142-.185-.283-.25-.316-.065-.043-.37.044-.663.185-.304.141-.609.26-.685.26-.065 0-.152.034-.184.088-.022.043.01.239.087.435.097.25.195.348.369.348.207 0 .25.054.25.358-.01.272-.141.49-1.196 1.598l-.728-.402c-.391-.229-.782-.522-.87-.652-.076-.142-.119-.294-.086-.36.032-.064.13-.108.217-.108.12 0 .152-.108.109-.815l-.761-.033c-.5-.01-.815.022-.902.11a.567.567 0 0 0-.13.39c0 .13.097.283.217.348.12.066.217.196.217.305.01.097-.076.26-.185.358-.108.098-.51.337-1.608.88l-.25-.314a8.5 8.5 0 0 1-.576-.794c-.174-.272-.316-.576-.316-.674 0-.12.087-.195.218-.195.12 0 .293-.11.38-.24.087-.141.163-.315.163-.38 0-.076-.108-.185-.25-.24a25.38 25.38 0 0 1-.674-.293 21.66 21.66 0 0 0-.521-.228c-.044-.022-.153.044-.24.13a.707.707 0 0 0-.163.435c0 .152.055.272.11.272.053 0 .108.065.108.141.01.066-.076.218-.185.316-.13.13-.467.206-1.935.326l-.25-.75c-.141-.403-.239-.88-.217-1.066.022-.271.076-.326.315-.326a.89.89 0 0 0 .522-.217c.13-.12.239-.25.228-.294 0-.054-.24-.326-.543-.63-.294-.293-.61-.543-.674-.543-.076-.011-.229.076-.326.184-.11.109-.174.337-.163.522.021.315.01.326-.468.315-.272 0-.75-.098-1.652-.424l.076-.815c.044-.445.13-.924.207-1.065.065-.13.206-.24.304-.24.109 0 .207.055.217.131.022.076.142.098.326.055.174-.044.337-.163.37-.261.033-.109-.044-.468-.174-.794-.141-.326-.282-.641-.315-.684-.033-.055-.196-.066-.37-.033-.206.043-.326.163-.402.391-.076.229-.185.326-.359.326-.14 0-.51-.228-.89-.554a12.41 12.41 0 0 1-.686-.63c-.021-.033.12-.36.316-.718.184-.359.424-.739.521-.848.098-.108.25-.195.337-.184.087 0 .25.097.348.217.141.152.272.196.435.152.141-.043.282-.13.326-.196.043-.065.065-.184.033-.25-.033-.076-.055-.413-.055-1.337h-.38c-.24 0-.402.055-.435.163-.033.098-.163.153-.359.142-.239-.033-.358-.163-.695-.794-.229-.413-.413-.804-.413-.87 0-.064.26-.303.565-.553.315-.24.685-.5.815-.566.141-.076.326-.108.413-.076.087.033.163.152.163.272 0 .12.098.26.218.326.12.065.293.109.38.109.087 0 .217-.13.283-.294.065-.174.184-.445.271-.63.098-.174.152-.424.13-.533-.021-.12-.173-.25-.358-.315-.26-.076-.337-.065-.413.076-.044.109-.141.141-.25.098a.967.967 0 0 1-.326-.38c-.087-.174-.152-.642-.152-1.827l.456-.12c.261-.054.652-.151.87-.217.272-.065.489-.054.63.011.13.066.196.185.174.305-.022.097.022.293.109.434.087.13.228.24.315.24s.402-.229.707-.511c.293-.294.543-.566.543-.63 0-.055-.098-.207-.217-.327-.142-.13-.294-.196-.413-.152-.098.043-.24.043-.305 0-.076-.033-.141-.185-.163-.337-.022-.152.055-.565.163-.924.109-.358.218-.717.24-.782.032-.11.239-.12.771-.077.413.044.902.142 1.087.218.196.087.359.217.359.293a.413.413 0 0 1-.185.24c-.152.097-.152.14.033.467.108.195.239.348.282.348.054 0 .174-.055.272-.109.109-.065.424-.207.706-.326.294-.12.522-.283.522-.348 0-.076-.076-.25-.163-.38-.087-.142-.26-.25-.38-.25s-.24-.066-.261-.13c-.033-.077.01-.262.087-.414Zm41.456 2.576c.282-.163.728-.37 1-.445a4.393 4.393 0 0 1 1.109-.163 4.46 4.46 0 0 1 1.119.13c.272.065.49.196.49.272 0 .065-.066.13-.142.13-.065 0-.478.174-.892.392-.413.217-.978.554-1.25.75-.271.195-.858.739-1.304 1.217-.445.478-1.087 1.271-1.424 1.782-.337.5-.902 1.174-1.25 1.5-.391.348-1.13.837-1.858 1.218-.674.358-1.229.684-1.229.75 0 .065.261.239.566.391.315.163.924.49 1.337.728.413.25.978.642 1.239.88.26.25.674.74.913 1.099.25.358.63.902.87 1.195.228.305.717.848 1.086 1.228a11.3 11.3 0 0 0 1.435 1.196c.413.283 1.033.62 1.359.75.326.13.587.283.576.326-.011.044-.207.152-.435.218-.228.076-.74.14-1.152.14-.533 0-.924-.075-1.457-.293a6.112 6.112 0 0 1-1.337-.739c-.326-.25-.945-.826-1.358-1.26a32.234 32.234 0 0 1-1.413-1.631c-.359-.457-.968-1.228-1.359-1.728s-1.043-1.272-2.228-2.522l.76-.783c.425-.424 1.316-1.478 1.99-2.347a67.886 67.886 0 0 1 1.902-2.348c.37-.413.935-.978 1.25-1.25.315-.261.804-.609 1.087-.783Zm9.021-.261c-.01-.065.163-.163.403-.228a6.806 6.806 0 0 1 1.032-.12c.326 0 .837.055 1.142.131.293.076.836.315 1.195.533.359.217.87.586 1.141.826.272.228.88.88 1.37 1.445.478.566 1.26 1.533 1.74 2.152.466.63 1.26 1.555 1.749 2.066.49.51.891.956.902.989 0 .032-.402.467-.902.978-.49.51-1.337 1.51-1.88 2.228a53.941 53.941 0 0 1-1.968 2.392c-.598.684-1.271 1.293-1.771 1.64-.446.305-1.098.631-1.446.729a5.327 5.327 0 0 1-1.218.185c-.326 0-.815-.065-1.086-.142-.272-.065-.49-.163-.49-.217 0-.043.13-.13.294-.185.174-.065.543-.239.848-.402.293-.152.858-.51 1.239-.782a9.259 9.259 0 0 0 1.293-1.153c.326-.358.913-1.12 1.326-1.684.403-.566.968-1.272 1.261-1.566.294-.293.88-.717 1.294-.945.413-.24 1-.533 1.282-.674.337-.152.511-.294.49-.402-.022-.087-.511-.413-1.087-.707a15.77 15.77 0 0 1-1.566-.924c-.337-.239-.978-.989-1.771-2.065-.88-1.163-1.511-1.891-2.076-2.37a9.76 9.76 0 0 0-1.761-1.14c-.522-.25-.968-.511-.979-.588Zm-5.087 6.294v.007c.015-.106.589-.138 2.446-.138 1.555 0 2.446.044 2.446.109s-.087.272-.207.456c-.108.196-.576 1.022-1.032 1.827-.457.804-.837 1.489-.837 1.521.01.033-.076.163-.37.555l-.358-.544c-.185-.304-.348-.576-.348-.608 0-.033-.087-.185-.196-.348-.12-.174-.402-.674-.641-1.12-.24-.445-.544-.989-.674-1.195-.116-.201-.222-.433-.228-.515v.004-.011Z" fill="#FDFDFD"/></g><defs><clipPath id="a"><path fill="#fff" d="M0 0h32v38H0z"/></clipPath></defs></svg>