<svg width="35" height="35" fill="none" xmlns="http://www.w3.org/2000/svg"><path d="M22.201 19.436c-.199 2.847-4.495 6.941-5.492 6.871-.998-.07-4.682-4.722-4.483-7.569.288-4.126 5.709-9.966 5.709-9.966S22.49 15.31 22.2 19.436Z" stroke="#FDFDFD" stroke-width="2" stroke-linecap="round" stroke-linejoin="round"/><path d="M13.216 15.47a30.528 30.528 0 0 0-7.612-2.377s.137 8.073 2.766 11.18c1.851 2.203 7.609 2.73 8.357 2.056" stroke="#FDFDFD" stroke-width="2" stroke-linecap="round" stroke-linejoin="round"/><path d="M21.674 16.061a30.536 30.536 0 0 1 7.87-1.294s-1.26 7.976-4.296 10.686c-2.14 1.924-7.914 1.644-8.562.874" stroke="#FDFDFD" stroke-width="2" stroke-linecap="round" stroke-linejoin="round"/></svg>