<svg  viewBox="0 0 297 75" fill="none" xmlns="http://www.w3.org/2000/svg">
<path d="M1.02251 17.4401C0.636005 17.5891 0.201925 17.3966 0.0529577 17.0101C-0.0960099 16.6236 0.0965461 16.1895 0.483047 16.0405L1.02251 17.4401ZM51.1214 1.49612L51.0407 2.24176L51.1214 1.49612ZM134.35 51.9783L134.702 52.6408L134.35 51.9783ZM151.45 37.8734L152.108 38.2324L151.45 37.8734ZM154.72 22.6509L154.625 23.3949L154.72 22.6509ZM151.357 23.753L152.046 24.049L151.357 23.753ZM156.085 39.3351L155.431 39.7036L155.418 39.6796L155.406 39.6547L156.085 39.3351ZM177.619 59.8319L177.244 60.4811L177.619 59.8319ZM295.631 55.2003C296.018 55.3487 296.211 55.7825 296.063 56.1692L293.645 62.4711C293.496 62.8578 293.062 63.051 292.676 62.9026C292.289 62.7542 292.096 62.3204 292.244 61.9337L294.394 56.332L288.792 54.1824C288.405 54.0339 288.212 53.6001 288.361 53.2134C288.509 52.8267 288.943 52.6335 289.33 52.7819L295.631 55.2003ZM0.483047 16.0405C4.4689 14.5043 8.31712 12.6514 12.19 10.7577C16.0544 8.86813 19.9472 6.93596 23.9818 5.26792C32.0667 1.9254 40.77 -0.378499 51.2021 0.75047L51.0407 2.24176C40.9434 1.14903 32.5022 3.36849 24.5549 6.65413C20.5735 8.30017 16.7284 10.2083 12.8489 12.1052C8.97797 13.9979 5.07639 15.8777 1.02251 17.4401L0.483047 16.0405ZM51.2021 0.75047C60.6646 1.77451 68.5622 6.63818 75.5734 12.9861C82.5724 19.323 88.7642 27.2136 94.7629 34.3416C100.796 41.5101 106.618 47.8874 112.946 51.4079C116.095 53.1594 119.349 54.1915 122.804 54.2664C126.257 54.3413 129.957 53.4607 133.999 51.3158L134.702 52.6408C130.469 54.887 126.518 55.8473 122.771 55.7661C119.026 55.6849 115.534 54.5639 112.217 52.7187C105.614 49.0456 99.6303 42.4549 93.6152 35.3074C87.566 28.1194 81.4676 20.3462 74.5666 14.0981C67.6778 7.86098 60.0655 3.21843 51.0407 2.24176L51.2021 0.75047ZM133.999 51.3158C141.644 47.259 147.267 43.9799 150.791 37.5145L152.108 38.2324C148.342 45.1406 142.32 48.5984 134.702 52.6408L133.999 51.3158ZM150.791 37.5145C151.122 36.9073 153.386 33.3938 154.864 29.8613C155.606 28.0876 156.094 26.4295 156.076 25.2136C156.067 24.6158 155.937 24.2039 155.732 23.9352C155.542 23.685 155.22 23.4705 154.625 23.3949L154.814 21.9069C155.722 22.0223 156.444 22.3936 156.925 23.0265C157.393 23.6409 157.564 24.4093 157.576 25.1915C157.599 26.7357 157.002 28.6365 156.248 30.4402C154.732 34.0628 152.355 37.7785 152.108 38.2324L150.791 37.5145ZM154.625 23.3949C154.13 23.3319 153.513 23.3155 152.989 23.4319C152.46 23.5496 152.168 23.765 152.046 24.049L150.668 23.4571C151.062 22.5392 151.912 22.1349 152.664 21.9676C153.422 21.7991 154.229 21.8325 154.814 21.9069L154.625 23.3949ZM152.046 24.049C151.743 24.7549 151.714 25.7953 151.951 27.1167C152.185 28.417 152.657 29.8843 153.238 31.3729C154.405 34.3616 155.949 37.2876 156.763 39.0156L155.406 39.6547C154.634 38.0143 153.032 34.969 151.841 31.9185C151.243 30.3876 150.733 28.8184 150.475 27.3822C150.221 25.967 150.19 24.5709 150.668 23.4571L152.046 24.049ZM156.738 38.9667C162.08 48.4374 170.445 54.8149 177.995 59.1827L177.244 60.4811C169.58 56.0473 160.959 49.5031 155.431 39.7036L156.738 38.9667ZM177.995 59.1827C213.488 79.717 248.856 75.7911 295.058 55.2154L295.668 56.5856C249.263 77.2518 213.335 81.3614 177.244 60.4811L177.995 59.1827Z" fill="url(#paint0_linear_1007_91600)"/>
<defs>
<linearGradient id="paint0_linear_1007_91600" x1="74" y1="-28.5002" x2="7.49999" y2="17.9998" gradientUnits="userSpaceOnUse">
<stop stop-color="#FC5B31"/>
<stop offset="1" stop-color="#FC5B31" stop-opacity="0"/>
</linearGradient>
</defs>
</svg>
