<svg width="32" height="33" viewBox="0 0 32 33" fill="none" xmlns="http://www.w3.org/2000/svg">
<path d="M7.25972 17.4999H21.2826L22.9969 8.92847H5.854C5.72864 8.92893 5.6049 8.95688 5.49151 9.01036C5.37812 9.06383 5.27785 9.14153 5.19775 9.23797C5.11766 9.33442 5.05969 9.44725 5.02794 9.56853C4.99619 9.68981 4.99143 9.81658 5.014 9.9399L6.41972 16.797C6.45251 16.9953 6.55529 17.1752 6.70941 17.3042C6.86353 17.4332 7.05878 17.5026 7.25972 17.4999V17.4999Z" stroke="#0E1C15" stroke-width="2" stroke-linecap="round" stroke-linejoin="round"/>
<path d="M22.9969 8.92857L23.7169 6.18571C23.7564 5.99211 23.8616 5.8181 24.0146 5.69315C24.1677 5.56819 24.3593 5.49996 24.5569 5.5H27.2826" stroke="#0E1C15" stroke-width="2" stroke-linecap="round" stroke-linejoin="round"/>
<path d="M21.2826 17.5L20.5626 21.1C20.523 21.2936 20.4178 21.4676 20.2648 21.5926C20.1117 21.7175 19.9202 21.7858 19.7226 21.7857H9.28256" stroke="#0E1C15" stroke-width="2" stroke-linecap="round" stroke-linejoin="round"/>
<path d="M10.1397 27.7858C10.6131 27.7858 10.9968 27.4021 10.9968 26.9287C10.9968 26.4553 10.6131 26.0715 10.1397 26.0715C9.66632 26.0715 9.28256 26.4553 9.28256 26.9287C9.28256 27.4021 9.66632 27.7858 10.1397 27.7858Z" stroke="#0E1C15" stroke-width="2" stroke-linecap="round" stroke-linejoin="round"/>
<path d="M18.7111 27.7858C19.1845 27.7858 19.5683 27.4021 19.5683 26.9287C19.5683 26.4553 19.1845 26.0715 18.7111 26.0715C18.2378 26.0715 17.854 26.4553 17.854 26.9287C17.854 27.4021 18.2378 27.7858 18.7111 27.7858Z" stroke="#0E1C15" stroke-width="2" stroke-linecap="round" stroke-linejoin="round"/>
</svg>
