<svg width="32" height="32" viewBox="0 0 32 32" fill="none" xmlns="http://www.w3.org/2000/svg">
<path d="M7.25972 16.9992H21.2826L22.9969 8.42773H5.854C5.72864 8.42819 5.6049 8.45615 5.49151 8.50962C5.37812 8.5631 5.27785 8.6408 5.19775 8.73724C5.11766 8.83368 5.05969 8.94652 5.02794 9.0678C4.99619 9.18908 4.99143 9.31585 5.014 9.43916L6.41972 16.2963C6.45251 16.4946 6.55529 16.6745 6.70941 16.8035C6.86353 16.9324 7.05878 17.0019 7.25972 16.9992V16.9992Z" stroke="#0E1C15" stroke-width="2" stroke-linecap="round" stroke-linejoin="round"/>
<path d="M22.9968 8.42857L23.7168 5.68571C23.7563 5.49211 23.8615 5.3181 24.0146 5.19315C24.1677 5.06819 24.3592 4.99996 24.5568 5H27.2825" stroke="#0E1C15" stroke-width="2" stroke-linecap="round" stroke-linejoin="round"/>
<path d="M21.2826 17L20.5626 20.6C20.5231 20.7936 20.4179 20.9676 20.2648 21.0926C20.1117 21.2175 19.9202 21.2858 19.7226 21.2857H9.28259" stroke="#0E1C15" stroke-width="2" stroke-linecap="round" stroke-linejoin="round"/>
<path d="M10.1397 27.2866C10.6131 27.2866 10.9969 26.9028 10.9969 26.4294C10.9969 25.956 10.6131 25.5723 10.1397 25.5723C9.66635 25.5723 9.28259 25.956 9.28259 26.4294C9.28259 26.9028 9.66635 27.2866 10.1397 27.2866Z" stroke="#0E1C15" stroke-width="2" stroke-linecap="round" stroke-linejoin="round"/>
<path d="M18.7111 27.2866C19.1845 27.2866 19.5683 26.9028 19.5683 26.4294C19.5683 25.956 19.1845 25.5723 18.7111 25.5723C18.2378 25.5723 17.854 25.956 17.854 26.4294C17.854 26.9028 18.2378 27.2866 18.7111 27.2866Z" stroke="#0E1C15" stroke-width="2" stroke-linecap="round" stroke-linejoin="round"/>
</svg>
