<svg width="32" height="32" viewBox="0 0 32 32" fill="none" xmlns="http://www.w3.org/2000/svg">
<path d="M18.9885 16.0083C23.9557 16.0083 27.9824 14.2186 27.9824 12.011C27.9824 9.80332 23.9557 8.01367 18.9885 8.01367C14.0213 8.01367 9.99457 9.80332 9.99457 12.011C9.99457 14.2186 14.0213 16.0083 18.9885 16.0083Z" stroke="#FC5B31" stroke-width="2" stroke-linecap="round" stroke-linejoin="round"/>
<path d="M9.99457 12.0117V24.0036C9.99457 26.2021 13.9919 28.0009 18.9885 28.0009C23.9851 28.0009 27.9824 26.2021 27.9824 24.0036V12.0117" stroke="#FC5B31" stroke-width="2" stroke-linecap="round" stroke-linejoin="round"/>
<path d="M27.9824 18.0078C27.9824 20.2063 23.9851 22.0051 18.9885 22.0051C13.9919 22.0051 9.99457 20.2063 9.99457 18.0078" stroke="#FC5B31" stroke-width="2" stroke-linecap="round" stroke-linejoin="round"/>
<path d="M18.7887 4.01619C16.4533 2.57492 13.7348 1.87787 10.994 2.01754C6.01735 2.01754 2.00006 3.81633 2.00006 6.01484C2.00006 7.19405 3.15928 8.25333 4.99804 9.01282" stroke="#FC5B31" stroke-width="2" stroke-linecap="round" stroke-linejoin="round"/>
<path d="M4.99804 21.0055C3.15928 20.246 2.00006 19.1867 2.00006 18.0075V6.01562" stroke="#FC5B31" stroke-width="2" stroke-linecap="round" stroke-linejoin="round"/>
<path d="M4.99804 15.0097C3.15928 14.2502 2.00006 13.1909 2.00006 12.0117" stroke="#FC5B31" stroke-width="2" stroke-linecap="round" stroke-linejoin="round"/>
</svg>
