<svg width="24" height="25" viewBox="0 0 24 25" fill="none" xmlns="http://www.w3.org/2000/svg">
<path d="M14.2413 12.5062C17.9667 12.5062 20.9868 11.164 20.9868 9.50823C20.9868 7.85249 17.9667 6.51025 14.2413 6.51025C10.5159 6.51025 7.49588 7.85249 7.49588 9.50823C7.49588 11.164 10.5159 12.5062 14.2413 12.5062Z" stroke="#FC5B31" stroke-width="2" stroke-linecap="round" stroke-linejoin="round"/>
<path d="M7.49585 9.5083V18.5022C7.49585 20.1511 10.4938 21.5002 14.2413 21.5002C17.9888 21.5002 20.9867 20.1511 20.9867 18.5022V9.5083" stroke="#FC5B31" stroke-width="2" stroke-linecap="round" stroke-linejoin="round"/>
<path d="M20.9867 14.0054C20.9867 15.6543 17.9888 17.0033 14.2413 17.0033C10.4938 17.0033 7.49585 15.6543 7.49585 14.0054" stroke="#FC5B31" stroke-width="2" stroke-linecap="round" stroke-linejoin="round"/>
<path d="M14.0915 3.51214C12.34 2.43119 10.3011 1.9084 8.24548 2.01316C4.513 2.01316 1.50003 3.36225 1.50003 5.01113C1.50003 5.89554 2.36944 6.69 3.74851 7.25962" stroke="#FC5B31" stroke-width="2" stroke-linecap="round" stroke-linejoin="round"/>
<path d="M3.74851 16.2536C2.36944 15.684 1.50003 14.8896 1.50003 14.0052V5.01123" stroke="#FC5B31" stroke-width="2" stroke-linecap="round" stroke-linejoin="round"/>
<path d="M3.74851 11.7565C2.36944 11.1869 1.50003 10.3925 1.50003 9.50806" stroke="#FC5B31" stroke-width="2" stroke-linecap="round" stroke-linejoin="round"/>
</svg>
