<svg width="44" height="44" viewBox="0 0 44 44" fill="none" xmlns="http://www.w3.org/2000/svg">
<path d="M34.7778 13.9898C34.6712 13.8436 34.5255 13.7313 34.3578 13.6663L22.3588 9.07597C22.2453 9.02586 22.1228 9 21.9989 9C21.875 9 21.7524 9.02586 21.6389 9.07597L9.63994 13.7471C9.48142 13.7896 9.33664 13.8733 9.21998 13.9898C9.08029 14.1607 9.00266 14.3748 9 14.5965V29.3986C9.00259 29.6006 9.06494 29.7971 9.17899 29.9629C9.29305 30.1287 9.4536 30.2561 9.63994 30.3288L21.6389 35H21.9989H22.3588L34.3578 30.3288C34.5441 30.2561 34.7047 30.1287 34.8188 29.9629C34.9328 29.7971 34.9952 29.6006 34.9977 29.3986V14.6773C35.0147 14.4281 34.9359 14.1818 34.7778 13.9898V13.9898Z" stroke="#0E1C15" stroke-width="2" stroke-linecap="round" stroke-linejoin="round"/>
<path d="M22 34.8875V18.9675" stroke="#0E1C15" stroke-width="2" stroke-linecap="round" stroke-linejoin="round"/>
<path d="M22 18.9675V34.8875" stroke="#0E1C15" stroke-width="2" stroke-linecap="round" stroke-linejoin="round"/>
<path d="M9.21875 14.0476L21.9987 18.9676L34.7788 14.0476" stroke="#0E1C15" stroke-width="2" stroke-linecap="round" stroke-linejoin="round"/>
</svg>
