<svg width="44" height="44" viewBox="0 0 44 44" fill="none" xmlns="http://www.w3.org/2000/svg">
<mask id="path-1-outside-1_1007_88075" maskUnits="userSpaceOnUse" x="5" y="12" width="31" height="21" fill="black">
<rect fill="white" x="5" y="12" width="31" height="21"/>
<path d="M7.30273 13H28.373L28.8262 13.1133L29.2793 13.3965L29.7324 13.9062L30.3555 14.6992L31.0918 15.6055L31.7148 16.3984L32.4512 17.3047L33.0742 18.0977L33.8105 19.0039L34.4336 19.7969L34.8867 20.4199L35 20.7031V28.4629L34.7734 28.916L34.2637 29.3691L33.9805 29.4824H31.6016L31.4883 30.0488L31.0918 30.7852L30.5254 31.3516L29.959 31.6914L29.4492 31.8613L29.166 31.918H28.2598L27.4668 31.6914L26.8438 31.2949L26.3906 30.8418L25.9941 30.1621L25.8242 29.4824H14.2129L14.043 30.1621L13.6465 30.8418L13.1934 31.2949L12.5703 31.6914L11.7773 31.918H10.8711L10.248 31.748L9.68164 31.4648L9.11523 30.9551L8.77539 30.502L8.49219 29.8789L8.43555 29.4824H7.01953L6.56641 29.2559L6.16992 28.8594L6 28.4629V14.0762L6.22656 13.623L6.50977 13.3398L6.84961 13.1133L7.30273 13ZM7.41602 14.0195L7.13281 14.1895L7.01953 14.3027V28.2363L7.24609 28.4629H8.43555L8.71875 27.6699L9.11523 27.1035L9.56836 26.6504L10.3613 26.2539L10.8145 26.1406H11.834L12.5703 26.3672L13.1934 26.7637L13.5898 27.1602L13.9863 27.8398L14.1562 28.4062L14.2129 28.4629H25.8242L25.9941 28.0098L26.2773 27.3867L26.334 15.6621L26.5605 15.2656L26.9004 15.0391L29.166 14.9824L29.0527 14.7559L28.543 14.1328L28.2598 14.0195H7.41602ZM27.2969 16.002V20.25H33.4141L33.0742 19.7969L32.4512 19.0039L31.7148 18.0977L31.0918 17.3047L30.3555 16.3984L30.0723 16.002H27.2969ZM27.2969 21.2695V26.4238L28.2031 26.1406H29.2227L29.959 26.3672L30.5254 26.707L31.0352 27.2168L31.4883 28.123L31.6016 28.4629H33.7539L33.9805 28.2363V26.5938L32.7344 26.5371L32.3945 26.3105L32.2246 26.1406L32.1113 25.8008V24.498L32.2812 24.0449L32.5645 23.8184L32.8477 23.7051L33.9805 23.6484V21.2695H27.2969ZM33.0742 24.668V25.5742H33.9805V24.668H33.0742ZM10.9277 27.1035L10.248 27.3867L9.73828 27.8965L9.51172 28.3496L9.39844 28.7461V29.1992L9.625 29.9355L10.1348 30.502L10.5879 30.7852L10.9844 30.8984H11.6641L12.1738 30.7285L12.627 30.3887L12.9668 29.9922L13.1934 29.4258V28.5762L12.9668 28.0098L12.457 27.4434L11.8906 27.1602L11.6641 27.1035H10.9277ZM28.373 27.1035L27.75 27.3301L27.1836 27.8398L26.8438 28.5195L26.7871 29.0859L26.9004 29.6523L27.2402 30.2188L27.75 30.6719L28.373 30.8984H29.0527L29.6758 30.6719L30.2422 30.1621L30.582 29.4824L30.6387 29.1992V28.8027L30.4688 28.1797L30.1289 27.7266L29.6758 27.3301L29.0527 27.1035H28.373Z"/>
</mask>
<path d="M7.30273 13H28.373L28.8262 13.1133L29.2793 13.3965L29.7324 13.9062L30.3555 14.6992L31.0918 15.6055L31.7148 16.3984L32.4512 17.3047L33.0742 18.0977L33.8105 19.0039L34.4336 19.7969L34.8867 20.4199L35 20.7031V28.4629L34.7734 28.916L34.2637 29.3691L33.9805 29.4824H31.6016L31.4883 30.0488L31.0918 30.7852L30.5254 31.3516L29.959 31.6914L29.4492 31.8613L29.166 31.918H28.2598L27.4668 31.6914L26.8438 31.2949L26.3906 30.8418L25.9941 30.1621L25.8242 29.4824H14.2129L14.043 30.1621L13.6465 30.8418L13.1934 31.2949L12.5703 31.6914L11.7773 31.918H10.8711L10.248 31.748L9.68164 31.4648L9.11523 30.9551L8.77539 30.502L8.49219 29.8789L8.43555 29.4824H7.01953L6.56641 29.2559L6.16992 28.8594L6 28.4629V14.0762L6.22656 13.623L6.50977 13.3398L6.84961 13.1133L7.30273 13ZM7.41602 14.0195L7.13281 14.1895L7.01953 14.3027V28.2363L7.24609 28.4629H8.43555L8.71875 27.6699L9.11523 27.1035L9.56836 26.6504L10.3613 26.2539L10.8145 26.1406H11.834L12.5703 26.3672L13.1934 26.7637L13.5898 27.1602L13.9863 27.8398L14.1562 28.4062L14.2129 28.4629H25.8242L25.9941 28.0098L26.2773 27.3867L26.334 15.6621L26.5605 15.2656L26.9004 15.0391L29.166 14.9824L29.0527 14.7559L28.543 14.1328L28.2598 14.0195H7.41602ZM27.2969 16.002V20.25H33.4141L33.0742 19.7969L32.4512 19.0039L31.7148 18.0977L31.0918 17.3047L30.3555 16.3984L30.0723 16.002H27.2969ZM27.2969 21.2695V26.4238L28.2031 26.1406H29.2227L29.959 26.3672L30.5254 26.707L31.0352 27.2168L31.4883 28.123L31.6016 28.4629H33.7539L33.9805 28.2363V26.5938L32.7344 26.5371L32.3945 26.3105L32.2246 26.1406L32.1113 25.8008V24.498L32.2812 24.0449L32.5645 23.8184L32.8477 23.7051L33.9805 23.6484V21.2695H27.2969ZM33.0742 24.668V25.5742H33.9805V24.668H33.0742ZM10.9277 27.1035L10.248 27.3867L9.73828 27.8965L9.51172 28.3496L9.39844 28.7461V29.1992L9.625 29.9355L10.1348 30.502L10.5879 30.7852L10.9844 30.8984H11.6641L12.1738 30.7285L12.627 30.3887L12.9668 29.9922L13.1934 29.4258V28.5762L12.9668 28.0098L12.457 27.4434L11.8906 27.1602L11.6641 27.1035H10.9277ZM28.373 27.1035L27.75 27.3301L27.1836 27.8398L26.8438 28.5195L26.7871 29.0859L26.9004 29.6523L27.2402 30.2188L27.75 30.6719L28.373 30.8984H29.0527L29.6758 30.6719L30.2422 30.1621L30.582 29.4824L30.6387 29.1992V28.8027L30.4688 28.1797L30.1289 27.7266L29.6758 27.3301L29.0527 27.1035H28.373Z" fill="#0E1C15"/>
<path d="M7.30273 13H28.373L28.8262 13.1133L29.2793 13.3965L29.7324 13.9062L30.3555 14.6992L31.0918 15.6055L31.7148 16.3984L32.4512 17.3047L33.0742 18.0977L33.8105 19.0039L34.4336 19.7969L34.8867 20.4199L35 20.7031V28.4629L34.7734 28.916L34.2637 29.3691L33.9805 29.4824H31.6016L31.4883 30.0488L31.0918 30.7852L30.5254 31.3516L29.959 31.6914L29.4492 31.8613L29.166 31.918H28.2598L27.4668 31.6914L26.8438 31.2949L26.3906 30.8418L25.9941 30.1621L25.8242 29.4824H14.2129L14.043 30.1621L13.6465 30.8418L13.1934 31.2949L12.5703 31.6914L11.7773 31.918H10.8711L10.248 31.748L9.68164 31.4648L9.11523 30.9551L8.77539 30.502L8.49219 29.8789L8.43555 29.4824H7.01953L6.56641 29.2559L6.16992 28.8594L6 28.4629V14.0762L6.22656 13.623L6.50977 13.3398L6.84961 13.1133L7.30273 13ZM7.41602 14.0195L7.13281 14.1895L7.01953 14.3027V28.2363L7.24609 28.4629H8.43555L8.71875 27.6699L9.11523 27.1035L9.56836 26.6504L10.3613 26.2539L10.8145 26.1406H11.834L12.5703 26.3672L13.1934 26.7637L13.5898 27.1602L13.9863 27.8398L14.1562 28.4062L14.2129 28.4629H25.8242L25.9941 28.0098L26.2773 27.3867L26.334 15.6621L26.5605 15.2656L26.9004 15.0391L29.166 14.9824L29.0527 14.7559L28.543 14.1328L28.2598 14.0195H7.41602ZM27.2969 16.002V20.25H33.4141L33.0742 19.7969L32.4512 19.0039L31.7148 18.0977L31.0918 17.3047L30.3555 16.3984L30.0723 16.002H27.2969ZM27.2969 21.2695V26.4238L28.2031 26.1406H29.2227L29.959 26.3672L30.5254 26.707L31.0352 27.2168L31.4883 28.123L31.6016 28.4629H33.7539L33.9805 28.2363V26.5938L32.7344 26.5371L32.3945 26.3105L32.2246 26.1406L32.1113 25.8008V24.498L32.2812 24.0449L32.5645 23.8184L32.8477 23.7051L33.9805 23.6484V21.2695H27.2969ZM33.0742 24.668V25.5742H33.9805V24.668H33.0742ZM10.9277 27.1035L10.248 27.3867L9.73828 27.8965L9.51172 28.3496L9.39844 28.7461V29.1992L9.625 29.9355L10.1348 30.502L10.5879 30.7852L10.9844 30.8984H11.6641L12.1738 30.7285L12.627 30.3887L12.9668 29.9922L13.1934 29.4258V28.5762L12.9668 28.0098L12.457 27.4434L11.8906 27.1602L11.6641 27.1035H10.9277ZM28.373 27.1035L27.75 27.3301L27.1836 27.8398L26.8438 28.5195L26.7871 29.0859L26.9004 29.6523L27.2402 30.2188L27.75 30.6719L28.373 30.8984H29.0527L29.6758 30.6719L30.2422 30.1621L30.582 29.4824L30.6387 29.1992V28.8027L30.4688 28.1797L30.1289 27.7266L29.6758 27.3301L29.0527 27.1035H28.373Z" stroke="#0E1C15" stroke-width="0.4" mask="url(#path-1-outside-1_1007_88075)"/>
<path d="M12.3418 15.8453H12.3256L12.3102 15.8504L12.1403 15.9071L12.1275 15.9113L12.1164 15.9187L11.7766 16.1453L11.7655 16.1527L11.7568 16.1627L11.3603 16.6158L11.346 16.6321L11.3398 16.6529L11.1698 17.2193L11.1656 17.2334V17.248V23.3652V23.3799L11.1698 23.394L11.3398 23.9604L11.346 23.9812L11.3603 23.9975L11.7568 24.4506L11.7697 24.4654L11.7873 24.4742L12.3537 24.7574L12.3748 24.768H12.3984H21.8008H21.817L21.8324 24.7628L22.0023 24.7062L22.0091 24.7039L22.0154 24.7008L22.4685 24.4742L22.4873 24.4649L22.5006 24.4488L22.7839 24.1089L22.7928 24.0983L22.7984 24.0855L23.025 23.5758L23.0336 23.5564V23.5352V17.0781V17.06L23.0272 17.043L22.8573 16.5899L22.8511 16.5733L22.8396 16.5599L22.4998 16.1634L22.4866 16.1481L22.4685 16.1391L21.9021 15.8559L21.881 15.8453H21.8574H12.3418ZM13.4049 17.0648H20.823L20.769 17.1188L20.2046 17.6268L20.2046 17.6268L20.2037 17.6277L19.4683 18.3065L19.4673 18.3074L18.9019 18.8163L18.9018 18.8163L18.9009 18.8171L18.1656 19.4959L17.7134 19.8915L17.7133 19.8914L17.7086 19.8961L17.3357 20.269L17.0142 20.3149L16.5408 19.9467L15.9777 19.44L15.9771 19.4393L15.298 18.8169L15.298 18.8169L15.2974 18.8163L14.7314 18.307L13.9956 17.6277L13.9956 17.6277L13.9936 17.6259L13.5464 17.2346L13.4049 17.0648ZM12.8424 22.3837L12.8422 22.3836L12.8375 22.3883L12.4525 22.7733L12.3852 22.8069V17.7615L12.841 18.1717L13.5203 18.7944L13.5203 18.7944L13.521 18.795L14.0866 19.3041L15.0357 20.1973L15.107 20.3399L14.5972 20.7987L14.0308 21.3085L14.0308 21.3085L14.0298 21.3093L13.2945 21.9881L12.8424 22.3837ZM21.8141 17.8181V22.7979L21.471 22.4978L20.7922 21.8755L20.7915 21.8749L20.226 21.366L20.2251 21.3651L19.4897 20.6863L19.4897 20.6863L19.4877 20.6845L19.0687 20.3179V20.2968L19.3726 20.0436L19.3727 20.0437L19.3762 20.0405L20.0552 19.4181L20.0559 19.4175L20.6216 18.9083L20.6216 18.9083L20.6225 18.9075L21.3579 18.2286L21.3588 18.2278L21.8141 17.8181ZM20.823 23.5484H13.3828L13.8813 23.0997L13.8814 23.0997L13.882 23.0991L14.561 22.4767L14.5617 22.4761L15.1274 21.9669L15.1275 21.9669L15.1291 21.9654L16.0307 21.1168L16.19 21.2362L16.2006 21.2442L16.2129 21.2491L16.7793 21.4757L16.7971 21.4828H16.8164H17.3828H17.3968L17.4103 21.479L17.8068 21.3657L17.8218 21.3614L17.8348 21.3527L18.1308 21.1554L18.3482 21.2423L19.0142 21.8528L19.0145 21.853L19.7505 22.5325L19.7505 22.5325L19.7525 22.5342L20.2031 22.9285L20.7105 23.4359L20.823 23.5484Z" fill="#0E1C15" stroke="#0E1C15" stroke-width="0.2"/>
<path d="M28.4863 22.1324H28.4449L28.4156 22.1617L28.1324 22.4449L28.1031 22.4742V22.5156V22.9121V22.9424L28.1199 22.9676L28.2332 23.1375L28.2479 23.1596L28.2717 23.1715L28.6115 23.3414L28.6326 23.352H28.6562H29.7324H29.7447L29.7567 23.349L29.9832 23.2923L30.016 23.2841L30.0371 23.2578L30.2636 22.9746L30.2855 22.9472V22.9121V22.5156V22.4742L30.2563 22.4449L29.9731 22.1617L29.9438 22.1324H29.9023H28.4863Z" fill="#0E1C15" stroke="#0E1C15" stroke-width="0.2"/>
<path d="M28.6837 28.3667L28.654 28.3582L28.6246 28.368L28.4547 28.4247L28.4323 28.4321L28.4156 28.4488L28.1324 28.732L28.1031 28.7613V28.8027V29.1992V29.2406L28.1324 29.2699L28.4156 29.5531L28.4449 29.5824H28.4863H28.9395H28.9809L29.0102 29.5531L29.2934 29.2699L29.3227 29.2406V29.1992V28.8027V28.7694L29.3027 28.7427L29.1327 28.5162L29.1126 28.4893L29.0802 28.48L28.6837 28.3667Z" fill="#0E1C15" stroke="#0E1C15" stroke-width="0.2"/>
<path d="M11.2931 28.3667L11.2673 28.3594L11.2414 28.3659L11.0148 28.4225L10.9821 28.4307L10.961 28.4571L10.7344 28.7403L10.7125 28.7677V28.8027V29.1992V29.2406L10.7418 29.2699L11.025 29.5531L11.0543 29.5824H11.0957H11.5488H11.5822L11.6088 29.5624L11.8354 29.3925L11.8694 29.367L11.8746 29.3249L11.9313 28.8718L11.9355 28.8375L11.9178 28.8079L11.7479 28.5247L11.7275 28.4909L11.6896 28.48L11.2931 28.3667Z" fill="#0E1C15" stroke="#0E1C15" stroke-width="0.2"/>
</svg>
