<svg width="44" height="44" viewBox="0 0 44 44" fill="none" xmlns="http://www.w3.org/2000/svg">
<path d="M14.291 5.5H16.5902L17.6721 5.70287L18.4836 6.04098L19.2275 6.58197L19.7008 7.05533L20.1742 7.79918L20.5123 8.61066L20.6475 9.21926L23.2172 9.28689L23.9611 9.55738L24.5697 10.0307L25.1107 10.7746L25.3811 11.5184V12.127L25.1783 12.7357L24.6373 13.3443L23.9611 13.75L22.8115 14.0881L22.3381 14.1557H21.1885V15.5082L20.918 17.1311L20.5123 18.3484L20.0389 19.2275L19.6332 19.7008L19.7684 19.9713L20.9857 21.1885L22.1352 21.459L22.2705 21.5266V17.6045L22.4734 17.4016H38.2295L38.5 17.6721V32.6844L38.2971 33.0225L38.2295 33.0902H34.1721L34.1045 33.7664L33.7664 34.4426L33.293 34.8484L32.4816 35.1865L32.1434 35.2541L26.7336 35.3217L25.3135 35.5246H24.9754V38.0943L24.7725 38.4324L24.7049 38.5H24.0963L23.8258 38.2295V35.8627L19.9713 37.2152L17.875 37.8914L15.9816 38.3648L14.9672 38.5H14.3586L13.5471 38.3648L12.7357 38.0266L12.0594 37.6209L11.1803 36.8771L10.9775 36.6066L10.9098 38.0266L10.707 38.3648L10.4365 38.5L9.96311 38.4324L9.76025 38.1619V34.8484H9.21926L8.40779 34.6455L8.1373 34.3074L5.5 29.0328V28.1537L5.83811 27.207L6.44672 26.125L7.19057 25.1783L7.93443 24.3668L10.0307 22.2705L9.82787 21.7971L9.89549 21.3238L11.9242 19.2951L11.5861 18.6865L11.0451 17.6045L10.9098 17.4016L10.2336 17.1311L9.55738 16.5225L9.28689 15.8463V14.5615L9.55738 13.8852L9.625 13.6148L9.35451 13.209L9.28689 13.0061V9.08402L9.48975 8.34016L9.89549 7.52869L10.4365 6.92008L11.1127 6.44672L11.9242 6.04098L13.0061 5.70287L14.291 5.5ZM16.3197 6.64959L15.5082 6.85246L14.9672 7.12295L14.3586 7.66393L13.9529 8.34016L13.6824 9.21926L13.5471 10.0984L13.3443 10.3012H12.7357L12.6004 10.166V9.01639L12.9385 7.8668L13.4795 6.9877L13.5471 6.85246L13.0061 6.92008L12.0594 7.2582L11.3156 7.73156L10.7746 8.34016L10.5041 8.94877L10.3689 9.82787V12.5328L10.5041 12.8709L10.6393 13.0061L10.9098 13.0738H11.9918L12.8033 12.668L13.4795 11.9918L14.1557 11.0451L14.9672 10.2336L15.8463 9.69262L16.5225 9.42213L16.793 9.35451L19.4303 9.28689L19.3627 8.81352L18.957 8.00205L18.5512 7.52869L17.7398 6.9877L16.8607 6.71721L16.3197 6.64959ZM17.4016 10.3689L16.5902 10.5717L15.9139 10.9775L15.2377 11.5861L14.6291 12.2623L14.0881 13.0061V13.0738H16.8607L17.6721 12.668L18.3484 11.9918L18.957 11.1803L19.7008 10.4365V10.3689H17.4016ZM22.0676 10.4365L21.3238 10.707L20.7828 11.0451L21.0533 12.4652L21.1885 13.0738L22.2705 13.0061L23.3525 12.7357L24.0287 12.3299L24.2316 11.9918L24.1639 11.5184L23.6906 10.8422L23.0143 10.4365H22.0676ZM19.7684 11.9242L19.1598 12.7357L18.5512 13.4119L17.9426 13.8176L17.334 14.0881L10.9098 14.1557L10.6393 14.291L10.4365 14.6967V15.6434L10.707 16.0492L11.0451 16.252L11.8566 16.4549L12.0594 16.9283L12.5328 18.0102L13.1414 18.8217L13.75 19.3627L14.4939 19.7684L15.3053 20.0389H16.6578L17.7398 19.7008L18.4836 19.2275L19.0246 18.6189L19.498 17.8074L19.8361 16.793L20.0389 15.7787L20.1066 14.8996L20.0389 13.0738L19.8361 11.9242H19.7684ZM28.7623 18.4836V21.3238L29.168 21.1885L30.1148 20.7152H30.6557L31.873 21.3238H32.0082V18.4836H28.7623ZM23.3525 18.4836V30.8586L24.0963 30.7234L25.2459 30.4529H30.1148L30.6557 30.7234L31.0615 31.1967L31.2643 32.0082H37.418V18.4836H33.0902L33.0225 22.541L32.8873 22.7439H32.3463L30.5881 21.8648L30.1824 21.9324L28.4242 22.8115H28.0184L27.748 22.541L27.6803 18.4836H23.3525ZM12.5328 20.377L11.248 21.6619L11.3832 21.9324L12.3299 22.6762L13.2766 23.4877L13.5471 23.623L14.291 22.6762L14.8996 21.8648L14.5615 21.5943L12.7357 20.377H12.5328ZM18.8217 20.8504L18.6189 21.3914V21.7295L19.3627 22.6762L19.498 22.7439L19.9037 22L19.8361 21.7295L18.957 20.8504H18.8217ZM17.4016 20.9857L16.7254 21.1209L16.0492 21.1885L16.3197 21.6619L16.793 22.8115L16.9959 22.6086L17.5369 21.1209V20.9857H17.4016ZM20.8504 22.4057L20.1742 23.6906L19.9037 24.2316L19.7684 24.3668H19.1598L18.5512 23.623L18.0779 22.9467H17.9426L17.2664 24.7049L16.9283 24.9078L16.3873 24.8402L16.252 24.4344L15.5758 22.8791L15.2377 23.2172L14.3586 24.2992L13.9529 24.8402L13.8176 24.9078H13.2766L12.5328 24.2992L11.5861 23.4877L11.0451 23.082L10.7746 23.2172L8.06967 25.9221L7.19057 27.1393L6.71721 28.1537L6.64959 28.7623L7.39344 30.25L8.1373 31.8053L8.88115 33.293L9.08402 33.6988L9.21926 33.7664H10.5041L11.3832 33.4959L12.127 32.9549L12.6004 32.3463L12.9385 31.6025L12.3975 30.6557L11.3832 28.9652L11.4508 28.4242L11.6537 28.2889H12.1947L12.4652 28.6271L13.4795 30.3852L14.5615 32.2111L14.9672 32.6844L15.5758 33.0225L15.8463 33.0902H16.793L19.9713 32.0082L22.0676 31.332L22.1352 31.2643V22.7439L20.918 22.4057H20.8504ZM25.8545 31.4672L24.7725 31.6701L22.7439 32.2787L20.3094 33.0902L17.5369 34.0369L16.9959 34.1721H15.8463L14.9672 33.9016L14.3586 33.4959L13.75 32.8873L13.4795 33.1578L13.0061 33.6988L12.4652 34.1721L11.6537 34.5779L11.1127 34.7807L11.248 35.1189L11.8566 35.8627L12.5328 36.5389L13.3443 37.0799L14.0881 37.3504L14.6967 37.418L15.7787 37.2828L17.4016 36.8771L20.7152 35.7951L24.0287 34.6455L25.584 34.3074L26.8012 34.1721H31.4672L32.2787 34.0369L32.6844 33.834L32.9549 33.5635L33.0225 33.1578L28.8975 33.0902L28.4242 33.0225L28.2889 32.8873V32.2111L28.4242 32.0758L30.1148 32.0082L30.0471 31.7377L29.8443 31.5348L29.6414 31.4672H25.8545Z" fill="#0E1C15" stroke="#0E1C15" stroke-width="0.6"/>
</svg>
