<svg width="24" height="24" viewBox="0 0 24 24" fill="none" xmlns="http://www.w3.org/2000/svg">
<path d="M2.78125 10L3.05469 10.038L3.79688 10.4937L4.42188 10.7975L5.00781 11.0253L5.78906 11.2532L7.66406 11.5949L8.67969 11.8987L9.5 12.2785L10.0078 12.6203L10.4375 12.962L10.7891 13.3038L11.2969 13.9494L11.6094 14.443L11.9609 13.9494L12.3125 13.5696L12.6641 13.2278L13.25 12.8101L13.9141 12.4304L14.6562 12.1266L15.5547 11.8608L16.9219 11.5949L17.8984 11.4051L18.6406 11.1772L19.2266 10.9494L19.8516 10.6456L20.3984 10.3418L20.9062 10H21.1797L21.375 10.1519L21.6484 10.8734L21.8438 11.5949L22 12.5823V14.2911L21.8438 15.3165L21.6484 16.0759L21.375 16.8734L20.9453 17.7848L20.4766 18.5443L20.125 19L19.7734 19.4177L19.3047 19.9114L18.9922 20.1772L18.3281 20.6709L17.7422 21.0127L16.8438 21.4304L16.1016 21.6582L15.0859 21.8861L14.1484 22H12.3125L11.9609 21.9241L11.8438 21.7722V21.4304L12.3516 20.4051L12.8984 19.5316L13.4062 18.8481L13.8359 18.3165L14.3438 17.7468L14.9688 17.1013L15.5547 16.5696L16.1016 16.1139L16.7656 15.6203L17.3125 15.2405H17.6641L17.8203 15.3924L17.8594 15.6203L17.7422 15.8481L17.0781 16.3038L16.5312 16.7215L15.9844 17.1772L15.6719 17.481L15.3594 17.7468L15.0078 18.1266L14.6172 18.5443L14.1875 19.0759L13.7578 19.6456L13.3281 20.2911L12.8594 21.0886L12.7422 21.3165H13.8359L14.8906 21.2025L15.8672 20.9747L16.4531 20.7848L17.2344 20.443L17.8203 20.1013L18.25 19.7975L18.6797 19.4557L19.3047 18.8481L19.8125 18.2025L20.2422 17.519L20.6328 16.7215L20.9844 15.6962L21.1797 14.8228L21.2578 14.1772V12.7342L21.1406 11.8987L20.9062 11.0253L20.8281 10.9114L20.2031 11.2911L19.2266 11.7468L18.1719 12.0886L17.2344 12.2785L15.8281 12.5443L14.8125 12.8481L14.1094 13.1519L13.6016 13.4557L13.0938 13.8354L12.5859 14.3291L12.1953 14.8987L11.8828 15.5823L11.6875 16.2278L11.4922 17.3671L11.4141 18.2785L11.375 19.5316L11.3359 19.9114L11.1797 20.0633L10.5156 20.2152L9.92969 20.2911H8.32812L7.35156 20.1392L6.64844 19.9494L5.94531 19.6456L5.35938 19.3418L4.73438 18.8861L4.34375 18.5443L4.14844 18.3924L3.875 18.0886L3.40625 17.519L2.97656 16.8354L2.66406 16.2278L2.42969 15.6582L2.19531 14.8987L2.03906 14.1392L2 13.8354V12.2025L2.15625 11.2911L2.39062 10.5316L2.625 10.0759L2.78125 10ZM3.01562 10.8734L2.78125 11.7468L2.70312 12.2785L2.66406 12.8101L2.70312 13.7595L2.82031 14.481L3.05469 15.3165L3.40625 16.1519L3.83594 16.8734L4.14844 17.2911L4.57812 17.7848L5.00781 18.2025L5.51562 18.5823L6.02344 18.8861L6.84375 19.2658L7.66406 19.4937L8.36719 19.6076L9.07031 19.6456L9.8125 19.6076L10.3203 19.5316L10.0859 19.1139L9.69531 18.5823L9.1875 17.9747L8.71875 17.481L7.78125 16.5696L7.35156 16.2278L6.84375 15.8101L6.10156 15.2785L5.75 15.0506L5.71094 14.9747V14.6709L5.86719 14.519H6.14062L6.57031 14.7848L7.19531 15.2405L7.74219 15.6582L8.32812 16.1519L8.91406 16.6835L9.34375 17.1013L9.61719 17.4051L10.1641 18.0506L10.5938 18.6582L10.6719 18.5443L10.75 17.443L10.9062 16.4937L11.1797 15.4684L11.2188 15.3165L10.8672 14.5949L10.5156 14.1013L10.1641 13.6835L9.77344 13.3038L9.14844 12.8861L8.52344 12.5823L7.58594 12.2785L6.17969 12.0127L5.28125 11.8228L4.46094 11.557L3.67969 11.2152L3.09375 10.8734H3.01562Z" fill="#0E1C15" stroke="#0E1C15" stroke-width="0.5"/>
<path d="M8.86301 2H9.61644L10.2945 2.15094L10.9349 2.45283L11.274 2.71698L11.4623 2.86792L11.613 2.79245L12.0651 2.45283L12.6678 2.15094L13.2705 2H14.25L14.8527 2.15094L15.3048 2.33962L15.7568 2.64151L16.1336 2.98113L16.4726 3.43396L16.774 4.03774L16.9247 4.5283L17 5.09434V5.43396L16.9247 6L16.7363 6.56604L16.4726 7.0566L16.1336 7.4717L15.0411 8.56604L14.7774 8.86792L11.6884 11.9623L11.613 12H11.387L11.0856 11.7358L6.94178 7.58491L6.60274 7.16981L6.30137 6.64151L6.11301 6.11321L6.03767 5.77358L6 5.16981L6.07534 4.5283L6.30137 3.84906L6.64041 3.28302L7.09247 2.79245L7.54452 2.45283L8.07192 2.18868L8.59932 2.03774L8.86301 2ZM8.82534 2.67925L8.29795 2.83019L7.80822 3.09434L7.43151 3.43396L7.13014 3.77358L6.82877 4.37736L6.71575 4.79245L6.67808 5.24528L6.75342 5.84906L6.94178 6.37736L7.20548 6.79245L7.54452 7.16981L8.67466 8.30189L8.93836 8.60377L11.4623 11.1321L11.613 11.0566L14.5137 8.15094L14.7774 7.84906L15.7568 6.86792L16.0582 6.37736L16.2466 5.84906L16.2842 5.66038V4.83019L16.1712 4.41509L16.0205 4.03774L15.7568 3.66038L15.4555 3.32075L14.9658 2.98113L14.5137 2.79245L13.9486 2.67925H13.5719L12.9692 2.79245L12.3664 3.09434L12.0274 3.35849L11.7637 3.62264L11.6507 3.69811H11.3493L10.9726 3.35849L10.6712 3.09434L10.0685 2.79245L9.65411 2.67925H8.82534Z" fill="#0E1C15" stroke="#0E1C15" stroke-width="0.5"/>
</svg>
