<svg width="24" height="24" viewBox="0 0 24 24" fill="none" xmlns="http://www.w3.org/2000/svg">
<path d="M11.4512 1H12.2814L12.7698 1.19006L13.1605 1.47516L13.6488 2.09287L14.2837 2.94816L14.9186 3.80346L15.6023 4.70626L16.0419 5.27646L16.6767 5.79914L17.3605 6.32181L17.8977 6.74946L17.9953 6.98704V7.36717L17.4581 8.65011L17.7512 8.74514L18.0442 9.07775L18.1907 9.5054L18.8256 12.9266L19.1674 13.7343L20.0954 15.7775L21.0233 17.8207L21.8535 19.6739L22 20.2916V20.8143L21.8535 21.432L21.6093 21.9071L21.2186 22.3823L20.7302 22.7149L20.1442 22.9525L19.9488 23H18.6302L15.993 22.8575L14.7233 22.7149L13.5512 22.4773L11.9395 21.9546L11.0116 21.527L10.8163 21.5745L10.0837 21.9071L9.49767 22.0497L9.05814 22.0972L8.56977 22.3823L8.03256 22.5724L7.6907 22.6199H4.90698L4.4186 22.4298L4.12558 22.0972L4.02791 21.7171L3.53954 21.5745L2.66047 21.1944L1.87907 20.7192L1.3907 20.2916L1.14651 19.8639L1.04884 19.5788L1 19.1987L1.09767 18.581L1.3907 18.0583L1.68372 17.7257L2.17209 17.4406L2.46512 17.3456L6.17674 17.2981L5.68837 16.4428L5.2 15.3024L4.90698 14.3045L4.71163 13.3067L4.27209 12.7365L4.02791 12.2138L3.8814 11.5011V11.0734L3.97907 10.5032L4.22326 9.93305L4.56512 9.41037L4.95581 9.03024L5.5907 8.55508L6.46977 7.88985L7.34884 7.22462L7.39767 7.17711V5.79914L6.95814 5.32397L6.81163 4.99136V4.5162L7.05581 4.08855L7.34884 3.70842V3.23326L7.49535 2.90065L7.73954 2.71058L9.20465 2.1879L10.2791 1.80778H10.3767L10.4744 1.61771L10.6698 1.38013L11.1581 1.09503L11.4512 1ZM11.5977 1.80778L11.2558 1.99784L11.0116 2.28294L10.1326 4.08855L9.49767 5.41901L8.81395 6.84449L8.47209 7.36717L7.93488 7.84233L7.15349 8.41253L7.10465 8.46004V10.1706L7.3 10.6933L7.64186 11.0259L8.03256 11.216L8.37442 11.2635H9.30233L9.54651 10.4082L9.88837 9.12527L10.2302 8.55508L10.4744 7.84233L10.5721 7.36717L10.6209 6.22678L10.914 5.7041L11.8419 4.18359L11.9884 4.08855H12.3791L14.5279 6.17927L15.2116 7.08207L15.6023 7.55724L16.4814 8.22246L16.6767 8.31749L16.9209 7.79482L17.1163 7.31965L17.0674 7.12959L16.286 6.51188L15.6023 5.9892L15.3581 5.79914L14.8698 5.13391L14.2349 4.27862L13.5512 3.37581L12.9163 2.52052L12.5744 2.09287L12.2814 1.85529L12.1349 1.80778H11.5977ZM9.64419 2.90065L8.27674 3.37581L8.22791 3.42333V3.85097L7.78837 4.5162L7.64186 4.70626L7.6907 4.89633L8.13023 5.37149L8.22791 5.51404L8.27674 6.03672L8.42326 5.84665L9.10698 4.42117L9.7907 2.99568V2.90065H9.64419ZM12.2326 5.08639L11.4023 6.41685L11.3535 7.41469L11.207 8.17495L10.914 8.9352L10.5721 9.55292L10.2791 10.6933V10.8834H10.9628L11.5488 10.7883L11.9884 10.5983L12.4767 10.2657L12.8186 9.7905L13.014 9.36285L13.0628 9.17279V8.36501L12.9651 8.0324V7.17711L13.2093 6.60691L13.4535 6.32181L13.3558 6.13175L12.2814 5.08639H12.2326ZM13.9907 6.93952L13.7465 7.31965V7.88985L13.8442 8.22246V9.26782L13.6977 9.7905L13.3558 10.4557L12.8674 10.9784L12.3302 11.311L11.8907 11.5011L11.5 11.5961L10.0349 11.6436L9.59535 13.4017V13.7343L9.74186 14.162L10.4256 15.0648L11.4023 15.3024L12.1837 15.635L12.7698 16.0626L13.0628 16.3002L13.5512 16.9179L14.0395 17.7732L14.5279 17.9633L17.4581 18.9136L17.6047 18.8661L17.3116 18.2009L17.0186 17.3456L16.7744 16.2527L16.6279 15.1123L16.4814 13.7819L15.7977 13.3067L15.5047 12.9741L15.3581 12.6415L15.3093 12.4039V12.0238L15.4558 11.5486L15.8465 10.7883L16.0419 10.0756L16.0907 9.41037L16.2372 9.03024L15.3581 8.36501L14.9674 8.07991L14.2837 7.17711L14.0884 6.93952H13.9907ZM6.22558 9.12527L5.54186 9.64795L5.29767 9.83801L4.95581 10.3132L4.76047 10.8359L4.71163 11.406L4.8093 11.8812L5.15116 12.5464L5.49302 12.9741L5.5907 13.4492L6.71395 13.2592L8.91163 12.8315L9.10698 12.0238L7.93488 11.9762L7.39767 11.7862L6.95814 11.5011L6.61628 11.0734L6.37209 10.5032L6.32326 10.2181L6.27442 9.12527H6.22558ZM16.9698 9.41037L16.8721 9.55292L16.7744 10.4082L16.5302 11.216L16.0907 12.1188L16.1395 12.4989L16.3349 12.7365L16.9209 13.1166L17.9465 12.879L17.8488 12.2138L17.3605 9.60043L17.214 9.41037H16.9698ZM8.56977 13.6868L5.83488 14.2095L5.78605 14.3521L6.07907 15.2549L6.46977 16.1102L6.86047 16.8229L7.05581 17.108L7.25116 17.0605L8.13023 16.4428L9.05814 15.7775L9.59535 15.3974L9.49767 15.1598L9.10698 14.6371L8.91163 14.257L8.76512 13.6868H8.56977ZM18.093 13.6393L17.3116 13.8294L17.3605 14.5896L17.5558 16.1577L17.8 17.203L18.1419 18.1533L18.7279 19.3413L18.7767 19.4363V19.8164L18.6302 19.959H18.1907L13.5023 18.4384L13.2581 18.0583L12.8186 17.2505L12.2814 16.6803L11.7442 16.3002L11.1093 16.0151L10.4744 15.8726L10.2302 15.9201L9.30233 16.5853L8.42326 17.203L7.64186 17.7732L7.73954 18.0108L8.52093 18.8186L9.05814 19.2937L9.88837 19.9114L10.6209 20.3866L11.6953 20.9568L12.9163 21.432L14.0884 21.7646L15.114 21.9546L16.0419 22.0497L18.6302 22.1922H19.8023L20.2419 22.0497L20.6326 21.7646L20.9256 21.432L21.1209 21.0043L21.1698 20.7667V20.3391L21.0233 19.8639L20.2419 18.1533L19.3628 16.2052L18.4349 14.162L18.1907 13.6393H18.093ZM2.90465 18.1058L2.46512 18.2009L2.07442 18.5335L1.87907 18.9136V19.4838L2.17209 19.9114L2.90465 20.3866L3.83256 20.8143L4.27209 20.9568L4.56512 20.5292L4.95581 20.2441L5.49302 20.054L7.10465 20.0065L7.98372 19.9114H8.52093L8.27674 19.6739L7.3 18.7235L6.86047 18.2009L6.76279 18.1058H2.90465ZM9.4 20.5767L9.49767 21.1944L9.88837 21.0994L10.0349 21.0518L9.98605 20.9093L9.44884 20.5767H9.4ZM8.03256 20.6717L7.20233 20.7667L5.63953 20.8143L5.29767 20.9568L5.05349 21.1944L4.85814 21.527L4.90698 21.7171L5.00465 21.8121H7.64186L8.0814 21.7171L8.52093 21.432L8.66744 21.2419L8.61861 20.9093L8.42326 20.7192L8.32558 20.6717H8.03256Z" fill="#0E1C15" stroke="#0E1C15" stroke-width="0.4"/>
</svg>
