<svg width="16" height="20" viewBox="0 0 16 20" fill="none" xmlns="http://www.w3.org/2000/svg">
<path d="M13.741 7.77284C16.2864 11.6725 14.3392 16.1392 13.3974 17.8816C13.2593 18.1253 13.0738 18.3333 12.854 18.491C12.6341 18.6486 12.3852 18.7521 12.1247 18.7943C10.2793 19.14 5.68481 19.5272 3.21576 15.6275C0.784899 11.9491 0.886715 5.47728 1.10308 2.39348C1.11161 2.16373 1.17023 1.93946 1.27413 1.73914C1.37803 1.53882 1.52422 1.36817 1.70069 1.24125C1.87715 1.11432 2.07883 1.03475 2.28913 1.00908C2.49943 0.983406 2.71233 1.01237 2.91031 1.09358C5.64663 1.95096 11.3483 4.09441 13.741 7.77284Z" stroke="#0E1C15" stroke-width="1.6" stroke-linecap="round" stroke-linejoin="round"/>
<path d="M5 6C7.91516 9.73273 10.4737 13.7777 12.6362 18.0724Z" fill="#FDFDFD"/>
<path d="M5 6C7.91516 9.73273 10.4737 13.7777 12.6362 18.0724" stroke="#0E1C15" stroke-width="1.6" stroke-linecap="round" stroke-linejoin="round"/>
</svg>
