<svg width="32" height="32" viewBox="0 0 32 32" fill="none" xmlns="http://www.w3.org/2000/svg">
<path d="M18.9881 16.0083C23.9553 16.0083 27.982 14.2186 27.982 12.011C27.982 9.80332 23.9553 8.01367 18.9881 8.01367C14.0209 8.01367 9.99414 9.80332 9.99414 12.011C9.99414 14.2186 14.0209 16.0083 18.9881 16.0083Z" stroke="#0E1C15" stroke-width="2" stroke-linecap="round" stroke-linejoin="round"/>
<path d="M9.99414 12.0117V24.0036C9.99414 26.2021 13.9914 28.0009 18.9881 28.0009C23.9847 28.0009 27.982 26.2021 27.982 24.0036V12.0117" stroke="#0E1C15" stroke-width="2" stroke-linecap="round" stroke-linejoin="round"/>
<path d="M27.982 18.0078C27.982 20.2063 23.9847 22.0051 18.9881 22.0051C13.9914 22.0051 9.99414 20.2063 9.99414 18.0078" stroke="#0E1C15" stroke-width="2" stroke-linecap="round" stroke-linejoin="round"/>
<path d="M18.7887 4.01619C16.4532 2.57492 13.7347 1.87787 10.9939 2.01754C6.01729 2.01754 2 3.81633 2 6.01484C2 7.19405 3.15922 8.25333 4.99798 9.01282" stroke="#0E1C15" stroke-width="2" stroke-linecap="round" stroke-linejoin="round"/>
<path d="M4.99798 21.0055C3.15922 20.246 2 19.1867 2 18.0075V6.01562" stroke="#0E1C15" stroke-width="2" stroke-linecap="round" stroke-linejoin="round"/>
<path d="M4.99798 15.0097C3.15922 14.2502 2 13.1909 2 12.0117" stroke="#0E1C15" stroke-width="2" stroke-linecap="round" stroke-linejoin="round"/>
</svg>
