<svg width="32" height="32" viewBox="0 0 32 32" fill="none" xmlns="http://www.w3.org/2000/svg">
<path d="M15.9993 29.3327C23.3631 29.3327 29.3327 23.3631 29.3327 15.9993C29.3327 8.63555 23.3631 2.66602 15.9993 2.66602C8.63555 2.66602 2.66602 8.63555 2.66602 15.9993C2.66602 23.3631 8.63555 29.3327 15.9993 29.3327Z" stroke="#0E1C15" stroke-width="2" stroke-linecap="round" stroke-linejoin="round"/>
<path d="M12.9219 12.9226C12.9219 12.3141 13.1023 11.7192 13.4404 11.2132C13.7785 10.7072 14.2591 10.3128 14.8213 10.0799C15.3835 9.84704 16.0022 9.7861 16.5991 9.90483C17.1959 10.0236 17.7442 10.3166 18.1745 10.7469C18.6048 11.1772 18.8979 11.7255 19.0166 12.3223C19.1353 12.9192 19.0744 13.5379 18.8415 14.1001C18.6086 14.6623 18.2142 15.1429 17.7082 15.481C17.2022 15.8191 16.6074 15.9995 15.9988 15.9995V18.0508" stroke="#0E1C15" stroke-width="2" stroke-linecap="round" stroke-linejoin="round"/>
<path d="M15.9991 23.178C15.7159 23.178 15.4863 22.9484 15.4863 22.6652C15.4863 22.3819 15.7159 22.1523 15.9991 22.1523" stroke="#0E1C15" stroke-width="2" stroke-linecap="round" stroke-linejoin="round"/>
<path d="M16 23.178C16.2832 23.178 16.5128 22.9484 16.5128 22.6652C16.5128 22.3819 16.2832 22.1523 16 22.1523" stroke="#0E1C15" stroke-width="2" stroke-linecap="round" stroke-linejoin="round"/>
</svg>
