<svg width="32" height="32" viewBox="0 0 32 32" fill="none" xmlns="http://www.w3.org/2000/svg">
<path d="M18.9883 16.0063C23.9555 16.0063 27.9822 14.2167 27.9822 12.009C27.9822 9.80137 23.9555 8.01172 18.9883 8.01172C14.0211 8.01172 9.99438 9.80137 9.99438 12.009C9.99438 14.2167 14.0211 16.0063 18.9883 16.0063Z" stroke="#FC5B31" stroke-width="2" stroke-linecap="round" stroke-linejoin="round"/>
<path d="M9.99438 12.0078V23.9997C9.99438 26.1982 13.9917 27.997 18.9883 27.997C23.9849 27.997 27.9822 26.1982 27.9822 23.9997V12.0078" stroke="#FC5B31" stroke-width="2" stroke-linecap="round" stroke-linejoin="round"/>
<path d="M27.9822 18.0039C27.9822 20.2024 23.9849 22.0012 18.9883 22.0012C13.9917 22.0012 9.99438 20.2024 9.99438 18.0039" stroke="#FC5B31" stroke-width="2" stroke-linecap="round" stroke-linejoin="round"/>
<path d="M18.7887 4.01619C16.4532 2.57492 13.7347 1.87787 10.9939 2.01754C6.01729 2.01754 2 3.81633 2 6.01484C2 7.19405 3.15922 8.25333 4.99798 9.01282" stroke="#FC5B31" stroke-width="2" stroke-linecap="round" stroke-linejoin="round"/>
<path d="M4.99798 21.0055C3.15922 20.246 2 19.1867 2 18.0075V6.01562" stroke="#FC5B31" stroke-width="2" stroke-linecap="round" stroke-linejoin="round"/>
<path d="M4.99798 15.0097C3.15922 14.2502 2 13.1909 2 12.0117" stroke="#FC5B31" stroke-width="2" stroke-linecap="round" stroke-linejoin="round"/>
</svg>
