<svg width="32" height="32" viewBox="0 0 32 32" fill="none" xmlns="http://www.w3.org/2000/svg">
<path d="M16.1429 17.8566C18.5098 17.8566 20.4286 15.9378 20.4286 13.5709C20.4286 11.2039 18.5098 9.28516 16.1429 9.28516C13.776 9.28516 11.8572 11.2039 11.8572 13.5709C11.8572 15.9378 13.776 17.8566 16.1429 17.8566Z" stroke="#0E1C15" stroke-width="2" stroke-linecap="round" stroke-linejoin="round"/>
<path d="M8.82288 24.5416C9.58786 23.2859 10.663 22.2482 11.9449 21.528C13.2269 20.8079 14.6725 20.4297 16.1429 20.4297C17.6132 20.4297 19.0589 20.8079 20.3408 21.528C21.6227 22.2482 22.6979 23.2859 23.4629 24.5416" stroke="#0E1C15" stroke-width="2" stroke-linecap="round" stroke-linejoin="round"/>
<path d="M16.1429 27.2857C22.2969 27.2857 27.2857 22.2969 27.2857 16.1429C27.2857 9.98883 22.2969 5 16.1429 5C9.98883 5 5 9.98883 5 16.1429C5 22.2969 9.98883 27.2857 16.1429 27.2857Z" stroke="#0E1C15" stroke-width="2" stroke-linecap="round" stroke-linejoin="round"/>
</svg>
