<svg width="216" height="216" viewBox="0 0 216 216" fill="none" xmlns="http://www.w3.org/2000/svg">
<path fill-rule="evenodd" clip-rule="evenodd" d="M166.9 198.54C149.96 209.583 129.73 216 108 216C48.3533 216 0 167.647 0 108C0 48.3532 48.3533 0 108 0C167.647 0 216 48.3532 216 108C216 131.49 208.501 153.229 195.765 170.953C192.097 166.623 186.619 163.875 180.5 163.875C169.454 163.875 160.5 172.829 160.5 183.875C160.5 189.669 162.964 194.887 166.9 198.54Z" fill="#FDFDFD"/>
<path d="M162.597 161.386L130.333 142.589V127.06C135.005 121.34 138.389 114.659 140.25 107.482C141.36 107.881 142.529 108.086 143.708 108.089C147.708 108.089 150.252 95.5385 150.681 86.5737C155.339 76.5968 148.994 70.7552 148.994 70.7552C148.994 70.7552 151.624 68.0947 153.367 57.4237C155.11 46.7527 147.223 51.2062 141.078 41.4317C134.934 31.6572 130.533 21.0152 110.358 21.0152C104.798 20.8302 99.3125 22.3418 94.6135 25.3538C89.9145 28.3657 86.2196 32.7385 84.0092 37.9036C78.9869 37.9219 73.9828 38.5137 69.0917 39.6677C62.919 41.4317 61.1758 61.8772 66.434 69.8876C68.7879 74.2654 70.0439 79.1609 70.0919 84.1445C68.6916 82.4094 67.2342 81.9467 66.434 85.8796C64.6908 94.7577 71.7208 107.193 71.7208 107.193L75.3502 106.152C77.1786 113.822 80.7063 120.972 85.6667 127.06V142.589L53.4026 161.386C49.6347 163.588 46.5053 166.753 44.3283 170.565C42.1514 174.377 41.0036 178.701 41 183.104V192.704C60.1889 207.704 83.7522 216 108 216C132.248 216 155 206.5 166.5 198.5C164.998 197.878 160 192.5 160.5 182.5C161 172.5 168.5 168 169 167.5C169.5 167 166.369 163.583 162.597 161.386Z" fill="#12231A" fill-opacity="0.3"/>
</svg>
