<svg width="32" height="32" viewBox="0 0 32 32" fill="none" xmlns="http://www.w3.org/2000/svg">
<path d="M18.9884 16.0063C23.9556 16.0063 27.9824 14.2167 27.9824 12.009C27.9824 9.80137 23.9556 8.01172 18.9884 8.01172C14.0212 8.01172 9.99451 9.80137 9.99451 12.009C9.99451 14.2167 14.0212 16.0063 18.9884 16.0063Z" stroke="#0E1C15" stroke-width="2" stroke-linecap="round" stroke-linejoin="round"/>
<path d="M9.99448 12.0078V23.9997C9.99448 26.1982 13.9918 27.997 18.9884 27.997C23.985 27.997 27.9823 26.1982 27.9823 23.9997V12.0078" stroke="#0E1C15" stroke-width="2" stroke-linecap="round" stroke-linejoin="round"/>
<path d="M27.9823 18.0039C27.9823 20.2024 23.985 22.0012 18.9884 22.0012C13.9918 22.0012 9.99448 20.2024 9.99448 18.0039" stroke="#0E1C15" stroke-width="2" stroke-linecap="round" stroke-linejoin="round"/>
<path d="M18.7887 4.01619C16.4533 2.57492 13.7348 1.87787 10.994 2.01754C6.01732 2.01754 2.00003 3.81633 2.00003 6.01484C2.00003 7.19405 3.15925 8.25333 4.99801 9.01282" stroke="#0E1C15" stroke-width="2" stroke-linecap="round" stroke-linejoin="round"/>
<path d="M4.99801 21.0055C3.15925 20.246 2.00003 19.1867 2.00003 18.0075V6.01562" stroke="#0E1C15" stroke-width="2" stroke-linecap="round" stroke-linejoin="round"/>
<path d="M4.99801 15.0097C3.15925 14.2502 2.00003 13.1909 2.00003 12.0117" stroke="#0E1C15" stroke-width="2" stroke-linecap="round" stroke-linejoin="round"/>
</svg>
