<svg width="32" height="32" viewBox="0 0 32 32" fill="none" xmlns="http://www.w3.org/2000/svg">
<path d="M5 10.0781H26" stroke="#848C88" stroke-width="2" stroke-linecap="round" stroke-linejoin="round"/>
<path d="M7.62634 10.0781H23.3763V25.3089C23.3763 25.7577 23.192 26.1882 22.8638 26.5055C22.5356 26.8229 22.0905 27.0012 21.6263 27.0012H9.37634C8.91221 27.0012 8.46709 26.8229 8.13891 26.5055C7.81072 26.1882 7.62634 25.7577 7.62634 25.3089V10.0781Z" stroke="#848C88" stroke-width="2" stroke-linecap="round" stroke-linejoin="round"/>
<path d="M11.1241 10.0769V9.23077C11.1241 8.1087 11.5851 7.03259 12.4056 6.23916C13.226 5.44574 14.3388 5 15.4991 5C16.6595 5 17.7723 5.44574 18.5927 6.23916C19.4132 7.03259 19.8741 8.1087 19.8741 9.23077V10.0769" stroke="#848C88" stroke-width="2" stroke-linecap="round" stroke-linejoin="round"/>
<path d="M12.875 13.4609V22.7686" stroke="#848C88" stroke-width="2" stroke-linecap="round" stroke-linejoin="round"/>
<path d="M18.1237 13.4609V22.7686" stroke="#848C88" stroke-width="2" stroke-linecap="round" stroke-linejoin="round"/>
</svg>
