<svg width="32" height="32" viewBox="0 0 32 32" fill="none" xmlns="http://www.w3.org/2000/svg">
<path d="M4 18.7617H7.69705C8.9227 18.7617 10.0981 19.2483 10.9648 20.1143C11.8315 20.9804 12.3184 22.1551 12.3184 23.3799" stroke="#0E1C15" stroke-width="2" stroke-linecap="round" stroke-linejoin="round"/>
<path d="M6.77279 23.3789H16.0154C16.9959 23.3789 17.9363 23.7681 18.6296 24.461C19.323 25.1539 19.7125 26.0936 19.7125 27.0734C19.7125 27.3184 19.6151 27.5533 19.4418 27.7265C19.2684 27.8997 19.0333 27.9971 18.7882 27.9971H4" stroke="#0E1C15" stroke-width="2" stroke-linecap="round" stroke-linejoin="round"/>
<path d="M19.2504 18.7636L11.8563 11.9288C7.82653 7.88329 13.7048 0.0509144 19.2504 6.38701C24.796 0.0693869 30.7298 7.90176 26.6445 11.9288L19.2504 18.7636Z" stroke="#0E1C15" stroke-width="2" stroke-linecap="round" stroke-linejoin="round"/>
</svg>
