<svg width="32" height="32" viewBox="0 0 32 32" fill="none" xmlns="http://www.w3.org/2000/svg">
<path d="M6 26H22.9155" stroke="#FC5B31" stroke-width="2" stroke-linecap="round" stroke-linejoin="round"/>
<path d="M15.2266 20.6178L10.6133 21.4482L11.3822 16.7733L21.7314 6.45487C21.8744 6.31074 22.0444 6.19634 22.2318 6.11827C22.4192 6.04019 22.6202 6 22.8232 6C23.0262 6 23.2272 6.04019 23.4146 6.11827C23.602 6.19634 23.7721 6.31074 23.915 6.45487L25.5451 8.08491C25.6892 8.22787 25.8036 8.39795 25.8817 8.58534C25.9598 8.77273 26 8.97373 26 9.17673C26 9.37974 25.9598 9.58073 25.8817 9.76813C25.8036 9.95552 25.6892 10.1256 25.5451 10.2686L15.2266 20.6178Z" stroke="#FC5B31" stroke-width="2" stroke-linecap="round" stroke-linejoin="round"/>
</svg>
