<svg width="32" height="33" viewBox="0 0 32 33" fill="none" xmlns="http://www.w3.org/2000/svg">
<path d="M16.1429 18.3571C18.5098 18.3571 20.4286 16.4383 20.4286 14.0714C20.4286 11.7044 18.5098 9.78564 16.1429 9.78564C13.7759 9.78564 11.8571 11.7044 11.8571 14.0714C11.8571 16.4383 13.7759 18.3571 16.1429 18.3571Z" stroke="#0E1C15" stroke-width="2" stroke-linecap="round" stroke-linejoin="round"/>
<path d="M8.82286 25.0429C9.58785 23.7872 10.663 22.7494 11.9449 22.0293C13.2269 21.3091 14.6725 20.9309 16.1429 20.9309C17.6132 20.9309 19.0589 21.3091 20.3408 22.0293C21.6227 22.7494 22.6979 23.7872 23.4629 25.0429" stroke="#0E1C15" stroke-width="2" stroke-linecap="round" stroke-linejoin="round"/>
<path d="M16.1429 27.7857C22.2969 27.7857 27.2857 22.7969 27.2857 16.6429C27.2857 10.4888 22.2969 5.5 16.1429 5.5C9.98883 5.5 5 10.4888 5 16.6429C5 22.7969 9.98883 27.7857 16.1429 27.7857Z" stroke="#0E1C15" stroke-width="2" stroke-linecap="round" stroke-linejoin="round"/>
</svg>
