<svg width="18" height="17" viewBox="0 0 18 17" fill="none" xmlns="http://www.w3.org/2000/svg">
<path d="M5.57356 8.55163C6.29071 9.94005 7.48825 11.0599 8.97106 11.7286C9.08044 11.7772 9.20142 11.7982 9.32209 11.7896C9.44276 11.781 9.55897 11.7431 9.65927 11.6796L11.8372 10.3157C11.9334 10.2545 12.0446 10.2172 12.1603 10.2072C12.2761 10.1972 12.3927 10.2149 12.4992 10.2585L16.5762 11.9001C16.7156 11.9545 16.832 12.0503 16.9075 12.1728C16.9831 12.2953 17.0136 12.4377 16.9944 12.578C16.8652 13.5235 16.3729 14.3925 15.6096 15.0224C14.8464 15.6522 13.8645 15.9998 12.8477 16C9.70549 16 6.69198 14.8298 4.47011 12.7468C2.24824 10.6638 1 7.8386 1 4.89278C1.00023 3.93952 1.37095 3.019 2.04279 2.30346C2.71464 1.58792 3.64157 1.1264 4.65014 1.00526C4.79983 0.987232 4.9517 1.01584 5.08235 1.08667C5.21301 1.15751 5.3152 1.26665 5.37319 1.39728L7.12421 5.22763C7.16975 5.32592 7.1888 5.4332 7.17968 5.54002C7.17057 5.64684 7.13357 5.74991 7.07194 5.84016L5.61712 7.9146C5.55235 8.00843 5.51433 8.11626 5.50671 8.22779C5.49908 8.33932 5.5221 8.45082 5.57356 8.55163V8.55163Z" stroke="#0E1C15" stroke-width="1.5" stroke-linecap="round" stroke-linejoin="round"/>
</svg>
