<svg width="32" height="38" viewBox="0 0 32 38" fill="none" xmlns="http://www.w3.org/2000/svg">
<g clip-path="url(#clip0_1058_140702)">
<mask id="path-1-outside-1_1058_140702" maskUnits="userSpaceOnUse" x="-88.5166" y="3.80444" width="120" height="29" fill="black">
<rect fill="white" x="-88.5166" y="3.80444" width="120" height="29"/>
<path fill-rule="evenodd" clip-rule="evenodd" d="M-75.6843 4.80444C-75.5647 4.80444 -75.3147 4.94575 -75.1408 5.13053C-74.9669 5.31531 -74.5321 5.66313 -74.1843 5.89139C-73.8473 6.13051 -73.5321 6.31529 -73.4886 6.31529C-73.4343 6.31529 -73.0104 6.56529 -72.5321 6.8805C-72.0539 7.18485 -71.4452 7.64136 -71.1734 7.89136C-70.9017 8.14136 -70.6082 8.50005 -70.5213 8.6957C-70.3691 9.03265 -70.3365 9.04352 -69.7061 9.04352C-69.2713 9.04352 -68.8583 9.11961 -68.4561 9.28265C-68.13 9.42395 -67.2713 9.89134 -66.5539 10.3152C-65.8366 10.75 -65.2061 11.0978 -65.1409 11.0978C-65.0757 11.0978 -64.7714 11.2065 -64.4561 11.337C-64.1192 11.4891 -63.8801 11.6522 -63.8909 11.75C-63.8909 11.837 -63.967 12.3478 -64.054 12.8913C-64.1409 13.4239 -64.1844 14.1087 -64.1518 14.413C-64.1192 14.7065 -64.1409 15.4456 -64.2061 16.0434C-64.2605 16.6413 -64.3909 17.3043 -64.4887 17.5108C-64.5757 17.7173 -64.7279 17.9891 -64.8148 18.1086C-64.9561 18.3043 -64.9344 18.3695 -64.6409 18.8151C-64.467 19.0869 -64.2714 19.5325 -64.217 19.8151C-64.1518 20.1086 -64.1083 21.0542 -64.1192 21.9347C-64.1192 22.826 -64.0648 23.8912 -63.9996 24.3042C-63.9344 24.7172 -63.8909 25.1085 -63.9235 25.1738C-63.9453 25.239 -64.3257 25.4129 -64.7714 25.5868C-65.217 25.7498 -65.8692 26.0542 -66.2279 26.2716C-66.5865 26.489 -67.13 26.8042 -67.4235 26.9672C-67.7278 27.1303 -68.3039 27.3694 -68.7278 27.4998C-69.1517 27.6302 -69.6735 27.7281 -69.9017 27.7281C-70.1843 27.7281 -70.3256 27.7824 -70.38 27.9129C-70.4235 28.0215 -70.5648 28.2824 -70.6952 28.4889C-70.8365 28.6954 -71.1843 29.0433 -71.4669 29.2607C-71.7495 29.4781 -72.4778 29.9237 -73.0756 30.2389C-73.6734 30.565 -74.4343 31.0432 -74.7604 31.315C-75.0864 31.5867 -75.4451 31.8693 -75.5538 31.9454C-75.706 32.0541 -75.8364 31.9889 -76.4234 31.4889C-76.7929 31.1628 -77.5103 30.6737 -78.0212 30.3911C-78.5321 30.1085 -79.2168 29.6737 -79.5429 29.4346C-79.869 29.1846 -80.2603 28.8368 -80.4125 28.6628C-80.5646 28.4889 -80.7712 28.2063 -80.8798 28.0324C-81.0212 27.7933 -81.119 27.7389 -81.3364 27.7824C-81.4885 27.815 -81.869 27.7824 -82.1842 27.7281C-82.4885 27.6629 -83.0972 27.4346 -83.5102 27.2172C-83.9233 27.0107 -84.4668 26.6955 -84.7059 26.5324C-84.945 26.3694 -85.3907 26.1085 -85.6841 25.9672C-85.9885 25.8151 -86.4993 25.6085 -86.8254 25.4998C-87.1515 25.3911 -87.4559 25.2824 -87.4993 25.239C-87.5428 25.2064 -87.4993 24.8803 -87.4232 24.5216C-87.3363 24.1629 -87.2602 23.3368 -87.2602 22.6738C-87.2602 22.0107 -87.2059 21.0325 -87.1406 20.4999C-87.0646 19.7608 -86.9559 19.3803 -86.3906 18.3804L-86.6515 18.076C-86.7928 17.913 -86.9885 17.5108 -87.0863 17.1847C-87.2276 16.7282 -87.2602 16.1739 -87.2493 14.7934C-87.2385 13.7826 -87.2819 12.7826 -87.3472 12.5109C-87.4232 12.2391 -87.4776 11.9131 -87.4776 11.7717C-87.4776 11.6196 -87.3906 11.5 -87.2385 11.4348C-87.0972 11.3804 -86.695 11.2174 -86.3363 11.087C-85.9776 10.9457 -85.3689 10.6413 -84.9776 10.4022C-84.5863 10.1739 -83.9015 9.80438 -83.4559 9.59786C-82.869 9.32613 -82.4342 9.20656 -81.8798 9.16308C-81.1733 9.10874 -81.1081 9.07613 -80.9559 8.78265C-80.869 8.59787 -80.6516 8.28266 -80.4668 8.07614C-80.282 7.85875 -79.6951 7.40224 -79.1625 7.05442C-78.6299 6.70659 -78.1516 6.42399 -78.1081 6.42399C-78.0538 6.42399 -77.6951 6.2066 -77.2929 5.94573C-76.8799 5.68487 -76.4016 5.32618 -76.2277 5.1414C-76.0538 4.95662 -75.8038 4.80444 -75.6843 4.80444ZM-30.9348 6.09791C-30.8587 6.10877 -30.6413 6.31529 -30.4566 6.56529C-30.2826 6.81529 -29.9348 7.11963 -29.6957 7.22833C-29.4674 7.34789 -29.087 7.56528 -28.8588 7.71745C-28.5001 7.95658 -28.4131 7.97832 -28.2609 7.85875C-28.1522 7.78267 -27.7718 7.57615 -27.3914 7.40224C-26.9457 7.18485 -26.5762 6.90224 -26.3044 6.58703C-26.0871 6.31529 -25.8371 6.08704 -25.761 6.09791C-25.6958 6.09791 -25.5762 6.35877 -25.5001 6.66312C-25.4132 7.06528 -25.2066 7.43485 -24.8479 7.89136C-24.5653 8.25005 -24.2827 8.60874 -24.2175 8.67396C-24.1632 8.75005 -24.0219 8.79352 -23.9132 8.76092C-23.8153 8.73918 -23.3914 8.68483 -22.9675 8.65222C-22.4349 8.61961 -22.0328 8.51092 -21.6415 8.29353C-21.3262 8.13049 -21.0328 8.04353 -20.9893 8.08701C-20.9349 8.14136 -20.9132 8.51092 -20.9349 8.90222C-20.9676 9.44569 -20.9132 9.82612 -20.7176 10.3913C-20.5763 10.8044 -20.4132 11.1848 -20.3589 11.2283C-20.3045 11.2718 -20.1524 11.3152 -20.0328 11.3152C-19.9132 11.3152 -19.598 11.4131 -19.3263 11.5435C-18.9458 11.7283 -18.685 11.7609 -18.1089 11.7391C-17.7176 11.7174 -17.348 11.7283 -17.2937 11.7717C-17.2502 11.8152 -17.3372 12.0761 -17.5002 12.3478C-17.7285 12.7174 -17.8372 13.0761 -17.9241 13.8369C-18.0437 14.8369 -18.0437 14.8478 -17.7937 15.0326C-17.6524 15.1304 -17.3154 15.413 -17.0437 15.663C-16.772 15.913 -16.4024 16.1521 -16.2285 16.2065C-16.0546 16.25 -15.772 16.326 -15.5981 16.3586C-15.435 16.3913 -15.3046 16.4891 -15.3046 16.5543C-15.3155 16.6304 -15.5437 16.8804 -15.8263 17.0978C-16.1741 17.3804 -16.4676 17.7608 -16.772 18.326C-17.1415 19.0217 -17.185 19.1847 -17.0654 19.3369C-16.9893 19.4347 -16.7828 19.826 -16.6089 20.1956C-16.3807 20.6847 -16.1415 20.9782 -15.7937 21.2282C-15.5328 21.4238 -15.3155 21.6521 -15.3046 21.7173C-15.3046 21.7934 -15.4894 21.9021 -15.7067 21.9673C-15.935 22.0216 -16.1741 22.076 -16.2285 22.076C-16.2828 22.0868 -16.7176 22.3586 -18.0002 23.326L-17.9459 24.2499C-17.9024 24.989 -17.8263 25.3042 -17.5763 25.7933C-17.4024 26.1411 -17.2611 26.4672 -17.2611 26.5324C-17.2611 26.5977 -17.5219 26.6194 -17.935 26.5759C-18.4785 26.5216 -18.8154 26.565 -19.5437 26.7824C-20.435 27.0433 -20.4676 27.065 -20.5328 27.4129C-20.5654 27.6194 -20.6741 27.9455 -20.7719 28.1302C-20.9023 28.3802 -20.9567 28.7607 -20.9567 30.3367L-21.5762 30.0215C-22.0002 29.8041 -22.5001 29.6628 -24.0001 29.4672L-24.4566 29.978C-24.7175 30.2498 -25.0327 30.6411 -25.1632 30.8476C-25.3045 31.0432 -25.4675 31.4237 -25.5218 31.6954C-25.6088 32.0758 -25.674 32.1845 -25.8479 32.1845C-25.9675 32.1845 -26.0653 32.1411 -26.0653 32.0758C-26.0653 32.0106 -26.2827 31.7498 -26.5544 31.478C-26.8262 31.2063 -27.1523 30.9563 -27.2827 30.9237C-27.424 30.8802 -27.7066 30.7389 -28.2935 30.3367L-29.1631 30.7933C-29.6414 31.0432 -30.1196 31.3476 -30.2392 31.4672C-30.3479 31.5976 -30.5326 31.8041 -30.6413 31.9345C-30.75 32.0758 -30.9131 32.1628 -30.9783 32.1519C-31.0544 32.1302 -31.174 31.8911 -31.25 31.6302C-31.3153 31.3693 -31.4892 30.9998 -31.6305 30.815C-31.7718 30.6193 -32.0544 30.2389 -32.2609 29.9563C-32.5544 29.565 -32.6957 29.4672 -32.8587 29.5215C-32.9783 29.5541 -33.413 29.6085 -33.837 29.6411C-34.3913 29.6846 -34.75 29.7824 -35.163 30.0215C-35.4891 30.1954 -35.7608 30.2933 -35.7935 30.228C-35.8261 30.1628 -35.8152 29.8585 -35.7826 29.5433C-35.7282 29.0976 -35.7826 28.7824 -36.0326 28.0215C-36.3152 27.152 -36.3587 27.065 -36.663 26.9998C-36.8369 26.9672 -37.2065 26.8368 -37.4782 26.7172C-37.8804 26.5433 -38.0978 26.5107 -38.7499 26.5759C-39.1847 26.6085 -39.5434 26.6085 -39.5434 26.5542C-39.5434 26.5107 -39.4021 26.2064 -39.2173 25.8803C-39.0108 25.4998 -38.8912 25.1194 -38.8912 24.8477C-38.8912 24.6085 -38.8369 24.2281 -38.7825 23.9999C-38.6739 23.5977 -38.6739 23.5977 -39.3478 22.9455C-39.8912 22.4347 -40.1847 22.2499 -40.7717 22.0542C-41.1738 21.9129 -41.4999 21.739 -41.4999 21.6629C-41.4999 21.5977 -41.4456 21.5325 -41.3912 21.5325C-41.3369 21.5325 -41.076 21.3477 -40.8151 21.1086C-40.5651 20.8803 -40.2934 20.5325 -40.2064 20.326C-40.1195 20.1195 -39.9347 19.7825 -39.7825 19.576C-39.5651 19.2717 -39.5325 19.163 -39.6304 19.0325C-39.7065 18.9456 -39.9238 18.5543 -40.1195 18.1738C-40.326 17.7391 -40.663 17.3043 -40.9782 17.0326C-41.3803 16.6739 -41.4673 16.5543 -41.3586 16.4456C-41.2825 16.3695 -41.1521 16.3043 -41.0651 16.3152C-40.9782 16.3152 -40.7499 16.2608 -40.5543 16.1847C-40.3695 16.1087 -39.8912 15.7934 -38.8043 14.9565L-38.8586 13.9782C-38.9021 13.1848 -38.9782 12.8804 -39.2282 12.3696C-39.4021 12.0326 -39.5108 11.7283 -39.4565 11.7065C-39.413 11.6739 -39.0869 11.6848 -38.7282 11.7174C-38.2173 11.7717 -37.9347 11.7391 -37.4239 11.5544C-37.0652 11.4348 -36.6847 11.3152 -36.5761 11.2935C-36.4347 11.2718 -36.2826 10.9783 -36.0543 10.337C-35.7826 9.56525 -35.7391 9.30439 -35.7935 8.72831C-35.8369 8.22831 -35.8152 8.0544 -35.7065 8.0544C-35.6413 8.0544 -35.3587 8.17397 -35.0869 8.31527C-34.7609 8.48918 -34.2826 8.61961 -33.6739 8.6957C-33.1631 8.76092 -32.7174 8.77179 -32.6848 8.72831C-32.6413 8.68483 -32.337 8.33701 -32 7.94571C-31.6631 7.55441 -31.3587 7.08702 -31.3153 6.91311C-31.2826 6.7392 -31.2174 6.47834 -31.1631 6.33703C-31.1087 6.2066 -31.0109 6.09791 -30.9348 6.09791ZM12.0864 10.2718C12.8255 10.2935 13.2929 10.3805 13.7168 10.5435C14.0429 10.6848 14.6733 11 15.1081 11.2718C15.532 11.5326 15.8907 11.8152 15.8907 11.8804C15.8907 11.9674 15.6407 12.0435 15.2168 12.0978C14.8363 12.1413 14.1407 12.3044 13.6624 12.4565C13.1842 12.6196 12.4451 12.9783 12.032 13.2391C11.619 13.5109 10.9777 14.0326 10.619 14.4022C10.2603 14.7608 9.5538 15.6521 9.04294 16.3586C8.53207 17.0652 7.91252 17.826 7.67339 18.0434C7.42339 18.2608 6.9234 18.6195 5.89081 19.2499L6.7821 19.8369C7.28209 20.1521 7.87991 20.6521 8.12991 20.9455C8.37991 21.239 8.83642 21.8477 9.15163 22.2934C9.46685 22.739 9.96684 23.3803 10.2712 23.7064C10.5647 24.0325 11.0538 24.5107 11.369 24.7716C11.6733 25.0216 12.2385 25.402 12.6299 25.5977C13.0211 25.8042 13.6298 26.0542 13.9885 26.152C14.3472 26.2498 14.9016 26.3694 15.2276 26.402C15.5537 26.4455 15.8363 26.5216 15.8581 26.5868C15.8798 26.652 15.5972 26.902 15.2168 27.152C14.8363 27.4129 14.2168 27.7498 13.8255 27.9129C13.282 28.1411 12.8907 28.2172 12.0864 28.2498C11.206 28.2933 10.9451 28.2607 10.2929 28.0324C9.87988 27.8911 9.23859 27.5868 8.8799 27.3476C8.52121 27.1194 7.85817 26.5542 7.41252 26.1085C6.95601 25.652 5.82559 24.3259 4.90169 23.1629C3.96692 21.9999 2.91258 20.7716 2.56476 20.4347C2.20607 20.1086 1.76042 19.739 1.56477 19.6195C1.37999 19.5108 1.19521 19.3477 1.16261 19.2825C1.13 19.2064 1.24956 19.0651 1.43434 18.9782C1.60825 18.8912 2.12999 18.4564 2.5865 18.0325C3.04301 17.5978 3.91257 16.6086 4.51038 15.826C5.11907 15.0434 6.0321 13.9239 6.54297 13.3369C7.05383 12.7391 7.83643 11.9674 8.28208 11.6087C8.72772 11.25 9.28207 10.8696 9.51032 10.7609C9.72771 10.6413 10.1734 10.4783 10.4886 10.3913C10.869 10.2826 11.3907 10.2392 12.0864 10.2718ZM20.4015 10.2718C21.358 10.3044 21.5754 10.3479 22.2493 10.6522C22.6623 10.8478 23.2602 11.1848 23.5536 11.4131C23.858 11.6413 24.358 12.0978 24.6841 12.413C25.0101 12.7391 25.6623 13.4891 26.1514 14.0869C26.6405 14.6848 27.3145 15.5326 27.6623 15.9891C27.9992 16.4347 28.684 17.2173 29.184 17.7173C29.6731 18.2173 30.2601 18.7391 30.4883 18.8804C30.7057 19.0217 30.8905 19.1847 30.8905 19.2499C30.8905 19.3151 30.684 19.4999 30.4231 19.6738C30.1731 19.8477 29.6079 20.3369 29.184 20.7608C28.7492 21.1847 28.021 22.0325 27.5645 22.652C27.1079 23.2607 26.3797 24.1738 25.9449 24.6846C25.5101 25.1955 24.8145 25.9346 24.4123 26.3259C23.9993 26.7172 23.4449 27.1846 23.1732 27.3694C22.9015 27.5542 22.3254 27.8259 21.9015 27.9889C21.2819 28.2063 20.9015 28.2715 20.2167 28.2715C19.6189 28.2715 19.1189 28.2063 18.7167 28.0759C18.3906 27.9563 17.8798 27.7389 17.5754 27.5868C17.282 27.4346 16.8254 27.1629 16.5755 26.9781C16.3146 26.7933 16.1298 26.5977 16.1624 26.5324C16.195 26.4672 16.4233 26.4237 16.6841 26.4237C16.9341 26.4237 17.4559 26.3368 17.8472 26.2172C18.2385 26.1085 18.7493 25.9346 18.9885 25.8368C19.2276 25.7281 19.7385 25.4346 20.1298 25.1738C20.5211 24.9129 21.1189 24.4238 21.4667 24.0651C21.8145 23.7173 22.4884 22.902 22.9449 22.239C23.4123 21.576 24.0536 20.8042 24.3797 20.5108C24.7058 20.2173 25.2275 19.8369 25.5427 19.6738C25.8471 19.4999 26.0971 19.3043 26.0862 19.239C26.0645 19.1847 25.7819 18.9782 25.4558 18.8043C25.1297 18.6195 24.6188 18.2391 24.3362 17.9673C24.0428 17.6847 23.4558 16.9673 23.0319 16.3695C22.608 15.7717 21.945 14.9456 21.5537 14.5435C21.1624 14.1304 20.4884 13.5652 20.0754 13.2826C19.6624 13 18.9232 12.6413 18.445 12.4783C17.9667 12.3152 17.2494 12.1522 16.8363 12.0978C16.4342 12.0544 16.1081 11.9783 16.1081 11.9131C16.1081 11.8587 16.3907 11.6196 16.7385 11.4022C17.0754 11.1848 17.6733 10.8587 18.0646 10.6848C18.4559 10.5 18.8906 10.337 19.0428 10.3044C19.195 10.2718 19.8037 10.2609 20.4015 10.2718ZM15.945 12.9565C16.4233 12.9565 17.1081 13.0217 17.4667 13.0978C17.8254 13.1848 18.3472 13.3587 18.6406 13.4782C18.9232 13.6087 19.1298 13.7609 19.0972 13.8152C19.0646 13.8804 17.9233 13.9239 15.9994 13.9239C14.0755 13.9239 12.9342 13.8804 12.9016 13.8152C12.869 13.7609 13.0103 13.6413 13.2059 13.5543C13.3907 13.4782 13.8037 13.3261 14.0972 13.2391C14.4016 13.1413 14.7385 13.0435 14.8581 13.0217C14.9776 12.9891 15.4668 12.9674 15.945 12.9565ZM16.6515 14.7717C18.5972 14.7826 20.2493 14.7934 20.3254 14.7934C20.3906 14.7934 20.5971 14.9456 20.7819 15.1195C20.9667 15.3043 21.108 15.5217 21.108 15.6087C21.108 15.75 20.4667 15.7717 15.9994 15.7717C11.9777 15.7717 10.8907 15.7391 10.8907 15.6413C10.8907 15.5652 11.0212 15.3587 11.1842 15.1739C11.4451 14.8804 11.5429 14.8478 12.2929 14.7934C12.7494 14.7608 14.7059 14.75 16.6515 14.7717ZM10.456 16.5326C10.5103 16.5326 10.706 16.7934 10.869 17.1086C11.032 17.413 11.5429 18.3151 11.9994 19.0869C12.4451 19.8695 13.3907 21.4999 14.0972 22.7281C14.7929 23.9564 15.4124 24.9998 15.4668 25.0651C15.5211 25.1303 15.5646 25.239 15.5646 25.3151C15.5646 25.3803 15.4559 25.4455 15.3255 25.4455C15.1842 25.4455 14.9124 25.3911 14.7168 25.3151C14.4994 25.2281 14.2603 25.0216 14.1298 24.7933C13.9994 24.5868 13.8255 24.2716 13.7168 24.0868C13.619 23.9129 13.2494 23.2716 12.9016 22.6738C12.5538 22.076 12.1842 21.4455 12.0864 21.2608C11.9777 21.0868 11.4777 20.1847 10.956 19.2825C10.4451 18.3695 10.0321 17.5434 10.0429 17.4565C10.0538 17.3586 10.119 17.1195 10.1951 16.913C10.2712 16.7065 10.3907 16.5326 10.456 16.5326ZM16.0537 16.5326C19.3037 16.5326 20.2493 16.5652 20.2819 16.6739C20.3037 16.7391 20.2384 16.9239 20.1298 17.076C20.0319 17.2282 19.608 17.9565 19.2059 18.7064C18.7928 19.4564 18.2602 20.4129 18.0102 20.826C17.7602 21.2499 17.3254 22.0325 17.032 22.5651C16.7385 23.0977 16.4124 23.6738 16.3037 23.8477C16.1407 24.0977 16.0755 24.1194 15.9342 24.0107C15.8363 23.9346 15.7059 23.7499 15.6298 23.5977C15.5537 23.4455 14.8255 22.1521 14.0211 20.7173C13.2168 19.2825 12.4016 17.8478 12.2059 17.5434C12.0212 17.2282 11.869 16.8695 11.869 16.7499C11.869 16.5326 11.9451 16.5326 16.0537 16.5326ZM21.695 16.6195C21.7602 16.6739 21.8797 16.913 21.9558 17.1412C22.0863 17.5652 22.0863 17.5652 21.1515 19.1956C20.6406 20.0977 19.9885 21.239 19.695 21.7499C19.4124 22.2607 18.9885 22.989 18.7493 23.3803C18.5102 23.7716 18.1733 24.3477 17.9994 24.6629C17.782 25.0651 17.5863 25.2607 17.3581 25.3368C17.1733 25.402 16.9233 25.4455 16.7928 25.4455C16.6298 25.4455 16.5428 25.3803 16.5428 25.2607C16.5428 25.152 16.5863 25.0216 16.6407 24.9564C16.695 24.8911 17.2059 24.0433 17.7711 23.0542C18.3363 22.0651 19.2276 20.5325 19.7493 19.6412C20.2711 18.7499 20.695 17.9999 20.6841 17.9782C20.6841 17.9673 20.7928 17.7608 20.9232 17.5434C21.0645 17.3152 21.271 16.9891 21.3797 16.826C21.5102 16.6195 21.608 16.5543 21.695 16.6195ZM9.98858 19.3043C10.0755 19.4238 10.7712 20.6303 11.5429 21.9999C12.3255 23.3586 12.9342 24.5107 12.9016 24.5759C12.869 24.6412 12.5429 24.4346 12.1733 24.1194C11.7929 23.8151 11.3255 23.3586 11.119 23.1194C10.9234 22.8694 10.619 22.4021 10.4668 22.076C10.3038 21.7499 10.119 21.2825 10.0538 21.0434C9.97771 20.8042 9.86902 20.3369 9.79293 20.0108C9.71685 19.6847 9.70597 19.3369 9.74945 19.2499C9.82554 19.1086 9.85815 19.1195 9.98858 19.3043ZM22.2167 19.2499C22.2602 19.2499 22.3036 19.4347 22.3036 19.663C22.3036 19.8803 22.2276 20.3586 22.1297 20.7173C22.0319 21.076 21.8036 21.6629 21.6297 22.0216C21.445 22.3803 21.1189 22.8912 20.9015 23.152C20.6841 23.4129 20.2167 23.8694 19.858 24.1629C19.4993 24.4564 19.1624 24.652 19.1189 24.6085C19.0646 24.5651 19.2385 24.1738 19.4885 23.7607C19.7385 23.3477 20.3689 22.2499 20.8906 21.326C21.4124 20.4129 21.8363 19.6195 21.8254 19.5869C21.8254 19.5434 21.8906 19.4564 21.9776 19.3804C22.0645 19.3043 22.1732 19.2499 22.2167 19.2499Z"/>
</mask>
<path fill-rule="evenodd" clip-rule="evenodd" d="M-75.6843 4.80444C-75.5647 4.80444 -75.3147 4.94575 -75.1408 5.13053C-74.9669 5.31531 -74.5321 5.66313 -74.1843 5.89139C-73.8473 6.13051 -73.5321 6.31529 -73.4886 6.31529C-73.4343 6.31529 -73.0104 6.56529 -72.5321 6.8805C-72.0539 7.18485 -71.4452 7.64136 -71.1734 7.89136C-70.9017 8.14136 -70.6082 8.50005 -70.5213 8.6957C-70.3691 9.03265 -70.3365 9.04352 -69.7061 9.04352C-69.2713 9.04352 -68.8583 9.11961 -68.4561 9.28265C-68.13 9.42395 -67.2713 9.89134 -66.5539 10.3152C-65.8366 10.75 -65.2061 11.0978 -65.1409 11.0978C-65.0757 11.0978 -64.7714 11.2065 -64.4561 11.337C-64.1192 11.4891 -63.8801 11.6522 -63.8909 11.75C-63.8909 11.837 -63.967 12.3478 -64.054 12.8913C-64.1409 13.4239 -64.1844 14.1087 -64.1518 14.413C-64.1192 14.7065 -64.1409 15.4456 -64.2061 16.0434C-64.2605 16.6413 -64.3909 17.3043 -64.4887 17.5108C-64.5757 17.7173 -64.7279 17.9891 -64.8148 18.1086C-64.9561 18.3043 -64.9344 18.3695 -64.6409 18.8151C-64.467 19.0869 -64.2714 19.5325 -64.217 19.8151C-64.1518 20.1086 -64.1083 21.0542 -64.1192 21.9347C-64.1192 22.826 -64.0648 23.8912 -63.9996 24.3042C-63.9344 24.7172 -63.8909 25.1085 -63.9235 25.1738C-63.9453 25.239 -64.3257 25.4129 -64.7714 25.5868C-65.217 25.7498 -65.8692 26.0542 -66.2279 26.2716C-66.5865 26.489 -67.13 26.8042 -67.4235 26.9672C-67.7278 27.1303 -68.3039 27.3694 -68.7278 27.4998C-69.1517 27.6302 -69.6735 27.7281 -69.9017 27.7281C-70.1843 27.7281 -70.3256 27.7824 -70.38 27.9129C-70.4235 28.0215 -70.5648 28.2824 -70.6952 28.4889C-70.8365 28.6954 -71.1843 29.0433 -71.4669 29.2607C-71.7495 29.4781 -72.4778 29.9237 -73.0756 30.2389C-73.6734 30.565 -74.4343 31.0432 -74.7604 31.315C-75.0864 31.5867 -75.4451 31.8693 -75.5538 31.9454C-75.706 32.0541 -75.8364 31.9889 -76.4234 31.4889C-76.7929 31.1628 -77.5103 30.6737 -78.0212 30.3911C-78.5321 30.1085 -79.2168 29.6737 -79.5429 29.4346C-79.869 29.1846 -80.2603 28.8368 -80.4125 28.6628C-80.5646 28.4889 -80.7712 28.2063 -80.8798 28.0324C-81.0212 27.7933 -81.119 27.7389 -81.3364 27.7824C-81.4885 27.815 -81.869 27.7824 -82.1842 27.7281C-82.4885 27.6629 -83.0972 27.4346 -83.5102 27.2172C-83.9233 27.0107 -84.4668 26.6955 -84.7059 26.5324C-84.945 26.3694 -85.3907 26.1085 -85.6841 25.9672C-85.9885 25.8151 -86.4993 25.6085 -86.8254 25.4998C-87.1515 25.3911 -87.4559 25.2824 -87.4993 25.239C-87.5428 25.2064 -87.4993 24.8803 -87.4232 24.5216C-87.3363 24.1629 -87.2602 23.3368 -87.2602 22.6738C-87.2602 22.0107 -87.2059 21.0325 -87.1406 20.4999C-87.0646 19.7608 -86.9559 19.3803 -86.3906 18.3804L-86.6515 18.076C-86.7928 17.913 -86.9885 17.5108 -87.0863 17.1847C-87.2276 16.7282 -87.2602 16.1739 -87.2493 14.7934C-87.2385 13.7826 -87.2819 12.7826 -87.3472 12.5109C-87.4232 12.2391 -87.4776 11.9131 -87.4776 11.7717C-87.4776 11.6196 -87.3906 11.5 -87.2385 11.4348C-87.0972 11.3804 -86.695 11.2174 -86.3363 11.087C-85.9776 10.9457 -85.3689 10.6413 -84.9776 10.4022C-84.5863 10.1739 -83.9015 9.80438 -83.4559 9.59786C-82.869 9.32613 -82.4342 9.20656 -81.8798 9.16308C-81.1733 9.10874 -81.1081 9.07613 -80.9559 8.78265C-80.869 8.59787 -80.6516 8.28266 -80.4668 8.07614C-80.282 7.85875 -79.6951 7.40224 -79.1625 7.05442C-78.6299 6.70659 -78.1516 6.42399 -78.1081 6.42399C-78.0538 6.42399 -77.6951 6.2066 -77.2929 5.94573C-76.8799 5.68487 -76.4016 5.32618 -76.2277 5.1414C-76.0538 4.95662 -75.8038 4.80444 -75.6843 4.80444ZM-30.9348 6.09791C-30.8587 6.10877 -30.6413 6.31529 -30.4566 6.56529C-30.2826 6.81529 -29.9348 7.11963 -29.6957 7.22833C-29.4674 7.34789 -29.087 7.56528 -28.8588 7.71745C-28.5001 7.95658 -28.4131 7.97832 -28.2609 7.85875C-28.1522 7.78267 -27.7718 7.57615 -27.3914 7.40224C-26.9457 7.18485 -26.5762 6.90224 -26.3044 6.58703C-26.0871 6.31529 -25.8371 6.08704 -25.761 6.09791C-25.6958 6.09791 -25.5762 6.35877 -25.5001 6.66312C-25.4132 7.06528 -25.2066 7.43485 -24.8479 7.89136C-24.5653 8.25005 -24.2827 8.60874 -24.2175 8.67396C-24.1632 8.75005 -24.0219 8.79352 -23.9132 8.76092C-23.8153 8.73918 -23.3914 8.68483 -22.9675 8.65222C-22.4349 8.61961 -22.0328 8.51092 -21.6415 8.29353C-21.3262 8.13049 -21.0328 8.04353 -20.9893 8.08701C-20.9349 8.14136 -20.9132 8.51092 -20.9349 8.90222C-20.9676 9.44569 -20.9132 9.82612 -20.7176 10.3913C-20.5763 10.8044 -20.4132 11.1848 -20.3589 11.2283C-20.3045 11.2718 -20.1524 11.3152 -20.0328 11.3152C-19.9132 11.3152 -19.598 11.4131 -19.3263 11.5435C-18.9458 11.7283 -18.685 11.7609 -18.1089 11.7391C-17.7176 11.7174 -17.348 11.7283 -17.2937 11.7717C-17.2502 11.8152 -17.3372 12.0761 -17.5002 12.3478C-17.7285 12.7174 -17.8372 13.0761 -17.9241 13.8369C-18.0437 14.8369 -18.0437 14.8478 -17.7937 15.0326C-17.6524 15.1304 -17.3154 15.413 -17.0437 15.663C-16.772 15.913 -16.4024 16.1521 -16.2285 16.2065C-16.0546 16.25 -15.772 16.326 -15.5981 16.3586C-15.435 16.3913 -15.3046 16.4891 -15.3046 16.5543C-15.3155 16.6304 -15.5437 16.8804 -15.8263 17.0978C-16.1741 17.3804 -16.4676 17.7608 -16.772 18.326C-17.1415 19.0217 -17.185 19.1847 -17.0654 19.3369C-16.9893 19.4347 -16.7828 19.826 -16.6089 20.1956C-16.3807 20.6847 -16.1415 20.9782 -15.7937 21.2282C-15.5328 21.4238 -15.3155 21.6521 -15.3046 21.7173C-15.3046 21.7934 -15.4894 21.9021 -15.7067 21.9673C-15.935 22.0216 -16.1741 22.076 -16.2285 22.076C-16.2828 22.0868 -16.7176 22.3586 -18.0002 23.326L-17.9459 24.2499C-17.9024 24.989 -17.8263 25.3042 -17.5763 25.7933C-17.4024 26.1411 -17.2611 26.4672 -17.2611 26.5324C-17.2611 26.5977 -17.5219 26.6194 -17.935 26.5759C-18.4785 26.5216 -18.8154 26.565 -19.5437 26.7824C-20.435 27.0433 -20.4676 27.065 -20.5328 27.4129C-20.5654 27.6194 -20.6741 27.9455 -20.7719 28.1302C-20.9023 28.3802 -20.9567 28.7607 -20.9567 30.3367L-21.5762 30.0215C-22.0002 29.8041 -22.5001 29.6628 -24.0001 29.4672L-24.4566 29.978C-24.7175 30.2498 -25.0327 30.6411 -25.1632 30.8476C-25.3045 31.0432 -25.4675 31.4237 -25.5218 31.6954C-25.6088 32.0758 -25.674 32.1845 -25.8479 32.1845C-25.9675 32.1845 -26.0653 32.1411 -26.0653 32.0758C-26.0653 32.0106 -26.2827 31.7498 -26.5544 31.478C-26.8262 31.2063 -27.1523 30.9563 -27.2827 30.9237C-27.424 30.8802 -27.7066 30.7389 -28.2935 30.3367L-29.1631 30.7933C-29.6414 31.0432 -30.1196 31.3476 -30.2392 31.4672C-30.3479 31.5976 -30.5326 31.8041 -30.6413 31.9345C-30.75 32.0758 -30.9131 32.1628 -30.9783 32.1519C-31.0544 32.1302 -31.174 31.8911 -31.25 31.6302C-31.3153 31.3693 -31.4892 30.9998 -31.6305 30.815C-31.7718 30.6193 -32.0544 30.2389 -32.2609 29.9563C-32.5544 29.565 -32.6957 29.4672 -32.8587 29.5215C-32.9783 29.5541 -33.413 29.6085 -33.837 29.6411C-34.3913 29.6846 -34.75 29.7824 -35.163 30.0215C-35.4891 30.1954 -35.7608 30.2933 -35.7935 30.228C-35.8261 30.1628 -35.8152 29.8585 -35.7826 29.5433C-35.7282 29.0976 -35.7826 28.7824 -36.0326 28.0215C-36.3152 27.152 -36.3587 27.065 -36.663 26.9998C-36.8369 26.9672 -37.2065 26.8368 -37.4782 26.7172C-37.8804 26.5433 -38.0978 26.5107 -38.7499 26.5759C-39.1847 26.6085 -39.5434 26.6085 -39.5434 26.5542C-39.5434 26.5107 -39.4021 26.2064 -39.2173 25.8803C-39.0108 25.4998 -38.8912 25.1194 -38.8912 24.8477C-38.8912 24.6085 -38.8369 24.2281 -38.7825 23.9999C-38.6739 23.5977 -38.6739 23.5977 -39.3478 22.9455C-39.8912 22.4347 -40.1847 22.2499 -40.7717 22.0542C-41.1738 21.9129 -41.4999 21.739 -41.4999 21.6629C-41.4999 21.5977 -41.4456 21.5325 -41.3912 21.5325C-41.3369 21.5325 -41.076 21.3477 -40.8151 21.1086C-40.5651 20.8803 -40.2934 20.5325 -40.2064 20.326C-40.1195 20.1195 -39.9347 19.7825 -39.7825 19.576C-39.5651 19.2717 -39.5325 19.163 -39.6304 19.0325C-39.7065 18.9456 -39.9238 18.5543 -40.1195 18.1738C-40.326 17.7391 -40.663 17.3043 -40.9782 17.0326C-41.3803 16.6739 -41.4673 16.5543 -41.3586 16.4456C-41.2825 16.3695 -41.1521 16.3043 -41.0651 16.3152C-40.9782 16.3152 -40.7499 16.2608 -40.5543 16.1847C-40.3695 16.1087 -39.8912 15.7934 -38.8043 14.9565L-38.8586 13.9782C-38.9021 13.1848 -38.9782 12.8804 -39.2282 12.3696C-39.4021 12.0326 -39.5108 11.7283 -39.4565 11.7065C-39.413 11.6739 -39.0869 11.6848 -38.7282 11.7174C-38.2173 11.7717 -37.9347 11.7391 -37.4239 11.5544C-37.0652 11.4348 -36.6847 11.3152 -36.5761 11.2935C-36.4347 11.2718 -36.2826 10.9783 -36.0543 10.337C-35.7826 9.56525 -35.7391 9.30439 -35.7935 8.72831C-35.8369 8.22831 -35.8152 8.0544 -35.7065 8.0544C-35.6413 8.0544 -35.3587 8.17397 -35.0869 8.31527C-34.7609 8.48918 -34.2826 8.61961 -33.6739 8.6957C-33.1631 8.76092 -32.7174 8.77179 -32.6848 8.72831C-32.6413 8.68483 -32.337 8.33701 -32 7.94571C-31.6631 7.55441 -31.3587 7.08702 -31.3153 6.91311C-31.2826 6.7392 -31.2174 6.47834 -31.1631 6.33703C-31.1087 6.2066 -31.0109 6.09791 -30.9348 6.09791ZM12.0864 10.2718C12.8255 10.2935 13.2929 10.3805 13.7168 10.5435C14.0429 10.6848 14.6733 11 15.1081 11.2718C15.532 11.5326 15.8907 11.8152 15.8907 11.8804C15.8907 11.9674 15.6407 12.0435 15.2168 12.0978C14.8363 12.1413 14.1407 12.3044 13.6624 12.4565C13.1842 12.6196 12.4451 12.9783 12.032 13.2391C11.619 13.5109 10.9777 14.0326 10.619 14.4022C10.2603 14.7608 9.5538 15.6521 9.04294 16.3586C8.53207 17.0652 7.91252 17.826 7.67339 18.0434C7.42339 18.2608 6.9234 18.6195 5.89081 19.2499L6.7821 19.8369C7.28209 20.1521 7.87991 20.6521 8.12991 20.9455C8.37991 21.239 8.83642 21.8477 9.15163 22.2934C9.46685 22.739 9.96684 23.3803 10.2712 23.7064C10.5647 24.0325 11.0538 24.5107 11.369 24.7716C11.6733 25.0216 12.2385 25.402 12.6299 25.5977C13.0211 25.8042 13.6298 26.0542 13.9885 26.152C14.3472 26.2498 14.9016 26.3694 15.2276 26.402C15.5537 26.4455 15.8363 26.5216 15.8581 26.5868C15.8798 26.652 15.5972 26.902 15.2168 27.152C14.8363 27.4129 14.2168 27.7498 13.8255 27.9129C13.282 28.1411 12.8907 28.2172 12.0864 28.2498C11.206 28.2933 10.9451 28.2607 10.2929 28.0324C9.87988 27.8911 9.23859 27.5868 8.8799 27.3476C8.52121 27.1194 7.85817 26.5542 7.41252 26.1085C6.95601 25.652 5.82559 24.3259 4.90169 23.1629C3.96692 21.9999 2.91258 20.7716 2.56476 20.4347C2.20607 20.1086 1.76042 19.739 1.56477 19.6195C1.37999 19.5108 1.19521 19.3477 1.16261 19.2825C1.13 19.2064 1.24956 19.0651 1.43434 18.9782C1.60825 18.8912 2.12999 18.4564 2.5865 18.0325C3.04301 17.5978 3.91257 16.6086 4.51038 15.826C5.11907 15.0434 6.0321 13.9239 6.54297 13.3369C7.05383 12.7391 7.83643 11.9674 8.28208 11.6087C8.72772 11.25 9.28207 10.8696 9.51032 10.7609C9.72771 10.6413 10.1734 10.4783 10.4886 10.3913C10.869 10.2826 11.3907 10.2392 12.0864 10.2718ZM20.4015 10.2718C21.358 10.3044 21.5754 10.3479 22.2493 10.6522C22.6623 10.8478 23.2602 11.1848 23.5536 11.4131C23.858 11.6413 24.358 12.0978 24.6841 12.413C25.0101 12.7391 25.6623 13.4891 26.1514 14.0869C26.6405 14.6848 27.3145 15.5326 27.6623 15.9891C27.9992 16.4347 28.684 17.2173 29.184 17.7173C29.6731 18.2173 30.2601 18.7391 30.4883 18.8804C30.7057 19.0217 30.8905 19.1847 30.8905 19.2499C30.8905 19.3151 30.684 19.4999 30.4231 19.6738C30.1731 19.8477 29.6079 20.3369 29.184 20.7608C28.7492 21.1847 28.021 22.0325 27.5645 22.652C27.1079 23.2607 26.3797 24.1738 25.9449 24.6846C25.5101 25.1955 24.8145 25.9346 24.4123 26.3259C23.9993 26.7172 23.4449 27.1846 23.1732 27.3694C22.9015 27.5542 22.3254 27.8259 21.9015 27.9889C21.2819 28.2063 20.9015 28.2715 20.2167 28.2715C19.6189 28.2715 19.1189 28.2063 18.7167 28.0759C18.3906 27.9563 17.8798 27.7389 17.5754 27.5868C17.282 27.4346 16.8254 27.1629 16.5755 26.9781C16.3146 26.7933 16.1298 26.5977 16.1624 26.5324C16.195 26.4672 16.4233 26.4237 16.6841 26.4237C16.9341 26.4237 17.4559 26.3368 17.8472 26.2172C18.2385 26.1085 18.7493 25.9346 18.9885 25.8368C19.2276 25.7281 19.7385 25.4346 20.1298 25.1738C20.5211 24.9129 21.1189 24.4238 21.4667 24.0651C21.8145 23.7173 22.4884 22.902 22.9449 22.239C23.4123 21.576 24.0536 20.8042 24.3797 20.5108C24.7058 20.2173 25.2275 19.8369 25.5427 19.6738C25.8471 19.4999 26.0971 19.3043 26.0862 19.239C26.0645 19.1847 25.7819 18.9782 25.4558 18.8043C25.1297 18.6195 24.6188 18.2391 24.3362 17.9673C24.0428 17.6847 23.4558 16.9673 23.0319 16.3695C22.608 15.7717 21.945 14.9456 21.5537 14.5435C21.1624 14.1304 20.4884 13.5652 20.0754 13.2826C19.6624 13 18.9232 12.6413 18.445 12.4783C17.9667 12.3152 17.2494 12.1522 16.8363 12.0978C16.4342 12.0544 16.1081 11.9783 16.1081 11.9131C16.1081 11.8587 16.3907 11.6196 16.7385 11.4022C17.0754 11.1848 17.6733 10.8587 18.0646 10.6848C18.4559 10.5 18.8906 10.337 19.0428 10.3044C19.195 10.2718 19.8037 10.2609 20.4015 10.2718ZM15.945 12.9565C16.4233 12.9565 17.1081 13.0217 17.4667 13.0978C17.8254 13.1848 18.3472 13.3587 18.6406 13.4782C18.9232 13.6087 19.1298 13.7609 19.0972 13.8152C19.0646 13.8804 17.9233 13.9239 15.9994 13.9239C14.0755 13.9239 12.9342 13.8804 12.9016 13.8152C12.869 13.7609 13.0103 13.6413 13.2059 13.5543C13.3907 13.4782 13.8037 13.3261 14.0972 13.2391C14.4016 13.1413 14.7385 13.0435 14.8581 13.0217C14.9776 12.9891 15.4668 12.9674 15.945 12.9565ZM16.6515 14.7717C18.5972 14.7826 20.2493 14.7934 20.3254 14.7934C20.3906 14.7934 20.5971 14.9456 20.7819 15.1195C20.9667 15.3043 21.108 15.5217 21.108 15.6087C21.108 15.75 20.4667 15.7717 15.9994 15.7717C11.9777 15.7717 10.8907 15.7391 10.8907 15.6413C10.8907 15.5652 11.0212 15.3587 11.1842 15.1739C11.4451 14.8804 11.5429 14.8478 12.2929 14.7934C12.7494 14.7608 14.7059 14.75 16.6515 14.7717ZM10.456 16.5326C10.5103 16.5326 10.706 16.7934 10.869 17.1086C11.032 17.413 11.5429 18.3151 11.9994 19.0869C12.4451 19.8695 13.3907 21.4999 14.0972 22.7281C14.7929 23.9564 15.4124 24.9998 15.4668 25.0651C15.5211 25.1303 15.5646 25.239 15.5646 25.3151C15.5646 25.3803 15.4559 25.4455 15.3255 25.4455C15.1842 25.4455 14.9124 25.3911 14.7168 25.3151C14.4994 25.2281 14.2603 25.0216 14.1298 24.7933C13.9994 24.5868 13.8255 24.2716 13.7168 24.0868C13.619 23.9129 13.2494 23.2716 12.9016 22.6738C12.5538 22.076 12.1842 21.4455 12.0864 21.2608C11.9777 21.0868 11.4777 20.1847 10.956 19.2825C10.4451 18.3695 10.0321 17.5434 10.0429 17.4565C10.0538 17.3586 10.119 17.1195 10.1951 16.913C10.2712 16.7065 10.3907 16.5326 10.456 16.5326ZM16.0537 16.5326C19.3037 16.5326 20.2493 16.5652 20.2819 16.6739C20.3037 16.7391 20.2384 16.9239 20.1298 17.076C20.0319 17.2282 19.608 17.9565 19.2059 18.7064C18.7928 19.4564 18.2602 20.4129 18.0102 20.826C17.7602 21.2499 17.3254 22.0325 17.032 22.5651C16.7385 23.0977 16.4124 23.6738 16.3037 23.8477C16.1407 24.0977 16.0755 24.1194 15.9342 24.0107C15.8363 23.9346 15.7059 23.7499 15.6298 23.5977C15.5537 23.4455 14.8255 22.1521 14.0211 20.7173C13.2168 19.2825 12.4016 17.8478 12.2059 17.5434C12.0212 17.2282 11.869 16.8695 11.869 16.7499C11.869 16.5326 11.9451 16.5326 16.0537 16.5326ZM21.695 16.6195C21.7602 16.6739 21.8797 16.913 21.9558 17.1412C22.0863 17.5652 22.0863 17.5652 21.1515 19.1956C20.6406 20.0977 19.9885 21.239 19.695 21.7499C19.4124 22.2607 18.9885 22.989 18.7493 23.3803C18.5102 23.7716 18.1733 24.3477 17.9994 24.6629C17.782 25.0651 17.5863 25.2607 17.3581 25.3368C17.1733 25.402 16.9233 25.4455 16.7928 25.4455C16.6298 25.4455 16.5428 25.3803 16.5428 25.2607C16.5428 25.152 16.5863 25.0216 16.6407 24.9564C16.695 24.8911 17.2059 24.0433 17.7711 23.0542C18.3363 22.0651 19.2276 20.5325 19.7493 19.6412C20.2711 18.7499 20.695 17.9999 20.6841 17.9782C20.6841 17.9673 20.7928 17.7608 20.9232 17.5434C21.0645 17.3152 21.271 16.9891 21.3797 16.826C21.5102 16.6195 21.608 16.5543 21.695 16.6195ZM9.98858 19.3043C10.0755 19.4238 10.7712 20.6303 11.5429 21.9999C12.3255 23.3586 12.9342 24.5107 12.9016 24.5759C12.869 24.6412 12.5429 24.4346 12.1733 24.1194C11.7929 23.8151 11.3255 23.3586 11.119 23.1194C10.9234 22.8694 10.619 22.4021 10.4668 22.076C10.3038 21.7499 10.119 21.2825 10.0538 21.0434C9.97771 20.8042 9.86902 20.3369 9.79293 20.0108C9.71685 19.6847 9.70597 19.3369 9.74945 19.2499C9.82554 19.1086 9.85815 19.1195 9.98858 19.3043ZM22.2167 19.2499C22.2602 19.2499 22.3036 19.4347 22.3036 19.663C22.3036 19.8803 22.2276 20.3586 22.1297 20.7173C22.0319 21.076 21.8036 21.6629 21.6297 22.0216C21.445 22.3803 21.1189 22.8912 20.9015 23.152C20.6841 23.4129 20.2167 23.8694 19.858 24.1629C19.4993 24.4564 19.1624 24.652 19.1189 24.6085C19.0646 24.5651 19.2385 24.1738 19.4885 23.7607C19.7385 23.3477 20.3689 22.2499 20.8906 21.326C21.4124 20.4129 21.8363 19.6195 21.8254 19.5869C21.8254 19.5434 21.8906 19.4564 21.9776 19.3804C22.0645 19.3043 22.1732 19.2499 22.2167 19.2499Z" fill="#FC5B31"/>
<path fill-rule="evenodd" clip-rule="evenodd" d="M-75.6843 4.80444C-75.5647 4.80444 -75.3147 4.94575 -75.1408 5.13053C-74.9669 5.31531 -74.5321 5.66313 -74.1843 5.89139C-73.8473 6.13051 -73.5321 6.31529 -73.4886 6.31529C-73.4343 6.31529 -73.0104 6.56529 -72.5321 6.8805C-72.0539 7.18485 -71.4452 7.64136 -71.1734 7.89136C-70.9017 8.14136 -70.6082 8.50005 -70.5213 8.6957C-70.3691 9.03265 -70.3365 9.04352 -69.7061 9.04352C-69.2713 9.04352 -68.8583 9.11961 -68.4561 9.28265C-68.13 9.42395 -67.2713 9.89134 -66.5539 10.3152C-65.8366 10.75 -65.2061 11.0978 -65.1409 11.0978C-65.0757 11.0978 -64.7714 11.2065 -64.4561 11.337C-64.1192 11.4891 -63.8801 11.6522 -63.8909 11.75C-63.8909 11.837 -63.967 12.3478 -64.054 12.8913C-64.1409 13.4239 -64.1844 14.1087 -64.1518 14.413C-64.1192 14.7065 -64.1409 15.4456 -64.2061 16.0434C-64.2605 16.6413 -64.3909 17.3043 -64.4887 17.5108C-64.5757 17.7173 -64.7279 17.9891 -64.8148 18.1086C-64.9561 18.3043 -64.9344 18.3695 -64.6409 18.8151C-64.467 19.0869 -64.2714 19.5325 -64.217 19.8151C-64.1518 20.1086 -64.1083 21.0542 -64.1192 21.9347C-64.1192 22.826 -64.0648 23.8912 -63.9996 24.3042C-63.9344 24.7172 -63.8909 25.1085 -63.9235 25.1738C-63.9453 25.239 -64.3257 25.4129 -64.7714 25.5868C-65.217 25.7498 -65.8692 26.0542 -66.2279 26.2716C-66.5865 26.489 -67.13 26.8042 -67.4235 26.9672C-67.7278 27.1303 -68.3039 27.3694 -68.7278 27.4998C-69.1517 27.6302 -69.6735 27.7281 -69.9017 27.7281C-70.1843 27.7281 -70.3256 27.7824 -70.38 27.9129C-70.4235 28.0215 -70.5648 28.2824 -70.6952 28.4889C-70.8365 28.6954 -71.1843 29.0433 -71.4669 29.2607C-71.7495 29.4781 -72.4778 29.9237 -73.0756 30.2389C-73.6734 30.565 -74.4343 31.0432 -74.7604 31.315C-75.0864 31.5867 -75.4451 31.8693 -75.5538 31.9454C-75.706 32.0541 -75.8364 31.9889 -76.4234 31.4889C-76.7929 31.1628 -77.5103 30.6737 -78.0212 30.3911C-78.5321 30.1085 -79.2168 29.6737 -79.5429 29.4346C-79.869 29.1846 -80.2603 28.8368 -80.4125 28.6628C-80.5646 28.4889 -80.7712 28.2063 -80.8798 28.0324C-81.0212 27.7933 -81.119 27.7389 -81.3364 27.7824C-81.4885 27.815 -81.869 27.7824 -82.1842 27.7281C-82.4885 27.6629 -83.0972 27.4346 -83.5102 27.2172C-83.9233 27.0107 -84.4668 26.6955 -84.7059 26.5324C-84.945 26.3694 -85.3907 26.1085 -85.6841 25.9672C-85.9885 25.8151 -86.4993 25.6085 -86.8254 25.4998C-87.1515 25.3911 -87.4559 25.2824 -87.4993 25.239C-87.5428 25.2064 -87.4993 24.8803 -87.4232 24.5216C-87.3363 24.1629 -87.2602 23.3368 -87.2602 22.6738C-87.2602 22.0107 -87.2059 21.0325 -87.1406 20.4999C-87.0646 19.7608 -86.9559 19.3803 -86.3906 18.3804L-86.6515 18.076C-86.7928 17.913 -86.9885 17.5108 -87.0863 17.1847C-87.2276 16.7282 -87.2602 16.1739 -87.2493 14.7934C-87.2385 13.7826 -87.2819 12.7826 -87.3472 12.5109C-87.4232 12.2391 -87.4776 11.9131 -87.4776 11.7717C-87.4776 11.6196 -87.3906 11.5 -87.2385 11.4348C-87.0972 11.3804 -86.695 11.2174 -86.3363 11.087C-85.9776 10.9457 -85.3689 10.6413 -84.9776 10.4022C-84.5863 10.1739 -83.9015 9.80438 -83.4559 9.59786C-82.869 9.32613 -82.4342 9.20656 -81.8798 9.16308C-81.1733 9.10874 -81.1081 9.07613 -80.9559 8.78265C-80.869 8.59787 -80.6516 8.28266 -80.4668 8.07614C-80.282 7.85875 -79.6951 7.40224 -79.1625 7.05442C-78.6299 6.70659 -78.1516 6.42399 -78.1081 6.42399C-78.0538 6.42399 -77.6951 6.2066 -77.2929 5.94573C-76.8799 5.68487 -76.4016 5.32618 -76.2277 5.1414C-76.0538 4.95662 -75.8038 4.80444 -75.6843 4.80444ZM-30.9348 6.09791C-30.8587 6.10877 -30.6413 6.31529 -30.4566 6.56529C-30.2826 6.81529 -29.9348 7.11963 -29.6957 7.22833C-29.4674 7.34789 -29.087 7.56528 -28.8588 7.71745C-28.5001 7.95658 -28.4131 7.97832 -28.2609 7.85875C-28.1522 7.78267 -27.7718 7.57615 -27.3914 7.40224C-26.9457 7.18485 -26.5762 6.90224 -26.3044 6.58703C-26.0871 6.31529 -25.8371 6.08704 -25.761 6.09791C-25.6958 6.09791 -25.5762 6.35877 -25.5001 6.66312C-25.4132 7.06528 -25.2066 7.43485 -24.8479 7.89136C-24.5653 8.25005 -24.2827 8.60874 -24.2175 8.67396C-24.1632 8.75005 -24.0219 8.79352 -23.9132 8.76092C-23.8153 8.73918 -23.3914 8.68483 -22.9675 8.65222C-22.4349 8.61961 -22.0328 8.51092 -21.6415 8.29353C-21.3262 8.13049 -21.0328 8.04353 -20.9893 8.08701C-20.9349 8.14136 -20.9132 8.51092 -20.9349 8.90222C-20.9676 9.44569 -20.9132 9.82612 -20.7176 10.3913C-20.5763 10.8044 -20.4132 11.1848 -20.3589 11.2283C-20.3045 11.2718 -20.1524 11.3152 -20.0328 11.3152C-19.9132 11.3152 -19.598 11.4131 -19.3263 11.5435C-18.9458 11.7283 -18.685 11.7609 -18.1089 11.7391C-17.7176 11.7174 -17.348 11.7283 -17.2937 11.7717C-17.2502 11.8152 -17.3372 12.0761 -17.5002 12.3478C-17.7285 12.7174 -17.8372 13.0761 -17.9241 13.8369C-18.0437 14.8369 -18.0437 14.8478 -17.7937 15.0326C-17.6524 15.1304 -17.3154 15.413 -17.0437 15.663C-16.772 15.913 -16.4024 16.1521 -16.2285 16.2065C-16.0546 16.25 -15.772 16.326 -15.5981 16.3586C-15.435 16.3913 -15.3046 16.4891 -15.3046 16.5543C-15.3155 16.6304 -15.5437 16.8804 -15.8263 17.0978C-16.1741 17.3804 -16.4676 17.7608 -16.772 18.326C-17.1415 19.0217 -17.185 19.1847 -17.0654 19.3369C-16.9893 19.4347 -16.7828 19.826 -16.6089 20.1956C-16.3807 20.6847 -16.1415 20.9782 -15.7937 21.2282C-15.5328 21.4238 -15.3155 21.6521 -15.3046 21.7173C-15.3046 21.7934 -15.4894 21.9021 -15.7067 21.9673C-15.935 22.0216 -16.1741 22.076 -16.2285 22.076C-16.2828 22.0868 -16.7176 22.3586 -18.0002 23.326L-17.9459 24.2499C-17.9024 24.989 -17.8263 25.3042 -17.5763 25.7933C-17.4024 26.1411 -17.2611 26.4672 -17.2611 26.5324C-17.2611 26.5977 -17.5219 26.6194 -17.935 26.5759C-18.4785 26.5216 -18.8154 26.565 -19.5437 26.7824C-20.435 27.0433 -20.4676 27.065 -20.5328 27.4129C-20.5654 27.6194 -20.6741 27.9455 -20.7719 28.1302C-20.9023 28.3802 -20.9567 28.7607 -20.9567 30.3367L-21.5762 30.0215C-22.0002 29.8041 -22.5001 29.6628 -24.0001 29.4672L-24.4566 29.978C-24.7175 30.2498 -25.0327 30.6411 -25.1632 30.8476C-25.3045 31.0432 -25.4675 31.4237 -25.5218 31.6954C-25.6088 32.0758 -25.674 32.1845 -25.8479 32.1845C-25.9675 32.1845 -26.0653 32.1411 -26.0653 32.0758C-26.0653 32.0106 -26.2827 31.7498 -26.5544 31.478C-26.8262 31.2063 -27.1523 30.9563 -27.2827 30.9237C-27.424 30.8802 -27.7066 30.7389 -28.2935 30.3367L-29.1631 30.7933C-29.6414 31.0432 -30.1196 31.3476 -30.2392 31.4672C-30.3479 31.5976 -30.5326 31.8041 -30.6413 31.9345C-30.75 32.0758 -30.9131 32.1628 -30.9783 32.1519C-31.0544 32.1302 -31.174 31.8911 -31.25 31.6302C-31.3153 31.3693 -31.4892 30.9998 -31.6305 30.815C-31.7718 30.6193 -32.0544 30.2389 -32.2609 29.9563C-32.5544 29.565 -32.6957 29.4672 -32.8587 29.5215C-32.9783 29.5541 -33.413 29.6085 -33.837 29.6411C-34.3913 29.6846 -34.75 29.7824 -35.163 30.0215C-35.4891 30.1954 -35.7608 30.2933 -35.7935 30.228C-35.8261 30.1628 -35.8152 29.8585 -35.7826 29.5433C-35.7282 29.0976 -35.7826 28.7824 -36.0326 28.0215C-36.3152 27.152 -36.3587 27.065 -36.663 26.9998C-36.8369 26.9672 -37.2065 26.8368 -37.4782 26.7172C-37.8804 26.5433 -38.0978 26.5107 -38.7499 26.5759C-39.1847 26.6085 -39.5434 26.6085 -39.5434 26.5542C-39.5434 26.5107 -39.4021 26.2064 -39.2173 25.8803C-39.0108 25.4998 -38.8912 25.1194 -38.8912 24.8477C-38.8912 24.6085 -38.8369 24.2281 -38.7825 23.9999C-38.6739 23.5977 -38.6739 23.5977 -39.3478 22.9455C-39.8912 22.4347 -40.1847 22.2499 -40.7717 22.0542C-41.1738 21.9129 -41.4999 21.739 -41.4999 21.6629C-41.4999 21.5977 -41.4456 21.5325 -41.3912 21.5325C-41.3369 21.5325 -41.076 21.3477 -40.8151 21.1086C-40.5651 20.8803 -40.2934 20.5325 -40.2064 20.326C-40.1195 20.1195 -39.9347 19.7825 -39.7825 19.576C-39.5651 19.2717 -39.5325 19.163 -39.6304 19.0325C-39.7065 18.9456 -39.9238 18.5543 -40.1195 18.1738C-40.326 17.7391 -40.663 17.3043 -40.9782 17.0326C-41.3803 16.6739 -41.4673 16.5543 -41.3586 16.4456C-41.2825 16.3695 -41.1521 16.3043 -41.0651 16.3152C-40.9782 16.3152 -40.7499 16.2608 -40.5543 16.1847C-40.3695 16.1087 -39.8912 15.7934 -38.8043 14.9565L-38.8586 13.9782C-38.9021 13.1848 -38.9782 12.8804 -39.2282 12.3696C-39.4021 12.0326 -39.5108 11.7283 -39.4565 11.7065C-39.413 11.6739 -39.0869 11.6848 -38.7282 11.7174C-38.2173 11.7717 -37.9347 11.7391 -37.4239 11.5544C-37.0652 11.4348 -36.6847 11.3152 -36.5761 11.2935C-36.4347 11.2718 -36.2826 10.9783 -36.0543 10.337C-35.7826 9.56525 -35.7391 9.30439 -35.7935 8.72831C-35.8369 8.22831 -35.8152 8.0544 -35.7065 8.0544C-35.6413 8.0544 -35.3587 8.17397 -35.0869 8.31527C-34.7609 8.48918 -34.2826 8.61961 -33.6739 8.6957C-33.1631 8.76092 -32.7174 8.77179 -32.6848 8.72831C-32.6413 8.68483 -32.337 8.33701 -32 7.94571C-31.6631 7.55441 -31.3587 7.08702 -31.3153 6.91311C-31.2826 6.7392 -31.2174 6.47834 -31.1631 6.33703C-31.1087 6.2066 -31.0109 6.09791 -30.9348 6.09791ZM12.0864 10.2718C12.8255 10.2935 13.2929 10.3805 13.7168 10.5435C14.0429 10.6848 14.6733 11 15.1081 11.2718C15.532 11.5326 15.8907 11.8152 15.8907 11.8804C15.8907 11.9674 15.6407 12.0435 15.2168 12.0978C14.8363 12.1413 14.1407 12.3044 13.6624 12.4565C13.1842 12.6196 12.4451 12.9783 12.032 13.2391C11.619 13.5109 10.9777 14.0326 10.619 14.4022C10.2603 14.7608 9.5538 15.6521 9.04294 16.3586C8.53207 17.0652 7.91252 17.826 7.67339 18.0434C7.42339 18.2608 6.9234 18.6195 5.89081 19.2499L6.7821 19.8369C7.28209 20.1521 7.87991 20.6521 8.12991 20.9455C8.37991 21.239 8.83642 21.8477 9.15163 22.2934C9.46685 22.739 9.96684 23.3803 10.2712 23.7064C10.5647 24.0325 11.0538 24.5107 11.369 24.7716C11.6733 25.0216 12.2385 25.402 12.6299 25.5977C13.0211 25.8042 13.6298 26.0542 13.9885 26.152C14.3472 26.2498 14.9016 26.3694 15.2276 26.402C15.5537 26.4455 15.8363 26.5216 15.8581 26.5868C15.8798 26.652 15.5972 26.902 15.2168 27.152C14.8363 27.4129 14.2168 27.7498 13.8255 27.9129C13.282 28.1411 12.8907 28.2172 12.0864 28.2498C11.206 28.2933 10.9451 28.2607 10.2929 28.0324C9.87988 27.8911 9.23859 27.5868 8.8799 27.3476C8.52121 27.1194 7.85817 26.5542 7.41252 26.1085C6.95601 25.652 5.82559 24.3259 4.90169 23.1629C3.96692 21.9999 2.91258 20.7716 2.56476 20.4347C2.20607 20.1086 1.76042 19.739 1.56477 19.6195C1.37999 19.5108 1.19521 19.3477 1.16261 19.2825C1.13 19.2064 1.24956 19.0651 1.43434 18.9782C1.60825 18.8912 2.12999 18.4564 2.5865 18.0325C3.04301 17.5978 3.91257 16.6086 4.51038 15.826C5.11907 15.0434 6.0321 13.9239 6.54297 13.3369C7.05383 12.7391 7.83643 11.9674 8.28208 11.6087C8.72772 11.25 9.28207 10.8696 9.51032 10.7609C9.72771 10.6413 10.1734 10.4783 10.4886 10.3913C10.869 10.2826 11.3907 10.2392 12.0864 10.2718ZM20.4015 10.2718C21.358 10.3044 21.5754 10.3479 22.2493 10.6522C22.6623 10.8478 23.2602 11.1848 23.5536 11.4131C23.858 11.6413 24.358 12.0978 24.6841 12.413C25.0101 12.7391 25.6623 13.4891 26.1514 14.0869C26.6405 14.6848 27.3145 15.5326 27.6623 15.9891C27.9992 16.4347 28.684 17.2173 29.184 17.7173C29.6731 18.2173 30.2601 18.7391 30.4883 18.8804C30.7057 19.0217 30.8905 19.1847 30.8905 19.2499C30.8905 19.3151 30.684 19.4999 30.4231 19.6738C30.1731 19.8477 29.6079 20.3369 29.184 20.7608C28.7492 21.1847 28.021 22.0325 27.5645 22.652C27.1079 23.2607 26.3797 24.1738 25.9449 24.6846C25.5101 25.1955 24.8145 25.9346 24.4123 26.3259C23.9993 26.7172 23.4449 27.1846 23.1732 27.3694C22.9015 27.5542 22.3254 27.8259 21.9015 27.9889C21.2819 28.2063 20.9015 28.2715 20.2167 28.2715C19.6189 28.2715 19.1189 28.2063 18.7167 28.0759C18.3906 27.9563 17.8798 27.7389 17.5754 27.5868C17.282 27.4346 16.8254 27.1629 16.5755 26.9781C16.3146 26.7933 16.1298 26.5977 16.1624 26.5324C16.195 26.4672 16.4233 26.4237 16.6841 26.4237C16.9341 26.4237 17.4559 26.3368 17.8472 26.2172C18.2385 26.1085 18.7493 25.9346 18.9885 25.8368C19.2276 25.7281 19.7385 25.4346 20.1298 25.1738C20.5211 24.9129 21.1189 24.4238 21.4667 24.0651C21.8145 23.7173 22.4884 22.902 22.9449 22.239C23.4123 21.576 24.0536 20.8042 24.3797 20.5108C24.7058 20.2173 25.2275 19.8369 25.5427 19.6738C25.8471 19.4999 26.0971 19.3043 26.0862 19.239C26.0645 19.1847 25.7819 18.9782 25.4558 18.8043C25.1297 18.6195 24.6188 18.2391 24.3362 17.9673C24.0428 17.6847 23.4558 16.9673 23.0319 16.3695C22.608 15.7717 21.945 14.9456 21.5537 14.5435C21.1624 14.1304 20.4884 13.5652 20.0754 13.2826C19.6624 13 18.9232 12.6413 18.445 12.4783C17.9667 12.3152 17.2494 12.1522 16.8363 12.0978C16.4342 12.0544 16.1081 11.9783 16.1081 11.9131C16.1081 11.8587 16.3907 11.6196 16.7385 11.4022C17.0754 11.1848 17.6733 10.8587 18.0646 10.6848C18.4559 10.5 18.8906 10.337 19.0428 10.3044C19.195 10.2718 19.8037 10.2609 20.4015 10.2718ZM15.945 12.9565C16.4233 12.9565 17.1081 13.0217 17.4667 13.0978C17.8254 13.1848 18.3472 13.3587 18.6406 13.4782C18.9232 13.6087 19.1298 13.7609 19.0972 13.8152C19.0646 13.8804 17.9233 13.9239 15.9994 13.9239C14.0755 13.9239 12.9342 13.8804 12.9016 13.8152C12.869 13.7609 13.0103 13.6413 13.2059 13.5543C13.3907 13.4782 13.8037 13.3261 14.0972 13.2391C14.4016 13.1413 14.7385 13.0435 14.8581 13.0217C14.9776 12.9891 15.4668 12.9674 15.945 12.9565ZM16.6515 14.7717C18.5972 14.7826 20.2493 14.7934 20.3254 14.7934C20.3906 14.7934 20.5971 14.9456 20.7819 15.1195C20.9667 15.3043 21.108 15.5217 21.108 15.6087C21.108 15.75 20.4667 15.7717 15.9994 15.7717C11.9777 15.7717 10.8907 15.7391 10.8907 15.6413C10.8907 15.5652 11.0212 15.3587 11.1842 15.1739C11.4451 14.8804 11.5429 14.8478 12.2929 14.7934C12.7494 14.7608 14.7059 14.75 16.6515 14.7717ZM10.456 16.5326C10.5103 16.5326 10.706 16.7934 10.869 17.1086C11.032 17.413 11.5429 18.3151 11.9994 19.0869C12.4451 19.8695 13.3907 21.4999 14.0972 22.7281C14.7929 23.9564 15.4124 24.9998 15.4668 25.0651C15.5211 25.1303 15.5646 25.239 15.5646 25.3151C15.5646 25.3803 15.4559 25.4455 15.3255 25.4455C15.1842 25.4455 14.9124 25.3911 14.7168 25.3151C14.4994 25.2281 14.2603 25.0216 14.1298 24.7933C13.9994 24.5868 13.8255 24.2716 13.7168 24.0868C13.619 23.9129 13.2494 23.2716 12.9016 22.6738C12.5538 22.076 12.1842 21.4455 12.0864 21.2608C11.9777 21.0868 11.4777 20.1847 10.956 19.2825C10.4451 18.3695 10.0321 17.5434 10.0429 17.4565C10.0538 17.3586 10.119 17.1195 10.1951 16.913C10.2712 16.7065 10.3907 16.5326 10.456 16.5326ZM16.0537 16.5326C19.3037 16.5326 20.2493 16.5652 20.2819 16.6739C20.3037 16.7391 20.2384 16.9239 20.1298 17.076C20.0319 17.2282 19.608 17.9565 19.2059 18.7064C18.7928 19.4564 18.2602 20.4129 18.0102 20.826C17.7602 21.2499 17.3254 22.0325 17.032 22.5651C16.7385 23.0977 16.4124 23.6738 16.3037 23.8477C16.1407 24.0977 16.0755 24.1194 15.9342 24.0107C15.8363 23.9346 15.7059 23.7499 15.6298 23.5977C15.5537 23.4455 14.8255 22.1521 14.0211 20.7173C13.2168 19.2825 12.4016 17.8478 12.2059 17.5434C12.0212 17.2282 11.869 16.8695 11.869 16.7499C11.869 16.5326 11.9451 16.5326 16.0537 16.5326ZM21.695 16.6195C21.7602 16.6739 21.8797 16.913 21.9558 17.1412C22.0863 17.5652 22.0863 17.5652 21.1515 19.1956C20.6406 20.0977 19.9885 21.239 19.695 21.7499C19.4124 22.2607 18.9885 22.989 18.7493 23.3803C18.5102 23.7716 18.1733 24.3477 17.9994 24.6629C17.782 25.0651 17.5863 25.2607 17.3581 25.3368C17.1733 25.402 16.9233 25.4455 16.7928 25.4455C16.6298 25.4455 16.5428 25.3803 16.5428 25.2607C16.5428 25.152 16.5863 25.0216 16.6407 24.9564C16.695 24.8911 17.2059 24.0433 17.7711 23.0542C18.3363 22.0651 19.2276 20.5325 19.7493 19.6412C20.2711 18.7499 20.695 17.9999 20.6841 17.9782C20.6841 17.9673 20.7928 17.7608 20.9232 17.5434C21.0645 17.3152 21.271 16.9891 21.3797 16.826C21.5102 16.6195 21.608 16.5543 21.695 16.6195ZM9.98858 19.3043C10.0755 19.4238 10.7712 20.6303 11.5429 21.9999C12.3255 23.3586 12.9342 24.5107 12.9016 24.5759C12.869 24.6412 12.5429 24.4346 12.1733 24.1194C11.7929 23.8151 11.3255 23.3586 11.119 23.1194C10.9234 22.8694 10.619 22.4021 10.4668 22.076C10.3038 21.7499 10.119 21.2825 10.0538 21.0434C9.97771 20.8042 9.86902 20.3369 9.79293 20.0108C9.71685 19.6847 9.70597 19.3369 9.74945 19.2499C9.82554 19.1086 9.85815 19.1195 9.98858 19.3043ZM22.2167 19.2499C22.2602 19.2499 22.3036 19.4347 22.3036 19.663C22.3036 19.8803 22.2276 20.3586 22.1297 20.7173C22.0319 21.076 21.8036 21.6629 21.6297 22.0216C21.445 22.3803 21.1189 22.8912 20.9015 23.152C20.6841 23.4129 20.2167 23.8694 19.858 24.1629C19.4993 24.4564 19.1624 24.652 19.1189 24.6085C19.0646 24.5651 19.2385 24.1738 19.4885 23.7607C19.7385 23.3477 20.3689 22.2499 20.8906 21.326C21.4124 20.4129 21.8363 19.6195 21.8254 19.5869C21.8254 19.5434 21.8906 19.4564 21.9776 19.3804C22.0645 19.3043 22.1732 19.2499 22.2167 19.2499Z" stroke="#FC5B31" stroke-width="0.2" mask="url(#path-1-outside-1_1058_140702)"/>
<path d="M-77.6403 7.45642C-77.0969 7.17382 -76.4447 6.77165 -76.1838 6.576C-75.9338 6.36948 -75.6621 6.23905 -75.586 6.28252C-75.5208 6.31513 -75.2926 6.47817 -75.086 6.64122C-74.8795 6.80426 -74.3686 7.11947 -73.9447 7.34773C-73.5208 7.57599 -72.9882 7.90207 -72.7491 8.06511C-72.51 8.22815 -72.1295 8.55423 -71.9013 8.80423C-71.6404 9.08684 -71.51 9.33683 -71.5317 9.49987C-71.5426 9.63031 -71.6078 9.72813 -71.6622 9.71726C-71.7274 9.69552 -72.173 9.54335 -72.6621 9.35857C-73.1621 9.18466 -73.7708 9.02162 -74.0208 9.01075C-74.4665 8.97814 -74.4882 8.98901 -74.5969 9.38031C-74.6694 9.65567 -74.6694 9.82958 -74.5969 9.90204C-74.5317 9.95639 -74.1513 10.0977 -73.7274 10.2064C-73.3034 10.326 -72.6948 10.5325 -72.3687 10.6846C-72.0426 10.8259 -71.4774 11.1412 -71.1187 11.3694C-70.76 11.5977 -70.173 12.0542 -69.8144 12.3911C-69.4557 12.7281 -69.0752 13.0759 -68.9665 13.1629C-68.7926 13.315 -68.7383 13.2933 -68.4448 12.9998C-68.2709 12.8259 -68.1296 12.6303 -68.1187 12.5651C-68.1187 12.5107 -68.4013 12.1846 -68.7492 11.8585C-69.097 11.5216 -69.5752 11.0977 -69.8144 10.902C-70.173 10.6086 -70.2274 10.5216 -70.1296 10.3586C-70.0644 10.2607 -69.847 10.1629 -69.6404 10.1412C-69.4122 10.1303 -69.0318 10.2281 -68.6731 10.3912C-68.347 10.5542 -67.684 10.9238 -67.2057 11.2281C-66.7274 11.5433 -66.0753 11.902 -65.1949 12.2933L-65.2492 14.2824C-65.2709 15.3694 -65.347 16.4563 -65.4122 16.6954C-65.4666 16.9346 -65.597 17.2389 -65.684 17.3802C-65.7709 17.5106 -65.9231 17.6193 -66.0101 17.6193C-66.097 17.6193 -66.1948 17.5106 -66.2166 17.3802C-66.2383 17.2389 -66.3361 16.7389 -66.4231 16.2607C-66.5209 15.7824 -66.6405 15.2607 -66.7057 15.0976C-66.7927 14.8694 -66.9014 14.7933 -67.1187 14.7933C-67.2927 14.7933 -67.5209 14.8476 -67.6296 14.9237C-67.8253 15.0542 -67.8253 15.0976 -67.6622 15.7715C-67.5644 16.1628 -67.434 16.9237 -67.3579 17.4563C-67.26 18.2172 -67.26 18.6519 -67.3687 19.4128C-67.4448 19.9454 -67.5753 20.6084 -67.6513 20.8802C-67.7383 21.1519 -67.8035 21.4671 -67.8035 21.5867C-67.8035 21.7389 -67.684 21.8475 -67.4013 21.9454C-67.0535 22.0758 -66.9666 22.0758 -66.8579 21.9454C-66.7818 21.8693 -66.6187 21.391 -66.4992 20.8802C-66.3905 20.3693 -66.2601 19.7715 -66.2274 19.5541C-66.1948 19.3258 -66.1079 19.1411 -66.0318 19.1411C-65.9666 19.1411 -65.7927 19.2498 -65.6622 19.3802C-65.5318 19.5215 -65.3688 19.8693 -65.3144 20.1737C-65.2601 20.478 -65.2166 21.5649 -65.2492 24.4888L-66.2274 25.0214C-66.76 25.3149 -67.597 25.7497 -68.0752 25.9997C-68.5535 26.2388 -69.1622 26.4779 -69.4339 26.4997C-69.7057 26.5323 -70.0209 26.5105 -70.1404 26.4562C-70.3578 26.3475 -70.347 26.3366 -70.0861 26.141C-69.9448 26.0214 -69.4448 25.5649 -68.9774 25.1192C-68.51 24.6736 -68.1296 24.2714 -68.1296 24.228C-68.1296 24.1736 -68.2383 24.0214 -68.3687 23.8693C-68.51 23.728 -68.6948 23.6084 -68.7818 23.5975C-68.8687 23.5975 -69.26 23.891 -69.6513 24.2497C-70.0426 24.6084 -70.6296 25.0866 -70.9556 25.304C-71.2817 25.5214 -71.8904 25.8584 -72.3143 26.054C-72.7382 26.2497 -73.4339 26.5105 -73.8578 26.6301C-74.5752 26.8366 -74.6513 26.891 -74.6513 27.1301C-74.6513 27.2823 -74.5969 27.4996 -74.5426 27.6192C-74.4556 27.804 -74.3578 27.8257 -73.9665 27.7823C-73.7165 27.7496 -73.0643 27.5649 -72.5317 27.391C-71.9882 27.2062 -71.51 27.0975 -71.4665 27.1518C-71.423 27.1953 -71.4448 27.4127 -71.5317 27.6192C-71.6296 27.8801 -71.9013 28.1627 -72.3795 28.4996C-72.76 28.7822 -73.3904 29.1627 -73.7817 29.3583C-74.173 29.554 -74.7056 29.8692 -74.9773 30.0648C-75.2491 30.2496 -75.5099 30.4453 -75.5752 30.4779C-75.6295 30.5214 -75.8904 30.4018 -76.1404 30.2279C-76.4012 30.0431 -76.8904 29.7496 -77.2273 29.554C-77.5751 29.3692 -78.1295 29.0322 -78.4556 28.804C-78.7816 28.5866 -79.2164 28.2388 -79.4121 28.0431C-79.6186 27.8366 -79.8034 27.554 -79.836 27.4018C-79.8577 27.2497 -79.8577 27.1083 -79.8251 27.0757C-79.7925 27.0431 -79.336 27.1844 -78.8034 27.3692C-78.2816 27.5649 -77.6512 27.7496 -77.3904 27.7823C-76.9773 27.8257 -76.923 27.8149 -76.8251 27.5649C-76.7599 27.4127 -76.7164 27.1953 -76.7164 27.0757C-76.7164 26.9018 -76.8686 26.8149 -77.499 26.6301C-77.9338 26.5105 -78.6838 26.2171 -79.1621 25.9997C-79.6403 25.7823 -80.3034 25.4018 -80.6294 25.1519C-80.9555 24.9127 -81.5099 24.4345 -81.8468 24.0975C-82.1946 23.7606 -82.5425 23.5106 -82.6077 23.5432C-82.6838 23.5649 -82.8685 23.7497 -83.2707 24.304L-82.412 25.1192C-81.9338 25.5649 -81.4229 26.0214 -81.2816 26.141C-81.0099 26.3475 -81.0099 26.3475 -81.2273 26.4997C-81.3468 26.5757 -81.6186 26.641 -81.8251 26.641C-82.0425 26.641 -82.5425 26.4671 -82.9664 26.2497C-83.3794 26.0323 -83.8033 25.7931 -83.8903 25.7062C-83.9772 25.6301 -84.5207 25.3258 -86.1185 24.4997L-86.1511 22.9888C-86.162 22.1519 -86.1294 21.1302 -86.0642 20.7171C-85.9989 20.3041 -85.8685 19.7932 -85.7816 19.6084C-85.6946 19.4019 -85.5533 19.2498 -85.4337 19.2498C-85.2924 19.2498 -85.2163 19.4019 -85.0968 19.9237C-85.0207 20.3041 -84.8794 20.8584 -84.8033 21.1519C-84.7272 21.4562 -84.5968 21.7823 -84.5207 21.8802C-84.4011 22.0541 -84.325 22.0541 -83.9664 21.9345C-83.5751 21.8149 -83.5533 21.7823 -83.5968 21.478C-83.6294 21.2932 -83.7381 20.8041 -83.8468 20.391C-83.9555 19.9128 -84.0316 19.1954 -84.0316 18.4345C-84.0316 17.6628 -83.9664 16.9454 -83.8359 16.4237C-83.7381 15.9781 -83.6185 15.4672 -83.5968 15.2824C-83.5533 15.0107 -83.5859 14.9455 -83.7924 14.8802C-83.9337 14.8368 -84.1511 14.7933 -84.2707 14.7933C-84.412 14.7824 -84.5316 14.8911 -84.6185 15.0868C-84.6946 15.2498 -84.7924 15.5868 -84.8577 15.8259C-84.912 16.065 -85.0316 16.565 -85.1076 16.9454C-85.2272 17.5215 -85.2816 17.6193 -85.4555 17.5976C-85.575 17.5759 -85.7707 17.3693 -85.8902 17.1302C-86.0968 16.7389 -86.1185 16.4889 -86.1729 12.2933L-85.4881 11.9672C-85.1185 11.7933 -84.3468 11.3803 -83.7816 11.0433C-83.2164 10.7173 -82.499 10.3912 -82.2055 10.326C-81.9012 10.2607 -81.5533 10.239 -81.412 10.2716C-81.2816 10.3042 -81.1729 10.4129 -81.1729 10.4999C-81.1729 10.5868 -81.2055 10.6629 -81.249 10.6629C-81.3033 10.6629 -81.7707 11.0759 -82.3142 11.5759C-83.2816 12.4781 -83.2925 12.489 -83.1185 12.7498C-83.0207 12.8803 -82.8359 13.065 -82.7055 13.1411C-82.499 13.2607 -82.412 13.2063 -81.7599 12.5977C-81.3686 12.2172 -80.8142 11.7498 -80.5316 11.5542C-80.2599 11.3477 -79.7599 11.0542 -79.4338 10.8803C-79.1077 10.7173 -78.4664 10.4673 -78.0208 10.3368C-77.5751 10.2064 -77.0969 10.0542 -76.9556 9.99987C-76.8251 9.94552 -76.7164 9.80422 -76.7164 9.68465C-76.7164 9.56509 -76.7599 9.3477 -76.8251 9.19553C-76.923 8.9564 -76.9773 8.93466 -77.336 8.97814C-77.5643 9.01075 -78.2056 9.19553 -78.7599 9.39118C-79.5425 9.66292 -79.7925 9.70639 -79.9012 9.60857C-79.999 9.49987 -79.999 9.40205 -79.8686 9.13031C-79.7816 8.94553 -79.4555 8.60858 -79.1621 8.38032C-78.8577 8.16294 -78.173 7.7499 -77.6403 7.45642Z" fill="#FDFDFD"/>
<path d="M-31.7822 9.14118C-31.717 8.98901 -31.4344 8.60858 -31.1735 8.30424C-30.9018 7.98902 -30.6627 7.72816 -30.6301 7.72816C-30.5975 7.73903 -30.304 7.88033 -29.9779 8.05424C-29.6518 8.22815 -29.2714 8.47815 -29.1409 8.59771C-28.9996 8.71728 -28.891 8.89119 -28.891 8.97814C-28.891 9.0651 -28.9888 9.19553 -29.1083 9.24988C-29.2714 9.32596 -29.3149 9.44553 -29.2714 10.0651H-27.5323L-27.4997 9.739C-27.4779 9.53248 -27.5431 9.33683 -27.6844 9.19553C-27.8366 9.03249 -27.8692 8.92379 -27.7931 8.73901C-27.7279 8.57597 -27.4236 8.35858 -26.9671 8.1412C-26.554 7.94555 -26.2062 7.77164 -26.1736 7.7499C-26.141 7.73903 -25.8692 8.0325 -25.554 8.40206C-25.1845 8.84771 -24.9888 9.18466 -24.978 9.39118C-24.978 9.63031 -25.0214 9.68465 -25.2497 9.68465C-25.4562 9.68465 -25.5432 9.76074 -25.5975 9.989C-25.641 10.152 -25.6736 10.326 -25.6736 10.3694C-25.6845 10.4238 -25.3475 10.5977 -24.1628 11.0977L-23.978 10.8586C-23.8693 10.7173 -23.7823 10.5651 -23.7823 10.4999C-23.7823 10.4455 -23.8584 10.3042 -23.9454 10.2064C-24.0867 10.0325 -24.0867 9.989 -23.891 9.79335C-23.728 9.63031 -23.4997 9.56509 -23.0215 9.55422C-22.6628 9.53248 -22.2606 9.52161 -22.141 9.52161C-21.9454 9.52161 -21.8693 9.65205 -21.641 10.3912C-21.4454 11.0542 -21.4128 11.3151 -21.4997 11.5107C-21.5867 11.6955 -21.6737 11.739 -21.9019 11.6846C-22.1193 11.6412 -22.2606 11.6846 -22.4019 11.8259C-22.5106 11.9346 -22.5975 12.0542 -22.5867 12.1085C-22.5867 12.152 -22.3258 12.4238 -22.0215 12.7281C-21.7063 13.0216 -21.391 13.2716 -21.3367 13.2716C-21.2823 13.2716 -21.1411 13.1955 -21.0324 13.0868C-20.9019 12.9564 -20.8584 12.7933 -20.9019 12.5977C-20.9454 12.3368 -20.9128 12.2824 -20.6628 12.2281C-20.478 12.1846 -20.1085 12.2281 -19.7606 12.3477C-19.4345 12.4455 -19.0541 12.5759 -18.9237 12.6303C-18.7389 12.7064 -18.6846 12.7933 -18.728 12.9781C-18.7606 13.1085 -18.7824 13.4455 -18.7824 13.739C-18.7824 14.1085 -18.8476 14.3259 -19.0324 14.5324C-19.2498 14.7933 -19.2932 14.8042 -19.5106 14.6737C-19.7172 14.5433 -19.7932 14.5433 -20.0324 14.6846C-20.1845 14.7715 -20.3041 14.902 -20.3041 14.9563C-20.3041 15.0215 -20.1737 15.3694 -20.0106 15.7498C-19.8367 16.1194 -19.6411 16.4237 -19.5759 16.4237C-19.4998 16.4237 -19.3367 16.3802 -19.2172 16.315C-19.0976 16.2498 -18.9998 16.1411 -18.9998 16.0759C-19.0106 15.9998 -18.9346 15.8694 -18.8367 15.8041C-18.7389 15.7172 -18.5759 15.6954 -18.4237 15.7498C-18.2824 15.7933 -17.8911 16.0867 -16.9346 16.9672L-17.1302 17.2715C-17.2498 17.4346 -17.4672 17.7715 -17.6194 18.0324C-17.7824 18.2824 -17.9889 18.5215 -18.0759 18.5758C-18.1737 18.6193 -18.315 18.5758 -18.4346 18.4672C-18.5324 18.3585 -18.7824 18.2715 -19.3259 18.2715V20.0106H-18.9454C-18.7063 20.0106 -18.5433 19.9563 -18.5106 19.8476C-18.478 19.7606 -18.3476 19.6845 -18.2172 19.6845C-18.0759 19.6737 -17.9128 19.7389 -17.8367 19.815C-17.7715 19.891 -17.5541 20.2823 -16.9889 21.4236L-17.5867 21.9236C-17.9128 22.2062 -18.3041 22.4671 -18.4563 22.5323C-18.6085 22.5867 -18.7933 22.5975 -18.8585 22.5649C-18.9346 22.5323 -18.9998 22.4128 -18.9998 22.2932C-18.9998 22.1736 -19.0976 22.0323 -19.2172 21.9671C-19.3367 21.9019 -19.4998 21.8584 -19.5759 21.8584C-19.6411 21.8584 -19.8367 22.1628 -20.0106 22.5323C-20.1737 22.9128 -20.3041 23.2823 -20.3041 23.3584C-20.3041 23.4236 -20.1737 23.5432 -20.0106 23.6084C-19.7824 23.6845 -19.6411 23.6845 -19.4454 23.5758C-19.2172 23.4454 -19.1737 23.4671 -18.9889 23.7062C-18.8367 23.891 -18.7606 24.1736 -18.7498 24.6084C-18.7389 24.9453 -18.728 25.304 -18.728 25.4127C-18.728 25.5323 -18.9563 25.6627 -19.4889 25.8475C-19.9128 25.9888 -20.3476 26.0975 -20.4671 26.1084C-20.5867 26.1084 -20.7497 26.0431 -20.8258 25.9671C-20.9019 25.8801 -20.9237 25.7497 -20.8802 25.6301C-20.8222 25.5069 -20.8657 25.3729 -21.0106 25.2279C-21.1302 25.0975 -21.2823 24.9997 -21.3367 24.9997C-21.391 24.9997 -21.7063 25.2605 -22.0106 25.5758C-22.5323 26.0975 -22.5758 26.1736 -22.4345 26.3692C-22.3476 26.5105 -22.1519 26.5975 -21.891 26.6192C-21.5649 26.641 -21.4889 26.6844 -21.4345 26.9453C-21.4019 27.1083 -21.391 27.3149 -21.4237 27.4018C-21.4671 27.4888 -21.5758 27.8149 -21.6845 28.1192C-21.7932 28.4344 -21.9019 28.717 -21.9345 28.7496C-21.9671 28.7931 -22.3584 28.7822 -22.8041 28.7388C-23.4128 28.6844 -23.6845 28.5975 -23.891 28.4235C-24.1519 28.2062 -24.1519 28.1844 -23.978 28.0105C-23.8149 27.8692 -23.8041 27.7931 -23.9019 27.5975C-23.978 27.4562 -24.0867 27.3149 -24.1519 27.2823C-24.2171 27.2388 -24.5214 27.3257 -24.8149 27.467C-25.1193 27.6083 -25.4236 27.7279 -25.4997 27.7279C-25.5649 27.7279 -25.6519 27.7605 -25.6845 27.8149C-25.7062 27.8583 -25.6736 28.054 -25.5975 28.2496C-25.4997 28.4996 -25.4019 28.5975 -25.228 28.5975C-25.0214 28.5975 -24.978 28.6518 -24.978 28.9562C-24.9888 29.2279 -25.1193 29.4453 -26.1736 30.554L-26.9018 30.1518C-27.2931 29.9235 -27.6844 29.6301 -27.7714 29.4996C-27.8475 29.3583 -27.891 29.2061 -27.8584 29.1409C-27.8257 29.0757 -27.7279 29.0322 -27.641 29.0322C-27.5214 29.0322 -27.4888 28.9235 -27.5323 28.217L-28.2931 28.1844C-28.7931 28.1736 -29.1083 28.2062 -29.1953 28.2931C-29.2714 28.3692 -29.3366 28.5431 -29.3257 28.6844C-29.3257 28.8148 -29.2279 28.967 -29.1083 29.0322C-28.9888 29.0975 -28.891 29.2279 -28.891 29.3366C-28.8801 29.4344 -28.967 29.5974 -29.0757 29.6953C-29.1844 29.7931 -29.5866 30.0322 -30.6844 30.5757L-30.9344 30.2605C-31.0757 30.0974 -31.3366 29.7388 -31.5105 29.467C-31.6844 29.1953 -31.8257 28.8909 -31.8257 28.7931C-31.8257 28.6735 -31.7387 28.5975 -31.6083 28.5975C-31.4887 28.5975 -31.3148 28.4888 -31.2279 28.3583C-31.1409 28.217 -31.0648 28.0431 -31.0648 27.9779C-31.0648 27.9018 -31.1735 27.7931 -31.3148 27.7388C-31.4453 27.6844 -31.7496 27.554 -31.9887 27.4453C-32.2279 27.3366 -32.4561 27.2388 -32.5105 27.217C-32.5539 27.1953 -32.6626 27.2605 -32.7496 27.3475C-32.8366 27.4344 -32.9126 27.6301 -32.9126 27.7823C-32.9126 27.9344 -32.8583 28.054 -32.8039 28.054C-32.7496 28.054 -32.6953 28.1192 -32.6953 28.1953C-32.6844 28.2605 -32.7713 28.4127 -32.88 28.5105C-33.0105 28.6409 -33.3474 28.717 -34.8148 28.8366L-35.0648 28.0866C-35.2061 27.6844 -35.3039 27.2062 -35.2822 27.0214C-35.2604 26.7497 -35.2061 26.6953 -34.967 26.6953C-34.8039 26.6953 -34.5757 26.5975 -34.4452 26.4779C-34.3148 26.3584 -34.2061 26.2279 -34.217 26.1844C-34.217 26.1301 -34.4561 25.8584 -34.7604 25.554C-35.0539 25.2605 -35.3691 25.0105 -35.4343 25.0105C-35.5104 24.9997 -35.6626 25.0866 -35.7604 25.1953C-35.8691 25.304 -35.9343 25.5323 -35.9235 25.7171C-35.9017 26.0323 -35.9126 26.0431 -36.3909 26.0323C-36.6626 26.0323 -37.1409 25.9345 -38.043 25.6084L-37.9669 24.7932C-37.9234 24.3475 -37.8365 23.8693 -37.7604 23.728C-37.6952 23.5975 -37.5539 23.4888 -37.4561 23.4888C-37.3474 23.4888 -37.2495 23.5432 -37.2387 23.6193C-37.2169 23.6953 -37.0974 23.7171 -36.9126 23.6736C-36.7387 23.6301 -36.5756 23.5106 -36.543 23.4127C-36.5104 23.3041 -36.5865 22.9454 -36.7169 22.6193C-36.8582 22.2932 -36.9995 21.978 -37.0322 21.9345C-37.0648 21.8802 -37.2278 21.8693 -37.4017 21.9019C-37.6082 21.9454 -37.7278 22.0649 -37.8039 22.2932C-37.88 22.5215 -37.9887 22.6193 -38.1626 22.6193C-38.3039 22.6193 -38.6734 22.391 -39.0539 22.0649C-39.4126 21.7497 -39.7169 21.4671 -39.7386 21.4345C-39.7604 21.4019 -39.6191 21.0758 -39.4234 20.7171C-39.2386 20.3584 -38.9995 19.978 -38.9017 19.8693C-38.8039 19.7606 -38.6517 19.6737 -38.5647 19.6845C-38.4778 19.6845 -38.3147 19.7824 -38.2169 19.9019C-38.0756 20.0541 -37.9452 20.0976 -37.7821 20.0541C-37.6408 20.0106 -37.4995 19.9237 -37.4561 19.8584C-37.4126 19.7932 -37.3908 19.6737 -37.4235 19.6084C-37.4561 19.5324 -37.4778 19.1954 -37.4778 18.2715H-37.8582C-38.0974 18.2715 -38.2604 18.3259 -38.293 18.4345C-38.3256 18.5324 -38.4561 18.5867 -38.6517 18.5758C-38.8908 18.5432 -39.0104 18.4128 -39.3473 17.7824C-39.5756 17.3693 -39.7604 16.978 -39.7604 16.9128C-39.7604 16.8476 -39.4995 16.6085 -39.1952 16.3585C-38.88 16.1194 -38.5104 15.8585 -38.38 15.7933C-38.2387 15.7172 -38.0539 15.6846 -37.9669 15.7172C-37.88 15.7498 -37.8039 15.8694 -37.8039 15.9889C-37.8039 16.1085 -37.7061 16.2498 -37.5865 16.315C-37.4669 16.3802 -37.293 16.4237 -37.2061 16.4237C-37.1191 16.4237 -36.9887 16.2933 -36.9235 16.1302C-36.8582 15.9563 -36.7387 15.6846 -36.6517 15.4998C-36.5539 15.3259 -36.4996 15.0759 -36.5213 14.9672C-36.543 14.8476 -36.6952 14.7172 -36.88 14.652C-37.1409 14.5759 -37.2169 14.5868 -37.293 14.7281C-37.3365 14.8368 -37.4343 14.8694 -37.543 14.8259C-37.6408 14.7715 -37.793 14.6085 -37.8691 14.4455C-37.9561 14.2716 -38.0213 13.8042 -38.0213 12.6194L-37.5648 12.4998C-37.3039 12.4455 -36.9126 12.3477 -36.6952 12.2824C-36.4235 12.2172 -36.2061 12.2281 -36.0648 12.2933C-35.9343 12.3585 -35.8691 12.4781 -35.8909 12.5977C-35.9126 12.6955 -35.8691 12.8911 -35.7822 13.0324C-35.6952 13.1629 -35.5539 13.2716 -35.467 13.2716C-35.38 13.2716 -35.0648 13.0433 -34.7604 12.7607C-34.467 12.4672 -34.217 12.1955 -34.217 12.1303C-34.217 12.0759 -34.3148 11.9238 -34.4344 11.8042C-34.5757 11.6738 -34.7278 11.6085 -34.8474 11.652C-34.9452 11.6955 -35.0865 11.6955 -35.1517 11.652C-35.2278 11.6194 -35.293 11.4672 -35.3148 11.3151C-35.3365 11.1629 -35.2604 10.7499 -35.1517 10.3912C-35.043 10.0325 -34.9344 9.67379 -34.9126 9.60857C-34.88 9.49987 -34.6735 9.48901 -34.1409 9.53248C-33.7278 9.57596 -33.2387 9.67379 -33.0539 9.74987C-32.8583 9.83683 -32.6953 9.96726 -32.6953 10.0433C-32.7061 10.1086 -32.7822 10.2281 -32.88 10.2825C-33.0322 10.3803 -33.0322 10.4238 -32.8474 10.7499C-32.7387 10.9455 -32.6083 11.0977 -32.5648 11.0977C-32.5105 11.0977 -32.3909 11.0433 -32.2931 10.989C-32.1844 10.9238 -31.8692 10.7825 -31.5866 10.6629C-31.2931 10.5433 -31.0648 10.3803 -31.0648 10.3151C-31.0648 10.239 -31.1409 10.0651 -31.2279 9.93465C-31.3148 9.79335 -31.4887 9.68465 -31.6083 9.68465C-31.7279 9.68465 -31.8474 9.61944 -31.8692 9.55422C-31.9018 9.47814 -31.8583 9.29336 -31.7822 9.14118Z" fill="#FDFDFD"/>
<path d="M9.67379 11.7172C9.95639 11.5542 10.402 11.3477 10.6738 11.2716C10.9455 11.1846 11.4455 11.1086 11.7825 11.1086C12.1303 11.0977 12.6303 11.1629 12.902 11.239C13.1737 11.3042 13.3911 11.4346 13.3911 11.5107C13.3911 11.5759 13.3259 11.6412 13.2498 11.6412C13.1846 11.6412 12.7716 11.8151 12.3585 12.0325C11.9455 12.2498 11.3803 12.5868 11.1086 12.7824C10.8368 12.9781 10.2499 13.5216 9.80422 13.9998C9.35857 14.4781 8.71729 15.2715 8.38033 15.7824C8.04337 16.2824 7.47816 16.9563 7.13035 17.2824C6.73904 17.6302 5.99992 18.1193 5.27167 18.4998C4.59776 18.8585 4.04343 19.1845 4.04343 19.2498C4.04343 19.315 4.30429 19.4889 4.60863 19.6411C4.92385 19.8041 5.53254 20.1302 5.94557 20.3693C6.35861 20.6193 6.92383 21.0106 7.18469 21.2497C7.44556 21.4997 7.85859 21.9888 8.09772 22.3475C8.34772 22.7062 8.72815 23.2497 8.96728 23.5432C9.19553 23.8475 9.68465 24.391 10.0542 24.7714C10.4238 25.1519 11.0759 25.6845 11.489 25.9671C11.902 26.2497 12.5216 26.5866 12.8477 26.7171C13.1737 26.8475 13.4346 26.9997 13.4237 27.0431C13.4129 27.0866 13.2172 27.1953 12.989 27.2605C12.7607 27.3366 12.2498 27.4018 11.8368 27.4018C11.3042 27.4018 10.9129 27.3257 10.3803 27.1083C9.96726 26.9562 9.36945 26.6192 9.04337 26.3692C8.71728 26.1192 8.09772 25.5432 7.68468 25.1084C7.27164 24.6627 6.63035 23.9345 6.27166 23.478C5.91296 23.0214 5.30428 22.2497 4.91298 21.7497C4.52168 21.2497 3.86951 20.478 2.68475 19.228L3.4456 18.4454C3.86951 18.0215 4.7608 16.9672 5.43471 16.0976C6.10861 15.2281 6.9673 14.1737 7.33686 13.7498C7.70642 13.3368 8.27163 12.7716 8.58685 12.4998C8.90206 12.239 9.39118 11.8911 9.67379 11.7172Z" fill="#FDFDFD"/>
<path d="M18.6954 11.4564C18.6845 11.3912 18.8585 11.2933 19.0976 11.2281C19.3367 11.1738 19.8041 11.1194 20.1302 11.1086C20.4563 11.1086 20.9671 11.1629 21.2715 11.239C21.5649 11.3151 22.1084 11.5542 22.4671 11.7716C22.8258 11.989 23.3367 12.3585 23.6084 12.5977C23.8801 12.8259 24.4888 13.4781 24.9779 14.0433C25.4562 14.6085 26.2388 15.5759 26.7171 16.1954C27.1844 16.8259 27.9779 17.7498 28.467 18.2606C28.9562 18.7715 29.3583 19.2171 29.3692 19.2498C29.3692 19.2824 28.967 19.7171 28.467 20.228C27.9779 20.7389 27.1301 21.7389 26.5866 22.4562C26.0323 23.1736 25.1519 24.2497 24.6193 24.8475C24.0214 25.5323 23.3475 26.141 22.8475 26.4888C22.4019 26.7931 21.7497 27.1192 21.4019 27.217C21.065 27.3149 20.5106 27.4018 20.1845 27.4018C19.8584 27.4018 19.3693 27.3366 19.0976 27.2605C18.8259 27.1953 18.6085 27.0975 18.6085 27.0431C18.6085 26.9997 18.7389 26.9127 18.9019 26.8584C19.0759 26.7931 19.4454 26.6192 19.7497 26.4562C20.0432 26.304 20.6084 25.9453 20.9889 25.6736C21.3802 25.4018 21.9562 24.8801 22.2823 24.5214C22.6084 24.1627 23.1954 23.4019 23.6084 22.8367C24.0106 22.2715 24.5758 21.5649 24.8692 21.2715C25.1627 20.978 25.7497 20.5541 26.1627 20.3258C26.5758 20.0867 27.1627 19.7932 27.4453 19.6519C27.7823 19.4997 27.9562 19.3584 27.9344 19.2498C27.9127 19.1628 27.4236 18.8367 26.8475 18.5432C26.2714 18.2498 25.5758 17.8259 25.2823 17.6193C24.9453 17.3802 24.304 16.6302 23.5106 15.5541C22.6301 14.3911 21.9997 13.6629 21.4345 13.1846C20.9563 12.7824 20.228 12.3151 19.6737 12.0433C19.1519 11.7933 18.7063 11.5325 18.6954 11.4564Z" fill="#FDFDFD"/>
<path d="M13.6085 17.7498C13.6085 17.7519 13.6086 17.7542 13.6088 17.7566C13.6227 17.6511 14.197 17.6193 16.0541 17.6193C17.6085 17.6193 18.4998 17.6628 18.4998 17.728C18.4998 17.7932 18.4128 17.9998 18.2932 18.1845C18.1845 18.3802 17.7172 19.2063 17.2607 20.0106C16.8041 20.8149 16.4237 21.4997 16.4237 21.5323C16.4346 21.5649 16.3476 21.6954 16.0541 22.0867L15.6955 21.5432C15.5107 21.2389 15.3476 20.9671 15.3476 20.9345C15.3476 20.9019 15.2607 20.7497 15.152 20.5867C15.0324 20.4128 14.7498 19.9128 14.5107 19.4671C14.2716 19.0215 13.9672 18.478 13.8368 18.2715C13.7206 18.0708 13.6147 17.8394 13.6088 17.7566C13.6086 17.758 13.6085 17.7593 13.6085 17.7606V17.7498Z" fill="#FDFDFD"/>
</g>
<defs>
<clipPath id="clip0_1058_140702">
<rect width="32" height="38" fill="white"/>
</clipPath>
</defs>
</svg>
