<svg width="30" height="38" viewBox="0 0 30 38" fill="none" xmlns="http://www.w3.org/2000/svg">
<g clip-path="url(#clip0_1058_140713)">
<path fill-rule="evenodd" clip-rule="evenodd" d="M-38.3339 3C-38.1994 3 -37.918 3.15904 -37.7222 3.36701C-37.5265 3.57498 -37.0372 3.96646 -36.6457 4.22337C-36.2664 4.49251 -35.9117 4.70048 -35.8627 4.70048C-35.8016 4.70048 -35.3244 4.98185 -34.7862 5.33663C-34.2479 5.67917 -33.5628 6.19299 -33.257 6.47436C-32.9511 6.75574 -32.6208 7.15945 -32.5229 7.37965C-32.3517 7.7589 -32.315 7.77113 -31.6054 7.77113C-31.1161 7.77113 -30.6512 7.85677 -30.1985 8.04027C-29.8315 8.19931 -28.8651 8.72536 -28.0576 9.20247C-27.2502 9.69182 -26.5407 10.0833 -26.4673 10.0833C-26.3939 10.0833 -26.0513 10.2056 -25.6965 10.3524C-25.3173 10.5237 -25.0482 10.7072 -25.0604 10.8173C-25.0604 10.9152 -25.146 11.4902 -25.2439 12.1019C-25.3418 12.7013 -25.3907 13.472 -25.354 13.8146C-25.3173 14.1449 -25.3418 14.9768 -25.4152 15.6496C-25.4763 16.3225 -25.6231 17.0687 -25.7332 17.3012C-25.8311 17.5336 -26.0024 17.8394 -26.1003 17.974C-26.2593 18.1942 -26.2348 18.2676 -25.9045 18.7692C-25.7088 19.075 -25.4886 19.5766 -25.4274 19.8947C-25.354 20.225 -25.3051 21.2893 -25.3173 22.2803C-25.3173 23.2834 -25.2561 24.4823 -25.1827 24.9472C-25.1093 25.4121 -25.0604 25.8525 -25.0971 25.9259C-25.1216 25.9993 -25.5497 26.195 -26.0513 26.3908C-26.5529 26.5743 -27.2869 26.9168 -27.6906 27.1615C-28.0943 27.4062 -28.706 27.7609 -29.0363 27.9445C-29.3789 28.128 -30.0273 28.3971 -30.5044 28.5439C-30.9815 28.6907 -31.5687 28.8008 -31.8256 28.8008C-32.1437 28.8008 -32.3027 28.862 -32.3639 29.0088C-32.4128 29.1311 -32.5719 29.4247 -32.7187 29.6572C-32.8777 29.8896 -33.2692 30.2811 -33.5873 30.5258C-33.9053 30.7704 -34.725 31.272 -35.3978 31.6268C-36.0707 31.9938 -36.9271 32.5321 -37.2941 32.8379C-37.6611 33.1438 -38.0648 33.4618 -38.1871 33.5475C-38.3584 33.6698 -38.5052 33.5964 -39.1658 33.0337C-39.5818 32.6666 -40.3892 32.1161 -40.9642 31.7981C-41.5392 31.48 -42.3099 30.9906 -42.6769 30.7215C-43.0439 30.4401 -43.4843 30.0486 -43.6556 29.8529C-43.8268 29.6572 -44.0593 29.3391 -44.1816 29.1434C-44.3407 28.8742 -44.4508 28.813 -44.6954 28.862C-44.8667 28.8987 -45.2949 28.862 -45.6497 28.8008C-45.9922 28.7274 -46.6773 28.4705 -47.1422 28.2258C-47.6071 27.9934 -48.2187 27.6386 -48.4879 27.4551C-48.757 27.2716 -49.2586 26.978 -49.5889 26.819C-49.9314 26.6477 -50.5064 26.4152 -50.8734 26.2929C-51.2404 26.1706 -51.583 26.0482 -51.6319 25.9993C-51.6809 25.9626 -51.6319 25.5956 -51.5463 25.1919C-51.4484 24.7882 -51.3628 23.8584 -51.3628 23.1122C-51.3628 22.3659 -51.3016 21.2649 -51.2282 20.6654C-51.1426 19.8335 -51.0202 19.4054 -50.3841 18.2799L-50.6777 17.9373C-50.8367 17.7538 -51.0569 17.3012 -51.167 16.9341C-51.3261 16.4203 -51.3628 15.7964 -51.3506 14.2427C-51.3383 13.105 -51.3873 11.9795 -51.4607 11.6737C-51.5463 11.3678 -51.6075 11.0008 -51.6075 10.8418C-51.6075 10.6705 -51.5096 10.5359 -51.3383 10.4625C-51.1793 10.4014 -50.7266 10.2179 -50.3229 10.0711C-49.9192 9.91202 -49.2341 9.56948 -48.7937 9.30034C-48.3533 9.04343 -47.5826 8.62749 -47.081 8.39505C-46.4204 8.08921 -45.931 7.95464 -45.3071 7.9057C-44.5119 7.84453 -44.4385 7.80783 -44.2673 7.47752C-44.1694 7.26955 -43.9247 6.91477 -43.7167 6.68233C-43.5088 6.43766 -42.8482 5.92385 -42.2487 5.53237C-41.6493 5.14089 -41.111 4.82282 -41.062 4.82282C-41.0009 4.82282 -40.5972 4.57814 -40.1445 4.28454C-39.6796 3.99093 -39.1414 3.58722 -38.9456 3.37924C-38.7499 3.17127 -38.4685 3 -38.3339 3ZM12.0321 4.45581C12.1177 4.46804 12.3624 4.70048 12.5704 4.98185C12.7661 5.26323 13.1576 5.60577 13.4267 5.72811C13.6836 5.86268 14.1118 6.10735 14.3687 6.27862C14.7724 6.54776 14.8703 6.57223 15.0416 6.43766C15.1639 6.35203 15.5921 6.11959 16.0203 5.92385C16.5218 5.67917 16.9378 5.3611 17.2436 5.00632C17.4883 4.70048 17.7697 4.44357 17.8553 4.45581C17.9287 4.45581 18.0633 4.74941 18.1489 5.09196C18.2468 5.5446 18.4792 5.96055 18.8829 6.47436C19.201 6.87807 19.5191 7.28178 19.5925 7.35519C19.6537 7.44082 19.8127 7.48976 19.935 7.45306C20.0451 7.42859 20.5223 7.36742 20.9994 7.33072C21.5988 7.29402 22.0515 7.17168 22.4919 6.92701C22.8467 6.7435 23.177 6.64563 23.2259 6.69457C23.2871 6.75574 23.3115 7.17168 23.2871 7.61209C23.2504 8.22378 23.3115 8.65196 23.5317 9.28811C23.6908 9.75299 23.8743 10.1812 23.9354 10.2301C23.9966 10.279 24.1679 10.328 24.3025 10.328C24.437 10.328 24.7918 10.4381 25.0976 10.5849C25.5258 10.7928 25.8194 10.8295 26.4678 10.8051C26.9082 10.7806 27.3242 10.7928 27.3853 10.8418C27.4343 10.8907 27.3364 11.1843 27.1529 11.4902C26.896 11.9061 26.7737 12.3098 26.6758 13.1662C26.5412 14.2917 26.5412 14.3039 26.8226 14.5119C26.9816 14.622 27.3609 14.9401 27.6667 15.2214C27.9726 15.5028 28.3885 15.772 28.5842 15.8331C28.78 15.8821 29.0981 15.9677 29.2938 16.0044C29.4773 16.0411 29.6241 16.1512 29.6241 16.2246C29.6119 16.3102 29.355 16.5916 29.0369 16.8363C28.6454 17.1544 28.3151 17.5825 27.9726 18.2187C27.5566 19.0016 27.5077 19.1851 27.6423 19.3564C27.7279 19.4665 27.9603 19.9069 28.1561 20.3229C28.413 20.8734 28.6821 21.2037 29.0736 21.4851C29.3672 21.7053 29.6119 21.9622 29.6241 22.0356C29.6241 22.1212 29.4161 22.2436 29.1715 22.317C28.9146 22.3781 28.6454 22.4393 28.5842 22.4393C28.5231 22.4515 28.0337 22.7574 26.5902 23.8462L26.6513 24.886C26.7003 25.7179 26.7859 26.0727 27.0673 26.6232C27.263 27.0147 27.422 27.3817 27.422 27.4551C27.422 27.5285 27.1284 27.553 26.6636 27.504C26.0519 27.4429 25.6726 27.4918 24.853 27.7365C23.8498 28.0301 23.8131 28.0546 23.7397 28.446C23.703 28.6785 23.5807 29.0455 23.4706 29.2535C23.3238 29.5348 23.2626 29.963 23.2626 31.7369L22.5653 31.3821C22.0882 31.1374 21.5254 30.9784 19.8372 30.7582L19.3234 31.3332C19.0297 31.639 18.675 32.0794 18.5282 32.3119C18.3691 32.5321 18.1856 32.9603 18.1245 33.2661C18.0266 33.6943 17.9532 33.8166 17.7574 33.8166C17.6229 33.8166 17.5128 33.7677 17.5128 33.6943C17.5128 33.6209 17.2681 33.3273 16.9623 33.0214C16.6564 32.7156 16.2894 32.4342 16.1426 32.3975C15.9836 32.3486 15.6655 32.1895 15.0049 31.7369L14.0262 32.2507C13.4879 32.5321 12.9496 32.8746 12.815 33.0092C12.6927 33.156 12.4847 33.3884 12.3624 33.5352C12.2401 33.6943 12.0566 33.7921 11.9832 33.7799C11.8975 33.7554 11.7629 33.4863 11.6773 33.1927C11.6039 32.8991 11.4082 32.4831 11.2491 32.2752C11.0901 32.055 10.772 31.6268 10.5396 31.3087C10.2093 30.8683 10.0502 30.7582 9.86673 30.8194C9.73216 30.8561 9.24282 30.9172 8.76571 30.9539C8.14178 31.0029 7.73808 31.113 7.27319 31.3821C6.90619 31.5779 6.60034 31.688 6.56364 31.6146C6.52694 31.5411 6.53917 31.1986 6.57587 30.8438C6.63704 30.3423 6.57587 29.9875 6.2945 29.1311C5.97643 28.1524 5.92749 28.0546 5.58495 27.9812C5.38921 27.9445 4.97327 27.7976 4.66742 27.6631C4.21478 27.4673 3.9701 27.4306 3.23608 27.504C2.74673 27.5407 2.34303 27.5407 2.34303 27.4796C2.34303 27.4306 2.50206 27.0881 2.71004 26.7211C2.94248 26.2929 3.07705 25.8647 3.07705 25.5589C3.07705 25.2897 3.13821 24.8616 3.19938 24.6047C3.32172 24.152 3.32172 24.152 2.56323 23.418C1.95155 22.843 1.62124 22.635 0.960621 22.4148C0.507973 22.2558 0.140965 22.0601 0.140965 21.9744C0.140965 21.901 0.202133 21.8276 0.263302 21.8276C0.324471 21.8276 0.618076 21.6196 0.911686 21.3505C1.19306 21.0936 1.4989 20.7021 1.59677 20.4697C1.69464 20.2372 1.90261 19.858 2.07388 19.6256C2.31856 19.283 2.35526 19.1607 2.24516 19.0139C2.15952 18.916 1.91484 18.4756 1.69464 18.0474C1.4622 17.5581 1.08296 17.0687 0.72818 16.7629C0.275536 16.3592 0.177666 16.2246 0.300003 16.1023C0.385639 16.0166 0.532444 15.9432 0.630314 15.9555C0.728184 15.9555 0.985088 15.8943 1.20529 15.8087C1.41327 15.723 1.95155 15.3682 3.17492 14.4262L3.11375 13.3252C3.06481 12.4322 2.97918 12.0896 2.6978 11.5146C2.50206 11.1354 2.37973 10.7928 2.4409 10.7684C2.48983 10.7317 2.85684 10.7439 3.26055 10.7806C3.83553 10.8418 4.15361 10.8051 4.72859 10.5971C5.13231 10.4625 5.56048 10.328 5.68282 10.3035C5.84185 10.279 6.01313 9.94872 6.27003 9.22694C6.57587 8.35835 6.62481 8.06474 6.56364 7.41635C6.51471 6.85361 6.53917 6.65787 6.66151 6.65787C6.73491 6.65787 7.05299 6.79244 7.35883 6.95148C7.72584 7.14721 8.26412 7.29402 8.94921 7.37965C9.52419 7.45306 10.0258 7.46529 10.0625 7.41635C10.1114 7.36742 10.4539 6.97594 10.8332 6.53553C11.2124 6.09512 11.555 5.56907 11.6039 5.37333C11.6406 5.17759 11.714 4.88399 11.7752 4.72495C11.8364 4.57814 11.9465 4.45581 12.0321 4.45581ZM60.453 9.15354C61.2848 9.178 61.8109 9.27587 62.288 9.45938C62.655 9.61841 63.3646 9.97319 63.8539 10.279C64.331 10.5726 64.7347 10.8907 64.7347 10.9641C64.7347 11.062 64.4534 11.1476 63.9762 11.2088C63.5481 11.2577 62.7651 11.4412 62.2268 11.6125C61.6886 11.796 60.8567 12.1997 60.3918 12.4933C59.9269 12.7992 59.2051 13.3864 58.8014 13.8023C58.3977 14.206 57.6025 15.2092 57.0275 16.0044C56.4525 16.7996 55.7552 17.6559 55.4861 17.9006C55.2047 18.1453 54.642 18.549 53.4798 19.2585L54.4829 19.9192C55.0457 20.2739 55.7185 20.8367 55.9999 21.167C56.2813 21.4973 56.7951 22.1824 57.1499 22.684C57.5046 23.1856 58.0674 23.9073 58.4099 24.2744C58.7402 24.6414 59.2908 25.1796 59.6455 25.4732C59.9881 25.7546 60.6242 26.1828 61.0646 26.403C61.5051 26.6355 62.1901 26.9168 62.5938 27.0269C62.9976 27.137 63.6215 27.2716 63.9885 27.3083C64.3555 27.3572 64.6736 27.4429 64.698 27.5163C64.7225 27.5897 64.4044 27.871 63.9762 28.1524C63.5481 28.446 62.8508 28.8253 62.4103 29.0088C61.7987 29.2657 61.3582 29.3513 60.453 29.388C59.462 29.437 59.1684 29.4003 58.4344 29.1434C57.9695 28.9843 57.2477 28.6418 56.844 28.3726C56.4403 28.1157 55.6941 27.4796 55.1925 26.978C54.6787 26.4642 53.4064 24.9717 52.3665 23.6627C51.3144 22.3537 50.1277 20.9713 49.7363 20.592C49.3326 20.225 48.831 19.8091 48.6108 19.6745C48.4028 19.5522 48.1948 19.3686 48.1581 19.2952C48.1214 19.2096 48.256 19.0506 48.464 18.9527C48.6597 18.8548 49.2469 18.3655 49.7607 17.8884C50.2745 17.399 51.2532 16.2858 51.9261 15.4049C52.6112 14.5241 53.6388 13.264 54.2138 12.6034C54.7888 11.9306 55.6696 11.062 56.1712 10.6583C56.6728 10.2546 57.2967 9.82639 57.5536 9.70405C57.7982 9.56948 58.2998 9.38598 58.6546 9.28811C59.0828 9.16577 59.67 9.11683 60.453 9.15354ZM69.8117 9.15354C70.8883 9.19024 71.1329 9.23917 71.8914 9.58171C72.3563 9.80192 73.0292 10.1812 73.3595 10.4381C73.702 10.695 74.2648 11.2088 74.6318 11.5636C74.9988 11.9306 75.7328 12.7747 76.2833 13.4476C76.8338 14.1204 77.5923 15.0746 77.9838 15.5884C78.3631 16.09 79.1338 16.9709 79.6965 17.5336C80.247 18.0963 80.9077 18.6836 81.1646 18.8426C81.4092 19.0016 81.6172 19.1851 81.6172 19.2585C81.6172 19.3319 81.3848 19.5399 81.0912 19.7357C80.8098 19.9314 80.1736 20.4819 79.6965 20.959C79.2072 21.4361 78.3875 22.3904 77.8737 23.0877C77.3599 23.7728 76.5402 24.8004 76.0509 25.3754C75.5615 25.9504 74.7786 26.7823 74.3259 27.2227C73.8611 27.6631 73.2371 28.1891 72.9313 28.3971C72.6255 28.6051 71.9771 28.9109 71.5 29.0944C70.8026 29.3391 70.3745 29.4125 69.6037 29.4125C68.9309 29.4125 68.3681 29.3391 67.9155 29.1923C67.5485 29.0577 66.9735 28.813 66.631 28.6418C66.3007 28.4705 65.7868 28.1647 65.5055 27.9567C65.2119 27.7487 65.0039 27.5285 65.0406 27.4551C65.0773 27.3817 65.3342 27.3328 65.6278 27.3328C65.9092 27.3328 66.4964 27.2349 66.9368 27.1003C67.3772 26.978 67.9522 26.7823 68.2213 26.6721C68.4905 26.5498 69.0655 26.2195 69.5059 25.9259C69.9463 25.6323 70.6191 25.0818 71.0106 24.6781C71.4021 24.2866 72.1606 23.3691 72.6744 22.6228C73.2004 21.8766 73.9222 21.008 74.2892 20.6777C74.6562 20.3473 75.2435 19.9192 75.5982 19.7357C75.9408 19.5399 76.2222 19.3197 76.2099 19.2463C76.1855 19.1851 75.8674 18.9527 75.5004 18.757C75.1334 18.549 74.5584 18.1208 74.2403 17.815C73.91 17.4969 73.2494 16.6895 72.7723 16.0166C72.2952 15.3438 71.5489 14.414 71.1085 13.9614C70.6681 13.4965 69.9096 12.8603 69.4447 12.5423C68.9798 12.2242 68.1479 11.8205 67.6096 11.637C67.0714 11.4535 66.2639 11.27 65.7991 11.2088C65.3464 11.1599 64.9794 11.0742 64.9794 11.0008C64.9794 10.9397 65.2975 10.6705 65.689 10.4258C66.0682 10.1812 66.7411 9.81415 67.1815 9.61841C67.6219 9.41044 68.1112 9.22694 68.2825 9.19024C68.4538 9.15354 69.1389 9.1413 69.8117 9.15354ZM64.7959 12.1753C65.3342 12.1753 66.1049 12.2487 66.5086 12.3343C66.9123 12.4322 67.4995 12.6279 67.8299 12.7625C68.1479 12.9093 68.3804 13.0805 68.3437 13.1417C68.307 13.2151 67.0224 13.264 64.8571 13.264C62.6917 13.264 61.4072 13.2151 61.3705 13.1417C61.3338 13.0805 61.4928 12.946 61.713 12.8481C61.921 12.7625 62.3859 12.5912 62.7162 12.4933C63.0587 12.3832 63.438 12.2731 63.5725 12.2487C63.7071 12.212 64.2576 12.1875 64.7959 12.1753ZM65.5911 14.2183C67.7809 14.2305 69.6404 14.2427 69.7261 14.2427C69.7995 14.2427 70.0319 14.414 70.2399 14.6098C70.4479 14.8177 70.6069 15.0624 70.6069 15.1603C70.6069 15.3193 69.8851 15.3438 64.8571 15.3438C60.3306 15.3438 59.1073 15.3071 59.1073 15.197C59.1073 15.1113 59.2541 14.8789 59.4376 14.6709C59.7312 14.3406 59.8413 14.3039 60.6854 14.2427C61.1992 14.206 63.4013 14.1938 65.5911 14.2183ZM58.6179 16.2001C58.6791 16.2001 58.8993 16.4937 59.0828 16.8485C59.2663 17.1911 59.8413 18.2065 60.3551 19.075C60.8567 19.9559 61.921 21.7909 62.7162 23.1733C63.4991 24.5557 64.1965 25.7302 64.2576 25.8036C64.3188 25.877 64.3677 25.9993 64.3677 26.0849C64.3677 26.1583 64.2454 26.2317 64.0986 26.2317C63.9396 26.2317 63.6337 26.1706 63.4135 26.0849C63.1688 25.9871 62.8997 25.7546 62.7529 25.4977C62.6061 25.2653 62.4103 24.9105 62.288 24.7025C62.1779 24.5068 61.762 23.785 61.3705 23.1122C60.979 22.4393 60.5631 21.7297 60.453 21.5218C60.3306 21.326 59.7679 20.3106 59.1807 19.2952C58.6057 18.2676 58.1408 17.3379 58.153 17.24C58.1653 17.1299 58.2387 16.8607 58.3243 16.6283C58.4099 16.3959 58.5445 16.2001 58.6179 16.2001ZM64.9182 16.2001C68.5761 16.2001 69.6404 16.2368 69.6771 16.3592C69.7016 16.4326 69.6282 16.6405 69.5059 16.8118C69.3958 16.9831 68.9187 17.8027 68.466 18.6469C68.0011 19.491 67.4017 20.5675 67.1203 21.0324C66.8389 21.5095 66.3496 22.3904 66.0193 22.9898C65.689 23.5893 65.322 24.2376 65.1996 24.4334C65.0161 24.7148 64.9427 24.7392 64.7837 24.6169C64.6736 24.5313 64.5268 24.3233 64.4411 24.152C64.3555 23.9807 63.5358 22.5249 62.6305 20.9101C61.7253 19.2952 60.8077 17.6804 60.5875 17.3379C60.3796 16.9831 60.2083 16.5794 60.2083 16.4448C60.2083 16.2001 60.2939 16.2001 64.9182 16.2001ZM71.2675 16.298C71.3409 16.3592 71.4755 16.6283 71.5611 16.8852C71.7079 17.3623 71.7079 17.3623 70.6558 19.1974C70.0809 20.2128 69.3468 21.4973 69.0165 22.0723C68.6984 22.6473 68.2213 23.4669 67.9522 23.9073C67.6831 24.3478 67.3038 24.9961 67.1081 25.3509C66.8634 25.8036 66.6432 26.0238 66.3863 26.1094C66.1783 26.1828 65.8969 26.2317 65.7501 26.2317C65.5666 26.2317 65.4688 26.1583 65.4688 26.0238C65.4688 25.9014 65.5177 25.7546 65.5789 25.6812C65.64 25.6078 66.215 24.6536 66.8512 23.5403C67.4873 22.4271 68.4905 20.7021 69.0777 19.699C69.6649 18.6958 70.142 17.8517 70.1298 17.8272C70.1298 17.815 70.2521 17.5825 70.3989 17.3379C70.558 17.081 70.7904 16.7139 70.9127 16.5304C71.0595 16.298 71.1697 16.2246 71.2675 16.298ZM58.0919 19.3197C58.1897 19.4543 58.9727 20.8122 59.8413 22.3537C60.7221 23.8829 61.4072 25.1796 61.3705 25.253C61.3338 25.3264 60.9668 25.094 60.5508 24.7392C60.1226 24.3967 59.5966 23.8829 59.3642 23.6137C59.144 23.3324 58.8014 22.8063 58.6301 22.4393C58.4466 22.0723 58.2387 21.5462 58.1653 21.2771C58.0796 21.008 57.9573 20.4819 57.8717 20.1149C57.786 19.7479 57.7738 19.3564 57.8227 19.2585C57.9084 19.0995 57.9451 19.1117 58.0919 19.3197ZM71.8547 19.2585C71.9037 19.2585 71.9526 19.4665 71.9526 19.7234C71.9526 19.9681 71.867 20.5064 71.7569 20.9101C71.6468 21.3138 71.3899 21.9744 71.1941 22.3781C70.9861 22.7818 70.6191 23.3568 70.3745 23.6504C70.1298 23.944 69.6037 24.4579 69.2 24.7882C68.7963 25.1185 68.4171 25.3387 68.3681 25.2897C68.307 25.2408 68.5027 24.8004 68.7841 24.3355C69.0655 23.8706 69.775 22.635 70.3622 21.5952C70.9494 20.5675 71.4266 19.6745 71.4143 19.6378C71.4143 19.5889 71.4877 19.491 71.5856 19.4054C71.6835 19.3197 71.8058 19.2585 71.8547 19.2585Z" fill="#FC5B31"/>
<path d="M-40.5372 5.98494C-39.9255 5.66686 -39.1915 5.21421 -38.8979 4.99401C-38.6165 4.76157 -38.3107 4.61476 -38.225 4.6637C-38.1516 4.7004 -37.8947 4.88391 -37.6623 5.06741C-37.4298 5.25092 -36.8549 5.60569 -36.3777 5.8626C-35.9006 6.11951 -35.3012 6.48652 -35.032 6.67002C-34.7629 6.85353 -34.3347 7.22054 -34.0778 7.50191C-33.7842 7.81999 -33.6374 8.10136 -33.6619 8.28487C-33.6741 8.43167 -33.7475 8.54177 -33.8087 8.52954C-33.8821 8.50507 -34.3837 8.3338 -34.9342 8.12583C-35.4969 7.93009 -36.182 7.74658 -36.4634 7.73435C-36.965 7.69765 -36.9894 7.70988 -37.1118 8.1503C-37.1933 8.46022 -37.1933 8.65595 -37.1118 8.73751C-37.0384 8.79868 -36.6102 8.95772 -36.1331 9.08005C-35.656 9.21462 -34.9709 9.44706 -34.6039 9.61834C-34.2369 9.77737 -33.6007 10.1321 -33.197 10.3891C-32.7933 10.646 -32.1327 11.1598 -31.729 11.539C-31.3252 11.9183 -30.8971 12.3097 -30.7747 12.4076C-30.579 12.5789 -30.5178 12.5544 -30.1875 12.2241C-29.9918 12.0284 -29.8327 11.8082 -29.8205 11.7348C-29.8205 11.6736 -30.1386 11.3066 -30.5301 10.9396C-30.9215 10.5603 -31.4598 10.0832 -31.729 9.86301C-32.1327 9.5327 -32.1938 9.43483 -32.0837 9.25133C-32.0103 9.14122 -31.7657 9.03112 -31.5332 9.00665C-31.2763 8.99442 -30.8481 9.10452 -30.4444 9.28803C-30.0774 9.47153 -29.3312 9.88748 -28.7929 10.23C-28.2546 10.5848 -27.5206 10.9885 -26.5296 11.4289L-26.5908 13.6677C-26.6153 14.891 -26.7009 16.1144 -26.7743 16.3836C-26.8355 16.6527 -26.9823 16.9952 -27.0802 17.1543C-27.178 17.3011 -27.3493 17.4234 -27.4472 17.4234C-27.545 17.4234 -27.6551 17.3011 -27.6796 17.1543C-27.7041 16.9952 -27.8142 16.4325 -27.912 15.8942C-28.0222 15.3559 -28.1567 14.7687 -28.2301 14.5852C-28.328 14.3283 -28.4503 14.2427 -28.695 14.2427C-28.8907 14.2427 -29.1476 14.3038 -29.27 14.3895C-29.4902 14.5363 -29.4902 14.5852 -29.3067 15.3437C-29.1966 15.7841 -29.0498 16.6405 -28.9641 17.2399C-28.854 18.0963 -28.854 18.5856 -28.9764 19.442C-29.062 20.0414 -29.2088 20.7877 -29.2945 21.0935C-29.3923 21.3994 -29.4657 21.7541 -29.4657 21.8887C-29.4657 22.06 -29.3312 22.1823 -29.0131 22.2924C-28.6216 22.4392 -28.5237 22.4392 -28.4014 22.2924C-28.3158 22.2068 -28.1323 21.6685 -27.9977 21.0935C-27.8753 20.5185 -27.7285 19.8457 -27.6918 19.601C-27.6551 19.3441 -27.5573 19.1361 -27.4716 19.1361C-27.3982 19.1361 -27.2025 19.2585 -27.0557 19.4053C-26.9089 19.5643 -26.7254 19.9558 -26.6642 20.2983C-26.603 20.6409 -26.5541 21.8642 -26.5908 25.1551L-27.6918 25.7545C-28.2913 26.0849 -29.2333 26.5742 -29.7716 26.8556C-30.3098 27.1247 -30.9949 27.3939 -31.3008 27.4183C-31.6066 27.455 -31.9614 27.4306 -32.096 27.3694C-32.3406 27.2471 -32.3284 27.2348 -32.0348 27.0146C-31.8758 26.88 -31.313 26.3662 -30.787 25.8647C-30.2609 25.3631 -29.8327 24.9104 -29.8327 24.8615C-29.8327 24.8003 -29.9551 24.629 -30.1019 24.4578C-30.2609 24.2987 -30.4689 24.1642 -30.5668 24.1519C-30.6646 24.1519 -31.105 24.4822 -31.5454 24.886C-31.9859 25.2897 -32.6465 25.8279 -33.0135 26.0726C-33.3805 26.3173 -34.0656 26.6965 -34.5427 26.9167C-35.0198 27.137 -35.8028 27.4306 -36.2799 27.5651C-37.0873 27.7976 -37.1729 27.8587 -37.1729 28.1279C-37.1729 28.2992 -37.1118 28.5438 -37.0506 28.6784C-36.9527 28.8864 -36.8426 28.9108 -36.4022 28.8619C-36.1208 28.8252 -35.3868 28.6172 -34.7874 28.4215C-34.1757 28.2135 -33.6374 28.0912 -33.5885 28.1523C-33.5395 28.2013 -33.564 28.446 -33.6619 28.6784C-33.772 28.972 -34.0778 29.2901 -34.6161 29.6693C-35.0443 29.9874 -35.7538 30.4156 -36.1942 30.6358C-36.6347 30.856 -37.2341 31.2108 -37.5399 31.431C-37.8458 31.6389 -38.1394 31.8591 -38.2128 31.8958C-38.274 31.9448 -38.5676 31.8102 -38.8489 31.6145C-39.1426 31.4065 -39.6931 31.0762 -40.0723 30.856C-40.4638 30.648 -41.0877 30.2688 -41.4547 30.0119C-41.8217 29.7672 -42.3111 29.3757 -42.5313 29.1555C-42.7637 28.9231 -42.9717 28.605 -43.0084 28.4337C-43.0329 28.2624 -43.0329 28.1034 -42.9962 28.0667C-42.9595 28.03 -42.4456 28.189 -41.8462 28.397C-41.259 28.6172 -40.5494 28.8252 -40.2558 28.8619C-39.7909 28.9108 -39.7298 28.8986 -39.6197 28.6172C-39.5463 28.446 -39.4973 28.2013 -39.4973 28.0667C-39.4973 27.871 -39.6686 27.7731 -40.3782 27.5651C-40.8675 27.4306 -41.7116 27.1003 -42.2499 26.8556C-42.7882 26.6109 -43.5344 26.1827 -43.9015 25.9014C-44.2685 25.6322 -44.8924 25.0939 -45.2716 24.7147C-45.6631 24.3354 -46.0546 24.0541 -46.128 24.0908C-46.2136 24.1152 -46.4216 24.3232 -46.8742 24.9471L-45.9078 25.8647C-45.3695 26.3662 -44.7945 26.88 -44.6355 27.0146C-44.3296 27.2471 -44.3296 27.2471 -44.5743 27.4183C-44.7089 27.504 -45.0147 27.5774 -45.2472 27.5774C-45.4918 27.5774 -46.0546 27.3816 -46.5317 27.137C-46.9966 26.8923 -47.4737 26.6231 -47.5716 26.5253C-47.6694 26.4396 -48.2811 26.0971 -50.0795 25.1673L-50.1162 23.4669C-50.1284 22.5249 -50.0917 21.3749 -50.0183 20.91C-49.9449 20.4451 -49.7981 19.8702 -49.7002 19.6622C-49.6023 19.4297 -49.4433 19.2585 -49.3087 19.2585C-49.1497 19.2585 -49.0641 19.4297 -48.9295 20.017C-48.8439 20.4451 -48.6848 21.0691 -48.5992 21.3994C-48.5135 21.7419 -48.3667 22.1089 -48.2811 22.219C-48.1465 22.4148 -48.0609 22.4148 -47.6572 22.2802C-47.2168 22.1456 -47.1923 22.1089 -47.2412 21.7664C-47.2779 21.5584 -47.4003 21.0079 -47.5226 20.543C-47.645 20.0047 -47.7306 19.1973 -47.7306 18.3409C-47.7306 17.4724 -47.6572 16.6649 -47.5104 16.0777C-47.4003 15.5761 -47.2657 15.0012 -47.2412 14.7932C-47.1923 14.4873 -47.229 14.4139 -47.4615 14.3405C-47.6205 14.2916 -47.8652 14.2427 -47.9997 14.2427C-48.1588 14.2304 -48.2933 14.3528 -48.3912 14.573C-48.4768 14.7565 -48.5869 15.1357 -48.6604 15.4049C-48.7215 15.674 -48.8561 16.2368 -48.9417 16.6649C-49.0763 17.3133 -49.1375 17.4234 -49.3332 17.3989C-49.4678 17.3745 -49.688 17.142 -49.8225 16.8729C-50.055 16.4325 -50.0795 16.1511 -50.1406 11.4289L-49.3699 11.0619C-48.954 10.8662 -48.0854 10.4013 -47.4492 10.022C-46.8131 9.65504 -46.0056 9.28803 -45.6753 9.21462C-45.3328 9.14122 -44.9413 9.11676 -44.7823 9.15346C-44.6355 9.19016 -44.5131 9.31249 -44.5131 9.41036C-44.5131 9.50823 -44.5498 9.59387 -44.5988 9.59387C-44.6599 9.59387 -45.186 10.0587 -45.7977 10.6215C-46.8865 11.6369 -46.8987 11.6491 -46.703 11.9427C-46.5929 12.0895 -46.3849 12.2975 -46.2381 12.3831C-46.0056 12.5177 -45.9078 12.4565 -45.1738 11.7715C-44.7333 11.3433 -44.1094 10.8172 -43.7913 10.597C-43.4855 10.3646 -42.9228 10.0343 -42.5557 9.83854C-42.1887 9.65504 -41.467 9.37366 -40.9654 9.22686C-40.4638 9.08005 -39.9255 8.90878 -39.7665 8.84761C-39.6197 8.78645 -39.4973 8.62741 -39.4973 8.49284C-39.4973 8.35827 -39.5463 8.11359 -39.6197 7.94232C-39.7298 7.67318 -39.7909 7.64871 -40.1947 7.69765C-40.4516 7.73435 -41.1733 7.94232 -41.7973 8.16253C-42.6781 8.46837 -42.9595 8.51731 -43.0818 8.4072C-43.1919 8.28487 -43.1919 8.17476 -43.0451 7.86892C-42.9472 7.66095 -42.5802 7.2817 -42.2499 7.0248C-41.9074 6.78012 -41.1366 6.31524 -40.5372 5.98494Z" fill="#FDFDFD"/>
<path d="M11.0767 7.88115C11.1501 7.70988 11.4681 7.2817 11.7617 6.93916C12.0676 6.58439 12.3367 6.29078 12.3734 6.29078C12.4101 6.30301 12.7404 6.46205 13.1074 6.65779C13.4745 6.85353 13.9026 7.1349 14.0494 7.26947C14.2085 7.40404 14.3308 7.59978 14.3308 7.69765C14.3308 7.79552 14.2207 7.94232 14.0861 8.00349C13.9026 8.08913 13.8537 8.2237 13.9026 8.92102H15.86L15.8967 8.55401C15.9212 8.32157 15.8478 8.10136 15.6888 7.94232C15.5175 7.75882 15.4808 7.63648 15.5664 7.42851C15.6398 7.245 15.9824 7.00033 16.4962 6.75566C16.9611 6.53545 17.3525 6.33971 17.3892 6.31524C17.4259 6.30301 17.7318 6.63332 18.0866 7.04927C18.5025 7.55085 18.7227 7.93009 18.7349 8.16253C18.7349 8.43167 18.686 8.49284 18.4291 8.49284C18.1967 8.49284 18.0988 8.57847 18.0376 8.83538C17.9887 9.01889 17.952 9.21462 17.952 9.26356C17.9397 9.32473 18.319 9.52047 19.6525 10.0832L19.8604 9.81407C19.9828 9.65504 20.0806 9.48377 20.0806 9.41036C20.0806 9.3492 19.995 9.19016 19.8971 9.08005C19.7381 8.88432 19.7381 8.83538 19.9583 8.61517C20.1418 8.43167 20.3987 8.35827 20.937 8.34603C21.3407 8.32157 21.7934 8.30933 21.9279 8.30933C22.1481 8.30933 22.2338 8.45614 22.4907 9.28803C22.7109 10.0343 22.7476 10.3279 22.6497 10.5481C22.5518 10.7561 22.454 10.805 22.1971 10.7438C21.9524 10.6949 21.7934 10.7438 21.6343 10.9029C21.512 11.0252 21.4141 11.1598 21.4263 11.2209C21.4263 11.2699 21.72 11.5757 22.0625 11.9183C22.4173 12.2486 22.772 12.5299 22.8332 12.5299C22.8944 12.5299 23.0534 12.4443 23.1758 12.322C23.3226 12.1752 23.3715 11.9917 23.3226 11.7715C23.2736 11.4779 23.3103 11.4167 23.5917 11.3555C23.7997 11.3066 24.2156 11.3555 24.6071 11.4901C24.9741 11.6002 25.4023 11.747 25.5491 11.8082C25.7571 11.8938 25.8182 11.9917 25.7693 12.1996C25.7326 12.3464 25.7081 12.7257 25.7081 13.056C25.7081 13.4719 25.6347 13.7166 25.4268 13.9491C25.1821 14.2427 25.1331 14.2549 24.8885 14.1081C24.656 13.9613 24.5704 13.9613 24.3013 14.1203C24.13 14.2182 23.9954 14.365 23.9954 14.4262C23.9954 14.4996 24.1422 14.891 24.3257 15.3192C24.5215 15.7352 24.7417 16.0777 24.8151 16.0777C24.9007 16.0777 25.0842 16.0288 25.2188 15.9554C25.3534 15.882 25.4635 15.7596 25.4635 15.6862C25.4512 15.6006 25.5369 15.4538 25.647 15.3804C25.7571 15.2825 25.9406 15.2581 26.1118 15.3192C26.2709 15.3682 26.7113 15.6985 27.7879 16.6894L27.5676 17.0319C27.4331 17.2154 27.1884 17.5947 27.0171 17.8883C26.8336 18.1697 26.6012 18.4388 26.5033 18.5C26.3932 18.5489 26.2342 18.5 26.0996 18.3776C25.9895 18.2553 25.7081 18.1574 25.0964 18.1574V20.1148H25.5246C25.7938 20.1148 25.9773 20.0537 26.014 19.9313C26.0507 19.8334 26.1975 19.7478 26.3443 19.7478C26.5033 19.7356 26.6868 19.809 26.7725 19.8946C26.8459 19.9803 27.0905 20.4207 27.7267 21.7052L27.0538 22.268C26.6868 22.586 26.2464 22.8796 26.0751 22.953C25.9039 23.0142 25.6959 23.0264 25.6225 22.9897C25.5369 22.953 25.4635 22.8185 25.4635 22.6839C25.4635 22.5493 25.3534 22.3903 25.2188 22.3169C25.0842 22.2435 24.9007 22.1945 24.8151 22.1945C24.7417 22.1945 24.5215 22.5371 24.3257 22.953C24.1422 23.3812 23.9954 23.7972 23.9954 23.8828C23.9954 23.9562 24.1422 24.0908 24.3257 24.1642C24.5826 24.2498 24.7417 24.2498 24.9619 24.1275C25.2188 23.9807 25.2677 24.0051 25.4757 24.2743C25.647 24.4822 25.7326 24.8003 25.7448 25.2897C25.7571 25.6689 25.7693 26.0726 25.7693 26.195C25.7693 26.3295 25.5124 26.4763 24.9129 26.6843C24.4358 26.8433 23.9465 26.9657 23.8119 26.9779C23.6773 26.9779 23.4938 26.9045 23.4082 26.8189C23.3226 26.721 23.2981 26.5742 23.347 26.4396C23.4123 26.301 23.3633 26.1501 23.2002 25.987C23.0657 25.8402 22.8944 25.7301 22.8332 25.7301C22.772 25.7301 22.4173 26.0237 22.0747 26.3785C21.4875 26.9657 21.4386 27.0513 21.5976 27.2715C21.6955 27.4306 21.9157 27.5284 22.2093 27.5529C22.5763 27.5774 22.6619 27.6263 22.7231 27.9199C22.7598 28.1034 22.772 28.3359 22.7354 28.4337C22.6864 28.5316 22.5641 28.8986 22.4417 29.2411C22.3194 29.5959 22.1971 29.914 22.1604 29.9507C22.1237 29.9996 21.6833 29.9874 21.1817 29.9385C20.4966 29.8773 20.1907 29.7794 19.9583 29.5837C19.6647 29.339 19.6647 29.3145 19.8604 29.1188C20.0439 28.9598 20.0562 28.8741 19.9461 28.6539C19.8604 28.4949 19.7381 28.3358 19.6647 28.2992C19.5913 28.2502 19.2487 28.3481 18.9184 28.5071C18.5759 28.6662 18.2334 28.8007 18.1477 28.8007C18.0743 28.8007 17.9764 28.8374 17.9398 28.8986C17.9153 28.9475 17.952 29.1677 18.0376 29.3879C18.1477 29.6693 18.2578 29.7794 18.4536 29.7794C18.686 29.7794 18.7349 29.8406 18.7349 30.1831C18.7227 30.489 18.5759 30.7337 17.3892 31.9815L16.5696 31.5288C16.1292 31.2719 15.6888 30.9416 15.5909 30.7948C15.5052 30.6358 15.4563 30.4645 15.493 30.3911C15.5297 30.3177 15.6398 30.2688 15.7377 30.2688C15.8723 30.2688 15.909 30.1464 15.86 29.3512L15.0037 29.3145C14.4409 29.3023 14.0861 29.339 13.9883 29.4369C13.9026 29.5225 13.8292 29.7183 13.8415 29.8773C13.8415 30.0241 13.9516 30.1954 14.0861 30.2688C14.2207 30.3422 14.3308 30.489 14.3308 30.6113C14.343 30.7214 14.2452 30.9049 14.1228 31.015C14.0005 31.1251 13.5479 31.3943 12.3123 32.006L12.0309 31.6512C11.8718 31.4677 11.5782 31.064 11.3825 30.7581C11.1868 30.4523 11.0277 30.1097 11.0277 29.9996C11.0277 29.8651 11.1256 29.7794 11.2724 29.7794C11.407 29.7794 11.6027 29.6571 11.7006 29.5103C11.7984 29.3512 11.8841 29.1555 11.8841 29.0821C11.8841 28.9965 11.7617 28.8741 11.6027 28.813C11.4559 28.7518 11.1134 28.605 10.8442 28.4827C10.5751 28.3603 10.3182 28.2502 10.257 28.2257C10.2081 28.2013 10.0857 28.2747 9.98786 28.3726C9.89 28.4704 9.80436 28.6906 9.80436 28.8619C9.80436 29.0332 9.86553 29.1677 9.9267 29.1677C9.98786 29.1677 10.049 29.2411 10.049 29.3268C10.0613 29.4002 9.96339 29.5715 9.84106 29.6816C9.69425 29.8284 9.31501 29.914 7.66347 30.0486L7.38209 29.2044C7.22306 28.7518 7.11295 28.2135 7.13742 28.0055C7.16189 27.6997 7.22305 27.6385 7.4922 27.6385C7.6757 27.6385 7.93261 27.5284 8.07941 27.3939C8.22622 27.2593 8.34855 27.1125 8.33632 27.0636C8.33632 27.0024 8.06718 26.6965 7.72464 26.354C7.39433 26.0237 7.03955 25.7423 6.96614 25.7423C6.88051 25.7301 6.70924 25.8279 6.59914 25.9503C6.4768 26.0726 6.4034 26.3295 6.41563 26.5375C6.4401 26.8923 6.42786 26.9045 5.88958 26.8923C5.58374 26.8923 5.04546 26.7822 4.03006 26.4152L4.1157 25.4976C4.16463 24.9961 4.2625 24.4578 4.34814 24.2987C4.42154 24.1519 4.58058 24.0296 4.69069 24.0296C4.81302 24.0296 4.92313 24.0908 4.93536 24.1764C4.95983 24.262 5.0944 24.2865 5.30237 24.2376C5.49811 24.1886 5.68161 24.0541 5.71832 23.944C5.75501 23.8216 5.66938 23.4179 5.52258 23.0509C5.36354 22.6839 5.2045 22.3291 5.1678 22.2802C5.1311 22.219 4.94759 22.2068 4.75185 22.2435C4.51941 22.2924 4.38484 22.427 4.29921 22.6839C4.21357 22.9408 4.09124 23.0509 3.8955 23.0509C3.73646 23.0509 3.32051 22.794 2.89233 22.427C2.48862 22.0722 2.14608 21.7541 2.12162 21.7174C2.09715 21.6807 2.25618 21.3137 2.47639 20.91C2.68436 20.5063 2.9535 20.0781 3.06361 19.9558C3.17371 19.8335 3.34498 19.7356 3.44285 19.7478C3.54072 19.7478 3.72422 19.8579 3.83433 19.9925C3.99337 20.1638 4.14017 20.2127 4.32368 20.1638C4.48271 20.1148 4.64175 20.017 4.69069 19.9436C4.73962 19.8702 4.76409 19.7356 4.72739 19.6622C4.69069 19.5765 4.66622 19.1973 4.66622 18.1574H4.23804C3.9689 18.1574 3.78539 18.2186 3.74869 18.3409C3.71199 18.451 3.56519 18.5122 3.34498 18.5C3.07584 18.4633 2.94127 18.3165 2.56202 17.6069C2.30512 17.142 2.09715 16.7016 2.09715 16.6282C2.09715 16.5548 2.39075 16.2857 2.7333 16.0043C3.08807 15.7352 3.50402 15.4416 3.65083 15.3682C3.80986 15.2825 4.01783 15.2458 4.1157 15.2825C4.21357 15.3192 4.29921 15.4538 4.29921 15.5884C4.29921 15.7229 4.40931 15.882 4.54388 15.9554C4.67845 16.0288 4.87419 16.0777 4.97206 16.0777C5.06993 16.0777 5.21673 15.9309 5.29013 15.7474C5.36354 15.5517 5.49811 15.2458 5.59598 15.0379C5.70608 14.8421 5.76725 14.5607 5.74278 14.4384C5.71831 14.3038 5.54704 14.157 5.33907 14.0836C5.04546 13.998 4.95983 14.0102 4.87419 14.1693C4.82526 14.2916 4.71515 14.3283 4.59282 14.2794C4.48271 14.2182 4.31144 14.0347 4.2258 13.8512C4.12793 13.6554 4.05453 13.1294 4.05453 11.7959L4.56835 11.6614C4.86196 11.6002 5.30237 11.4901 5.54704 11.4167C5.85289 11.3433 6.09756 11.3555 6.2566 11.4289C6.4034 11.5023 6.4768 11.6369 6.45233 11.7715C6.42787 11.8816 6.4768 12.1018 6.57467 12.2608C6.67254 12.4076 6.83158 12.5299 6.92945 12.5299C7.02732 12.5299 7.38209 12.273 7.72464 11.955C8.05494 11.6247 8.33632 11.3188 8.33632 11.2454C8.33632 11.1842 8.22622 11.013 8.09164 10.8784C7.93261 10.7316 7.76134 10.6582 7.62677 10.7071C7.51666 10.7561 7.35762 10.7561 7.28422 10.7071C7.19859 10.6704 7.12518 10.4992 7.10072 10.3279C7.07625 10.1566 7.16188 9.69174 7.28422 9.28803C7.40656 8.88432 7.5289 8.4806 7.55336 8.4072C7.59007 8.28487 7.82251 8.27263 8.42196 8.32157C8.88683 8.3705 9.43735 8.4806 9.64532 8.56624C9.86553 8.66411 10.049 8.81091 10.049 8.89655C10.0368 8.96995 9.95116 9.10452 9.84106 9.16569C9.66978 9.27579 9.66979 9.32473 9.87776 9.69174C10.0001 9.91194 10.1469 10.0832 10.1958 10.0832C10.257 10.0832 10.3916 10.022 10.5017 9.96088C10.624 9.88748 10.9788 9.72844 11.2969 9.59387C11.6272 9.4593 11.8841 9.27579 11.8841 9.20239C11.8841 9.11676 11.7984 8.92102 11.7006 8.77421C11.6027 8.61517 11.407 8.49284 11.2724 8.49284C11.1378 8.49284 11.0033 8.41944 10.9788 8.34603C10.9421 8.2604 10.991 8.05243 11.0767 7.88115Z" fill="#FDFDFD"/>
<path d="M57.7359 10.7805C58.054 10.597 58.5555 10.3646 58.8614 10.279C59.1672 10.1811 59.73 10.0954 60.1092 10.0954C60.5007 10.0832 61.0634 10.1566 61.3693 10.2423C61.6751 10.3157 61.9198 10.4625 61.9198 10.5481C61.9198 10.6215 61.8464 10.6949 61.7608 10.6949C61.6874 10.6949 61.2225 10.8906 60.7576 11.1353C60.2927 11.38 59.6566 11.7592 59.3507 11.9794C59.0449 12.1996 58.3843 12.8113 57.8827 13.3496C57.3811 13.8879 56.6593 14.7809 56.2801 15.3559C55.9008 15.9187 55.2647 16.6772 54.8732 17.0442C54.4328 17.4357 53.6009 17.9862 52.7812 18.4143C52.0228 18.8181 51.3988 19.1851 51.3988 19.2585C51.3988 19.3319 51.6924 19.5276 52.035 19.6989C52.3898 19.8824 53.0749 20.2494 53.5397 20.5185C54.0046 20.7999 54.6408 21.2403 54.9344 21.5095C55.228 21.7908 55.6929 22.3414 55.962 22.7451C56.2434 23.1488 56.6715 23.7605 56.9407 24.0908C57.1976 24.4333 57.7481 25.045 58.1641 25.4732C58.58 25.9014 59.314 26.5008 59.7789 26.8189C60.2438 27.137 60.9411 27.5162 61.3081 27.663C61.6751 27.8098 61.9687 27.9811 61.9565 28.03C61.9443 28.0789 61.7241 28.2013 61.4671 28.2747C61.2102 28.3603 60.6353 28.4337 60.1704 28.4337C59.5709 28.4337 59.1305 28.3481 58.5311 28.1034C58.0662 27.9321 57.3933 27.5529 57.0263 27.2715C56.6593 26.9901 55.962 26.3418 55.4971 25.8524C55.0322 25.3508 54.3104 24.5312 53.9067 24.0174C53.503 23.5036 52.8179 22.635 52.3775 22.0722C51.9371 21.5095 51.2031 20.6409 49.8696 19.234L50.726 18.3532C51.2031 17.8761 52.2063 16.6894 52.9647 15.7107C53.7232 14.732 54.6897 13.5453 55.1056 13.0682C55.5216 12.6034 56.1577 11.9672 56.5125 11.6614C56.8673 11.3678 57.4178 10.9763 57.7359 10.7805Z" fill="#FDFDFD"/>
<path d="M67.8898 10.4869C67.8776 10.4135 68.0733 10.3034 68.3425 10.23C68.6116 10.1689 69.1377 10.1077 69.5047 10.0954C69.8717 10.0954 70.4467 10.1566 70.7892 10.2423C71.1195 10.3279 71.7312 10.597 72.1349 10.8417C72.5386 11.0864 73.1136 11.5023 73.4194 11.7715C73.7253 12.0284 74.4104 12.7624 74.9609 13.3985C75.4992 14.0347 76.38 15.1235 76.9183 15.8208C77.4443 16.5304 78.3374 17.5702 78.8879 18.1452C79.4384 18.7202 79.8911 19.2218 79.9033 19.2585C79.9033 19.2952 79.4506 19.7845 78.8879 20.3595C78.3374 20.9345 77.3832 22.06 76.7715 22.8674C76.1476 23.6748 75.1566 24.886 74.5572 25.5588C73.8843 26.3295 73.1258 27.0146 72.5631 27.4061C72.0615 27.7486 71.3275 28.1156 70.936 28.2257C70.5568 28.3359 69.9328 28.4337 69.5658 28.4337C69.1988 28.4337 68.6483 28.3603 68.3425 28.2747C68.0366 28.2013 67.792 28.0912 67.792 28.03C67.792 27.9811 67.9388 27.8832 68.1223 27.822C68.318 27.7486 68.7339 27.5529 69.0765 27.3694C69.4068 27.1981 70.043 26.7944 70.4711 26.4886C70.9115 26.1827 71.5599 25.5955 71.9269 25.1918C72.2939 24.7881 72.9546 23.9317 73.4194 23.2956C73.8721 22.6594 74.5082 21.8642 74.8385 21.5339C75.1689 21.2036 75.8295 20.7265 76.2944 20.4696C76.7591 20.2005 77.4194 19.8704 77.7376 19.7113L77.7379 19.7111C78.1172 19.5398 78.3129 19.3808 78.2885 19.2585C78.264 19.1606 77.7135 18.7936 77.0651 18.4633C76.4167 18.133 75.6337 17.6559 75.3034 17.4234C74.9242 17.1543 74.2024 16.3102 73.3093 15.099C72.3184 13.79 71.6089 12.9704 70.9727 12.4321C70.4344 11.9794 69.6148 11.4534 68.9909 11.1475C68.4036 10.8662 67.9021 10.5726 67.8898 10.4869Z" fill="#FDFDFD"/>
<path d="M62.1645 17.5702C62.1645 17.5727 62.1646 17.5752 62.1648 17.578C62.1804 17.4592 62.8268 17.4234 64.917 17.4234C66.6665 17.4234 67.6696 17.4724 67.6696 17.5458C67.6696 17.6192 67.5717 17.8516 67.4372 18.0596C67.3148 18.2798 66.7888 19.2095 66.275 20.1148C65.7612 21.0201 65.333 21.7908 65.333 21.8275C65.3452 21.8642 65.2474 22.011 64.917 22.4515L64.5133 21.8398C64.3054 21.4972 64.1219 21.1914 64.1219 21.1547C64.1219 21.118 64.024 20.9467 63.9016 20.7632C63.7671 20.5675 63.449 20.0047 63.1799 19.5031C62.9107 19.0016 62.5682 18.3899 62.4214 18.1574C62.2906 17.9316 62.1714 17.6711 62.1648 17.578C62.1646 17.5794 62.1645 17.5809 62.1645 17.5825V17.5702Z" fill="#FDFDFD"/>
<path d="M-40.9402 10.3159C-40.8546 10.3159 -40.4508 10.2303 -40.0471 10.1447C-39.5823 10.0345 -38.8605 9.98561 -38.0898 10.0101C-37.4169 10.0345 -36.6095 10.1202 -36.2914 10.1936C-35.8632 10.2915 -35.7042 10.3893 -35.7042 10.5361C-35.692 10.6829 -35.9733 10.9031 -36.5238 11.1845C-37.2701 11.576 -37.4291 11.6127 -38.3956 11.6127C-39.3254 11.6127 -39.5333 11.5638 -40.2673 11.2212C-40.879 10.9154 -41.087 10.7563 -41.087 10.5728C-41.087 10.4383 -41.0136 10.3282 -40.9402 10.3159Z" fill="#FC5B31"/>
<path d="M12.5576 10.5117C12.6922 10.4627 13.1082 10.3771 13.4752 10.3159C13.8422 10.267 14.6741 10.2425 15.3102 10.267C15.9464 10.3037 16.7416 10.4016 17.0841 10.4994C17.4144 10.5851 18.0261 10.793 18.4176 10.9521C18.8213 11.1111 19.1638 11.3191 19.1883 11.3925C19.2128 11.5148 18.3075 11.5638 14.9677 11.576C12.631 11.6005 10.6492 11.6005 10.5636 11.576C10.4902 11.5638 10.4168 11.5148 10.4168 11.4537C10.4168 11.4047 10.8449 11.1967 11.3587 10.9765C11.8848 10.7686 12.4231 10.5606 12.5576 10.5117Z" fill="#FC5B31"/>
<path d="M-35.8877 12.0898C-35.5451 11.8818 -35.117 11.5393 -34.9212 11.3191C-34.7255 11.1111 -34.542 10.9398 -34.5175 10.9398C-34.4931 10.9398 -34.3095 11.0255 -34.1138 11.1233C-33.9181 11.2212 -33.7468 11.368 -33.7468 11.4292C-33.7468 11.4904 -33.8814 11.7595 -34.0404 12.0164C-34.1994 12.2611 -34.5787 12.7015 -34.8968 12.9951C-35.2026 13.2765 -35.6675 13.619 -35.9122 13.7414C-36.1691 13.8637 -36.7073 14.0717 -37.1111 14.1818C-37.6249 14.3408 -38.0898 14.3775 -38.7014 14.3408C-39.1663 14.3041 -39.8881 14.1451 -40.2918 13.986C-40.6955 13.827 -41.2827 13.4967 -41.6008 13.2398C-41.9311 12.9829 -42.3593 12.5425 -42.555 12.2611C-42.763 11.9675 -42.9221 11.6372 -42.9221 11.5271C-42.9221 11.4047 -42.7752 11.2334 -42.604 11.16C-42.396 11.0499 -42.237 11.0377 -42.1391 11.1233C-42.0535 11.1845 -41.6497 11.5026 -41.2583 11.8207C-40.8423 12.1632 -40.2551 12.4935 -39.8636 12.6159C-39.4966 12.7382 -38.836 12.8361 -38.3956 12.8361C-37.9552 12.8361 -37.3557 12.7627 -37.0499 12.6648C-36.744 12.5669 -36.218 12.31 -35.8877 12.0898Z" fill="#FC5B31"/>
<path d="M-44.2922 12.6893C-44.3045 12.5792 -44.2066 12.3834 -44.0842 12.2611C-43.9619 12.1387 -43.8151 12.0409 -43.7662 12.0409C-43.705 12.0409 -43.3992 12.4323 -43.0689 12.9217C-42.7508 13.3988 -42.2737 13.9738 -42.0045 14.194C-41.7354 14.4142 -41.1237 14.769 -40.6588 15.0014C-39.9493 15.3317 -39.6312 15.4051 -38.7626 15.4418C-38.1876 15.4785 -37.4169 15.4296 -37.0499 15.344C-36.6829 15.2706 -36.0223 14.9892 -35.5818 14.7323C-35.1414 14.4754 -34.5542 14.0227 -34.2606 13.7046C-33.9792 13.3988 -33.6367 12.9217 -33.5021 12.6526C-33.3676 12.3834 -33.1718 12.1265 -33.0739 12.0776C-32.9638 12.0164 -32.7926 12.0653 -32.6458 12.2244C-32.499 12.3589 -32.3889 12.5425 -32.4011 12.6159C-32.4011 12.7015 -32.5724 13.1174 -32.7803 13.5334C-33.025 14.0227 -33.4899 14.6222 -34.0404 15.1605C-34.542 15.662 -35.1904 16.1636 -35.5818 16.3471C-35.9489 16.5306 -36.5238 16.7386 -36.8664 16.812C-37.1967 16.8976 -37.9429 16.9588 -38.5179 16.9588C-39.2642 16.9588 -39.778 16.8854 -40.353 16.6897C-40.7934 16.5429 -41.4418 16.2248 -41.8088 15.9679C-42.1758 15.7232 -42.7263 15.2461 -43.0322 14.9035C-43.338 14.5488 -43.7417 13.9616 -43.9252 13.5823C-44.121 13.2031 -44.28 12.7994 -44.2922 12.6893Z" fill="#FC5B31"/>
<path d="M8.45936 12.8972L10.637 12.8605C11.8236 12.8361 14.6985 12.8238 21.2435 12.8605L21.7084 13.3988C21.9531 13.6924 22.1611 13.9738 22.1611 14.0227C22.1611 14.0839 22.0877 14.1451 22.0143 14.1573C21.9286 14.1818 18.6867 14.194 14.8209 14.1695C10.955 14.1573 7.74981 14.1451 7.70087 14.1328C7.63971 14.1206 7.60301 14.0839 7.60301 14.035C7.60301 13.9738 7.78651 13.7046 8.45936 12.8972Z" fill="#FC5B31"/>
<path d="M-33.1106 15.5886C-32.817 15.2216 -32.4256 14.5365 -32.2298 14.0839C-32.0463 13.6312 -31.8383 13.2642 -31.7772 13.2642C-31.716 13.2642 -31.5814 13.3988 -31.4836 13.5701C-31.3857 13.7414 -31.3245 14.0594 -31.349 14.2796C-31.3735 14.4876 -31.557 15.0259 -31.7649 15.4663C-31.9729 15.9067 -32.3889 16.5673 -32.6825 16.9343C-32.9761 17.3013 -33.5878 17.9008 -34.0649 18.2433C-34.5298 18.5981 -35.276 19.0263 -35.7409 19.1976C-36.1935 19.3688 -37.0132 19.5646 -37.5759 19.6257C-38.3589 19.7236 -38.7993 19.7114 -39.619 19.5646C-40.1939 19.4667 -41.0136 19.2098 -41.454 19.0018C-41.8944 18.7939 -42.4939 18.4268 -42.7997 18.1822C-43.1056 17.9375 -43.5093 17.5705 -43.6928 17.3748C-43.8885 17.1668 -44.2188 16.7508 -44.4268 16.445C-44.6348 16.1392 -44.9284 15.5764 -45.0874 15.1849C-45.2464 14.8057 -45.3688 14.353 -45.3688 14.1818C-45.3688 14.0105 -45.3199 13.7658 -45.2464 13.6312C-45.173 13.4967 -45.0385 13.3866 -44.9406 13.3866C-44.8305 13.3866 -44.6959 13.5945 -44.5981 13.9004C-44.5124 14.194 -44.2311 14.7323 -43.9986 15.0993C-43.7539 15.4663 -43.2891 16.029 -42.9588 16.3349C-42.6407 16.6407 -42.1269 17.0444 -41.821 17.2402C-41.5152 17.4359 -40.8668 17.7173 -40.3897 17.8763C-39.7413 18.0843 -39.203 18.1577 -38.4323 18.1577C-37.8328 18.1577 -37.0377 18.0721 -36.6584 17.9742C-36.2669 17.8763 -35.692 17.6561 -35.3739 17.4849C-35.0436 17.3258 -34.5298 16.9833 -34.2117 16.7264C-33.8936 16.4695 -33.4043 15.9556 -33.1106 15.5886Z" fill="#FC5B31"/>
<path d="M-31.0799 15.3929C-31.0921 15.2583 -31.0554 15.0993 -30.9942 15.0626C-30.9331 15.0137 -30.8597 14.977 -30.823 14.977C-30.7863 14.9647 -30.6884 15.0381 -30.615 15.1238C-30.5416 15.2094 -30.3825 15.6376 -30.248 16.078C-30.0767 16.6652 -30.0155 17.2524 -30.0155 18.3412C-30.0155 19.5523 -30.0645 19.9561 -30.3091 20.6656C-30.4559 21.1305 -30.7006 21.7422 -30.8352 22.0113C-30.982 22.2805 -31.2878 22.8065 -31.5447 23.1735C-31.7894 23.5405 -32.3277 24.1522 -32.7314 24.5192C-33.1473 24.8862 -33.9058 25.4245 -34.4319 25.6936C-34.9702 25.975 -35.7776 26.3053 -36.2547 26.4154C-36.793 26.55 -37.5882 26.6234 -38.3956 26.6234C-39.1663 26.6234 -39.9737 26.5378 -40.4141 26.4277C-40.8179 26.3176 -41.5641 26.024 -42.0657 25.7793C-42.5673 25.5224 -43.338 25.0208 -43.7662 24.6416C-44.1944 24.2745 -44.7816 23.6384 -45.0629 23.2347C-45.3566 22.831 -45.7236 22.2193 -45.8948 21.889C-46.0539 21.5464 -46.2985 20.947 -46.4209 20.5433C-46.5799 20.0172 -46.6411 19.4055 -46.6533 18.4024C-46.6533 17.6317 -46.5799 16.6897 -46.5065 16.3227C-46.4209 15.9556 -46.2496 15.5152 -45.8826 15.0381L-45.7358 15.4051C-45.6624 15.6131 -45.3933 16.1881 -45.1486 16.6897C-44.8305 17.338 -44.4268 17.8763 -43.7784 18.5369C-43.2401 19.0752 -42.5306 19.6502 -42.0657 19.9071C-41.6253 20.1518 -40.8423 20.4576 -40.3163 20.5922C-39.7291 20.7512 -38.995 20.8491 -38.3711 20.8491C-37.7227 20.8491 -37.0254 20.7635 -36.4382 20.5922C-35.9366 20.4576 -35.1414 20.1396 -34.6766 19.8949C-34.1138 19.6013 -33.5021 19.1242 -32.9149 18.5247C-32.2421 17.8396 -31.8873 17.3625 -31.5325 16.6285C-31.2756 16.0902 -31.0676 15.5397 -31.0799 15.3929Z" fill="#FC5B31"/>
<path d="M12.8146 15.7477C13.1449 15.5275 13.6587 15.295 13.9645 15.2339C14.2704 15.1727 14.6863 15.1238 14.882 15.1115C15.0778 15.0993 15.5304 15.1727 15.873 15.2461C16.2155 15.3317 16.7783 15.6009 17.1208 15.8333C17.4756 16.0657 17.916 16.4817 18.1117 16.7508C18.3075 17.02 18.5644 17.4849 18.6745 17.7907C18.7968 18.121 18.8825 18.696 18.8825 19.1976C18.8825 19.8093 18.8091 20.2252 18.6133 20.6656C18.4665 20.9959 18.1974 21.4608 18.0139 21.6932C17.8426 21.9134 17.4266 22.2805 17.0841 22.4884C16.7538 22.7086 16.2033 22.9655 15.8607 23.0512C15.5182 23.1368 14.9554 23.1857 14.5762 23.149C14.2092 23.1123 13.5975 22.9533 13.2305 22.782C12.8635 22.6108 12.3497 22.256 12.0805 21.9991C11.8236 21.7299 11.4688 21.2161 11.2976 20.8491C11.0896 20.4209 10.955 19.8949 10.9306 19.3811C10.8939 18.8183 10.9428 18.3901 11.1018 17.913C11.2242 17.546 11.5178 16.9955 11.7625 16.6897C12.0071 16.3838 12.472 15.9556 12.8146 15.7477Z" fill="#FC5B31"/>
<path d="M8.43489 15.7966C8.31256 15.6131 8.23915 15.4174 8.26362 15.3562C8.28809 15.3073 8.98541 15.2461 9.79283 15.2339C10.6737 15.2339 11.2976 15.2706 11.3343 15.344C11.371 15.4174 11.3343 15.4908 11.2731 15.5275C11.2119 15.5642 10.9428 15.9067 10.6737 16.286C10.4168 16.6774 10.1476 17.2035 10.062 17.4482C9.98857 17.7051 9.86623 17.9375 9.80507 17.9742C9.7439 18.0109 9.45029 17.6072 9.16891 17.0811C8.88754 16.5673 8.55723 15.9923 8.43489 15.7966Z" fill="#FC5B31"/>
<path d="M18.9558 16.078C18.6989 15.7354 18.491 15.4174 18.491 15.344C18.491 15.2706 19.066 15.2216 19.959 15.2216C20.8154 15.2216 21.4515 15.2706 21.4882 15.344C21.5249 15.4174 21.2313 16.029 20.8521 16.7019C20.4606 17.387 20.0814 17.9497 20.0202 17.9375C19.959 17.9375 19.7877 17.6561 19.6532 17.3136C19.5186 16.9588 19.2005 16.4083 18.9558 16.078Z" fill="#FC5B31"/>
<path d="M6.23283 16.7508L6.50198 16.0413C6.64878 15.662 6.80782 15.344 6.84452 15.344C6.89345 15.3317 7.33387 16.0413 7.83545 16.8976C8.33702 17.754 9.38912 19.5646 10.1721 20.9103C10.955 22.256 11.9215 23.932 12.313 24.6293C12.7167 25.3389 13.1816 26.1341 13.3406 26.4032C13.4996 26.6846 13.7321 27.0883 13.8544 27.2963C13.989 27.5165 14.0869 27.7856 14.0869 27.8835C14.0869 28.0303 13.9767 28.0547 13.573 27.9936C13.2794 27.9569 12.9614 27.9079 12.8635 27.8835C12.7656 27.859 12.4353 27.4308 12.1417 26.9415C11.8481 26.4521 11.4199 25.7548 11.1997 25.4C10.9673 25.0575 10.7838 24.7394 10.7838 24.7027C10.7838 24.666 10.6125 24.3479 10.4045 23.9932C10.1843 23.6506 9.48699 22.4517 8.85084 21.3385C8.20246 20.2252 7.35833 18.7449 6.23283 16.7508Z" fill="#FC5B31"/>
<path d="M22.3951 16.1206L22.4057 16.1024C22.6137 15.7599 22.8339 15.4663 22.9073 15.4663C22.9685 15.4663 23.1275 15.711 23.2621 16.0168C23.3967 16.3227 23.5068 16.653 23.5068 16.7508C23.5068 16.8487 23.0908 17.6194 22.5892 18.4635C22.0877 19.3077 21.6717 20.005 21.6717 20.0172C21.6717 20.0417 21.3169 20.6778 20.8765 21.4241C20.4361 22.1826 20.0814 22.831 20.0814 22.8677C20.0814 22.9044 19.8979 23.2224 19.6776 23.565C19.4452 23.9198 19.0904 24.5192 18.8947 24.8862C18.6867 25.2532 18.2463 26.024 17.9282 26.5867C17.5979 27.1495 17.2187 27.6877 17.0841 27.7734C16.9495 27.8712 16.5825 27.9813 16.2522 28.0303C15.7262 28.1159 15.6772 28.1037 15.665 27.8835C15.665 27.7489 15.7506 27.5532 15.8607 27.4553C15.9708 27.3574 16.0442 27.2351 16.0442 27.1862C16.032 27.1495 17.133 25.1921 18.491 22.8432L18.4945 22.8372C19.8512 20.5025 21.2071 18.1695 21.4882 17.6684C21.7769 17.1752 22.1839 16.481 22.3951 16.1206Z" fill="#FC5B31"/>
<path d="M5.95146 20.0295C5.91476 19.6747 5.91476 19.3566 5.9637 19.3199C6.02486 19.2832 6.12273 19.3199 6.20837 19.4055C6.28177 19.4912 7.02802 20.7512 7.84768 22.1948C8.67957 23.6384 9.48699 25.0697 9.65826 25.3756C9.82953 25.6814 10.062 26.0729 10.1843 26.2564C10.3189 26.4521 10.4168 26.6479 10.4168 26.7213C10.4168 26.7947 10.3556 26.8436 10.2944 26.8436C10.2332 26.8436 9.80507 26.55 9.35242 26.183C8.88754 25.8282 8.20245 25.1309 7.82321 24.6293C7.44397 24.1277 6.99133 23.4182 6.83229 23.0512C6.66101 22.6842 6.41634 21.9868 6.28177 21.522C6.1472 21.0449 6.0004 20.372 5.95146 20.0295Z" fill="#FC5B31"/>
<path d="M22.8095 20.6901C23.2009 20.0417 23.5068 19.4545 23.5068 19.3811C23.5068 19.3077 23.5924 19.2587 23.6903 19.2587C23.8371 19.2587 23.8493 19.4055 23.8004 20.0784C23.7515 20.5433 23.5679 21.3874 23.3722 21.9746C23.1642 22.623 22.7483 23.4549 22.369 24.0543C22.002 24.6171 21.4393 25.3144 21.0967 25.6202C20.7664 25.9261 20.2649 26.3298 19.9835 26.5378C19.7021 26.7457 19.4452 26.8681 19.4085 26.8069C19.3718 26.758 19.8611 25.8282 20.4973 24.7272C21.1212 23.6384 21.7451 22.5496 21.8797 22.3172C22.0143 22.0847 22.4302 21.3507 22.8095 20.6901Z" fill="#FC5B31"/>
<path d="M14.0624 25.5468C13.6709 24.874 13.3651 24.2623 13.3651 24.1767C13.3651 24.0666 13.4507 24.0543 13.6954 24.1155C13.8789 24.1767 14.4049 24.2134 14.882 24.2134C15.3592 24.2134 15.9219 24.1767 16.1421 24.1155C16.3868 24.0666 16.5336 24.0788 16.5336 24.1522C16.5336 24.2256 16.191 24.8373 15.7751 25.5224C15.3469 26.2075 14.9432 26.758 14.882 26.758C14.8209 26.758 14.4416 26.2075 14.0624 25.5468Z" fill="#FC5B31"/>
<path d="M13.2432 17.1543C13.4756 16.9708 13.7937 16.775 13.9649 16.7016C14.1362 16.6404 14.5644 16.5793 14.9069 16.5793C15.3106 16.567 15.7266 16.6527 16.008 16.7995C16.2649 16.9218 16.6563 17.2277 16.8643 17.4723C17.0845 17.717 17.317 18.1207 17.3904 18.3776C17.4515 18.6223 17.5127 18.9893 17.5127 19.1973C17.5005 19.4053 17.4393 19.76 17.3537 19.9925C17.268 20.2249 17.0723 20.5919 16.901 20.8121C16.7297 21.0323 16.375 21.3137 16.1058 21.4483C15.7878 21.6196 15.3718 21.7052 14.9069 21.7052C14.4665 21.7052 14.0383 21.6196 13.757 21.4727C13.5001 21.3504 13.1208 21.0568 12.9251 20.8244C12.7293 20.5797 12.4847 20.176 12.4113 19.9191C12.3256 19.6499 12.2522 19.2829 12.2522 19.0749C12.2522 18.867 12.3868 18.4388 12.5336 18.0963C12.6926 17.7659 13.0107 17.3378 13.2432 17.1543Z" fill="#FDFDFD"/>
<path d="M-44.8423 20.5797C-45.0013 20.1148 -45.1237 19.6744 -45.1237 19.601C-45.1359 19.4909 -45.0625 19.5031 -44.9157 19.6377C-44.7934 19.7356 -44.4264 20.0536 -44.0838 20.335C-43.7535 20.6042 -43.0317 21.0568 -42.4934 21.3259C-41.9552 21.5951 -41.16 21.9132 -40.7196 22.0355C-40.1446 22.1945 -39.4962 22.2435 -38.334 22.2435C-37.4654 22.2435 -36.4989 22.1701 -36.1931 22.0844C-35.8873 21.9988 -35.2878 21.7908 -34.8474 21.6073C-34.407 21.436 -33.7464 21.1057 -33.3794 20.8611C-33.0124 20.6286 -32.4741 20.2127 -32.1805 19.9435C-31.8991 19.6622 -31.6177 19.4787 -31.5688 19.5398C-31.5198 19.5888 -31.6177 20.0292 -31.789 20.5185C-31.9603 20.9956 -32.3273 21.7297 -32.5842 22.1211C-32.8533 22.5248 -33.3549 23.0998 -33.6852 23.4057C-34.0277 23.7115 -34.6884 24.1764 -35.1532 24.4211C-35.6793 24.6902 -36.4133 24.9471 -37.0495 25.0694C-37.759 25.2163 -38.3218 25.253 -38.8233 25.204C-39.2271 25.1551 -39.802 25.0572 -40.1079 24.9838C-40.4137 24.9104 -41.0376 24.6535 -41.5148 24.4088C-41.9796 24.1642 -42.6402 23.7115 -42.9828 23.4057C-43.3131 23.0998 -43.8147 22.5248 -44.0716 22.1211C-44.3407 21.7297 -44.6833 21.0323 -44.8423 20.5797Z" fill="#FDFDFD"/>
</g>
<defs>
<clipPath id="clip0_1058_140713">
<rect width="30" height="38" fill="white"/>
</clipPath>
</defs>
</svg>
