<svg width="26" height="38" viewBox="0 0 26 38" fill="none" xmlns="http://www.w3.org/2000/svg">
<g clip-path="url(#clip0_1058_140691)">
<path fill-rule="evenodd" clip-rule="evenodd" d="M13.0758 4.07275C13.2059 4.07275 13.4779 4.22649 13.6671 4.42753C13.8563 4.62858 14.3294 5.00701 14.7078 5.25535C15.0744 5.51553 15.4174 5.71657 15.4647 5.71657C15.5238 5.71657 15.985 5.98857 16.5053 6.33152C17.0257 6.66265 17.6879 7.15934 17.9836 7.43134C18.2792 7.70334 18.5985 8.09359 18.6932 8.30646C18.8587 8.67307 18.8942 8.68489 19.5801 8.68489C20.0531 8.68489 20.5025 8.76768 20.9401 8.94507C21.2949 9.0988 22.2291 9.60732 23.0096 10.0685C23.7902 10.5416 24.4761 10.92 24.547 10.92C24.618 10.92 24.9491 11.0383 25.2921 11.1802C25.6587 11.3457 25.9188 11.5231 25.907 11.6296C25.907 11.7242 25.8242 12.28 25.7296 12.8713C25.635 13.4508 25.5877 14.1958 25.6232 14.5269C25.6587 14.8462 25.635 15.6504 25.5641 16.3008C25.5049 16.9513 25.363 17.6727 25.2566 17.8973C25.162 18.122 24.9964 18.4177 24.9018 18.5478C24.7481 18.7606 24.7717 18.8316 25.091 19.3165C25.2802 19.6121 25.4931 20.097 25.5522 20.4045C25.6232 20.7238 25.6705 21.7526 25.6587 22.7105C25.6587 23.6803 25.7178 24.8392 25.7888 25.2886C25.8597 25.738 25.907 26.1637 25.8715 26.2347C25.8479 26.3056 25.434 26.4949 24.9491 26.6841C24.4642 26.8615 23.7547 27.1926 23.3644 27.4291C22.9742 27.6656 22.3829 28.0086 22.0636 28.186C21.7324 28.3634 21.1057 28.6235 20.6444 28.7654C20.1832 28.9074 19.6156 29.0138 19.3672 29.0138C19.0598 29.0138 18.906 29.0729 18.8469 29.2148C18.7996 29.3331 18.6459 29.6169 18.5039 29.8416C18.3502 30.0663 17.9718 30.4447 17.6643 30.6813C17.3568 30.9178 16.5645 31.4026 15.914 31.7456C15.2636 32.1004 14.4358 32.6207 14.081 32.9164C13.7262 33.212 13.336 33.5195 13.2177 33.6023C13.0522 33.7205 12.9102 33.6496 12.2716 33.1056C11.8696 32.7508 11.089 32.2186 10.5332 31.9112C9.97739 31.6037 9.23235 31.1306 8.87757 30.8705C8.52279 30.5985 8.09706 30.22 7.93149 30.0308C7.76593 29.8416 7.54123 29.5341 7.42298 29.3449C7.26924 29.0847 7.1628 29.0256 6.92628 29.0729C6.76072 29.1084 6.34681 29.0729 6.00385 29.0138C5.67273 28.9428 5.01047 28.6945 4.56108 28.458C4.11169 28.2333 3.52039 27.8903 3.26022 27.7129C3.00005 27.5355 2.51518 27.2517 2.19588 27.098C1.86475 26.9324 1.30893 26.7077 0.954152 26.5895C0.599372 26.4712 0.268244 26.3529 0.22094 26.3056C0.173636 26.2702 0.22094 25.9154 0.303722 25.5251C0.39833 25.1349 0.481112 24.2361 0.481112 23.5147C0.481112 22.7933 0.540242 21.729 0.611198 21.1495C0.69398 20.3453 0.81224 19.9314 1.42719 18.8434L1.14337 18.5123C0.98963 18.3349 0.776762 17.8973 0.670328 17.5426C0.51659 17.0459 0.481112 16.4428 0.492938 14.9408C0.504764 13.841 0.45746 12.753 0.386504 12.4574C0.303722 12.1617 0.244592 11.807 0.244592 11.6532C0.244592 11.4877 0.3392 11.3576 0.504764 11.2866C0.658502 11.2275 1.09606 11.0501 1.48632 10.9082C1.87658 10.7544 2.53884 10.4233 2.96457 10.1631C3.39031 9.9148 4.13535 9.51271 4.62021 9.28802C5.25882 8.99237 5.73186 8.86228 6.33498 8.81498C7.10367 8.75585 7.17463 8.72037 7.34019 8.40107C7.4348 8.20003 7.67132 7.85707 7.87236 7.63238C8.0734 7.39586 8.71201 6.89917 9.29148 6.52074C9.87096 6.1423 10.3913 5.83483 10.4386 5.83483C10.4977 5.83483 10.888 5.59831 11.3256 5.31448C11.7749 5.03066 12.2953 4.6404 12.4845 4.43936C12.6737 4.23832 12.9457 4.07275 13.0758 4.07275ZM61.7635 5.48005C61.8462 5.49187 62.0828 5.71657 62.2838 5.98857C62.473 6.26056 62.8514 6.59169 63.1116 6.70995C63.36 6.84004 63.7739 7.07656 64.0222 7.24212C64.4125 7.50229 64.5071 7.52595 64.6726 7.39586C64.7909 7.31308 65.2048 7.08838 65.6187 6.89917C66.1036 6.66265 66.5057 6.35517 66.8013 6.01222C67.0378 5.71657 67.3098 5.46822 67.3926 5.48005C67.4636 5.48005 67.5937 5.76387 67.6765 6.095C67.7711 6.53256 67.9958 6.93465 68.386 7.43134C68.6935 7.8216 69.001 8.21185 69.0719 8.28281C69.1311 8.36559 69.2848 8.4129 69.403 8.37742C69.5095 8.35377 69.9707 8.29464 70.4319 8.25916C71.0114 8.22368 71.4489 8.10542 71.8747 7.8689C72.2176 7.69151 72.5369 7.5969 72.5842 7.64421C72.6434 7.70334 72.667 8.10542 72.6434 8.53116C72.6079 9.12246 72.667 9.53637 72.8799 10.1513C73.0336 10.6007 73.211 11.0146 73.2701 11.0619C73.3293 11.1092 73.4948 11.1565 73.6249 11.1565C73.755 11.1565 74.098 11.263 74.3936 11.4049C74.8075 11.6059 75.0914 11.6414 75.7181 11.6177C76.1439 11.5941 76.546 11.6059 76.6051 11.6532C76.6524 11.7005 76.5578 11.9843 76.3804 12.28C76.132 12.6821 76.0138 13.0723 75.9192 13.9002C75.7891 14.9882 75.7891 15 76.0611 15.201C76.2148 15.3075 76.5814 15.6149 76.8771 15.8869C77.1727 16.1589 77.5748 16.4191 77.764 16.4782C77.9532 16.5255 78.2607 16.6083 78.4499 16.6438C78.6273 16.6793 78.7692 16.7857 78.7692 16.8567C78.7574 16.9394 78.5091 17.2114 78.2016 17.448C77.8232 17.7554 77.5039 18.1693 77.1727 18.7843C76.7706 19.5412 76.7233 19.7186 76.8534 19.8841C76.9362 19.9906 77.1609 20.4163 77.3501 20.8184C77.5985 21.3505 77.8586 21.6698 78.2371 21.9418C78.5209 22.1547 78.7574 22.4031 78.7692 22.474C78.7692 22.5568 78.5682 22.6751 78.3317 22.746C78.0833 22.8051 77.8232 22.8643 77.764 22.8643C77.7049 22.8761 77.2319 23.1717 75.8364 24.2243L75.8955 25.2295C75.9428 26.0336 76.0256 26.3766 76.2976 26.9088C76.4868 27.2872 76.6406 27.642 76.6406 27.7129C76.6406 27.7839 76.3567 27.8075 75.9073 27.7602C75.316 27.7011 74.9494 27.7484 74.1571 27.9849C73.1874 28.2688 73.1519 28.2924 73.0809 28.6708C73.0455 28.8955 72.9272 29.2503 72.8208 29.4514C72.6788 29.7234 72.6197 30.1373 72.6197 31.852L71.9456 31.5091C71.4844 31.2726 70.9404 31.1188 69.3084 30.906L68.8117 31.4618C68.5279 31.7574 68.185 32.1832 68.0431 32.4079C67.8893 32.6207 67.7119 33.0346 67.6528 33.3303C67.5582 33.7442 67.4872 33.8624 67.298 33.8624C67.1679 33.8624 67.0615 33.8151 67.0615 33.7442C67.0615 33.6732 66.825 33.3894 66.5293 33.0938C66.2337 32.7981 65.8789 32.5261 65.737 32.4906C65.5832 32.4433 65.2758 32.2896 64.6372 31.852L63.6911 32.3487C63.1707 32.6207 62.6504 32.9518 62.5203 33.0819C62.4021 33.2238 62.201 33.4485 62.0828 33.5905C61.9645 33.7442 61.7871 33.8388 61.7161 33.827C61.6334 33.8033 61.5033 33.5431 61.4205 33.2593C61.3495 32.9755 61.1603 32.5734 61.0066 32.3724C60.8528 32.1595 60.5454 31.7456 60.3207 31.4381C60.0014 31.0124 59.8476 30.906 59.6702 30.9651C59.5402 31.0006 59.0671 31.0597 58.6059 31.0952C58.0028 31.1425 57.6125 31.2489 57.1631 31.5091C56.8084 31.6983 56.5127 31.8047 56.4772 31.7338C56.4417 31.6628 56.4536 31.3317 56.4891 30.9887C56.5482 30.5039 56.4891 30.1609 56.2171 29.3331C55.9096 28.387 55.8623 28.2924 55.5312 28.2214C55.3419 28.186 54.9398 28.0441 54.6442 27.914C54.2066 27.7248 53.9701 27.6893 53.2606 27.7602C52.7875 27.7957 52.3973 27.7957 52.3973 27.7366C52.3973 27.6893 52.551 27.3581 52.752 27.0034C52.9767 26.5895 53.1068 26.1755 53.1068 25.8799C53.1068 25.6197 53.166 25.2058 53.2251 24.9575C53.3433 24.5199 53.3433 24.5199 52.6101 23.8103C52.0188 23.2545 51.6995 23.0535 51.0609 22.8406C50.6234 22.6869 50.2686 22.4977 50.2686 22.4149C50.2686 22.3439 50.3277 22.273 50.3868 22.273C50.446 22.273 50.7298 22.0719 51.0136 21.8118C51.2856 21.5634 51.5813 21.185 51.6759 20.9603C51.7705 20.7356 51.9715 20.369 52.1371 20.1443C52.3736 19.8132 52.4091 19.6949 52.3027 19.553C52.2199 19.4584 51.9833 19.0326 51.7705 18.6187C51.5458 18.1457 51.1792 17.6727 50.8362 17.377C50.3987 16.9867 50.3041 16.8567 50.4223 16.7384C50.5051 16.6556 50.647 16.5847 50.7416 16.5965C50.8362 16.5965 51.0846 16.5374 51.2974 16.4546C51.4985 16.3718 52.0188 16.0288 53.2014 15.1182L53.1423 14.0539C53.095 13.1906 53.0122 12.8595 52.7402 12.3037C52.551 11.937 52.4327 11.6059 52.4919 11.5823C52.5392 11.5468 52.894 11.5586 53.2842 11.5941C53.84 11.6532 54.1475 11.6177 54.7033 11.4167C55.0936 11.2866 55.5075 11.1565 55.6258 11.1329C55.7795 11.1092 55.9451 10.7899 56.1934 10.0922C56.4891 9.25254 56.5364 8.96872 56.4772 8.34194C56.4299 7.79794 56.4536 7.60873 56.5718 7.60873C56.6428 7.60873 56.9503 7.73881 57.2459 7.89255C57.6007 8.08177 58.121 8.22368 58.7833 8.30646C59.3391 8.37742 59.824 8.38924 59.8595 8.34194C59.9068 8.29464 60.2379 7.9162 60.6045 7.49047C60.9711 7.06473 61.3022 6.55621 61.3495 6.367C61.385 6.17778 61.456 5.89396 61.5151 5.74022C61.5742 5.59831 61.6807 5.48005 61.7635 5.48005ZM108.571 10.0212C109.375 10.0449 109.883 10.1395 110.345 10.3169C110.699 10.4706 111.385 10.8136 111.858 11.1092C112.32 11.393 112.71 11.7005 112.71 11.7715C112.71 11.8661 112.438 11.9489 111.977 12.008C111.563 12.0553 110.806 12.2327 110.286 12.3983C109.765 12.5756 108.961 12.9659 108.512 13.2497C108.062 13.5454 107.365 14.113 106.974 14.5151C106.584 14.9054 105.815 15.8751 105.259 16.6438C104.704 17.4125 104.03 18.2403 103.769 18.4768C103.497 18.7133 102.953 19.1036 101.83 19.7895L102.8 20.4281C103.344 20.7711 103.994 21.3151 104.266 21.6344C104.538 21.9537 105.035 22.6159 105.378 23.1008C105.721 23.5857 106.265 24.2834 106.596 24.6382C106.915 24.9929 107.447 25.5133 107.79 25.7971C108.121 26.0691 108.736 26.483 109.162 26.6959C109.588 26.9206 110.25 27.1926 110.64 27.299C111.031 27.4055 111.634 27.5355 111.988 27.571C112.343 27.6183 112.651 27.7011 112.674 27.7721C112.698 27.843 112.391 28.115 111.977 28.387C111.563 28.6708 110.889 29.0374 110.463 29.2148C109.872 29.4632 109.446 29.546 108.571 29.5814C107.613 29.6287 107.329 29.5933 106.619 29.3449C106.17 29.1912 105.472 28.8601 105.082 28.5999C104.692 28.3515 103.97 27.7366 103.486 27.2517C102.989 26.755 101.759 25.3123 100.754 24.0469C99.7367 22.7815 98.5896 21.4452 98.2112 21.0785C97.8209 20.7238 97.3361 20.3217 97.1232 20.1916C96.9221 20.0733 96.7211 19.8959 96.6856 19.825C96.6502 19.7422 96.7802 19.5885 96.9813 19.4939C97.1705 19.3993 97.7382 18.9262 98.2348 18.465C98.7315 17.992 99.6776 16.9158 100.328 16.0643C100.99 15.2128 101.984 13.9948 102.539 13.3562C103.095 12.7057 103.947 11.8661 104.432 11.4758C104.917 11.0856 105.52 10.6717 105.768 10.5534C106.005 10.4233 106.489 10.2459 106.832 10.1513C107.246 10.0331 107.814 9.98575 108.571 10.0212ZM117.618 10.0212C118.658 10.0567 118.895 10.104 119.628 10.4351C120.077 10.648 120.728 11.0146 121.047 11.263C121.378 11.5113 121.922 12.008 122.277 12.351C122.632 12.7057 123.341 13.5217 123.874 14.1722C124.406 14.8226 125.139 15.745 125.517 16.2417C125.884 16.7266 126.629 17.578 127.173 18.122C127.705 18.666 128.344 19.2337 128.592 19.3874C128.829 19.5412 129.03 19.7186 129.03 19.7895C129.03 19.8605 128.805 20.0615 128.521 20.2507C128.249 20.4399 127.634 20.9721 127.173 21.4333C126.7 21.8945 125.908 22.817 125.411 23.491C124.914 24.1533 124.122 25.1467 123.649 25.7025C123.176 26.2583 122.419 27.0625 121.981 27.4882C121.532 27.914 120.929 28.4225 120.633 28.6235C120.338 28.8246 119.711 29.1202 119.25 29.2976C118.576 29.5341 118.162 29.6051 117.417 29.6051C116.766 29.6051 116.222 29.5341 115.785 29.3922C115.43 29.2621 114.874 29.0256 114.543 28.8601C114.224 28.6945 113.727 28.3988 113.455 28.1978C113.171 27.9968 112.97 27.7839 113.006 27.7129C113.041 27.642 113.289 27.5947 113.573 27.5947C113.845 27.5947 114.413 27.5001 114.839 27.37C115.264 27.2517 115.82 27.0625 116.08 26.9561C116.34 26.8378 116.896 26.5185 117.322 26.2347C117.748 25.9509 118.398 25.4187 118.777 25.0284C119.155 24.65 119.888 23.763 120.385 23.0417C120.893 22.3203 121.591 21.4806 121.946 21.1613C122.301 20.842 122.868 20.4281 123.211 20.2507C123.542 20.0615 123.814 19.8486 123.803 19.7777C123.779 19.7186 123.472 19.4939 123.117 19.3046C122.762 19.1036 122.206 18.6897 121.899 18.394C121.579 18.0866 120.941 17.306 120.48 16.6556C120.018 16.0052 119.297 15.1064 118.871 14.6689C118.445 14.2195 117.712 13.6045 117.263 13.297C116.813 12.9896 116.009 12.5993 115.489 12.4219C114.969 12.2445 114.188 12.0671 113.739 12.008C113.301 11.9607 112.946 11.8779 112.946 11.807C112.946 11.7478 113.254 11.4877 113.632 11.2511C113.999 11.0146 114.649 10.6598 115.075 10.4706C115.501 10.2696 115.974 10.0922 116.139 10.0567C116.305 10.0212 116.967 10.0094 117.618 10.0212ZM112.769 12.9423C113.289 12.9423 114.034 13.0132 114.425 13.096C114.815 13.1906 115.383 13.3798 115.702 13.5099C116.009 13.6518 116.234 13.8174 116.199 13.8765C116.163 13.9475 114.921 13.9948 112.828 13.9948C110.735 13.9948 109.493 13.9475 109.458 13.8765C109.422 13.8174 109.576 13.6873 109.789 13.5927C109.99 13.5099 110.439 13.3443 110.759 13.2497C111.09 13.1433 111.456 13.0369 111.586 13.0132C111.716 12.9777 112.249 12.9541 112.769 12.9423ZM113.538 14.9172C115.655 14.929 117.452 14.9408 117.535 14.9408C117.606 14.9408 117.831 15.1064 118.032 15.2956C118.233 15.4967 118.386 15.7332 118.386 15.8278C118.386 15.9815 117.689 16.0052 112.828 16.0052C108.452 16.0052 107.27 15.9697 107.27 15.8633C107.27 15.7805 107.412 15.5558 107.589 15.3548C107.873 15.0355 107.979 15 108.795 14.9408C109.292 14.9054 111.421 14.8935 113.538 14.9172ZM106.797 16.833C106.856 16.833 107.069 17.1168 107.246 17.4598C107.424 17.7909 107.979 18.7725 108.476 19.6121C108.961 20.4636 109.99 22.2375 110.759 23.5738C111.515 24.9102 112.19 26.0455 112.249 26.1164C112.308 26.1874 112.355 26.3056 112.355 26.3884C112.355 26.4594 112.237 26.5303 112.095 26.5303C111.941 26.5303 111.646 26.4712 111.433 26.3884C111.196 26.2938 110.936 26.0691 110.794 25.8208C110.652 25.5961 110.463 25.2531 110.345 25.0521C110.238 24.8629 109.836 24.1651 109.458 23.5147C109.079 22.8643 108.677 22.1784 108.571 21.9773C108.452 21.7881 107.909 20.8065 107.341 19.825C106.785 18.8316 106.336 17.9328 106.347 17.8382C106.359 17.7318 106.43 17.4716 106.513 17.2469C106.596 17.0222 106.726 16.833 106.797 16.833ZM112.887 16.833C116.423 16.833 117.452 16.8685 117.488 16.9867C117.511 17.0577 117.44 17.2587 117.322 17.4243C117.216 17.5899 116.754 18.3822 116.317 19.1982C115.867 20.0142 115.288 21.0549 115.016 21.5043C114.744 21.9655 114.271 22.817 113.952 23.3964C113.632 23.9759 113.278 24.6027 113.159 24.7919C112.982 25.0639 112.911 25.0876 112.757 24.9693C112.651 24.8865 112.509 24.6855 112.426 24.5199C112.343 24.3543 111.551 22.9471 110.676 21.386C109.801 19.825 108.914 18.264 108.701 17.9328C108.5 17.5899 108.334 17.1996 108.334 17.0695C108.334 16.833 108.417 16.833 112.887 16.833ZM119.025 16.9276C119.096 16.9867 119.226 17.2469 119.309 17.4953C119.451 17.9565 119.451 17.9565 118.434 19.7304C117.878 20.7119 117.168 21.9537 116.849 22.5095C116.541 23.0653 116.08 23.8577 115.82 24.2834C115.56 24.7091 115.193 25.3359 115.004 25.6789C114.768 26.1164 114.555 26.3293 114.306 26.4121C114.105 26.483 113.833 26.5303 113.691 26.5303C113.514 26.5303 113.419 26.4594 113.419 26.3293C113.419 26.211 113.467 26.0691 113.526 25.9982C113.585 25.9272 114.141 25.0048 114.756 23.9286C115.371 22.8524 116.34 21.185 116.908 20.2152C117.476 19.2455 117.937 18.4295 117.925 18.4059C117.925 18.394 118.043 18.1693 118.185 17.9328C118.339 17.6845 118.564 17.3297 118.682 17.1523C118.824 16.9276 118.93 16.8567 119.025 16.9276ZM106.288 19.8486C106.383 19.9787 107.14 21.2914 107.979 22.7815C108.831 24.2597 109.493 25.5133 109.458 25.5842C109.422 25.6552 109.067 25.4305 108.665 25.0876C108.251 24.7564 107.743 24.2597 107.518 23.9996C107.305 23.7276 106.974 23.219 106.809 22.8643C106.631 22.5095 106.43 22.001 106.359 21.7408C106.277 21.4806 106.158 20.9721 106.075 20.6173C105.993 20.2625 105.981 19.8841 106.028 19.7895C106.111 19.6358 106.146 19.6476 106.288 19.8486ZM119.593 19.7895C119.64 19.7895 119.687 19.9906 119.687 20.2389C119.687 20.4754 119.604 20.9958 119.498 21.386C119.392 21.7763 119.143 22.4149 118.954 22.8051C118.753 23.1954 118.398 23.7512 118.162 24.035C117.925 24.3189 117.417 24.8156 117.026 25.1349C116.636 25.4542 116.269 25.667 116.222 25.6197C116.163 25.5724 116.352 25.1467 116.624 24.6973C116.896 24.2479 117.582 23.0535 118.15 22.0483C118.717 21.0549 119.179 20.1916 119.167 20.1561C119.167 20.1088 119.238 20.0142 119.332 19.9314C119.427 19.8486 119.545 19.7895 119.593 19.7895Z" fill="#FC5B31"/>
<path d="M10.9475 6.95817C11.5388 6.6507 12.2483 6.21313 12.5322 6.00027C12.8042 5.77557 13.0998 5.63366 13.1826 5.68096C13.2535 5.71644 13.5019 5.89383 13.7266 6.07122C13.9513 6.24861 14.5071 6.59157 14.9683 6.83991C15.4295 7.08826 16.009 7.44304 16.2692 7.62043C16.5293 7.79782 16.9433 8.1526 17.1916 8.4246C17.4754 8.73207 17.6173 9.00407 17.5937 9.18146C17.5819 9.32337 17.5109 9.42981 17.4518 9.41798C17.3808 9.39433 16.896 9.22876 16.3638 9.02772C15.8198 8.83851 15.1575 8.66112 14.8855 8.64929C14.4007 8.61381 14.377 8.62564 14.2588 9.05137C14.1799 9.35097 14.1799 9.54018 14.2588 9.61902C14.3297 9.67815 14.7436 9.83189 15.2048 9.95015C15.666 10.0802 16.3283 10.3049 16.6831 10.4705C17.0379 10.6242 17.6528 10.9672 18.0431 11.2155C18.4333 11.4639 19.0719 11.9606 19.4622 12.3272C19.8525 12.6938 20.2664 13.0722 20.3846 13.1668C20.5738 13.3324 20.633 13.3087 20.9523 12.9894C21.1415 12.8002 21.2952 12.5873 21.3071 12.5164C21.3071 12.4573 20.9996 12.1025 20.6211 11.7477C20.2427 11.3811 19.7224 10.9199 19.4622 10.707C19.0719 10.3877 19.0128 10.2931 19.1192 10.1157C19.1902 10.0093 19.4267 9.90285 19.6514 9.87919C19.8998 9.86737 20.3137 9.9738 20.7039 10.1512C21.0587 10.3286 21.7801 10.7307 22.3004 11.0618C22.8208 11.4047 23.5303 11.795 24.4882 12.2207L24.4291 14.3849C24.4055 15.5675 24.3227 16.7501 24.2517 17.0103C24.1926 17.2704 24.0507 17.6016 23.9561 17.7553C23.8615 17.8972 23.6959 18.0155 23.6013 18.0155C23.5067 18.0155 23.4003 17.8972 23.3766 17.7553C23.3529 17.6016 23.2465 17.0576 23.1519 16.5372C23.0455 16.0169 22.9154 15.4492 22.8444 15.2719C22.7498 15.0235 22.6316 14.9407 22.395 14.9407C22.2058 14.9407 21.9575 14.9999 21.8392 15.0826C21.6264 15.2245 21.6264 15.2718 21.8037 16.0051C21.9102 16.4308 22.0521 17.2586 22.1349 17.8381C22.2413 18.6659 22.2413 19.139 22.123 19.9668C22.0403 20.5462 21.8983 21.2676 21.8156 21.5633C21.721 21.8589 21.65 22.2019 21.65 22.332C21.65 22.4975 21.7801 22.6158 22.0876 22.7222C22.466 22.8641 22.5606 22.8641 22.6789 22.7222C22.7616 22.6395 22.939 22.1191 23.0691 21.5633C23.1874 21.0075 23.3293 20.357 23.3648 20.1205C23.4003 19.8722 23.4949 19.6711 23.5776 19.6711C23.6486 19.6711 23.8378 19.7894 23.9797 19.9313C24.1216 20.085 24.299 20.4635 24.3582 20.7946C24.4173 21.1257 24.4646 22.3083 24.4291 25.4895L23.3648 26.069C22.7853 26.3883 21.8747 26.8613 21.3544 27.1333C20.834 27.3935 20.1718 27.6537 19.8761 27.6773C19.5805 27.7128 19.2375 27.6892 19.1074 27.63C18.8709 27.5118 18.8827 27.4999 19.1665 27.2871C19.3203 27.157 19.8643 26.6603 20.3728 26.1754C20.8813 25.6906 21.2952 25.253 21.2952 25.2057C21.2952 25.1466 21.177 24.981 21.0351 24.8154C20.8813 24.6617 20.6803 24.5316 20.5857 24.5198C20.4911 24.5198 20.0653 24.8391 19.6396 25.2293C19.2138 25.6196 18.5752 26.1399 18.2205 26.3765C17.8657 26.613 17.2034 26.9796 16.7422 27.1925C16.281 27.4053 15.5241 27.6891 15.0629 27.8192C14.2824 28.0439 14.1996 28.1031 14.1996 28.3632C14.1996 28.5288 14.2588 28.7653 14.3179 28.8954C14.4125 29.0964 14.5189 29.1201 14.9447 29.0728C15.2167 29.0373 15.9262 28.8363 16.5057 28.6471C17.097 28.446 17.6173 28.3278 17.6646 28.3869C17.7119 28.4342 17.6883 28.6707 17.5937 28.8954C17.4873 29.1792 17.1916 29.4867 16.6713 29.8533C16.2573 30.1608 15.5714 30.5747 15.1457 30.7876C14.72 31.0004 14.1405 31.3434 13.8448 31.5563C13.5492 31.7573 13.2654 31.9702 13.1944 32.0056C13.1353 32.0529 12.8515 31.9229 12.5795 31.7336C12.2956 31.5326 11.7635 31.2133 11.3969 31.0004C11.0184 30.7994 10.4153 30.4328 10.0605 30.1844C9.70574 29.9479 9.2327 29.5695 9.01984 29.3566C8.79514 29.1319 8.5941 28.8244 8.55862 28.6589C8.53497 28.4933 8.53497 28.3396 8.57045 28.3041C8.60593 28.2686 9.10262 28.4224 9.68209 28.6234C10.2497 28.8363 10.9356 29.0373 11.2195 29.0728C11.6689 29.1201 11.728 29.1083 11.8344 28.8363C11.9054 28.6707 11.9527 28.4342 11.9527 28.3041C11.9527 28.1149 11.7871 28.0203 11.1012 27.8192C10.6282 27.6891 9.81218 27.3698 9.29183 27.1333C8.77149 26.8968 8.0501 26.4829 7.69532 26.2109C7.34054 25.9507 6.73742 25.4304 6.37081 25.0638C5.99238 24.6972 5.61395 24.4252 5.54299 24.4607C5.46021 24.4843 5.25917 24.6853 4.8216 25.2885L5.75586 26.1754C6.2762 26.6603 6.83203 27.157 6.98576 27.2871C7.28141 27.5118 7.28141 27.5118 7.04489 27.6773C6.91481 27.7601 6.61916 27.8311 6.39446 27.8311C6.15794 27.8311 5.61395 27.6418 5.15273 27.4053C4.70334 27.1688 4.24213 26.9086 4.14752 26.814C4.05291 26.7312 3.46161 26.4001 1.72319 25.5013L1.68771 23.8575C1.67589 22.9469 1.71137 21.8353 1.78232 21.3859C1.85328 20.9365 1.99519 20.3807 2.0898 20.1796C2.18441 19.9549 2.33814 19.7894 2.46823 19.7894C2.62197 19.7894 2.70475 19.9549 2.83484 20.5226C2.91762 20.9365 3.07136 21.5396 3.15414 21.8589C3.23692 22.1901 3.37883 22.5448 3.46161 22.6513C3.5917 22.8405 3.67448 22.8405 4.06474 22.7104C4.49048 22.5803 4.51413 22.5448 4.46682 22.2137C4.43135 22.0127 4.31309 21.4805 4.19483 21.0311C4.07657 20.5108 3.99378 19.7303 3.99378 18.9024C3.99378 18.0628 4.06474 17.2823 4.20665 16.7146C4.31309 16.2298 4.44317 15.6739 4.46682 15.4729C4.51413 15.1772 4.47865 15.1063 4.25396 15.0353C4.10022 14.988 3.8637 14.9407 3.73361 14.9407C3.57987 14.9289 3.44979 15.0472 3.35518 15.26C3.2724 15.4374 3.16596 15.804 3.09501 16.0642C3.03588 16.3244 2.90579 16.8684 2.82301 17.2823C2.69292 17.909 2.63379 18.0155 2.44458 17.9918C2.31449 17.9682 2.10162 17.7435 1.97154 17.4833C1.74684 17.0576 1.72319 16.7856 1.66406 12.2207L2.4091 11.866C2.81118 11.6767 3.65083 11.2274 4.26578 10.8608C4.88073 10.506 5.66125 10.1512 5.98055 10.0802C6.31168 10.0093 6.69011 9.98563 6.84385 10.0211C6.98576 10.0566 7.10402 10.1748 7.10402 10.2695C7.10402 10.3641 7.06854 10.4468 7.02124 10.4468C6.96211 10.4468 6.45359 10.8962 5.86229 11.4402C4.80978 12.4218 4.79795 12.4336 4.98717 12.7174C5.0936 12.8593 5.29464 13.0604 5.43656 13.1432C5.66125 13.2733 5.75586 13.2141 6.46542 12.5519C6.89115 12.138 7.49428 11.6294 7.80176 11.4166C8.09741 11.1919 8.6414 10.8726 8.99618 10.6834C9.35096 10.506 10.0487 10.234 10.5336 10.0921C11.0184 9.95015 11.5388 9.78459 11.6925 9.72546C11.8344 9.66633 11.9527 9.51259 11.9527 9.3825C11.9527 9.25242 11.9054 9.0159 11.8344 8.85033C11.728 8.59016 11.6689 8.56651 11.2786 8.61381C11.0303 8.64929 10.3325 8.85033 9.72939 9.0632C8.87792 9.35885 8.60593 9.40615 8.48767 9.29972C8.38123 9.18146 8.38123 9.07503 8.52314 8.77938C8.61775 8.57833 8.97253 8.21173 9.29183 7.96338C9.62296 7.72686 10.368 7.27747 10.9475 6.95817Z" fill="#FDFDFD"/>
<path d="M60.8414 8.7912C60.9123 8.62564 61.2198 8.21173 61.5036 7.8806C61.7993 7.53765 62.0595 7.25382 62.0949 7.25382C62.1304 7.26565 62.4497 7.41939 62.8045 7.6086C63.1593 7.79782 63.5732 8.06982 63.7151 8.1999C63.8688 8.32999 63.9871 8.5192 63.9871 8.61381C63.9871 8.70842 63.8807 8.85033 63.7506 8.90946C63.5732 8.99224 63.5259 9.12233 63.5732 9.79641H65.4653L65.5008 9.44163C65.5245 9.21694 65.4535 9.00407 65.2998 8.85033C65.1342 8.67294 65.0987 8.55468 65.1815 8.35364C65.2525 8.17625 65.5836 7.93973 66.0803 7.70321C66.5297 7.49034 66.9081 7.30113 66.9436 7.27747C66.9791 7.26565 67.2747 7.58495 67.6177 7.98703C68.0198 8.4719 68.2326 8.83851 68.2444 9.0632C68.2444 9.32337 68.1971 9.3825 67.9488 9.3825C67.7241 9.3825 67.6295 9.46528 67.5704 9.71363C67.5231 9.89102 67.4876 10.0802 67.4876 10.1275C67.4758 10.1867 67.8424 10.3759 69.1314 10.9199L69.3324 10.6597C69.4507 10.506 69.5453 10.3404 69.5453 10.2695C69.5453 10.2103 69.4625 10.0566 69.3679 9.95015C69.2142 9.76093 69.2142 9.71363 69.427 9.50076C69.6044 9.32337 69.8528 9.25242 70.3731 9.24059C70.7634 9.21694 71.2009 9.20511 71.331 9.20511C71.5439 9.20511 71.6267 9.34702 71.875 10.1512C72.0879 10.8726 72.1234 11.1564 72.0288 11.3693C71.9342 11.5703 71.8396 11.6176 71.5912 11.5585C71.3547 11.5112 71.201 11.5585 71.0472 11.7122C70.929 11.8305 70.8343 11.9606 70.8462 12.0197C70.8462 12.067 71.13 12.3627 71.4611 12.6938C71.8041 13.0131 72.147 13.2851 72.2062 13.2851C72.2653 13.2851 72.419 13.2023 72.5373 13.084C72.6792 12.9421 72.7265 12.7647 72.6792 12.5519C72.6319 12.268 72.6674 12.2089 72.9394 12.1498C73.1404 12.1025 73.5425 12.1498 73.9209 12.2799C74.2757 12.3863 74.6896 12.5282 74.8315 12.5873C75.0326 12.6701 75.0917 12.7647 75.0444 12.9658C75.0089 13.1077 74.9853 13.4743 74.9853 13.7936C74.9853 14.1957 74.9143 14.4322 74.7133 14.6569C74.4768 14.9407 74.4294 14.9525 74.1929 14.8106C73.9682 14.6687 73.8855 14.6687 73.6253 14.8225C73.4597 14.9171 73.3296 15.059 73.3296 15.1181C73.3296 15.1891 73.4715 15.5675 73.6489 15.9814C73.8382 16.3835 74.051 16.7146 74.122 16.7146C74.2048 16.7146 74.3821 16.6673 74.5122 16.5964C74.6423 16.5254 74.7487 16.4071 74.7487 16.3362C74.7369 16.2534 74.8197 16.1115 74.9261 16.0405C75.0326 15.9459 75.21 15.9223 75.3755 15.9814C75.5293 16.0287 75.955 16.348 76.9957 17.3059L76.7828 17.6371C76.6527 17.8144 76.4162 18.181 76.2507 18.4649C76.0733 18.7369 75.8486 18.997 75.754 19.0562C75.6475 19.1035 75.4938 19.0562 75.3637 18.9379C75.2573 18.8197 74.9853 18.725 74.394 18.725V20.6172H74.8079C75.0681 20.6172 75.2454 20.5581 75.2809 20.4398C75.3164 20.3452 75.4583 20.2624 75.6002 20.2624C75.754 20.2506 75.9314 20.3216 76.0141 20.4043C76.0851 20.4871 76.3216 20.9129 76.9366 22.1546L76.2861 22.6986C75.9314 23.0061 75.5056 23.2899 75.34 23.3608C75.1745 23.42 74.9734 23.4318 74.9025 23.3963C74.8197 23.3608 74.7487 23.2307 74.7487 23.1007C74.7487 22.9706 74.6423 22.8168 74.5122 22.7459C74.3821 22.6749 74.2048 22.6276 74.122 22.6276C74.051 22.6276 73.8382 22.9588 73.6489 23.3608C73.4715 23.7747 73.3296 24.1768 73.3296 24.2596C73.3296 24.3306 73.4715 24.4607 73.6489 24.5316C73.8973 24.6144 74.051 24.6144 74.2639 24.4961C74.5122 24.3542 74.5595 24.3779 74.7606 24.638C74.9261 24.8391 75.0089 25.1466 75.0207 25.6196C75.0326 25.9862 75.0444 26.3765 75.0444 26.4947C75.0444 26.6248 74.7961 26.7667 74.2166 26.9678C73.7554 27.1215 73.2823 27.2398 73.1522 27.2516C73.0222 27.2516 72.8448 27.1806 72.762 27.0979C72.6792 27.0032 72.6555 26.8613 72.7029 26.7312C72.7659 26.5972 72.7186 26.4514 72.5609 26.2937C72.4309 26.1518 72.2653 26.0453 72.2062 26.0453C72.147 26.0453 71.8041 26.3292 71.4729 26.6721C70.9053 27.2398 70.858 27.3225 71.0117 27.5354C71.1063 27.6892 71.3192 27.7838 71.603 27.8074C71.9578 27.8311 72.0406 27.8784 72.0997 28.1622C72.1352 28.3396 72.147 28.5643 72.1115 28.6589C72.0642 28.7535 71.946 29.1083 71.8277 29.4394C71.7095 29.7824 71.5912 30.0898 71.5557 30.1253C71.5202 30.1726 71.0945 30.1608 70.6096 30.1135C69.9474 30.0544 69.6517 29.9597 69.427 29.7705C69.1432 29.534 69.1432 29.5104 69.3324 29.3211C69.5098 29.1674 69.5217 29.0846 69.4152 28.8718C69.3324 28.718 69.2142 28.5643 69.1432 28.5288C69.0723 28.4815 68.7411 28.5761 68.4218 28.7298C68.0907 28.8836 67.7596 29.0137 67.6768 29.0137C67.6058 29.0137 67.5112 29.0491 67.4758 29.1083C67.4521 29.1556 67.4876 29.3684 67.5704 29.5813C67.6768 29.8533 67.7832 29.9597 67.9725 29.9597C68.1971 29.9597 68.2444 30.0189 68.2444 30.35C68.2326 30.6457 68.0907 30.8822 66.9436 32.0884L66.1512 31.6509C65.7255 31.4025 65.2998 31.0832 65.2052 30.9413C65.1224 30.7876 65.0751 30.622 65.1106 30.551C65.146 30.4801 65.2525 30.4328 65.3471 30.4328C65.4772 30.4328 65.5126 30.3145 65.4653 29.5458L64.6375 29.5104C64.0935 29.4985 63.7506 29.534 63.656 29.6286C63.5732 29.7114 63.5022 29.9006 63.514 30.0544C63.514 30.1963 63.6205 30.3618 63.7506 30.4328C63.8807 30.5037 63.9871 30.6457 63.9871 30.7639C63.9989 30.8703 63.9043 31.0477 63.786 31.1542C63.6678 31.2606 63.2302 31.5208 62.0358 32.1121L61.7638 31.7691C61.6101 31.5917 61.3262 31.2015 61.137 30.9058C60.9478 30.6102 60.7941 30.279 60.7941 30.1726C60.7941 30.0425 60.8887 29.9597 61.0306 29.9597C61.1607 29.9597 61.3499 29.8415 61.4445 29.6996C61.5391 29.5458 61.6219 29.3566 61.6219 29.2857C61.6219 29.2029 61.5036 29.0846 61.3499 29.0255C61.208 28.9664 60.8769 28.8244 60.6167 28.7062C60.3565 28.5879 60.1082 28.4815 60.049 28.4578C60.0017 28.4342 59.8835 28.5051 59.7889 28.5998C59.6942 28.6944 59.6115 28.9072 59.6115 29.0728C59.6115 29.2384 59.6706 29.3684 59.7297 29.3684C59.7889 29.3684 59.848 29.4394 59.848 29.5222C59.8598 29.5931 59.7652 29.7587 59.6469 29.8651C59.505 30.007 59.1384 30.0898 57.5419 30.2199L57.2699 29.4039C57.1162 28.9664 57.0098 28.446 57.0334 28.245C57.0571 27.9493 57.1162 27.8902 57.3764 27.8902C57.5537 27.8902 57.8021 27.7838 57.944 27.6537C58.0859 27.5236 58.2042 27.3817 58.1923 27.3344C58.1923 27.2752 57.9322 26.9796 57.601 26.6485C57.2817 26.3292 56.9388 26.0572 56.8678 26.0572C56.7851 26.0453 56.6195 26.1399 56.5131 26.2582C56.3948 26.3765 56.3238 26.6248 56.3357 26.8259C56.3593 27.1688 56.3475 27.1806 55.8271 27.1688C55.5315 27.1688 55.0112 27.0624 54.0296 26.7076L54.1124 25.8206C54.1597 25.3358 54.2543 24.8154 54.3371 24.6617C54.408 24.5198 54.5618 24.4015 54.6682 24.4015C54.7865 24.4015 54.8929 24.4607 54.9047 24.5434C54.9284 24.6262 55.0585 24.6499 55.2595 24.6026C55.4487 24.5553 55.6261 24.4252 55.6616 24.3187C55.6971 24.2005 55.6143 23.8102 55.4724 23.4554C55.3186 23.1007 55.1649 22.7577 55.1294 22.7104C55.0939 22.6513 54.9165 22.6394 54.7273 22.6749C54.5026 22.7222 54.3726 22.8523 54.2898 23.1007C54.207 23.349 54.0887 23.4554 53.8995 23.4554C53.7458 23.4554 53.3437 23.2071 52.9298 22.8523C52.5395 22.5094 52.2084 22.2019 52.1847 22.1664C52.1611 22.1309 52.3148 21.7762 52.5277 21.3859C52.7287 20.9956 52.9889 20.5817 53.0953 20.4635C53.2018 20.3452 53.3673 20.2506 53.4619 20.2624C53.5566 20.2624 53.7339 20.3689 53.8404 20.4989C53.9941 20.6645 54.136 20.7118 54.3134 20.6645C54.4672 20.6172 54.6209 20.5226 54.6682 20.4516C54.7155 20.3807 54.7392 20.2506 54.7037 20.1796C54.6682 20.0969 54.6445 19.7303 54.6445 18.725H54.2306C53.9705 18.725 53.7931 18.7842 53.7576 18.9024C53.7221 19.0089 53.5802 19.068 53.3673 19.0562C53.1072 19.0207 52.9771 18.8788 52.6105 18.1929C52.3621 17.7435 52.1611 17.3177 52.1611 17.2468C52.1611 17.1758 52.4449 16.9157 52.776 16.6437C53.119 16.3835 53.5211 16.0997 53.663 16.0287C53.8167 15.9459 54.0178 15.9105 54.1124 15.9459C54.207 15.9814 54.2898 16.1115 54.2898 16.2416C54.2898 16.3717 54.3962 16.5254 54.5263 16.5964C54.6564 16.6673 54.8456 16.7146 54.9402 16.7146C55.0348 16.7146 55.1767 16.5727 55.2477 16.3953C55.3186 16.2061 55.4487 15.9105 55.5433 15.7094C55.6498 15.5202 55.7089 15.2482 55.6852 15.1299C55.6616 14.9999 55.496 14.8579 55.295 14.787C55.0112 14.7042 54.9284 14.716 54.8456 14.8698C54.7983 14.988 54.6919 15.0235 54.5736 14.9762C54.4672 14.9171 54.3016 14.7397 54.2188 14.5623C54.1242 14.3731 54.0532 13.8646 54.0532 12.5755L54.5499 12.4454C54.8338 12.3863 55.2595 12.2799 55.496 12.2089C55.7917 12.138 56.0282 12.1498 56.1819 12.2207C56.3238 12.2917 56.3948 12.4218 56.3711 12.5519C56.3475 12.6583 56.3948 12.8712 56.4894 13.0249C56.584 13.1668 56.7378 13.2851 56.8324 13.2851C56.927 13.2851 57.2699 13.0367 57.601 12.7293C57.9203 12.41 58.1923 12.1143 58.1923 12.0434C58.1923 11.9842 58.0859 11.8187 57.9558 11.6886C57.8021 11.5467 57.6365 11.4757 57.5064 11.523C57.4 11.5703 57.2463 11.5703 57.1753 11.523C57.0925 11.4875 57.0216 11.322 56.9979 11.1564C56.9743 10.9908 57.0571 10.5415 57.1753 10.1512L57.1753 10.1512C57.2936 9.76091 57.4118 9.37067 57.4355 9.29972C57.471 9.18146 57.6957 9.16963 58.2751 9.21694C58.7245 9.26424 59.2567 9.37068 59.4577 9.45346C59.6706 9.54807 59.848 9.68998 59.848 9.77276C59.8362 9.84372 59.7534 9.9738 59.6469 10.0329C59.4814 10.1394 59.4814 10.1867 59.6824 10.5415C59.8007 10.7543 59.9426 10.9199 59.9899 10.9199C60.049 10.9199 60.1791 10.8608 60.2856 10.8016C60.4038 10.7307 60.7468 10.5769 61.0542 10.4468C61.3735 10.3168 61.6219 10.1394 61.6219 10.0684C61.6219 9.98563 61.5391 9.79641 61.4445 9.6545C61.3499 9.50076 61.1607 9.3825 61.0306 9.3825C60.9005 9.3825 60.7704 9.31155 60.7468 9.24059C60.7113 9.15781 60.7586 8.95677 60.8414 8.7912Z" fill="#FDFDFD"/>
<path d="M105.946 11.594C106.253 11.4166 106.738 11.1919 107.034 11.1091C107.329 11.0145 107.873 10.9317 108.24 10.9317C108.618 10.9199 109.162 10.9908 109.458 11.0736C109.754 11.1446 109.99 11.2865 109.99 11.3693C109.99 11.4402 109.919 11.5112 109.836 11.5112C109.766 11.5112 109.316 11.7004 108.867 11.9369C108.417 12.1734 107.802 12.54 107.507 12.7529C107.211 12.9658 106.573 13.5571 106.088 14.0774C105.603 14.5978 104.905 15.4611 104.538 16.0169C104.172 16.5609 103.557 17.2941 103.178 17.6489C102.753 18.0273 101.949 18.5595 101.156 18.9734C100.423 19.3636 99.8199 19.7184 99.8199 19.7894C99.8199 19.8603 100.104 20.0496 100.435 20.2151C100.778 20.3925 101.44 20.7473 101.889 21.0075C102.339 21.2795 102.954 21.7052 103.238 21.9654C103.521 22.2374 103.971 22.7695 104.231 23.1598C104.503 23.5501 104.917 24.1414 105.177 24.4607C105.425 24.7918 105.958 25.3831 106.36 25.797C106.762 26.2109 107.471 26.7904 107.921 27.0979C108.37 27.4053 109.044 27.7719 109.399 27.9138C109.754 28.0558 110.038 28.2213 110.026 28.2686C110.014 28.3159 109.801 28.4342 109.553 28.5051C109.304 28.5879 108.749 28.6589 108.299 28.6589C107.72 28.6589 107.294 28.5761 106.714 28.3396C106.265 28.174 105.615 27.8074 105.26 27.5354C104.905 27.2634 104.231 26.6366 103.782 26.1636C103.332 25.6787 102.634 24.8864 102.244 24.3897C101.854 23.893 101.192 23.0534 100.766 22.5094C100.34 21.9654 99.6307 21.1257 98.3416 19.7657L99.1694 18.9143C99.6307 18.453 100.6 17.3059 101.334 16.3598C102.067 15.4138 103.001 14.2666 103.403 13.8054C103.805 13.356 104.42 12.7411 104.763 12.4454C105.106 12.1616 105.638 11.7832 105.946 11.594Z" fill="#FDFDFD"/>
<path d="M115.761 11.3101C115.749 11.2392 115.939 11.1328 116.199 11.0618C116.459 11.0027 116.968 10.9435 117.322 10.9317C117.677 10.9317 118.233 10.9908 118.564 11.0736C118.883 11.1564 119.475 11.4166 119.865 11.6531C120.255 11.8896 120.811 12.2917 121.107 12.5519C121.402 12.8002 122.065 13.5098 122.597 14.1247C123.117 14.7397 123.969 15.7922 124.489 16.4663C124.997 17.1522 125.861 18.1574 126.393 18.7132C126.925 19.269 127.363 19.7539 127.374 19.7894C127.374 19.8249 126.937 20.2979 126.393 20.8537C125.861 21.4095 124.938 22.4975 124.347 23.2781C123.744 24.0586 122.786 25.2293 122.206 25.8798C121.556 26.6248 120.823 27.2871 120.279 27.6655C119.794 27.9966 119.084 28.3514 118.706 28.4578C118.339 28.5643 117.736 28.6589 117.381 28.6589C117.027 28.6589 116.495 28.5879 116.199 28.5051C115.903 28.4342 115.667 28.3278 115.667 28.2686C115.667 28.2213 115.809 28.1267 115.986 28.0676C116.175 27.9966 116.577 27.8074 116.908 27.63C117.228 27.4645 117.843 27.0742 118.257 26.7785C118.682 26.4829 119.309 25.9153 119.664 25.525C120.019 25.1347 120.657 24.3069 121.107 23.692C121.544 23.077 122.159 22.3083 122.478 21.989C122.798 21.6697 123.436 21.2085 123.886 20.9602C124.335 20.7 124.974 20.3808 125.281 20.227L125.281 20.2269C125.648 20.0614 125.837 19.9076 125.813 19.7894C125.79 19.6948 125.258 19.34 124.631 19.0207C124.004 18.7014 123.247 18.2402 122.928 18.0155C122.561 17.7553 121.864 16.9393 121 15.7685C120.042 14.5032 119.356 13.7108 118.741 13.1905C118.221 12.7529 117.429 12.2444 116.826 11.9487C116.258 11.6767 115.773 11.3929 115.761 11.3101Z" fill="#FDFDFD"/>
<path d="M110.227 18.1574C110.227 18.1597 110.227 18.1622 110.227 18.1649C110.242 18.0501 110.867 18.0155 112.888 18.0155C114.579 18.0155 115.548 18.0628 115.548 18.1337C115.548 18.2047 115.454 18.4294 115.324 18.6304C115.205 18.8433 114.697 19.7421 114.2 20.6172C113.704 21.4923 113.29 22.2374 113.29 22.2728C113.302 22.3083 113.207 22.4502 112.888 22.876L112.497 22.2847C112.296 21.9535 112.119 21.6579 112.119 21.6224C112.119 21.5869 112.024 21.4214 111.906 21.244C111.776 21.0548 111.468 20.5108 111.208 20.0259C110.948 19.541 110.617 18.9497 110.475 18.725C110.349 18.5067 110.233 18.2549 110.227 18.1649C110.227 18.1663 110.227 18.1678 110.227 18.1692V18.1574Z" fill="#FDFDFD"/>
<path d="M11.4202 10.9793L11.4202 10.9793C11.8696 10.8729 12.5673 10.8256 13.3124 10.8492C13.9628 10.8729 14.7433 10.9557 15.0508 11.0266C15.4647 11.1212 15.6185 11.2158 15.6185 11.3577C15.6303 11.4997 15.3583 11.7125 14.8261 11.9845C14.1047 12.363 13.951 12.3984 13.0167 12.3984C12.118 12.3984 11.9169 12.3511 11.2074 12.02C10.6161 11.7244 10.415 11.5706 10.415 11.3932C10.415 11.2631 10.486 11.1567 10.5569 11.1449C10.6397 11.1449 11.03 11.0621 11.4202 10.9793Z" fill="#FC5B31"/>
<path d="M62.272 11.3341C62.4021 11.2868 62.8042 11.204 63.159 11.1449C63.5138 11.0976 64.3179 11.0739 64.9329 11.0976C65.5478 11.1331 66.3165 11.2277 66.6476 11.3223C66.9669 11.4051 67.5583 11.6061 67.9367 11.7598C68.3269 11.9136 68.6581 12.1146 68.6817 12.1856C68.7054 12.3038 67.8302 12.3511 64.6017 12.363C62.343 12.3866 60.4272 12.3866 60.3444 12.363C60.2734 12.3511 60.2025 12.3038 60.2025 12.2447C60.2025 12.1974 60.6164 11.9964 61.1131 11.7835C61.6216 11.5824 62.1419 11.3814 62.272 11.3341Z" fill="#FC5B31"/>
<path d="M15.4411 12.8597C15.7722 12.6586 16.1861 12.3275 16.3753 12.1146C16.5645 11.9136 16.7419 11.748 16.7656 11.748C16.7892 11.748 16.9666 11.8308 17.1558 11.9254C17.345 12.02 17.5106 12.1619 17.5106 12.221C17.5106 12.2802 17.3805 12.5403 17.2268 12.7887C17.073 13.0252 16.7064 13.451 16.399 13.7348C16.1033 14.0068 15.6539 14.3379 15.4174 14.4562C15.1691 14.5744 14.6487 14.7755 14.2585 14.8819C13.7618 15.0356 13.3124 15.0711 12.7211 15.0356C12.2717 15.0002 11.574 14.8464 11.1837 14.6927C10.7934 14.5389 10.2258 14.2196 9.91832 13.9713C9.59902 13.7229 9.18511 13.2972 8.99589 13.0252C8.79485 12.7414 8.64111 12.4221 8.64111 12.3157C8.64111 12.1974 8.78302 12.0318 8.94859 11.9609C9.14963 11.8544 9.30337 11.8426 9.39797 11.9254C9.48076 11.9845 9.87101 12.292 10.2494 12.5995C10.6515 12.9306 11.2192 13.2499 11.5976 13.3682C11.9524 13.4864 12.591 13.581 13.0167 13.581C13.4425 13.581 14.0219 13.5101 14.3176 13.4155C14.6132 13.3209 15.1218 13.0725 15.4411 12.8597Z" fill="#FC5B31"/>
<path d="M7.3166 13.4391C7.30477 13.3327 7.39938 13.1435 7.51764 13.0252C7.6359 12.907 7.77781 12.8123 7.82512 12.8123C7.88425 12.8123 8.1799 13.1908 8.4992 13.6638C8.80667 14.125 9.26789 14.6809 9.52806 14.8937C9.78823 15.1066 10.3795 15.4495 10.8289 15.6742C11.5148 15.9935 11.8223 16.0645 12.662 16.1C13.2178 16.1355 13.9628 16.0881 14.3176 16.0054C14.6724 15.9344 15.311 15.6624 15.7367 15.4141C16.1624 15.1657 16.7301 14.7282 17.0139 14.4207C17.2859 14.125 17.617 13.6638 17.7471 13.4036C17.8772 13.1435 18.0664 12.8951 18.161 12.8478C18.2675 12.7887 18.433 12.836 18.575 12.9897C18.7169 13.1198 18.8233 13.2972 18.8115 13.3682C18.8115 13.451 18.6459 13.853 18.4449 14.2551C18.2083 14.7282 17.759 15.3076 17.2268 15.828C16.7419 16.3128 16.1151 16.7977 15.7367 16.9751C15.3819 17.1525 14.8261 17.3535 14.495 17.4245C14.1757 17.5073 13.4543 17.5664 12.8985 17.5664C12.1771 17.5664 11.6804 17.4954 11.1246 17.3062C10.6988 17.1643 10.0721 16.8568 9.71728 16.6085C9.3625 16.372 8.83033 15.9108 8.53468 15.5796C8.23903 15.2367 7.84877 14.669 7.67138 14.3024C7.48216 13.9358 7.32842 13.5456 7.3166 13.4391Z" fill="#FC5B31"/>
<path d="M58.3103 13.6402L60.4153 13.6047C61.5625 13.581 64.3416 13.5692 70.6685 13.6047L71.1179 14.125C71.3544 14.4089 71.5554 14.6809 71.5554 14.7282C71.5554 14.7873 71.4845 14.8464 71.4135 14.8582C71.3307 14.8819 68.1968 14.8937 64.4598 14.8701C60.7228 14.8582 57.6244 14.8464 57.5771 14.8346C57.518 14.8228 57.4825 14.7873 57.4825 14.74C57.4825 14.6809 57.6599 14.4207 58.3103 13.6402Z" fill="#FC5B31"/>
<path d="M18.1256 16.2419C18.4094 15.8871 18.7878 15.2249 18.977 14.7873C19.1544 14.3497 19.3555 13.9949 19.4146 13.9949C19.4737 13.9949 19.6038 14.125 19.6984 14.2906C19.793 14.4562 19.8522 14.7636 19.8285 14.9765C19.8049 15.1775 19.6275 15.6979 19.4264 16.1236C19.2254 16.5494 18.8233 17.188 18.5395 17.5427C18.2556 17.8975 17.6643 18.477 17.2031 18.8081C16.7537 19.1511 16.0324 19.565 15.583 19.7306C15.1454 19.8961 14.3531 20.0853 13.8091 20.1445C13.0522 20.2391 12.6265 20.2273 11.8341 20.0853C11.2783 19.9907 10.486 19.7424 10.0602 19.5413C9.63449 19.3403 9.05502 18.9855 8.75937 18.749C8.46372 18.5125 8.07346 18.1577 7.89607 17.9685C7.70686 17.7674 7.38755 17.3654 7.18651 17.0697C6.98547 16.7741 6.70165 16.2301 6.54791 15.8516C6.39417 15.485 6.27591 15.0475 6.27591 14.8819C6.27591 14.7163 6.32321 14.4798 6.39417 14.3497C6.46513 14.2196 6.59521 14.1132 6.68982 14.1132C6.79625 14.1132 6.92634 14.3142 7.02095 14.6099C7.10373 14.8937 7.37573 15.4141 7.60042 15.7688C7.83694 16.1236 8.28633 16.6676 8.60563 16.9633C8.91311 17.2589 9.4098 17.6492 9.70545 17.8384C10.0011 18.0276 10.6279 18.2996 11.0891 18.4533C11.7159 18.6544 12.2362 18.7253 12.9813 18.7253C13.5607 18.7253 14.3294 18.6426 14.696 18.548C15.0745 18.4533 15.6303 18.2405 15.9378 18.0749C16.2571 17.9212 16.7537 17.5901 17.0612 17.3417C17.3687 17.0934 17.8417 16.5967 18.1256 16.2419Z" fill="#FC5B31"/>
<path d="M20.0887 16.0527C20.0769 15.9226 20.1123 15.7688 20.1715 15.7334C20.2306 15.6861 20.3015 15.6506 20.337 15.6506C20.3725 15.6388 20.4671 15.7097 20.5381 15.7925C20.609 15.8753 20.7628 16.2892 20.8928 16.7149C21.0584 17.2826 21.1175 17.8502 21.1175 18.9027C21.1175 20.0735 21.0702 20.4638 20.8337 21.1497C20.6918 21.5991 20.4553 22.1904 20.3252 22.4505C20.1833 22.7107 19.8876 23.2192 19.6393 23.574C19.4028 23.9288 18.8824 24.5201 18.4922 24.8749C18.0901 25.2296 17.3569 25.75 16.8484 26.0102C16.328 26.2822 15.5475 26.6015 15.0863 26.7079C14.5659 26.838 13.7972 26.9089 13.0167 26.9089C12.2717 26.9089 11.4912 26.8262 11.0654 26.7197C10.6752 26.6133 9.9538 26.3295 9.46893 26.0929C8.98406 25.8446 8.23903 25.3597 7.82512 24.9931C7.41121 24.6383 6.84356 24.0234 6.57156 23.6331C6.28774 23.2429 5.93296 22.6516 5.76739 22.3323C5.61365 22.0012 5.37713 21.4217 5.25887 21.0314C5.10514 20.5229 5.04601 19.9316 5.03418 18.9619C5.03418 18.2168 5.10514 17.3062 5.17609 16.9514C5.25887 16.5967 5.42444 16.1709 5.77922 15.7097L5.92113 16.0645C5.99209 16.2655 6.25226 16.8214 6.48878 17.3062C6.79625 17.933 7.18651 18.4533 7.81329 19.092C8.33363 19.6123 9.01954 20.1681 9.46893 20.4165C9.89467 20.653 10.6515 20.9486 11.16 21.0787C11.7277 21.2325 12.4373 21.3271 13.0404 21.3271C13.6672 21.3271 14.3412 21.2443 14.9089 21.0787C15.3938 20.9486 16.1624 20.6412 16.6118 20.4046C17.1558 20.1208 17.7471 19.6596 18.3148 19.0801C18.9652 18.4179 19.3082 17.9567 19.6511 17.2471C19.8995 16.7268 20.1005 16.1946 20.0887 16.0527Z" fill="#FC5B31"/>
<path d="M62.5204 16.3956C62.8397 16.1828 63.3364 15.9581 63.632 15.8989C63.9277 15.8398 64.3298 15.7925 64.519 15.7807C64.7082 15.7688 65.1457 15.8398 65.4769 15.9108C65.808 15.9935 66.352 16.2537 66.6831 16.4784C67.0261 16.7031 67.4518 17.1052 67.641 17.3654C67.8302 17.6255 68.0786 18.0749 68.185 18.3706C68.3033 18.6899 68.3861 19.2457 68.3861 19.7306C68.3861 20.3219 68.3151 20.7239 68.1259 21.1497C67.984 21.469 67.7238 21.9184 67.5464 22.1431C67.3809 22.3559 66.9788 22.7107 66.6476 22.9118C66.3283 23.1246 65.7962 23.373 65.465 23.4557C65.1339 23.5385 64.5899 23.5858 64.2233 23.5504C63.8685 23.5149 63.2772 23.3611 62.9225 23.1956C62.5677 23.03 62.071 22.6871 61.8108 22.4387C61.5625 22.1785 61.2195 21.6818 61.0539 21.3271C60.8529 20.9132 60.7228 20.4046 60.6992 19.9079C60.6637 19.364 60.711 18.95 60.8647 18.4888C60.983 18.134 61.2668 17.6019 61.5033 17.3062C61.7399 17.0106 62.1892 16.5967 62.5204 16.3956Z" fill="#FC5B31"/>
<path d="M58.2867 16.4429C58.1684 16.2655 58.0974 16.0763 58.1211 16.0172C58.1447 15.9699 58.8188 15.9108 59.5993 15.8989C60.4508 15.8989 61.0539 15.9344 61.0894 16.0054C61.1249 16.0763 61.0894 16.1473 61.0303 16.1828C60.9712 16.2182 60.711 16.5494 60.4508 16.916C60.2025 17.2944 59.9423 17.8029 59.8595 18.0394C59.7886 18.2878 59.6703 18.5125 59.6112 18.548C59.552 18.5834 59.2682 18.1932 58.9962 17.6847C58.7242 17.188 58.4049 16.6321 58.2867 16.4429Z" fill="#FC5B31"/>
<path d="M68.457 16.7149C68.2087 16.3838 68.0076 16.0763 68.0076 16.0054C68.0076 15.9344 68.5635 15.8871 69.4268 15.8871C70.2546 15.8871 70.8695 15.9344 70.905 16.0054C70.9405 16.0763 70.6567 16.6676 70.2901 17.3181C69.9116 17.9803 69.545 18.5243 69.4859 18.5125C69.4268 18.5125 69.2612 18.2405 69.1311 17.9094C69.001 17.5664 68.6935 17.0342 68.457 16.7149Z" fill="#FC5B31"/>
<path d="M56.158 17.3654L56.4182 16.6794C56.5601 16.3128 56.7138 16.0054 56.7493 16.0054C56.7966 15.9935 57.2223 16.6794 57.7072 17.5073C58.1921 18.3351 59.2091 20.0853 59.966 21.3862C60.7228 22.6871 61.6571 24.3072 62.0355 24.9813C62.4258 25.6672 62.8751 26.4359 63.0289 26.6961C63.1826 26.9681 63.4073 27.3583 63.5256 27.5594C63.6557 27.7722 63.7503 28.0324 63.7503 28.127C63.7503 28.2689 63.6438 28.2926 63.2536 28.2335C62.9698 28.198 62.6623 28.1507 62.5677 28.127C62.4731 28.1034 62.1538 27.6895 61.8699 27.2164C61.5861 26.7434 61.1722 26.0693 60.9593 25.7263C60.7346 25.3952 60.5573 25.0877 60.5573 25.0523C60.5573 25.0168 60.3917 24.7093 60.1906 24.3664C59.9778 24.0352 59.3037 22.8763 58.6887 21.8001C58.062 20.7239 57.246 19.293 56.158 17.3654Z" fill="#FC5B31"/>
<path d="M70.905 18.2523C71.1888 17.7674 71.5909 17.0815 71.792 16.7386C71.993 16.4075 72.2059 16.1236 72.2768 16.1236C72.336 16.1236 72.4897 16.3601 72.6198 16.6558C72.7499 16.9514 72.8563 17.2707 72.8563 17.3654C72.8563 17.46 72.4542 18.205 71.9693 19.021C71.4845 19.837 71.0824 20.5111 71.0824 20.5229C71.0824 20.5466 70.7394 21.1615 70.3137 21.8829C69.888 22.6161 69.545 23.2429 69.545 23.2784C69.545 23.3138 69.3676 23.6213 69.1548 23.9524C68.9301 24.2954 68.5871 24.8749 68.3979 25.2296C68.1968 25.5844 67.7711 26.3295 67.4636 26.8735C67.1443 27.4175 66.7777 27.9378 66.6476 28.0206C66.5176 28.1152 66.1628 28.2216 65.8435 28.2689C65.335 28.3517 65.2877 28.3399 65.2758 28.127C65.2758 27.9969 65.3586 27.8077 65.465 27.7131C65.5715 27.6185 65.6424 27.5002 65.6424 27.4529C65.6306 27.4175 66.695 25.5253 68.0076 23.2547L68.0108 23.2492C69.3224 20.9923 70.6332 18.7368 70.905 18.2523Z" fill="#FC5B31"/>
<path d="M55.886 20.5347C55.8505 20.1918 55.8505 19.8843 55.8978 19.8488C55.9569 19.8133 56.0515 19.8488 56.1343 19.9316C56.2053 20.0144 56.9267 21.2325 57.719 22.6279C58.5232 24.0234 59.3037 25.407 59.4693 25.7027C59.6348 25.9983 59.8595 26.3768 59.9778 26.5542C60.1079 26.7434 60.2025 26.9326 60.2025 27.0035C60.2025 27.0745 60.1433 27.1218 60.0842 27.1218C60.0251 27.1218 59.6112 26.838 59.1736 26.4832C58.7242 26.1403 58.062 25.4662 57.6954 24.9813C57.3288 24.4964 56.8912 23.8105 56.7375 23.4557C56.5719 23.101 56.3354 22.4269 56.2053 21.9775C56.0752 21.5163 55.9333 20.8659 55.886 20.5347Z" fill="#FC5B31"/>
<path d="M72.1822 21.1733C72.5606 20.5466 72.8563 19.9789 72.8563 19.9079C72.8563 19.837 72.9391 19.7897 73.0337 19.7897C73.1756 19.7897 73.1874 19.9316 73.1401 20.582C73.0928 21.0314 72.9154 21.8474 72.7262 22.4151C72.5252 23.0418 72.1231 23.846 71.7565 24.4255C71.4017 24.9695 70.8577 25.6436 70.5266 25.9392C70.2073 26.2349 69.7224 26.6251 69.4504 26.8262C69.1784 27.0272 68.9301 27.1455 68.8946 27.0863C68.8591 27.039 69.3322 26.1403 69.9471 25.0759L69.9566 25.0593C70.5566 24.0123 71.154 22.9697 71.2834 22.7462C71.4135 22.5215 71.8156 21.8119 72.1822 21.1733Z" fill="#FC5B31"/>
<path d="M63.7266 25.8683C63.3482 25.2178 63.0525 24.6265 63.0525 24.5437C63.0525 24.4373 63.1353 24.4255 63.3718 24.4846C63.5492 24.5437 64.0578 24.5792 64.519 24.5792C64.9802 24.5792 65.5242 24.5437 65.737 24.4846C65.9736 24.4373 66.1155 24.4491 66.1155 24.5201C66.1155 24.591 65.7843 25.1823 65.3823 25.8446C64.9684 26.5069 64.5781 27.039 64.519 27.039C64.4598 27.039 64.0932 26.5069 63.7266 25.8683Z" fill="#FC5B31"/>
<path d="M62.9339 17.7554C63.1586 17.578 63.466 17.3888 63.6316 17.3179C63.7972 17.2587 64.2111 17.1996 64.5422 17.1996C64.9325 17.1878 65.3345 17.2706 65.6065 17.4125C65.8549 17.5307 66.2333 17.8264 66.4344 18.0629C66.6472 18.2994 66.8719 18.6897 66.9429 18.938C67.002 19.1745 67.0611 19.5293 67.0611 19.7304C67.0493 19.9314 66.9902 20.2744 66.9074 20.4991C66.8246 20.7238 66.6354 21.0785 66.4698 21.2914C66.3043 21.5043 65.9613 21.7763 65.7011 21.9064C65.3937 22.0719 64.9916 22.1547 64.5422 22.1547C64.1165 22.1547 63.7026 22.0719 63.4306 21.93C63.1822 21.8117 62.8156 21.5279 62.6264 21.3032C62.4372 21.0667 62.2007 20.6764 62.1297 20.4281C62.0469 20.1679 61.976 19.8131 61.976 19.6121C61.976 19.4111 62.106 18.9972 62.248 18.666C62.4017 18.3467 62.7092 17.9328 62.9339 17.7554Z" fill="#FDFDFD"/>
<path d="M6.78401 21.0667C6.63027 20.6173 6.51201 20.1916 6.51201 20.1206C6.50019 20.0142 6.57114 20.026 6.71306 20.1561C6.83132 20.2507 7.1861 20.5582 7.51722 20.8302C7.83653 21.0904 8.53426 21.5279 9.0546 21.7881C9.57495 22.0483 10.3436 22.3557 10.7694 22.474C11.3252 22.6277 11.952 22.675 13.0754 22.675C13.9151 22.675 14.8493 22.6041 15.145 22.5213C15.4406 22.4385 16.0201 22.2375 16.4459 22.0601C16.8716 21.8945 17.5102 21.5752 17.865 21.3387C18.2198 21.114 18.7401 20.7119 19.0239 20.4518C19.2959 20.1798 19.5679 20.0024 19.6152 20.0615C19.6625 20.1088 19.5679 20.5345 19.4024 21.0076C19.2368 21.4688 18.882 22.1783 18.6337 22.5568C18.3735 22.947 17.8886 23.5029 17.5693 23.7985C17.2382 24.0942 16.5996 24.5436 16.1502 24.7801C15.6417 25.0402 14.9321 25.2886 14.3172 25.4068C13.6313 25.5488 13.0873 25.5842 12.6024 25.5369C12.2121 25.4896 11.6563 25.395 11.3607 25.3241C11.065 25.2531 10.4619 25.0048 10.0007 24.7682C9.5513 24.5317 8.91269 24.0942 8.58156 23.7985C8.26226 23.5029 7.7774 22.947 7.52905 22.5568C7.26888 22.1783 6.93775 21.5043 6.78401 21.0667Z" fill="#FDFDFD"/>
</g>
<defs>
<clipPath id="clip0_1058_140691">
<rect width="26" height="38" fill="white"/>
</clipPath>
</defs>
</svg>
