<svg width="32" height="32" viewBox="0 0 32 32" fill="none" xmlns="http://www.w3.org/2000/svg">
<path d="M13.8102 2.1898L2.18978 13.8102C0.980397 15.0196 0.980397 16.9804 2.18978 18.1898L13.8102 29.8102C15.0196 31.0196 16.9804 31.0196 18.1898 29.8102L29.8102 18.1898C31.0196 16.9804 31.0196 15.0196 29.8102 13.8102L18.1898 2.1898C16.9804 0.980415 15.0196 0.980416 13.8102 2.1898Z" fill="#0E1C15"/>
<path d="M16.0356 25.1629C21.0965 25.1629 25.1991 21.0603 25.1991 15.9994C25.1991 10.9386 21.0965 6.83594 16.0356 6.83594C10.9748 6.83594 6.87216 10.9386 6.87216 15.9994C6.87216 21.0603 10.9748 25.1629 16.0356 25.1629Z" fill="#FDFDFD"/>
<path d="M18.7466 10.2734H13.4046C11.6943 10.2734 10.3078 11.6599 10.3078 13.3703V18.7123C10.3078 20.4226 11.6943 21.8091 13.4046 21.8091H18.7466C20.4569 21.8091 21.8434 20.4226 21.8434 18.7123V13.3703C21.8434 11.6599 20.4569 10.2734 18.7466 10.2734Z" fill="#0E1C15"/>
<path d="M16.0193 19.9778C18.2245 19.9778 20.0122 18.1902 20.0122 15.985C20.0122 13.7798 18.2245 11.9922 16.0193 11.9922C13.8142 11.9922 12.0265 13.7798 12.0265 15.985C12.0265 18.1902 13.8142 19.9778 16.0193 19.9778Z" fill="#FDFDFD"/>
<path d="M15.4191 14.9L15.0491 15.2701C14.6459 15.6732 14.6459 16.3268 15.0491 16.7299L15.4191 17.1C15.8223 17.5031 16.4759 17.5031 16.879 17.1L17.2491 16.7299C17.6522 16.3268 17.6522 15.6732 17.2491 15.2701L16.879 14.9C16.4759 14.4969 15.8223 14.4969 15.4191 14.9Z" fill="#0E1C15"/>
</svg>
