<svg width="35" height="35" viewBox="0 0 35 35" fill="none" xmlns="http://www.w3.org/2000/svg">
<path d="M22.2014 19.4359C22.0023 22.2827 17.7062 26.3772 16.7087 26.3074C15.7111 26.2376 12.0267 21.5852 12.2257 18.7383C12.5143 14.6124 17.9348 8.77237 17.9348 8.77237C17.9348 8.77237 22.4899 15.31 22.2014 19.4359Z" stroke="#FDFDFD" stroke-width="2" stroke-linecap="round" stroke-linejoin="round"/>
<path d="M13.2162 15.47C10.788 14.3464 8.2299 13.5475 5.60352 13.0927C5.60352 13.0927 5.74066 21.1663 8.37034 24.2732C10.2212 26.4757 15.9785 27.0026 16.7273 26.3294" stroke="#FDFDFD" stroke-width="2" stroke-linecap="round" stroke-linejoin="round"/>
<path d="M21.6741 16.0614C24.235 15.2867 26.8795 14.8517 29.5436 14.7667C29.5436 14.7667 28.2841 22.7428 25.2477 25.4534C23.1083 27.3768 17.3337 27.0974 16.6859 26.3266" stroke="#FDFDFD" stroke-width="2" stroke-linecap="round" stroke-linejoin="round"/>
</svg>
