<svg width="32" height="32" viewBox="0 0 32 32" fill="none" xmlns="http://www.w3.org/2000/svg">
<path d="M4 16C4 9.40228 9.40228 4 16 4C22.5977 4 28 9.40228 28 16C28 22.5977 22.5977 28 16 28C9.40228 28 4 22.5977 4 16Z" stroke="#0E1C15" stroke-width="2"/>
<path d="M16.1328 20.3334C11.2765 20.3334 8.52454 17.1098 8.41663 11.6667H10.8448C10.8987 15.6302 12.7334 17.3212 14.1363 17.6383V11.6667H16.4026V15.1017C17.8055 14.9432 19.2624 13.4107 19.748 11.6667H22.0143C21.6366 13.7806 20.0178 15.3659 18.8847 16.0001C20.0178 16.5285 21.8524 17.9025 22.5 20.3334H19.9639C19.4243 18.6952 18.0753 17.4269 16.2947 17.2155V20.3334H16.1328Z" fill="#0E1C15"/>
</svg>
